<svg width="709" height="661" viewBox="0 0 709 661" fill="none" xmlns="http://www.w3.org/2000/svg">
<g clip-path="url(#clip0_403_4977)">
<path d="M482.051 1.27877C479.29 2.0192 474.913 3.43274 472.287 4.37511C452.959 11.7121 442.588 14.4045 431.544 15.0777C416.93 15.8854 408.175 20.5972 403.394 30.0881C402.316 32.2421 400.498 37.0212 399.353 40.7234C398.074 44.8967 396.525 48.2623 395.38 49.6085C394.168 51.0221 390.06 53.5126 384.066 56.4743C363.594 66.6383 342.246 82.7932 305.611 115.843C291.334 128.767 289.246 130.45 281.232 135.229C272.68 140.345 262.78 149.162 237.796 173.933L215.438 196.011L179.543 195.675C152.471 195.405 141.966 195.069 136.915 194.261C116.038 191.098 108.63 194.53 94.1515 213.849C91.0537 218.089 87.6865 221.388 84.9254 223.003C84.5213 223.272 76.6421 225.023 67.416 226.907C48.2904 230.744 42.0948 232.292 24.7874 237.273C3.3721 243.399 -2.55415 244.61 -12.9251 244.61C-19.9288 244.61 -23.5654 244.274 -28.7509 243.129C-49.7621 238.418 -57.776 237.879 -80.2689 239.831C-94.8824 241.11 -106.802 242.052 -121.685 242.995C-146.4 244.61 -151.653 246.428 -152.731 253.63C-153.337 257.736 -152.192 259.688 -147.949 261.842C-144.784 263.458 -143.976 263.525 -133.807 263.458C-121.147 263.39 -115.961 262.448 -99.5292 257.13C-84.1074 252.149 -81.077 251.543 -72.1876 251.543C-65.6553 251.543 -63.5003 251.88 -58.3821 253.428C-47.2704 256.861 -42.287 257.803 -32.4548 258.476C-22.3532 259.15 -16.427 260.428 -14.9454 262.111C-13.5985 263.794 -14.4067 265.477 -16.8984 266.217C-19.7942 267.092 -21.2757 270.189 -23.0267 279.208C-25.7878 293.546 -26.5959 319.326 -24.4409 324.913C-22.6226 329.692 -19.7268 326.394 -18.2453 317.913C-17.7065 315.018 -17.5718 309.566 -17.8412 302.633C-18.1779 293.277 -18.0432 291.325 -16.8984 287.757C-12.3863 273.016 9.09632 254.976 25.7976 251.745C28.0199 251.341 31.9932 251.072 34.687 251.207L39.4684 251.409L33.138 260.159C22.2284 275.17 21.6223 276.651 27.0098 276.651C32.1279 276.651 32.3973 277.862 29.7709 288.295C26.5384 301.421 23.3732 311.181 20.1407 318.316C15.2919 329.019 12.4635 338.308 9.3657 353.992C7.6821 362.406 7.34539 369.002 8.55757 370.483C9.76976 371.897 12.1941 371.829 13.4737 370.348C15.1573 368.464 17.1102 364.156 18.5918 359.107C20.6121 352.107 20.7468 350.895 21.7569 335.548C22.7671 319.663 23.7773 315.287 28.0199 308.96C32.3973 302.431 36.2359 301.96 36.2359 307.883C36.2359 309.364 35.4951 313.47 34.5523 316.903C33.0707 322.692 31.9259 330.702 30.1749 349.347C29.7709 353.588 28.9627 358.838 28.424 360.992C27.3465 365.367 27.4138 370.281 28.5587 370.685C29.5015 371.021 39.1316 348.472 40.8826 341.808C41.6234 339.116 42.3641 334.606 42.5662 331.779C43.8457 316.297 55.0921 291.594 62.6346 287.69C64.5876 286.68 64.7896 286.68 65.5977 287.757C68.9649 292.334 66.0691 322.961 60.749 338.375C57.2471 348.472 57.3145 348.741 63.0387 353.924C68.6282 358.905 68.6955 359.175 66.1365 366.714C63.0387 376.07 58.392 383.003 55.3615 383.003C53.3412 383.003 52.8698 379.637 54.082 373.647C54.8227 369.608 54.9574 367.791 54.4187 367.252C51.1188 363.954 44.5865 381.859 42.9702 398.619C41.8927 410.197 41.0173 414.572 38.9296 419.351C36.9766 423.861 34.7543 431.669 32.2626 442.978C31.4545 446.545 30.377 449.978 29.9055 450.651C29.0974 451.795 28.9627 451.661 28.1546 449.238C27.6832 447.824 26.8751 445.939 26.4037 445.064C25.5282 443.785 25.1915 443.651 23.9119 444.324C23.1038 444.795 21.2855 446.141 19.8713 447.353C16.3694 450.516 13.6084 450.516 12.2615 447.286C11.7901 446.007 11.3187 444.055 11.3187 442.978C11.3187 436.448 1.8232 437.929 -7.33555 446.007C-11.5782 449.709 -14.474 455.094 -13.8679 458.19C-12.8577 463.238 -7.60493 465.594 4.31492 466.469C21.8243 467.748 45.866 474.816 63.3754 483.768C71.0526 487.74 73.6116 490.028 72.9382 492.519C72.6688 493.596 72.1974 494.808 71.7934 495.211C70.7159 496.558 67.3487 496.288 66.6079 494.808C65.261 492.384 60.6816 491.173 51.5229 490.836C38.997 490.432 24.7874 492.452 11.6554 496.558C0.678354 499.991 -3.96837 503.423 -7.13352 510.222C-10.4334 517.222 -9.5579 517.963 0.543666 517.357C4.98835 517.088 7.95148 517.155 7.95148 517.492C7.95148 518.434 1.28444 521.799 -18.6493 530.954C-58.7188 549.397 -80.1342 559.629 -83.9728 562.254C-93.4682 568.648 -105.388 579.889 -106.264 583.255C-107.004 586.351 -106.196 587.159 -102.762 586.755C-100.405 586.486 -99.0578 585.88 -97.2395 584.063C-93.7376 580.63 -91.852 580.091 -84.9829 580.63C-78.3159 581.168 -74.0732 580.361 -67.8103 577.533C-61.6146 574.774 -59.3923 572.62 -59.3923 569.321C-59.3923 567.167 -59.1903 566.696 -58.1801 566.898C-56.6312 567.167 -55.419 570.937 -55.419 575.514C-55.3517 580.832 -54.2742 584.265 -52.6579 584.265C-51.7151 584.265 -51.1763 583.524 -50.7049 581.774C-50.3682 580.361 -49.7621 577.937 -49.2907 576.389C-48.5499 573.36 -45.6542 569.456 -44.2399 569.456C-42.2196 569.456 -42.0176 574.572 -43.9032 578.745C-47.7418 587.226 -61.884 594.967 -78.0465 597.39C-86.1278 598.602 -91.1785 598.602 -97.7782 597.458C-104.513 596.246 -109.294 594.092 -114.21 590.121C-121.955 583.861 -132.258 580.226 -142.494 580.159C-151.047 580.159 -154.212 582.38 -152.529 587.428C-151.923 589.111 -151.451 589.38 -148.219 589.784C-135.625 591.534 -128.689 594.294 -124.177 599.41C-121.079 602.977 -120.338 605.67 -121.618 608.766C-122.965 611.93 -125.591 613.545 -134.548 616.642C-143.841 619.805 -147.343 621.488 -148.219 623.238C-149.094 624.854 -147.949 629.027 -146.131 630.844C-144.178 632.796 -140.542 632.19 -125.726 627.344C-109.563 622.094 -97.0374 618.863 -88.0134 617.517C-75.8915 615.766 -59.9984 609.708 -34.4751 596.987C-8.14369 583.793 10.1738 572.485 20.4101 563.061C22.2957 561.379 26.9424 557.811 30.8484 555.186C40.0745 548.859 44.2498 545.359 47.7516 540.647C51.7249 535.329 55.0921 531.829 57.3145 530.685C58.3246 530.146 61.8265 528.934 65.059 527.992C79.7399 523.752 90.3802 517.963 97.9227 510.02C100.684 507.126 106.947 499.452 111.796 492.855C126.207 473.402 127.487 471.72 132.672 466.402C140.619 458.19 149.441 452.334 156.781 450.315C158.465 449.843 163.92 449.372 168.903 449.305C183.113 449.036 193.888 445.468 196.649 440.218C199.006 435.843 208.973 427.496 221.835 419.149C231.735 412.822 239.143 408.985 246.82 406.293C256.248 403.062 258.403 401.85 262.309 397.542C266.08 393.436 269.784 387.378 275.643 375.599C283.657 359.444 287.63 354.059 295.105 349.011C298.068 346.991 301.974 344.231 303.725 343.02C307.092 340.597 311.941 339.452 325.006 337.904C342.717 335.885 371.204 335.817 373.157 337.904C374.302 338.981 372.012 340.731 359.823 348.203C345.411 357.021 334.905 365.098 324.4 375.599C314.096 385.83 308.507 392.628 301.032 403.87C289.179 421.64 276.182 451.257 272.208 469.498C270.659 476.835 270.592 491.24 272.208 498.308C275.643 513.857 286.014 535.194 301.907 559.359C333.357 607.218 375.716 637.575 433.968 653.932C451.881 659.048 473.836 661.471 494.51 660.798C514.646 660.058 530.135 657.163 542.324 651.845C549.732 648.547 560.238 644.71 570.272 641.614C593.505 634.344 614.045 623.844 633.575 609.103C674.453 578.274 702.333 534.252 707.99 491.442C710.953 469.364 706.98 448.834 696.407 431.265C694.656 428.371 690.346 422.851 686.911 419.082C677.82 409.12 673.038 403.062 669.873 397.61C661.253 382.801 654.317 373.916 641.05 360.79C634.652 354.463 629.4 349.953 626.234 348.001C615.392 341.27 611.217 338.375 606.368 333.798C599.97 327.807 593.707 319.595 590.542 312.999C588.387 308.489 588.118 307.412 588.185 302.566C588.253 293.277 594.112 268.169 598.96 256.457C604.55 242.927 605.493 239.293 606.637 225.09C607.042 219.84 608.119 212.233 609.062 208.262C610.005 204.223 611.082 199.377 611.486 197.559C612.496 192.511 611.756 180.799 610.139 176.289C608.186 170.769 608.994 168.683 617.076 159.192C627.043 147.547 632.295 137.181 632.43 129.305C632.497 119.209 626.706 113.218 612.025 108.237C596.671 103.054 596.671 99.9576 612.294 76.3985C626.234 55.4646 627.312 51.2913 620.376 45.1659C612.564 38.3002 585.222 27.463 557.14 20.1933C541.92 16.2219 537.812 15.4815 527.239 14.8084C515.858 14.068 513.366 13.1256 504.814 6.73101C501.851 4.50973 498.483 2.15382 497.339 1.54802C494.173 -0.067459 487.843 -0.202082 482.051 1.27877ZM495.655 14.1353C500.975 15.6161 504.006 19.7222 504.948 26.4533C505.622 30.8959 508.922 38.2328 515.656 50.0797C517.878 54.1184 519.697 57.484 519.562 57.6186C519.495 57.7532 513.905 58.4263 507.305 59.1668C494.039 60.7149 481.445 60.9842 478.146 59.8399C475.923 59.0994 475.048 57.1474 473.229 49.1373C471.479 41.1272 468.313 37.829 462.926 38.6367C461.377 38.8387 458.549 39.4445 456.528 39.9829C454.575 40.5888 450.198 41.1946 446.763 41.3965C435.382 42.1369 434.237 42.6754 434.237 47.118C434.237 50.6855 433.16 53.176 431.678 53.176C428.917 53.176 417.604 43.2812 415.516 38.9733C412.755 33.4537 416.122 31.2998 430.87 29.0112C442.117 27.1937 451.343 24.5686 462.926 19.8568C467.775 17.8374 474.038 15.6161 476.731 14.8757C482.254 13.3949 491.614 13.0583 495.655 14.1353ZM542.661 25.9821C554.581 28.2034 582.663 37.5597 594.179 43.0793C605.829 48.6661 607.378 51.9644 601.452 58.0898C599.566 60.0418 596.671 63.6766 594.987 66.3018C593.303 68.8596 591.216 71.6867 590.34 72.4945C587.983 74.7157 584.212 76.062 580.508 76.062C574.38 76.062 570.878 73.5714 567.241 66.773C564.278 61.3207 558.891 57.8878 553.301 57.8878C549.732 57.9551 548.116 58.8302 545.018 62.465C542.122 65.8306 540.708 65.9652 538.418 63.2728C536.667 61.1861 531.145 50.3489 528.317 43.2812C521.919 27.463 525.758 22.7512 542.661 25.9821ZM412.014 62.5996C414.842 64.0132 416.997 67.1768 416.122 68.5231C415.381 69.7347 412.014 70.5424 403.394 71.6867C395.111 72.7637 384.403 73.0329 384.403 72.1579C384.403 70.6097 391.878 65.9652 398.882 63.2055C404.471 60.9169 408.445 60.7822 412.014 62.5996ZM536.937 83.4662C551.82 86.6299 565.221 92.486 575.525 100.294C582.73 105.746 589.33 109.583 604.819 117.189C620.847 124.998 622.935 127.353 618.894 133.008C614.719 138.729 608.658 142.902 602.327 144.518C593.64 146.605 582.394 143.912 564.211 135.296C547.24 127.286 539.9 125.469 527.172 126.075C519.023 126.478 511.009 128.094 496.867 132.2C485.284 135.565 475.519 137.248 463.128 137.989C444.676 139.133 435.854 141.691 424.809 149.162C421.711 151.249 419.22 152.326 416.391 152.865C409.724 154.143 407.031 155.355 402.519 159.259C400.161 161.278 397.468 163.096 396.525 163.298C393.225 163.971 391.811 164.913 391.811 166.26C391.811 167.942 394.437 169.289 396.727 168.683C397.602 168.481 399.421 167.404 400.835 166.327C402.653 164.846 404.337 164.24 407.165 163.904C415.853 163.029 416.728 162.759 418.883 161.009C420.701 159.461 421.644 159.192 425.415 159.192C431.14 159.192 431.342 160.067 426.83 165.586C425.011 167.942 423.462 170.433 423.462 171.173C423.462 171.914 425.685 174.808 428.513 177.635C433.295 182.616 435.719 186.52 435.113 188.27C434.641 189.617 431.14 189.28 426.762 187.395C419.152 184.232 416.661 186.453 420.836 192.713C423.328 196.55 426.291 198.906 429.523 199.713C432.486 200.521 433.497 202.877 432.217 205.906C430.399 210.349 427.772 210.012 421.846 204.694C417.604 200.858 415.583 200.05 412.62 201.262C410.263 202.271 408.984 204.493 408.445 208.666C407.973 212.435 406.559 213.647 401.441 214.657C396.592 215.599 394.505 216.945 394.505 219.166C394.505 220.445 395.043 221.051 396.862 221.859C398.141 222.33 399.757 222.801 400.498 222.801C404.337 222.801 407.367 226.302 407.435 230.879C407.502 234.581 406.155 237.475 403.798 238.687C400.498 240.37 386.625 241.11 372.685 240.37C358.543 239.562 352.145 238.687 346.825 236.869C341.303 234.985 340.158 235.187 336.993 238.552C333.424 242.456 331.471 243.197 326.487 242.389C320.022 241.312 315.712 242.927 315.712 246.36C315.712 248.716 317.598 250.332 320.831 250.87C324.939 251.476 330.191 254.438 344.67 264.131C359.89 274.362 362.853 275.641 373.763 276.583C380.901 277.189 385.683 278.67 386.289 280.487C386.423 280.959 385.279 281.901 383.73 282.709C377.871 285.67 373.628 290.921 373.628 295.094C373.628 298.931 378.814 302.229 384.942 302.229C388.713 302.229 391.137 303.239 391.137 304.854C391.137 306.874 388.107 308.287 381.979 309.095C367.634 311.047 333.895 304.989 322.784 298.527C321.302 297.652 318.069 295.363 315.578 293.344C313.086 291.392 308.574 288.295 305.476 286.478C302.378 284.661 297.799 281.834 295.24 280.083C292.681 278.401 289.852 276.449 288.842 275.843C284.869 273.15 283.253 275.237 285.138 280.824C286.889 286.142 286.149 291.459 282.849 298.325C275.037 314.278 254.093 333.933 238.402 340.125C234.227 341.741 231.869 342.212 226.482 342.481C215.842 342.953 206.548 340.058 195.504 332.856C189.578 329.019 177.927 317.038 173.146 309.903C168.634 303.104 167.287 299.738 166.142 292.132C163.92 277.391 169.913 252.822 179.207 238.956C183.651 232.36 186.951 229.667 196.851 224.821C204.595 220.984 208.232 218.628 217.391 211.56C226.415 204.56 231.802 199.511 246.618 184.434C280.896 149.566 297.193 133.613 301.234 130.988C306.419 127.555 313.759 121.901 321.437 115.372C333.02 105.612 347.095 97.4671 358.812 93.6976C373.695 88.9185 389.454 87.8415 414.371 89.8608C441.915 92.0821 473.364 89.8608 500.234 83.8028C504.14 82.9278 508.046 82.0527 508.989 81.8508C513.097 81.1103 530.404 82.0527 536.937 83.4662ZM584.414 161.413C588.455 163.432 589.195 164.846 587.714 168.346C585.087 174.808 564.346 187.597 549.059 192.242C543.738 193.857 541.785 194.059 533.569 194.127C525.219 194.194 523.67 193.992 520.37 192.646C515.521 190.694 511.009 186.655 511.009 184.232C511.009 182.818 511.615 182.145 513.568 181.135C516.329 179.722 523.939 177.366 534.58 174.606C543.806 172.25 553.099 168.414 558.285 164.913C560.574 163.365 563.47 161.615 564.75 161.077C571.147 158.384 578.555 158.519 584.414 161.413ZM596.671 185.847C599.836 187.53 600.913 195.877 598.624 200.992C597.95 202.541 596.064 205.031 594.448 206.579C590.071 210.82 572.359 222.532 565.221 225.898C555.187 230.677 550.069 231.821 538.62 231.821C530.068 231.821 528.047 231.619 522.121 230.004C518.35 228.994 514.174 227.311 512.693 226.302C503.063 219.638 517.609 212.031 543.671 210.079C550.405 209.608 552.628 209.137 556.668 207.387C563.335 204.56 572.831 198.973 579.633 193.723C582.73 191.434 586.636 188.472 588.253 187.261C591.418 185.039 594.179 184.501 596.671 185.847ZM187.557 206.041C189.78 206.848 190.453 207.791 190.453 210.012C190.453 212.637 188.096 215.868 179.274 225.628C164.728 241.649 160.283 247.572 155.3 257.467C149.037 269.785 146.343 280.891 146.343 294.152C146.343 307.883 148.498 317.441 154.087 328.682C164.997 350.424 183.18 365.502 211.868 376.608C220.017 379.705 224.731 382.532 226.617 385.426C227.425 386.705 227.425 387.042 226.549 387.917C225.135 389.263 220.69 390.003 216.919 389.398C214.697 389.061 213.35 388.388 212.003 386.907L210.117 384.888L200.42 385.022C187.692 385.292 188.096 385.359 189.78 383.676C191.531 381.926 191.463 380.849 189.712 379.233C188.5 378.156 187.355 377.955 182.304 378.089L176.311 378.224V374.858C176.311 370.281 174.762 367.252 170.183 362.742C165.873 358.569 159.408 355.069 154.222 354.059C146.949 352.713 136.376 356.146 131.595 361.463C128.429 365.031 128.362 367.117 131.527 368.935C134.423 370.685 134.49 371.897 131.864 376.474C129.372 380.984 129.238 383.003 131.46 383.003C132.335 383.003 137.117 380.984 142.033 378.56C151.326 373.916 157.32 371.56 159.744 371.56C160.956 371.56 160.822 371.897 158.667 373.781C155.569 376.541 154.761 378.156 154.761 381.859C154.761 385.695 156.646 388.119 160.35 389.128C164.862 390.34 165.064 390.676 164.526 396.263C164.189 400.167 164.256 401.244 164.997 401.514C165.805 401.85 173.752 399.696 178.129 398.013C179.678 397.408 179.072 400.1 176.311 405.754C173.348 411.745 172.809 415.313 174.829 415.313C176.446 415.313 178.466 413.832 184.123 408.649C186.749 406.225 190.857 403.062 193.214 401.648C201.161 397.004 202.036 398.888 195.571 406.899C189.241 414.774 181.362 422.649 178.668 423.794C172.472 426.352 166.007 424.4 142.976 412.957C122.234 402.725 120.011 401.042 112.671 390.071C109.169 384.82 105.061 379.839 100.819 375.599C95.3637 370.146 93.8821 368.262 91.5924 363.348C84.3866 348.337 80.7501 325.519 81.5582 300.21C82.1643 281.228 85.2621 264.131 90.1109 253.024C92.6699 247.235 93.4107 246.024 97.2493 240.975C98.8656 238.956 100.819 235.523 101.627 233.302C102.906 229.869 104.455 227.984 113.21 219.032L123.311 208.666H135.837C150.922 208.666 172.203 207.522 178.668 206.31C184.931 205.166 185.335 205.166 187.557 206.041ZM590.004 232.09C591.687 233.571 591.418 236.802 589.33 239.831C584.616 246.63 560.238 262.179 550.069 264.871C537.273 268.304 516.06 265.679 513.03 260.361C511.144 256.861 514.174 254.572 523.535 252.351C545.557 247.168 561.584 241.312 575.121 233.638C581.182 230.206 587.175 229.6 590.004 232.09ZM580.643 270.727C582.057 272.679 581.99 276.179 580.575 279.208C578.824 282.843 569.531 292.267 562.191 297.786C551.416 305.931 541.987 310.104 530.943 311.653C519.091 313.403 510.807 309.97 514.915 304.989C515.521 304.181 521.044 300.95 527.172 297.786C541.449 290.449 553.369 283.247 562.595 276.516C571.08 270.323 572.898 269.381 576.804 269.314C578.959 269.246 579.835 269.583 580.643 270.727ZM575.727 329.086C577.612 330.231 580.575 333.394 583.539 337.298C586.098 340.799 590.34 345.645 592.967 348.068C597.007 351.838 598.691 352.847 604.752 355.338C616.874 360.184 622.127 363.886 636.605 377.685C647.313 387.984 652.027 394.917 658.492 410.264C664.284 424.063 668.055 429.179 676.271 434.564L681.389 437.862L681.322 457.382C681.322 485.788 680.312 514.53 679.167 518.972C678.628 520.992 676.069 526.848 673.442 531.964C670.749 537.079 667.853 543.945 666.91 547.109C662.802 560.975 661.59 564.475 658.762 569.995C655.192 577.062 654.384 578.005 650.074 580.495C648.256 581.572 642.868 585.342 638.087 588.775C625.224 598.265 622.396 599.477 618.759 597.39C616.402 596.044 612.227 596.179 607.917 597.66C598.287 600.958 566.905 616.17 566.905 617.517C566.905 620.882 547.51 630.171 533.165 633.671C521.515 636.498 515.993 636.498 513.703 633.604C511.211 630.373 513.703 628.69 522.525 627.681C527.913 627.075 528.317 626.402 528.653 617.92C528.855 611.189 529.057 610.516 531.751 604.862C533.3 601.631 534.58 598.265 534.58 597.39C534.58 594.563 531.886 592.342 523.872 588.573C512.154 583.053 511.548 582.716 511.144 581.707C510.673 580.428 511.952 579.755 521.919 576.053C531.28 572.687 534.31 570.87 535.32 568.244C536.263 565.754 534.849 562.186 532.29 560.638C529.664 559.023 527.778 559.023 525.758 560.638C522.188 563.331 519.427 564.34 515.05 564.34C508.989 564.34 504.948 562.052 504.948 558.686C504.948 555.388 502.861 554.311 495.857 554.109C488.314 553.772 482.658 554.849 480.166 557.003C477.876 559.023 478.415 560.1 483.062 563.196C486.968 565.754 488.786 568.379 488.786 571.341C488.786 573.697 487.776 576.187 486.496 576.995C484.274 578.476 473.836 576.726 463.869 573.158C452.555 569.052 440.972 562.321 440.972 559.696C440.972 558.148 442.992 557.946 454.643 558.417C464.34 558.821 466.024 558.754 465.754 557.946C465.081 555.725 451.141 549.936 443.935 548.926C439.692 548.253 437.605 547.176 435.046 544.214C430.466 539.031 428.917 534.723 428.176 524.425C427.705 517.761 427.301 516.145 425.55 512.712C424.405 510.491 423.462 508.135 423.462 507.529C423.462 506.856 425.281 504.77 427.503 502.818C429.658 500.933 431.678 498.779 431.88 498.106C432.15 497.365 431.409 494.875 430.264 492.115C428.109 487.201 427.638 483.701 428.985 482.893C429.456 482.624 430.87 482.22 432.217 481.951C436.056 481.345 435.786 478.855 431.072 469.835L427.166 462.296L427.032 455.834C426.897 448.363 426.695 448.093 419.759 445.535C417.536 444.728 415.449 443.785 415.044 443.449C414.034 442.574 423.328 433.689 427.301 431.737C429.254 430.794 431.14 429.583 431.544 429.044C432.015 428.573 432.621 425.073 432.958 421.371C433.429 415.447 433.766 414.101 435.517 411.543C436.729 409.726 437.672 407.168 437.941 405.014C438.682 399.629 439.288 398.687 444.945 393.167C449.322 388.926 450.4 387.513 450.737 385.292C451.343 381.32 452.218 379.637 453.632 379.637C457.673 379.637 467.438 369.204 468.313 364.021C469.121 359.107 469.526 358.973 477.068 361.329C480.705 362.473 484.611 363.55 485.621 363.819C489.123 364.56 489.459 366.714 489.459 386.84C489.459 404.812 489.796 409.928 490.874 409.928C491.816 409.928 495.251 402.591 497.406 395.725C498.551 392.157 500.302 385.157 501.244 380.243C502.255 375.262 503.669 369.81 504.41 367.992C506.699 362.742 509.124 363.011 518.148 369.541C524.478 374.185 527.98 375.935 529.461 375.397C531.078 374.791 530.808 373.108 528.182 368.464C526.902 366.175 525.825 363.684 525.825 363.011C525.825 360.925 527.711 358.838 534.243 354.059C541.112 349.011 543.334 345.78 543.334 340.731C543.334 337.702 544.344 334.471 545.557 333.731C546.028 333.462 547.375 333.192 548.587 333.192C552.897 333.192 556.13 338.308 556.13 345.308C556.13 349.616 557.813 355.607 560.574 361.194C563.268 366.714 565.625 369.271 567.309 368.598C568.588 368.127 568.454 366.108 566.299 356.078C564.682 348.741 564.278 337.702 565.49 333.26C566.501 329.827 568.925 327.134 571.147 327.134C572.023 327.134 574.043 328.009 575.727 329.086ZM371.338 417.197C374.167 419.284 378.814 424.13 380.632 426.89C381.709 428.573 381.507 430.794 380.295 430.794C377.265 430.794 367.365 421.909 366.557 418.476C365.614 414.909 367.5 414.437 371.338 417.197ZM361.439 428.304C365.816 430.929 377.332 441.766 376.726 442.776C375.716 444.391 366.557 440.352 359.755 435.237C355.311 431.938 353.425 429.583 353.425 427.496C353.425 424.871 355.917 425.073 361.439 428.304ZM359.284 448.766C360.765 449.843 363.863 451.93 366.153 453.478C368.443 455.026 373.291 457.786 376.861 459.671C383.932 463.306 387.164 465.998 385.952 467.21C384.134 469.027 368.712 462.431 359.688 455.969C351.607 450.18 351.203 443.381 359.284 448.766ZM366.961 471.585C377.736 476.835 383.864 481.009 383.595 482.893C383.124 486.057 377.534 483.97 364.537 475.691C357.062 470.979 356.119 470.171 356.119 468.623C356.119 467.008 359.419 467.883 366.961 471.585ZM378.342 498.577C394.437 504.904 399.892 508.674 394.841 509.953C388.713 511.501 365.547 500.26 365.547 495.75C365.547 494.067 368.779 494.808 378.342 498.577ZM383.056 520.184C385.817 521.396 388.848 522.944 389.791 523.684L391.474 525.03H386.087C379.824 525.03 373.224 523.752 370.665 522.136C368.981 520.992 368.375 519.04 369.453 518.03C370.53 516.886 378.14 518.097 383.056 520.184ZM394.909 539.906C398.68 541.32 401.643 544.012 400.902 545.291C400.094 546.57 391.542 545.56 387.838 543.743C385.481 542.531 384.672 541.791 384.538 540.377C384.403 539.099 384.672 538.493 385.548 538.291C387.299 537.82 390.935 538.493 394.909 539.906ZM478.078 588.236C482.051 589.515 486.092 592.275 486.092 593.688C486.092 593.958 485.553 594.9 484.813 595.775C483.6 597.323 483.466 597.323 478.348 596.448C471.411 595.304 467.236 594.025 464.475 592.14C461.916 590.457 461.31 588.775 462.589 587.159C463.801 585.745 471.95 586.284 478.078 588.236Z" fill="#44B8B7"/>
<path d="M652.903 536.743C650.209 537.752 647.852 539.368 643.003 543.743L639.973 546.436L646.438 545.224C658.762 542.868 660.984 541.858 660.31 539.031C660.041 538.156 659.098 537.012 658.155 536.608C656.068 535.666 656.068 535.666 652.903 536.743Z" fill="#44B8B7"/>
<path d="M574.783 539.435C571.618 540.579 571.349 540.849 571.82 542.127C572.426 543.676 576.13 545.291 579.969 545.695C584.144 546.099 588.454 545.022 590.946 542.935L592.764 541.387L590.946 540.175C588.454 538.56 578.353 538.089 574.783 539.435Z" fill="#44B8B7"/>
<path d="M596.872 560.1C587.377 561.985 577.343 566.091 577.343 568.11C577.343 569.523 588.724 569.389 594.515 567.841C599.297 566.629 610.678 561.513 610.678 560.571C610.678 560.302 609.87 560.032 608.86 560.032C607.782 560.032 605.492 559.898 603.607 559.696C601.789 559.561 598.758 559.763 596.872 560.1Z" fill="#44B8B7"/>
<path d="M17.8511 282.17C13.4737 287.555 5.8639 301.017 6.73937 301.892C7.27812 302.431 13.8778 295.229 17.6491 289.844C20.4102 286.007 21.4203 283.988 21.4203 282.372C21.4203 279.006 20.4775 279.006 17.8511 282.17Z" fill="#44B8B7"/>
<path d="M-0.803022 316.903C-2.28458 317.374 -5.3824 320.403 -6.9313 322.826C-7.60474 323.971 -8.6149 327.471 -9.15365 330.5C-9.89443 334.539 -10.7026 336.894 -12.1168 338.847C-15.1472 343.087 -17.1676 347.53 -20.6694 357.425C-23.5652 365.637 -24.6427 368.127 -28.5486 375.127C-29.8955 377.551 -30.1649 382.666 -29.0201 383.407C-28.1446 383.945 -25.3161 381.926 -23.5652 379.57C-22.8918 378.695 -21.949 376.272 -21.4102 374.252C-20.1307 369.271 -12.7229 351.636 -5.8538 337.231C0.207135 324.375 1.21729 321.817 1.21729 318.99C1.21729 316.903 0.678541 316.364 -0.803022 316.903Z" fill="#44B8B7"/>
</g>
<defs>
<clipPath id="clip0_403_4977">
<rect width="862" height="661" fill="white" transform="translate(-153)"/>
</clipPath>
</defs>
</svg>
