<svg width="416" height="334" viewBox="0 0 416 334" fill="none" xmlns="http://www.w3.org/2000/svg">
<g clip-path="url(#clip0_97_7520)">
<path d="M254.522 333.602C252.952 333.31 249.448 331.706 247.633 330.447C243.113 327.316 239.485 322.255 236.876 315.442C236.434 314.287 234.805 311.189 232.266 306.67C230.106 302.828 227.906 298.822 227.376 297.766C226.388 295.798 215.315 277.735 213.178 274.604C212.139 273.081 211.82 272.749 210.671 271.992C206.139 269.008 200.812 263.726 197.289 258.723C195.326 255.936 192.916 251.72 192.064 249.581C191.893 249.15 191.664 248.729 191.556 248.646C191.433 248.551 190.278 248.708 188.464 249.066C181.207 250.499 173.234 251.702 167.7 252.197C165.369 252.406 163.84 252.44 160.918 252.349C158.844 252.285 154.146 252.219 150.479 252.206C143.514 252.179 142.097 252.078 137.232 251.26C135.046 250.892 130.638 249.884 128.341 249.228C118.821 246.505 108.708 241.323 100.344 234.882C98.726 233.635 97.1653 232.629 95.2117 231.572C90.4724 229.007 87.5739 226.977 85.0748 224.471C81.242 220.628 79.8961 217.316 80.5836 213.42C80.7738 212.342 80.7611 212.251 80.2458 211.043C79.8341 210.078 79.6605 209.311 79.4961 207.733L79.2823 205.679L78.1899 204.686C75.1307 201.906 73.2701 199.399 72.4793 196.993L72.1812 196.086L68.6477 195.48C57.9842 193.652 47.1765 190.177 39.4181 186.081C34.3914 183.427 30.6518 180.843 27.0737 177.55C23.2536 174.034 20.8433 170.935 18.7176 166.807C17.172 163.805 16.3401 161.52 15.722 158.577C15.4686 157.371 15.1842 156.193 15.0899 155.958C14.995 155.724 14.3057 154.936 13.5571 154.208C10.2927 151.034 6.66438 146.073 4.27708 141.522C1.11604 135.496 -0.135814 129.764 0.631618 124.832C1.07762 121.966 1.94623 119.766 3.805 116.793L4.12302 116.284L3.41139 115.386C2.50284 114.239 1.92343 113.142 1.40605 111.587C1.03334 110.468 0.995413 110.059 1.00667 107.288C1.02018 104.522 1.06436 104.07 1.48205 102.602C2.49582 99.044 4.2827 95.2438 6.73203 91.4372C7.87432 89.6622 8.33353 88.7488 8.90828 87.1079C11.8642 78.6709 16.4286 71.207 21.7186 66.161C23.5522 64.4119 25.8062 62.7228 27.7043 61.6758C29.3637 60.7602 39.7836 51.4718 42.8377 48.1855C49.5001 41.0164 56.6933 34.8508 62.9767 30.9235C70.7879 26.0415 76.9856 24.3265 82.7547 25.4508C83.2266 25.5428 83.4351 25.4224 84.7724 24.2792C89.5929 20.1603 95.0368 16.7191 101.616 13.6326C110.924 9.26541 120.432 6.79715 131.004 6.00274C135.5 5.66509 142.795 5.81368 147.31 6.3352C148.674 6.49259 148.74 6.48341 150.381 5.90175C153.87 4.66563 157.969 3.57751 162.234 2.7557C167.329 1.77395 171.226 1.38005 177.06 1.25717C182.224 1.14878 186.181 1.39479 190.61 2.1009L193.029 2.48677L194.3 2.16902C202.046 0.232525 210.998 -0.383719 218.905 0.47516C226.135 1.26042 232.907 3.17466 239.345 6.25285L241.187 7.13368L243.205 6.9659C246.998 6.65051 254.123 7.03148 259.347 7.82855C266.093 8.85828 274.299 11.1878 279.941 13.675C281.119 14.194 282.253 14.5345 283.852 14.8486C292.212 16.4918 301.339 19.2322 309.087 22.4262C323.896 28.5301 335.185 36.7639 341.936 46.3835C342.836 47.6673 343.963 48.9601 345.398 50.3555C346.568 51.4934 348.028 52.9801 348.643 53.6595C350.816 56.0609 352.638 59.0757 353.226 61.2428C353.412 61.9304 353.584 62.5097 353.608 62.53C353.633 62.5497 354.441 62.9939 355.406 63.5158C363.975 68.1492 371.958 75.3964 376.521 82.683C380.091 88.3861 382.269 95.1863 382.359 100.912C382.394 103.137 382.345 103.065 384.548 104.305C387.356 105.888 388.055 106.415 389.711 108.202C395.053 113.97 399.05 121.204 401.448 129.444C401.739 130.447 401.954 130.816 402.65 131.513C407.554 136.428 411.374 146.075 413.469 158.842C414.346 164.189 414.856 169.644 415.147 176.799C415.249 179.303 415.409 182.356 415.502 183.585C415.726 186.527 415.721 194.573 415.489 197.904C413.805 222.457 405.118 239.834 390.26 248.37C385.994 250.821 380.978 252.599 375.513 253.598C372.493 254.15 369.01 254.413 364.668 254.417C362.43 254.417 360.564 254.476 360.521 254.544C360.437 254.678 361.09 257.718 361.623 259.677C361.95 260.877 361.949 260.883 361.531 263.318C361.3 264.659 360.964 266.254 360.784 266.862C360.304 268.481 359.106 270.342 357.614 271.785C356.319 273.035 356.315 273.042 356.093 274.318C355.408 278.255 353.594 281.54 349.858 285.616C344.565 291.388 337.019 295.998 327.541 299.249C324.05 300.447 321.478 301.13 315.969 302.326C302.214 305.312 297.678 305.719 289.345 304.715C285.303 304.228 284.728 304.198 279.707 304.217C276.77 304.23 273.702 304.159 272.889 304.065C270.865 303.827 265.288 302.75 261.851 301.933C260.287 301.561 258.875 301.257 258.712 301.257C258.01 301.257 258.899 304.359 261.486 310.939C265.819 321.96 266.937 325.932 266.544 328.916C266.193 331.587 264.811 332.865 261.91 333.197C261.222 333.277 260.106 333.457 259.43 333.598C257.948 333.908 256.175 333.91 254.518 333.598L254.522 333.602ZM259.171 331.283C259.798 331.143 260.894 330.963 261.605 330.884C263.241 330.701 263.801 330.266 264.09 328.951C264.584 326.705 263.599 323.035 260.053 313.918C256.868 305.728 256.13 303.506 255.895 301.397C255.837 300.882 255.742 300.389 255.683 300.3C255.623 300.212 254.824 299.786 253.907 299.353C247.054 296.118 236.286 289.564 231.123 285.487C227.849 282.901 225.729 279.46 225.048 275.626C224.908 274.84 224.637 272.894 224.444 271.3C223.754 265.586 223.336 264.469 219.436 257.895C217.066 253.9 214.805 249.287 213.97 246.745C213.747 246.065 213.53 245.721 213.248 245.6C212.964 245.477 211.657 245.485 208.856 245.623C203.12 245.908 199.387 246.439 195.78 247.482C194.192 247.941 194.068 248.007 194.166 248.344C194.389 249.109 197.262 254.409 198.311 255.991C202.045 261.619 206.723 266.445 211.763 269.871C213.643 271.149 213.806 271.308 214.956 272.981C217.2 276.247 228.521 294.698 229.628 296.893C230.231 298.089 231.271 300.026 231.939 301.196C236.407 309.02 238.521 312.977 239.318 315.008C241.398 320.302 243.814 324.042 247.029 326.939C248.714 328.457 250.081 329.348 252.202 330.309C254.936 331.547 256.81 331.808 259.171 331.282V331.283ZM300.781 303.147C303.93 302.767 307.995 302.105 308.166 301.944C308.247 301.867 307.303 301.756 306.068 301.697C304.834 301.637 302.6 301.474 301.104 301.334C298.955 301.132 297.207 301.101 292.77 301.187C286.676 301.304 284.807 301.2 280.35 300.498C274.363 299.556 269.406 298.324 263.733 296.369C252.33 292.44 243.76 287.22 239.315 281.497C238.029 279.84 237.973 280.231 239.167 282.534C241.632 287.289 244.604 289.944 251.68 293.711C257.178 296.639 264.496 299.303 268.096 299.689C268.639 299.747 269.222 299.831 269.391 299.875C269.769 299.973 269.797 300.569 269.431 300.702C268.913 300.89 264.989 300.099 262.664 299.338C254.346 296.614 246.404 292.379 242.432 288.549C239.29 285.518 238.029 283.126 234.334 273.192C233.996 272.282 234.082 271.741 234.552 271.827C234.759 271.865 235.15 272.668 235.856 274.508C236.411 275.954 236.959 277.22 237.073 277.322C237.234 277.465 237.255 276.88 237.163 274.757C237.064 272.473 237.085 271.991 237.29 271.917C237.874 271.706 237.969 272.062 238.145 275.125C238.313 278.072 238.336 278.199 238.858 279.08C239.928 280.889 240.85 282.009 242.757 283.817C251.634 292.235 270.676 299.295 287.182 300.287C290.223 300.47 293.227 300.372 292.922 300.099C292.839 300.025 291.943 299.882 290.929 299.781C287.178 299.407 278.793 298.073 273.56 297.017C259.837 294.25 253.713 290.37 243.542 278.004C240.328 274.095 239.995 273.63 240.227 273.366C240.346 273.232 240.531 273.122 240.64 273.123C240.75 273.123 241.838 274.371 243.06 275.895C244.282 277.419 245.546 278.953 245.869 279.303L246.455 279.941L250.665 279.993C256.718 280.067 259.976 280.404 273.823 282.393C276.428 282.767 280.337 283.287 282.508 283.549C284.679 283.811 287.758 284.186 289.35 284.383C292.067 284.718 292.48 284.728 296.06 284.547C298.158 284.441 299.954 284.401 300.051 284.458C300.149 284.514 300.228 284.701 300.228 284.872C300.228 285.332 299.245 285.423 294.088 285.438C290.068 285.451 289.292 285.407 286.455 285.003C284.718 284.755 281.994 284.4 280.402 284.213C278.81 284.025 274.428 283.431 270.665 282.892C260.486 281.434 258.062 281.165 253.295 280.964C250.237 280.835 250.291 280.964 253.821 282.276C261.575 285.145 272.425 288.21 277.884 289.074C279.946 289.401 282.213 289.451 287.596 289.29C293.041 289.126 294.42 289.268 299.981 290.568C302.095 291.062 304.491 291.585 305.304 291.73C306.406 291.926 310.283 292.245 312.466 292.319C312.49 292.319 312.51 292.506 312.51 292.734C312.51 293.14 312.486 293.148 311.125 293.148C307.926 293.148 305.197 292.749 299.956 291.516C294.203 290.163 294.048 290.148 285.979 290.203C279.734 290.246 278.728 290.217 277.332 289.953C270.98 288.752 260.963 285.898 253.677 283.213C250.489 282.039 250.223 281.886 250.532 281.409C250.652 281.223 250.752 281.032 250.752 280.985C250.752 280.939 250.041 280.9 249.172 280.9C247.971 280.9 247.593 280.952 247.593 281.121C247.593 281.244 248.16 281.957 248.852 282.707C249.914 283.859 250.178 284.06 250.543 283.994C250.887 283.932 251.632 284.37 254.172 286.128C255.93 287.345 257.894 288.563 258.538 288.835C264.568 291.387 281.643 294.726 293.211 295.615C304.056 296.448 308.73 296.241 313.362 294.72C315.378 294.058 315.587 294.032 315.747 294.426C315.913 294.834 315.556 295.025 313.379 295.693C309.711 296.819 309.219 296.873 302.685 296.856C296.357 296.839 292.49 296.6 286.754 295.872C277.997 294.76 268.34 292.883 262.471 291.151C258.759 290.056 257.168 289.364 255.089 287.942C254.048 287.23 253.158 286.685 253.109 286.731C253.061 286.776 253.556 287.259 254.211 287.804C260.439 292.984 266.864 295.216 282.684 297.698C288.88 298.67 290.927 298.909 294.84 299.116C299.693 299.374 304.954 299.015 309.63 298.109C311.098 297.824 315.894 296.627 316.576 296.374C316.907 296.252 317.302 296.771 317.104 297.068C316.924 297.338 311.976 298.637 309.089 299.171C307.587 299.45 304.344 299.844 302.097 300.021C301.339 300.08 300.786 300.192 300.868 300.269C301.142 300.522 305.424 300.801 307.802 300.72C309.588 300.66 311.291 300.441 314.998 299.798C317.714 299.328 320.112 298.993 320.437 299.039C321.174 299.144 327.512 297.15 327.512 296.814C327.512 296.678 326.402 296.266 324.529 295.709C319.73 294.282 311.053 290.244 306.106 287.137C303.594 285.559 301.632 284.061 301.632 283.722C301.632 283.07 302.188 283.29 304.288 284.776C307.686 287.179 310.066 288.498 316.107 291.321C321.177 293.691 322.037 294.037 324.967 294.886C326.753 295.403 328.388 295.931 328.602 296.059C328.816 296.187 329.092 296.292 329.216 296.292C329.499 296.292 333.167 294.831 334.609 294.144C335.2 293.863 335.64 293.566 335.587 293.485C335.534 293.405 334.959 293.172 334.308 292.969C333.658 292.765 331.152 291.837 328.74 290.906C323.471 288.872 322.282 288.506 316.422 287.112C310.991 285.821 309.461 285.357 309.383 284.98C309.278 284.472 309.884 284.497 312.124 285.091C313.35 285.417 315.971 286.067 317.949 286.537C322.65 287.653 324.169 288.134 329.529 290.209C334.708 292.213 336.758 292.886 337.301 292.756C337.824 292.631 339.355 291.703 339.355 291.51C339.355 291.426 338.782 291.152 338.083 290.903C335.157 289.861 334.29 289.324 330.866 286.438C328.914 284.792 327.599 283.564 327.599 283.385C327.599 282.61 328.204 282.97 331.29 285.582C333.034 287.057 334.828 288.467 335.277 288.713C335.727 288.96 336.955 289.478 338.008 289.866C339.06 290.253 339.96 290.666 340.007 290.783C340.168 291.177 340.56 291.001 342.339 289.737C343.506 288.907 344.092 288.387 344.055 288.209C344.021 288.04 342.892 287.465 341.02 286.661C337.439 285.125 335.894 284.581 332.427 283.635C329.814 282.922 329.382 282.682 329.933 282.252C330.121 282.104 330.776 282.226 332.816 282.79C336.713 283.867 337.525 284.158 342.233 286.164L345.198 287.428L346.154 286.44C347.65 284.893 349.815 281.713 351.233 278.981L352.53 276.483L351.732 271.97C350.846 266.967 350.656 266.237 349.699 264.152C347.932 260.301 344.805 257.017 340.012 253.978C339.04 253.362 338.202 252.705 338.117 252.493C338.026 252.269 337.762 252.07 337.475 252.011C337.206 251.955 336.789 251.842 336.547 251.759C336.014 251.575 332.524 251.279 330.874 251.277C330.023 251.277 329.696 251.332 329.745 251.473C329.784 251.581 330.488 252.01 331.31 252.424C337.486 255.54 341.46 258.71 344.601 263.026C345.164 263.799 345.834 264.824 346.09 265.302C346.345 265.78 347.134 268.275 347.843 270.846C349.643 277.378 349.533 276.885 349.239 277.116C349.042 277.27 348.934 277.262 348.743 277.079C348.609 276.951 347.905 274.684 347.179 272.042C345.652 266.486 345.546 266.176 344.703 264.819C341.889 260.29 337.198 256.377 330.845 253.259C329.494 252.596 328.198 251.869 327.965 251.642C327.566 251.254 327.469 251.237 326.228 251.336C325.506 251.394 324.012 251.441 322.909 251.441C321.58 251.441 320.924 251.5 320.965 251.615C320.998 251.711 321.972 252.216 323.129 252.737C330.045 255.852 332.367 257.671 339.359 265.451C342.813 269.295 343.029 269.578 344.969 272.801C347.878 277.634 348.361 278.73 347.686 278.975C347.541 279.028 347.219 278.987 346.971 278.878C346.59 278.714 346.537 278.607 346.623 278.173C346.708 277.747 346.475 277.239 345.215 275.102C342.441 270.401 341.884 269.624 338.995 266.419C333.85 260.711 331.241 258.25 328.488 256.507C326.838 255.463 323.542 253.864 320.143 252.458C317.742 251.466 317.106 251.272 315.756 251.121C313.822 250.905 313.388 250.901 313.388 251.095C313.388 251.28 315.388 252.709 317.511 254.04C319.163 255.076 321.125 256.12 325.669 258.385C329.864 260.475 331.563 261.612 334.188 264.091C336.861 266.613 337.695 267.719 340.028 271.828C340.975 273.495 342.203 275.515 342.758 276.317C343.574 277.496 343.726 277.821 343.557 278.013C343.442 278.145 343.247 278.252 343.125 278.252C342.831 278.252 340.801 275.157 339 271.963C337.257 268.871 336.409 267.637 334.919 266.019C332.293 263.168 329.609 261.357 323.536 258.336C318.047 255.606 315.753 254.219 312.456 251.639L311.085 250.567L308.069 250.171C306.16 249.919 303.767 249.74 301.545 249.68C298.277 249.593 297.837 249.618 295.141 250.04C293.549 250.29 291.614 250.526 290.842 250.565C289.612 250.627 289.394 250.686 289.074 251.046L288.71 251.456L286.443 251.283C281.304 250.891 277.196 250.779 267.99 250.779L258.296 250.778V250.365V249.951L264.744 249.932C271.508 249.912 273.443 249.788 270.753 249.548C259.609 248.555 249.312 247.501 249.137 247.336C248.971 247.179 248.983 247.081 249.191 246.884C249.43 246.658 250.566 246.737 260.002 247.63C269.827 248.559 274.643 248.849 273.576 248.447C272.94 248.207 265.948 247.041 262.858 246.66C256.762 245.908 252.695 245.808 245.4 246.229C239.336 246.579 238.47 246.65 238.47 246.799C238.47 247.189 246.028 249.453 250.096 250.281C255.881 251.459 259.033 251.768 266.981 251.935C270.648 252.012 273.79 252.128 273.964 252.193C274.16 252.266 274.26 252.445 274.228 252.662C274.181 252.974 274.068 253.011 273.209 252.992C264.924 252.812 258.559 252.562 256.98 252.355C250.042 251.448 242.977 249.689 237.253 247.446C235.601 246.799 235.594 246.797 232.692 246.719C228.688 246.612 227.447 246.518 223.909 246.052C220.42 245.593 216.241 245.491 216.09 245.86C216.043 245.978 216.113 246.368 216.245 246.729C216.467 247.335 216.539 247.388 217.17 247.413C218.045 247.447 222.682 248.439 230.28 250.218C243.348 253.277 248.989 254.288 255.664 254.764C258.325 254.954 271.491 254.88 276.411 254.647L278.473 254.55V254.966C278.473 255.372 278.432 255.385 276.762 255.521C275.821 255.598 270.393 255.661 264.7 255.661C253.109 255.661 252.471 255.62 245.576 254.419C240.98 253.619 238.121 253.011 230.136 251.134C222.71 249.389 217.254 248.229 217.111 248.364C216.949 248.516 217.375 249.681 217.809 250.275C218.269 250.905 218.91 251.173 223.381 252.603C233.789 255.932 245.288 257.771 255.752 257.779C260.439 257.779 262.208 257.655 268.086 256.891C273.401 256.201 276.537 255.872 276.823 255.975C277.173 256.102 277.129 256.699 276.762 256.797C276.594 256.842 275.863 256.929 275.14 256.99C274.416 257.052 272.679 257.246 271.28 257.423C262.189 258.572 260.397 258.724 255.874 258.721C244.808 258.721 231.755 256.512 221.114 252.854C219.915 252.442 218.889 252.148 218.834 252.2C218.718 252.309 220.704 256.008 221.061 256.345C221.225 256.499 221.757 256.572 222.736 256.573C225.384 256.573 228.74 257.077 235.575 258.494C245.15 260.478 248.987 260.947 255.577 260.934C257.893 260.934 260.538 260.837 261.454 260.73C264.257 260.399 268.815 259.455 274.701 257.986C279.84 256.703 280.334 256.608 280.536 256.86C280.714 257.082 280.714 257.176 280.536 257.343C280.323 257.544 273.423 259.315 268.738 260.371C263.143 261.632 259.864 261.949 253.737 261.822C248.563 261.715 245.436 261.357 239.459 260.191C237.13 259.737 233.527 259.034 231.452 258.629C227.285 257.816 222.264 257.228 221.958 257.517C221.828 257.64 222.021 258.106 222.6 259.076C223.604 260.756 223.506 260.653 223.888 260.428C224.135 260.282 224.961 260.401 227.696 260.972C237.29 262.976 243.719 263.691 252.157 263.693C260.064 263.693 265.897 263.239 276.474 261.795C283.529 260.831 284.445 260.625 287.536 259.296C288.749 258.774 289.351 258.607 289.351 258.792C289.351 258.83 289.4 258.98 289.458 259.125C289.541 259.329 289.195 259.553 287.923 260.118C284.764 261.521 283.598 261.776 275.49 262.847C255.231 265.522 244.286 265.328 228.228 262.009C225.228 261.389 224.165 261.227 224.018 261.368C223.764 261.61 228.801 266.22 230.18 267.008C235.387 269.985 244.755 270.724 257.331 269.15C260.259 268.783 263.693 268.259 270.402 267.156C289.21 264.064 291.394 264.064 305.756 267.156C310.694 268.222 314.669 268.98 316.59 269.223C317.22 269.303 317.42 269.277 317.409 269.111C317.382 268.704 312.254 264.569 310.06 263.185C306.081 260.676 303.26 259.696 291.719 256.812C284.146 254.92 283.728 254.772 284.255 254.174C284.433 253.971 284.574 253.972 285.283 254.174C285.735 254.306 288.474 255.014 291.369 255.747C301.145 258.224 304.539 259.246 307.247 260.531C309.878 261.78 312.733 263.736 316.098 266.597C317.901 268.13 319.513 269.432 319.678 269.491C320.078 269.631 324.978 269.964 326.638 269.964C327.899 269.964 328.341 269.772 327.594 269.549C327.399 269.49 325.861 268.002 324.177 266.242C321.145 263.072 320.067 262.081 317.686 260.28C312.484 256.341 306.258 254.096 295.404 252.245C293.133 251.857 292.591 251.61 293.055 251.173C293.298 250.944 293.726 250.994 297.347 251.673C301.842 252.516 305.128 253.301 307.813 254.174C310.041 254.898 314.087 256.751 315.844 257.852C318.44 259.479 321.62 262.187 324.54 265.258C326.092 266.89 327.692 268.436 328.095 268.693C328.693 269.073 328.81 269.229 328.727 269.539C328.608 269.988 328.966 270.124 330.275 270.128C331.06 270.128 331.108 270.155 331.108 270.57V271.01L327.117 270.904C320 270.714 314.286 270.005 307.422 268.458C293.624 265.349 290.138 265.127 279.262 266.67C276.858 267.012 276.806 267.2 279.043 267.467C281.688 267.782 285.351 268.529 292.421 270.194C303.794 272.873 304.949 273.022 313.914 272.973C317.727 272.952 321.895 272.834 323.827 272.692C328.176 272.372 327.95 272.364 327.95 272.848C327.95 273.153 327.835 273.269 327.468 273.337C325.951 273.615 319.584 273.847 313.388 273.85C304.156 273.85 303.175 273.721 290.564 270.725C284.14 269.2 280.237 268.468 276.905 268.165C275.663 268.052 275.194 267.943 275.027 267.726C274.751 267.371 275.181 267.322 266.542 268.696C262.827 269.287 258.998 269.86 258.033 269.971C255.633 270.246 255.504 270.355 257.077 270.781C259.762 271.508 262.936 272.623 269.349 275.092C273.198 276.573 274.771 277.075 278.151 277.902C285.263 279.641 295.222 281.117 305.054 281.889C308.242 282.139 315.701 282.144 318.388 281.902C321.922 281.577 330.225 280.413 330.997 280.133C331.388 279.992 331.701 280.634 331.368 280.895C330.874 281.282 321.605 282.603 317.335 282.895C313.581 283.152 306.183 282.986 301.983 282.551C291.176 281.431 285.092 280.508 278.936 279.054C274.897 278.1 273.379 277.611 267.391 275.337C261.556 273.12 257.961 271.914 256.091 271.545L254.899 271.31L251.793 272.377C250.085 272.964 248.56 273.445 248.404 273.445C248.134 273.445 248.091 273.379 248.05 272.915C248.036 272.805 249.197 272.308 250.65 271.798C252.09 271.293 253.304 270.776 253.348 270.65C253.411 270.473 253.295 270.444 252.836 270.522C252.51 270.578 250.782 270.709 248.997 270.812C241.235 271.263 235.02 270.375 230.492 268.17C229.309 267.594 228.505 267.035 227.259 265.919C226.286 265.049 225.569 264.521 225.526 264.644C225.486 264.759 225.577 265.352 225.729 265.963C226.137 267.603 226.319 268.732 226.715 272.065C227.639 279.844 229.196 282.017 238.031 287.863C244.734 292.298 253.799 297.304 257.91 298.842C260.837 299.936 269.57 301.837 273.473 302.228C274.437 302.325 277.477 302.388 280.227 302.368C284.222 302.34 285.704 302.392 287.596 302.631C292.68 303.273 293.733 303.365 296.134 303.383C297.5 303.396 299.592 303.283 300.783 303.139L300.781 303.147ZM237.718 286.54C234.586 283.463 232.543 280.684 231.732 278.401C230.967 276.248 230.687 271.643 231.299 271.287C231.833 270.976 231.931 271.33 232.027 273.917C232.137 276.852 232.336 277.709 233.367 279.659C234.236 281.303 235.776 283.23 238.195 285.697C239.219 286.742 240.034 287.709 240.006 287.846C239.885 288.44 239.327 288.122 237.718 286.54ZM230.438 280.445C229.811 279.59 228.989 278.122 228.454 276.904C227.973 275.808 227.904 275.424 227.761 273.039C227.543 269.402 227.549 269.034 227.825 268.934C228.407 268.723 228.497 269.087 228.663 272.313L228.828 275.521L230.165 278.061C231.242 280.104 231.455 280.63 231.257 280.748C230.885 280.97 230.8 280.939 230.438 280.445H230.438ZM294.349 280.127C292.404 280.036 289.272 279.726 287.897 279.487C285.16 279.012 283.916 278.512 277.681 275.381C275.848 274.46 272.769 273.028 270.839 272.199C268.076 271.012 267.33 270.624 267.33 270.377C267.33 270.205 267.467 270.039 267.635 270.009C268.202 269.906 274.066 272.535 281.012 276.007C286.624 278.812 289.176 279.22 301.455 279.281C307.113 279.308 308.583 279.262 311.95 278.948C315.867 278.583 322.765 278.446 324.922 278.69C325.757 278.785 325.843 278.833 325.843 279.208V279.621L321.676 279.506C318.006 279.406 316.891 279.442 312.333 279.815C307.907 280.176 306.305 280.233 301.28 280.207C298.047 280.191 294.928 280.154 294.349 280.127V280.127ZM334.601 279.662C333.158 278.953 327.437 277.646 324.878 277.44C321.281 277.152 313.921 276.917 303.56 276.76C294.241 276.619 292.484 276.518 289.405 275.95C286.279 275.374 282.541 274.172 279.105 272.64C276.784 271.606 273.458 269.895 273.301 269.655C273.171 269.457 273.379 268.984 273.597 268.984C273.694 268.984 274.869 269.539 276.208 270.217C280.593 272.438 284.373 273.873 288.017 274.702C291.561 275.507 292.738 275.602 301.192 275.765C316.238 276.055 325.626 276.416 327.422 276.776C329.662 277.224 334.455 278.505 335.173 278.847C336.102 279.29 336.24 279.436 336.088 279.809C335.942 280.168 335.552 280.129 334.601 279.662ZM353.931 272.86C354.382 271.655 354.389 271.571 354.242 269.27C353.983 265.216 353.835 264.465 352.96 262.789C352.529 261.964 351.782 260.799 351.301 260.202C350.39 259.07 345.085 253.585 344.731 253.409C344.37 253.229 340.467 252.564 340.131 252.625C339.899 252.667 340.326 253.035 341.611 253.9C343.762 255.349 346.503 257.787 347.862 259.461C349.216 261.128 350.616 263.578 351.257 265.401C351.552 266.242 352.075 268.491 352.419 270.398C352.762 272.306 353.083 273.97 353.132 274.097C353.269 274.45 353.428 274.203 353.931 272.86ZM358.301 266.984C358.301 266.612 356.13 262.046 355.318 260.711C354.847 259.936 353.529 258.133 352.39 256.705C351.25 255.277 350.239 254 350.143 253.868C349.883 253.514 346.494 253.315 346.576 253.659C346.609 253.792 347.66 254.956 348.914 256.246C351.676 259.087 353.011 260.735 353.825 262.31C354.687 263.976 354.961 265.114 355.074 267.495C355.129 268.632 355.204 269.657 355.241 269.772C355.314 269.998 358.301 267.277 358.301 266.984ZM359.068 265.053C359.307 264.272 359.88 261.49 359.88 261.109C359.88 260.186 357.735 253.739 357.32 253.414C357.126 253.262 356.43 253.239 354.582 253.323C351.847 253.447 351.224 253.542 351.34 253.82C351.382 253.922 352.292 255.102 353.36 256.441C355.925 259.657 357.243 261.839 358.462 264.888C358.669 265.407 358.938 265.48 359.068 265.054V265.053ZM368.565 252.027C372.003 251.899 375.875 251.297 379.443 250.334C381.074 249.895 384.619 248.659 384.619 248.53C384.619 248.49 384.522 248.311 384.403 248.131C384.223 247.859 384.339 247.227 385.109 244.286C386.144 240.334 386.24 239.107 385.757 235.966C385.265 232.765 385.485 229.566 386.297 228.084C386.522 227.675 388.099 225.6 390.308 222.809C391.433 221.386 391.909 220.34 392.318 218.386C392.992 215.163 392.94 211.626 392.154 207.278C391.211 202.062 389.227 196.059 387.01 191.711C386.667 191.037 386.425 190.426 386.473 190.352C386.521 190.279 387.033 189.981 387.611 189.69C388.188 189.4 388.635 189.138 388.603 189.108C388.57 189.078 387.84 189.137 386.977 189.24C384.6 189.522 378.077 189.471 375.671 189.152C373.056 188.805 373.155 188.799 373.285 189.289C373.345 189.514 373.519 190.761 373.673 192.062C374.118 195.829 373.937 200.665 373.063 208.328C372.261 215.365 371.987 218.443 371.987 220.443C371.987 222.018 371.891 222.126 370.625 221.989L369.793 221.899L369.738 220.988C369.643 219.414 370.016 214.845 370.785 208.162C371.46 202.289 371.528 201.312 371.537 197.321C371.551 192.566 371.418 191.263 370.561 187.518C369.04 180.881 365.883 174.559 361.361 169.097C360.739 168.346 360.231 167.657 360.231 167.566C360.231 167.326 361.425 166.373 361.726 166.373C362.069 166.373 363.792 168.443 365.644 171.08C368.387 174.987 370.575 179.447 371.981 183.994C372.374 185.265 372.753 186.357 372.823 186.42C373.398 186.93 381.108 187.458 384.443 187.216C387.46 186.996 388.671 186.841 392.689 186.161C398.462 185.183 402.048 184.728 402.264 184.946C402.531 185.218 402.721 186.417 402.54 186.693C402.454 186.824 400.709 187.154 397.973 187.557C394.076 188.132 390.401 188.725 389.237 188.967L388.854 189.047L389.272 189.751C390.841 192.399 392.89 197.751 394.079 202.306C395.392 207.332 395.73 209.73 395.739 214.081L395.753 217.684L397.396 216.15C399.981 213.738 401.595 211.598 403.42 208.162C404.291 206.523 405.448 204.513 405.993 203.693C407.255 201.794 409.52 198.811 409.699 198.811C409.95 198.811 411.293 199.803 411.293 199.988C411.293 200.087 410.758 200.888 410.104 201.766C408.186 204.341 407.048 206.152 405.354 209.32C403.653 212.503 402.026 214.743 399.768 217.016L398.535 218.257L401.814 221.52C405.2 224.889 405.325 225.061 405.607 226.746C405.673 227.136 405.803 227.431 405.898 227.401C406.319 227.269 408.576 221.468 409.708 217.607C411.381 211.904 412.588 204.836 413.045 198.069C413.268 194.751 413.278 188.668 413.059 188.459C412.969 188.372 412.521 187.222 412.064 185.902C411.475 184.2 410.714 182.538 409.449 180.192C408.467 178.371 407.443 176.379 407.171 175.765C406.9 175.15 406.611 174.648 406.529 174.648C406.227 174.648 406.396 176.938 406.839 178.868C407.695 182.588 407.697 182.603 407.424 182.762C406.929 183.051 405.826 183.133 405.594 182.899C405.473 182.775 405.113 181.594 404.795 180.275C403.94 176.725 403.904 174.811 404.616 170.758C405.744 164.334 406.126 159.912 405.974 155.045C405.864 151.545 405.69 150.067 405.151 148.081C404.501 145.685 404.287 145.387 401.598 143.122C400.245 141.983 399.082 141.051 399.013 141.051C398.945 141.051 398.842 142.373 398.786 143.988C398.633 148.35 397.871 152.046 396.372 155.698C395.999 156.608 395.617 157.799 395.525 158.346C395.432 158.892 395.141 160.195 394.877 161.242C394.367 163.265 394.232 165.398 394.514 166.98L394.666 167.836L393.988 168.013C392.796 168.325 392.558 168.262 392.339 167.572C391.9 166.186 391.93 164.096 392.421 161.904C392.676 160.766 393.033 159.09 393.215 158.18C393.397 157.27 393.698 156.19 393.883 155.78C395.643 151.887 396.693 146.429 396.516 142.094C396.441 140.246 396.387 139.979 395.889 139.029C394.383 136.156 391.129 131.98 382.017 121.227C375.842 113.941 373.158 110.726 370.932 107.95C370.28 107.138 369.782 106.648 369.753 106.792C369.725 106.928 370.093 108.716 370.571 110.764C371.418 114.4 371.836 116.621 372.781 122.514C373.75 128.565 374.199 130.189 376.766 136.929L378.253 140.834L377.926 143.88C377.684 146.133 377.459 147.357 377.064 148.581C376.371 150.725 374.918 153.474 373.435 155.445C370.493 159.353 364.101 164.653 357.849 168.366C353.846 170.745 353.798 170.78 352.246 172.525C350.443 174.552 349.195 176.349 346.438 180.887C345.132 183.036 343.565 185.508 342.956 186.382C340.867 189.375 334.969 195.767 331.515 198.782C328.615 201.311 327.104 202.383 322.056 205.487C321.179 206.026 320.144 206.943 318.575 208.573C317.347 209.849 316.249 210.893 316.135 210.893C315.854 210.893 314.619 209.92 314.619 209.699C314.619 209.478 316.153 207.809 318.208 205.794C319.406 204.619 320.26 203.97 321.805 203.064C327.33 199.822 331.749 196.005 337.598 189.423C340.236 186.454 341.459 184.756 344.173 180.29C347.784 174.35 349.086 172.523 351.288 170.302C352.476 169.104 353.161 168.618 356.232 166.788C362.811 162.869 368.573 158.133 371.575 154.176C374.014 150.962 375.151 148.091 375.611 143.983L375.922 141.206L375.466 139.928C375.215 139.226 374.483 137.273 373.84 135.589C371.94 130.612 371.267 127.924 370.235 121.19C368.763 111.574 366.029 101.079 363.445 95.1237C360.26 87.7799 356.274 82.8551 350.763 79.452C346.664 76.9211 341.676 75.2086 336.11 74.422C332.516 73.914 327.699 74.2466 324.057 75.2542L323.055 75.5312L322.094 77.2679C321.565 78.2231 320.673 79.6124 320.113 80.3555C318.977 81.8595 316.173 84.6144 315.777 84.6144C315.505 84.6144 314.443 83.4953 314.445 83.2111C314.445 83.1179 315.062 82.468 315.815 81.7664C318.025 79.7072 320.083 76.7592 320.943 74.4228C321.624 72.5738 321.689 72.2818 321.702 71.0431C321.715 69.9384 321.65 69.6883 321.126 68.7692C319.091 65.1975 312.94 59.8456 298.916 49.4449C292.213 44.4733 291.284 43.7516 291.284 43.5141C291.284 43.2541 292.31 42.0802 292.537 42.0802C292.633 42.0802 293.831 42.9213 295.2 43.9493C296.568 44.9772 298.201 46.1853 298.828 46.6336C301.722 48.7023 310.659 55.5565 313.259 57.7014C319.254 62.6464 322.649 66.2675 323.672 68.8089C323.926 69.4375 324 70.0241 323.982 71.25C323.962 72.5734 324.005 72.8637 324.217 72.8637C324.36 72.8637 325.279 72.6988 326.259 72.4973C327.811 72.178 328.572 72.1304 332.164 72.1269C335.999 72.1269 336.442 72.154 338.504 72.5731C346.513 74.1997 351.943 76.7976 356.743 81.3001C361.063 85.3518 364.118 90.2124 366.672 97.0983C368.156 101.098 370.902 104.725 385.018 121.33C392.232 129.815 395.869 134.461 397.525 137.302C397.877 137.907 398.204 138.403 398.249 138.403C398.294 138.403 398.483 138.327 398.668 138.233C398.956 138.088 399.444 138.434 402.122 140.684C403.836 142.125 405.447 143.537 405.701 143.821C405.954 144.106 406.403 144.885 406.698 145.554C408.607 149.877 408.85 158.87 407.32 168.492L407.049 170.197L407.503 171.057C407.752 171.53 408.399 172.922 408.94 174.151C409.974 176.501 412.397 181.01 412.729 181.204C412.934 181.324 412.869 178.834 412.511 172.827C411.621 157.855 408.862 145.859 404.527 138.104C403.249 135.819 402.346 134.591 400.851 133.106C399.712 131.975 399.575 131.763 399.298 130.707C397.649 124.401 394.156 117.387 390.151 112.334C387.389 108.85 385.504 107.284 382.179 105.71C381.539 105.407 380.888 105.024 380.731 104.858C380.267 104.369 380.061 103.316 379.883 100.529C379.352 92.2179 376.101 84.8368 369.896 77.8576C365.341 72.7338 358.751 67.7405 352.382 64.5872C351.669 64.2342 351.256 63.9204 351.207 63.695C351.165 63.5037 351.049 62.8636 350.948 62.2723C350.488 59.5778 347.677 55.6361 343.521 51.8568C342.197 50.6526 341.377 49.7045 340.1 47.904C332.594 37.3179 320.228 28.8343 303.389 22.7195C297.35 20.5262 291.092 18.7356 285.482 17.5945C281.446 16.7738 280.825 16.5923 277.95 15.3929C270.767 12.3967 262.503 10.3536 254.264 9.53712C251.816 9.29443 247.645 9.23143 241.543 9.34477C240.868 9.35714 239.171 9.23763 237.771 9.07827C234.156 8.6673 231.024 8.77215 228.911 9.37459C228.042 9.62211 226.661 10.1256 225.84 10.4934C224.459 11.1127 224.149 11.3548 221.63 13.7799C218.681 16.6181 217.508 17.503 215.009 18.7737C214.115 19.2284 213.383 19.6359 213.383 19.6791C213.383 19.7218 213.849 20.7186 214.419 21.8931C215.811 24.7667 216.856 26.2311 217.83 26.6758C218.244 26.8649 218.63 27.0196 218.688 27.0196C218.745 27.0196 219.33 26.3679 219.987 25.5715C221.97 23.1649 224.51 20.8156 226.458 19.5857C229.43 17.71 231.499 17.0448 238.056 15.8568C240.36 15.4394 242.399 15.0649 242.587 15.0249C243.086 14.9177 243.386 15.2328 243.386 15.8654C243.386 16.3065 243.304 16.4384 242.991 16.505C242.774 16.5514 241.53 16.7801 240.227 17.0139C233.043 18.3031 231.626 18.6605 229.262 19.7788C226.905 20.894 225.202 22.1647 223.161 24.3334C221.402 26.2016 220.66 27.194 220.911 27.3406C221.032 27.4115 222.606 27.5601 224.408 27.6703C232.659 28.1748 236.319 28.8666 239.877 30.5951C240.697 30.9934 242.697 32.2512 244.322 33.3898L247.277 35.4601H250.076C252.833 35.4601 252.883 35.4478 253.317 35.0442C254.103 34.3028 254.773 32.6218 255.571 29.3899C257.021 23.5146 257.48 22.8106 261.497 20.285C264.964 18.1052 269.174 16.4559 271.629 16.3154L272.949 16.24L278.037 18.3324C288.256 22.5352 294.017 24.5771 298.565 25.6088C302.397 26.4781 305.629 27.6629 310.759 30.0791C317.876 33.4312 324.212 37.4848 326.951 40.4378C328.84 42.4746 329.73 44.9467 329.73 48.1506V49.8353L331.868 50.8634C340.868 55.1904 348.737 61.9067 359.3 74.2754C360.08 75.1886 361.932 77.2419 363.416 78.8382C367.559 83.2947 368.475 84.3597 370.153 86.6695C372.073 89.3144 373.176 90.575 374.181 91.274C374.608 91.5707 374.996 91.9016 375.043 92.0095C375.153 92.2575 373.825 94.2133 373.547 94.2133C373.132 94.2133 371.44 92.8499 370.326 91.6182C369.698 90.9243 368.479 89.381 367.616 88.1888C366.122 86.1244 363.094 82.6383 359.982 79.4008C359.195 78.5818 357.889 77.1295 357.08 76.1736C351.391 69.4515 345.079 63.1174 340.674 59.709C336.123 56.1883 330.362 52.8925 328.248 52.6C327.732 52.5284 327.287 52.3534 327.108 52.1508C326.714 51.7067 326.254 51.495 324.181 50.8024C321.073 49.7641 320.05 49.5268 316.538 49.0296C314.221 48.7017 312.576 48.3726 311.529 48.0273C309.409 47.3282 306.093 45.6801 301.932 43.2584C294.881 39.1536 291.804 37.86 286.723 36.8639C281.745 35.888 274.295 35.8312 267.51 36.7177C263.358 37.2601 257.831 38.3365 252.703 39.601C250.391 40.1711 250.128 40.1918 249.908 39.8203C249.716 39.4972 249.797 39.3895 248.034 42.3284C242.561 51.4529 234.935 61.0065 231.06 63.592C230.602 63.8978 230.227 64.1999 230.227 64.2633C230.227 64.3266 230.578 65.0775 231.006 65.9316C232.695 69.299 233.284 71.8734 232.873 74.0976C232.761 74.7097 232.396 76.1088 232.064 77.2068C230.925 80.9755 230.6 82.6908 230.393 86.0206L230.197 89.1648L231.092 90.8202C231.584 91.7306 231.986 92.5614 231.984 92.6662C231.984 92.9045 230.84 93.5514 230.424 93.5514C230.075 93.5514 228.853 91.6593 228.269 90.2145C227.925 89.3663 227.919 89.1967 228.11 85.9657C228.331 82.2097 228.45 81.5633 229.741 77.0839C231.148 72.2036 231.03 70.9702 228.726 66.43C228.201 65.3948 227.771 64.4506 227.771 64.332C227.771 64.2135 227.356 63.9367 226.85 63.7173C225.386 63.0831 219.676 60.1345 216.849 58.5529C215.014 57.526 214.261 57.0167 214.261 56.8014C214.261 56.3168 214.967 55.3203 215.311 55.3203C215.483 55.3203 216.443 55.7921 217.443 56.3689C221.771 58.8646 228.258 62.1059 228.924 62.1059C229.344 62.1059 230.56 61.3151 231.69 60.3068C233.542 58.6547 237.381 54.01 240.384 49.7878C243.601 45.2667 247.246 39.6064 247.246 39.1325C247.246 38.8791 240.606 34.2254 239 33.353C237.67 32.6309 235.368 31.8503 233.516 31.4933L232.507 31.2987L229.832 32.6581C225.568 34.8249 222.23 36.5737 219.963 37.8291C215.01 40.5718 211.544 42.3729 208.997 43.5265C206.286 44.7554 206.273 44.7637 204.436 46.5283C203.423 47.5015 201.458 49.3379 200.07 50.6091C198.598 51.9574 197.227 53.3809 196.78 54.0252C194.367 57.5046 191.965 63.867 191.466 68.0989C191.227 70.1299 191.222 74.5451 191.453 76.9184C191.891 81.3543 192.463 83.9948 193.935 88.3901C195.509 93.09 195.505 92.8145 194.004 93.2821C192.783 93.6627 192.697 93.6387 192.307 92.8066C192.032 92.2204 191.867 92.0618 191.534 92.0618C191.191 92.0618 191.076 91.9409 190.929 91.4269C190.7 90.6229 189.616 89.034 188.177 87.3892C186.783 85.7977 185.282 83.7289 184.623 82.4929C183.972 81.2717 182.499 77.75 182.499 77.4146C182.499 77.1349 184 76.4408 184.34 76.5637C184.449 76.604 184.958 77.627 185.469 78.8383C185.981 80.0498 186.718 81.5776 187.107 82.2335C187.86 83.5035 189.46 85.6072 189.674 85.6072C189.745 85.6072 189.622 84.6949 189.404 83.5799C188.981 81.4244 188.537 78.0964 188.329 75.5144C188.206 74.001 188.187 73.9448 187.779 73.9421C187.423 73.9421 187.226 73.6947 186.516 72.3627C185.249 69.9885 184.845 69.625 182.938 69.146C179.682 68.3279 177.247 67.0965 172.893 64.0645C172.001 63.4428 171.271 62.8516 171.271 62.7508C171.271 62.4973 172.312 61.2784 172.529 61.2784C172.625 61.2784 173.508 61.8281 174.488 62.5C178.225 65.0607 181.033 66.5006 183.221 66.9793C183.85 67.1168 184.704 67.3427 185.121 67.4813C185.537 67.6198 185.913 67.7329 185.956 67.7329C186.087 67.7329 184.959 65.9248 183.842 64.3402C182.463 62.3857 179.716 58.9783 177.061 55.9304C175.881 54.5745 174.966 53.3803 175.016 53.2585C175.065 53.1376 175.394 52.8304 175.748 52.576C176.246 52.2175 176.456 52.1523 176.682 52.2861C177.065 52.5132 180.66 56.6429 182.924 59.4579C184.909 61.9262 186.437 64.0372 187.576 65.8874C187.988 66.5564 188.383 67.0405 188.453 66.9631C188.524 66.8863 188.683 66.3015 188.809 65.6642C189.378 62.7788 191.13 58.044 192.77 54.9589C194.102 52.4521 194.972 51.3972 198.07 48.5268C205.131 41.9858 206.843 40.0238 207.785 37.3908C208.207 36.2098 208.157 35.1335 207.654 34.607C207.323 34.2609 205.369 32.8103 201.072 29.7213C199.783 28.7951 198.018 27.4305 197.15 26.6891C195.211 25.0333 193.659 24.1047 190.873 22.9328C189.693 22.4368 188.657 21.9653 188.57 21.8851C188.398 21.7263 189.24 19.7341 189.557 19.5488C189.811 19.4011 190.684 19.7058 193.059 20.7708C195.602 21.9116 197.135 22.8702 199.043 24.5147C199.885 25.2404 202.326 27.0877 204.466 28.6198C210.604 33.0144 210.848 33.2831 211.075 35.8993L211.186 37.1828L212.785 35.3699C215.7 32.066 217.471 29.7666 217.211 29.6227C217.081 29.551 216.545 29.2524 216.019 28.9593C215.468 28.6523 214.744 28.0402 214.312 27.516C213.493 26.5219 211.598 23.0043 209.855 19.2449C208.418 16.1454 207.437 14.7707 205.058 12.5241C200.508 8.22808 195.052 6.00064 189.079 6.00064C185.673 6.00064 182.974 6.59099 180.006 7.98567C177.402 9.20885 176.654 9.82592 174.016 12.9245C171.626 15.7315 171.589 15.788 171.802 16.2725C171.921 16.5436 172.071 16.7963 172.136 16.834C172.199 16.8717 172.802 16.4179 173.473 15.8257C175.119 14.3717 177.633 12.8105 180.057 11.7377C182.829 10.5103 188.419 8.43098 188.684 8.52798C188.805 8.57248 189.045 8.96981 189.217 9.41196C189.508 10.1555 189.51 10.2308 189.242 10.4148C189.084 10.5244 187.342 11.2227 185.37 11.9673C179.979 14.0047 177.365 15.3568 175.326 17.163C174.585 17.8189 172.13 20.5181 171.236 21.6584C171.06 21.8837 168.886 28.5553 168.724 29.3671C168.613 29.9274 168.644 29.9751 169.456 30.47C169.923 30.7547 170.437 31.0776 170.599 31.1879C170.84 31.3524 171.061 31.3026 171.827 30.9141C173.219 30.2071 176.51 28.1651 177.808 27.203C178.435 26.7381 179.07 26.3573 179.219 26.3573C179.56 26.3573 180.917 27.8357 180.918 28.2097C180.918 28.5721 177.565 30.9504 174.906 32.4726C173.783 33.1152 171.795 34.1375 170.488 34.7445C169.182 35.3516 167.954 35.9872 167.761 36.1572C167.568 36.3272 166.922 37.1522 166.325 37.9907C164.408 40.6876 161.954 43.9392 160.555 45.6384C159.068 47.4449 158.016 48.4447 154.426 51.4647L152.058 53.457L151.029 56.2506C150.463 57.787 149.925 59.4538 149.833 59.9545C149.512 61.7059 149.46 74.2548 149.757 78.3184C150.008 81.7483 150.006 82.0585 149.742 82.3347C149.475 82.6128 149.485 82.7247 149.879 83.9136C150.445 85.6203 150.448 88.4192 149.879 91.3886C149.294 94.4778 149.137 96.6506 149.34 98.8464C149.516 100.749 149.518 100.754 151.091 104.085C151.958 105.919 152.667 107.521 152.667 107.644C152.667 107.767 152.429 109.059 152.139 110.515C151.642 113.007 151.266 114.674 150.372 118.356L149.995 119.909L149.094 119.819C147.802 119.69 147.228 119.447 147.228 119.029C147.228 118.836 147.5 117.55 147.832 116.17C148.628 112.864 149.507 108.637 149.508 108.106C149.508 107.874 148.909 106.421 148.177 104.879C146.517 101.383 146.31 100.525 146.307 97.11C146.307 94.9703 146.399 93.9219 146.8 91.6485C147.437 88.0318 147.47 85.7725 146.905 84.425C145.726 81.608 142.46 78.4931 137.051 75.0275C134.575 73.4409 132.262 72.33 130.345 71.8066C127.332 70.9843 120.342 70.5998 116.523 71.0466C113.033 71.4551 109.751 72.5346 107.204 74.1123C105.377 75.2443 102.48 78.0508 100.977 80.1461C99.8336 81.7407 98.4267 84.0035 95.7296 88.5867C94.1817 91.2169 92.6003 93.5427 91.2941 95.111C90.6471 95.8874 89.9204 96.8327 89.6791 97.2114C89.4132 97.6287 89.0055 97.9937 88.6438 98.1382C88.3158 98.2693 87.5699 98.7409 86.9864 99.1863C84.4717 101.106 81.0068 102.137 74.6782 102.851C71.859 103.168 61.925 103.12 59.5247 102.776C58.5243 102.633 57.6275 102.442 57.5317 102.352C57.2841 102.118 57.5497 100.217 57.871 99.9127C58.0161 99.7758 58.2648 99.6989 58.4235 99.7418C60.446 100.29 70.8298 100.419 74.8992 99.9478C81.0432 99.2359 83.5219 98.386 86.3614 96.0181C87.696 94.9049 88.2145 94.0673 89.3976 91.1118C90.4264 88.5421 90.6417 87.1669 90.3888 84.7808C89.8369 79.5734 88.137 76.9302 82.126 71.9332C78.1122 68.5964 76.3519 66.5278 74.9368 63.4838C73.6754 60.7705 72.4922 55.391 73.048 54.8957C73.3162 54.6565 75.5687 54.4096 75.6941 54.6055C75.7426 54.6802 75.9091 55.5694 76.0656 56.5817C76.5931 59.9926 77.5733 62.6894 79.0697 64.8476C79.8145 65.9223 82.3691 68.393 85.3806 70.9516C88.5221 73.6208 90.2715 75.6544 91.6524 78.2424C92.6382 80.09 93.0667 81.7213 93.5004 85.2761L93.6313 86.352L95.0114 84.0349C95.7705 82.7607 96.8668 80.9849 97.4472 80.0891C100.437 75.4758 104.195 72.1153 108.472 70.2282C109.961 69.5715 113.274 68.5626 113.958 68.558C114.873 68.558 114.861 68.344 113.835 66.5406L112.854 64.8164L112.736 61.5993C112.641 59.0178 112.692 57.4994 112.996 53.9136C113.204 51.4557 113.431 48.663 113.501 47.7072L113.628 45.9695H114.68H115.733L115.692 48.0383C115.669 49.176 115.485 51.9316 115.28 54.1618C114.982 57.4165 114.932 58.8189 115.028 61.2688L115.147 64.3211L116.229 66.2047L117.311 68.088L119.065 67.9834C122.443 67.7827 128.881 68.3865 131.435 69.144C135.515 70.3539 140.808 73.6232 145.625 77.9086L146.745 78.9042L146.626 76.5043C146.439 72.731 146.479 63.0209 146.689 61.1953C146.974 58.7055 147.001 58.6 148.145 55.5156C149.188 52.7056 149.203 52.6431 148.875 52.3476C148.291 51.8199 144.116 49.6452 139.21 47.3135C135.811 45.6979 133.615 44.5246 131.498 43.1945C128.119 41.0703 119.524 35.039 119.383 34.6934C119.282 34.4453 120.093 33.3388 120.478 33.1994C120.608 33.153 122.749 34.5526 125.24 36.3131C132.108 41.1653 135.035 42.9423 139.834 45.1746C143.266 46.7712 145.691 48.0121 150.153 50.4566C150.702 50.7574 150.72 50.7567 151.118 50.4251C154.528 47.5905 156.89 45.4806 157.653 44.5878C158.851 43.1867 161.978 39.0638 163.634 36.7003C165.074 34.6468 165.845 33.8344 166.871 33.2906C167.26 33.0844 167.578 32.8606 167.578 32.7933C167.578 32.6027 165.76 31.5719 163.518 30.4913C158.381 28.0151 156.31 27.8044 136.698 27.7617C122.437 27.7308 121.357 27.6946 116.434 27.0763C113.146 26.6639 113.072 26.6618 111.082 26.9298C105.537 27.6766 99.7085 29.7492 95.233 32.5652C94.6521 32.9307 93.4281 34.0105 92.5127 34.9651C91.5972 35.9195 90.1523 37.4187 89.3015 38.2967C88.1735 39.4607 87.8133 39.9346 87.9704 40.0469C88.3494 40.3171 91.9014 41.7482 92.1934 41.7482C92.348 41.7482 92.8939 41.5733 93.4066 41.3593C94.4127 40.9396 95.2249 40.1672 95.4037 39.4599C95.6265 38.5787 95.9029 38.4669 97.0901 38.7779C97.6627 38.9278 97.748 39.0143 97.748 39.4444C97.748 39.7163 97.5508 40.3061 97.3094 40.7552C96.5132 42.2372 95.276 43.1212 93.0243 43.817C91.8859 44.1687 92.1372 44.2379 87.5242 42.3024L84.2307 40.9207H79.9728C75.0769 40.9207 74.514 41.0103 72.131 42.1716C68.9629 43.7151 65.5606 46.2701 61.2484 50.3445C55.8508 55.4442 52.7669 59.2936 49.9448 64.4538C46.4822 70.7851 44.6706 74.9571 43.6942 78.8488C42.7045 82.794 42.0355 84.8377 41.2387 86.3511C40.4701 87.8113 38.7372 90.2087 38.3489 90.3492C38.0772 90.4476 36.6908 89.4927 36.6908 89.2072C36.6908 89.1088 36.9908 88.65 37.3575 88.1866C38.85 86.3 39.6892 84.6873 40.3696 82.397C41.0655 80.0553 42.3116 75.1303 42.2283 75.0517C41.9844 74.8217 33.6582 76.0253 30.287 76.7779C26.3239 77.6626 24.3377 78.5382 22.5039 80.2093C18.2981 84.0418 12.0971 93.3484 10.6926 97.9362C10.3497 99.0561 10.2871 99.6431 10.2863 101.743C10.2863 103.901 10.3387 104.375 10.6928 105.372C11.5203 107.702 12.5445 109.161 14.7311 111.124C16.5385 112.747 18.4439 113.983 21.3647 115.431C23.7846 116.629 23.5646 116.678 25.8291 114.444C27.4801 112.815 28.4403 111.458 28.443 110.751C28.443 110.517 28.1803 109.088 27.8572 107.575C27.5342 106.063 27.3201 104.749 27.3821 104.654C27.5289 104.43 29.7619 103.99 30.0124 104.136C30.1192 104.198 30.5353 105.813 30.9383 107.725L31.6708 111.202L31.0287 112.477C29.9586 114.603 28.7781 115.858 24.3217 119.608C20.8727 122.51 19.9193 123.69 19.243 125.891C18.1722 129.377 18.2886 135.65 19.5019 139.856C20.5057 143.334 24.5713 148.956 29.4097 153.556C33.0766 157.043 35.1551 158.181 39.2086 158.923C43.162 159.646 44.6681 159.887 44.7555 159.808C44.8011 159.769 44.742 159.609 44.6273 159.454C42.8356 157.043 41.9884 154.424 42.1867 151.909C42.3239 150.17 42.8298 148.505 44.4554 144.442C46.0071 140.565 46.5037 138.59 46.6406 135.753C46.9077 130.215 45.0992 123.025 41.9273 117.014C41.5559 116.311 41.2522 115.586 41.2522 115.403C41.2522 115.163 41.5435 114.932 42.2999 114.572C42.8763 114.297 43.4282 114.073 43.5264 114.073C44.038 114.073 46.8238 120.275 47.8971 123.804C50.3187 131.765 50.266 137.908 47.7221 144.238C45.3055 150.251 44.9076 151.833 45.2835 153.935C45.7633 156.619 48.1895 159.698 51.7119 162.094C53.7365 163.471 56.0941 164.449 61.9556 166.343C63.9337 166.983 66.2629 167.762 67.1314 168.075C70.2428 169.197 77.1725 170.84 78.7923 170.84C79.2006 170.84 79.7482 170.515 81.1239 169.458C84.9657 166.505 93.4711 160.739 101.081 155.928C102.867 154.799 104.314 153.801 104.297 153.711C104.281 153.62 103.215 153.13 101.928 152.623C100.642 152.116 99.2231 151.52 98.7748 151.299C97.401 150.621 87.9264 143.004 87.2205 142.009C86.044 140.352 83.9096 137.976 82.1061 136.318C79.1357 133.587 76.495 131.744 71.3421 128.805C65.0518 125.218 62.8442 123.821 60.1938 121.753C58.6421 120.542 55.8147 117.761 55.8147 117.445C55.8147 117.209 57.3898 115.896 57.6753 115.894C57.7822 115.894 58.2933 116.321 58.8116 116.845C61.8225 119.885 65.0545 122.166 71.3421 125.686C77.432 129.095 80.4796 131.17 83.9435 134.268C85.5872 135.737 88.7138 139.218 89.4284 140.373C89.6134 140.672 91.4226 142.238 93.449 143.852C100.356 149.355 99.556 148.819 102.713 150.055C104.276 150.666 106.029 151.321 106.608 151.509L107.661 151.851L110.994 149.876C118.276 145.563 120.486 144.594 126.071 143.267C127.429 142.944 128.641 142.65 128.766 142.612C128.933 142.562 128.898 142.424 128.632 142.085C128.267 141.618 126.562 135.928 126.191 133.933C123.354 118.704 123.36 118.747 122.93 111.342C122.627 106.129 122.234 101.929 121.853 99.8396C121.279 96.6842 120.447 94.588 117.356 88.5025C115.027 83.9171 114.591 82.9669 114.591 82.4778C114.591 82.2594 114.869 82.0626 115.543 81.8047C116.067 81.6041 116.628 81.465 116.79 81.4957C116.977 81.5307 117.423 82.278 118.008 83.5376C118.516 84.6299 119.661 86.9385 120.552 88.6682C124.444 96.2236 125.016 98.6791 125.734 110.928C126.18 118.532 126.18 118.528 128.367 130.126C128.89 132.903 129.647 136.291 130.048 137.657C131.052 141.072 131.038 140.856 130.307 141.629C129.962 141.993 129.755 142.314 129.846 142.343C129.937 142.372 130.983 142.245 132.17 142.06C136.428 141.4 141.299 141.21 145.045 141.559C146.099 141.658 148.857 142.038 151.173 142.405C155.8 143.138 156.87 143.182 162.314 142.866C169.396 142.454 173.579 141.567 176.32 139.896C176.903 139.541 178.076 138.638 178.927 137.889C180.737 136.296 182.165 135.27 183.274 134.763C184.16 134.359 184.147 134.376 183.87 133.958C183.711 133.718 183.782 133.338 184.213 132.098C185.451 128.546 185.997 125.463 185.656 123.961C185.186 121.896 183.404 119.73 177.705 114.297C174.257 111.01 173.881 110.598 174.052 110.295C174.25 109.947 175.148 109.273 175.415 109.273C175.498 109.273 176.432 110.092 177.49 111.094C178.548 112.095 179.485 112.914 179.571 112.914C179.877 112.914 179.507 111.921 178.025 108.776C177.2 107.024 176.525 105.496 176.525 105.383C176.525 105.269 176.767 105.081 177.063 104.965C177.509 104.792 177.642 104.795 177.839 104.987C177.97 105.115 178.67 106.46 179.396 107.977C180.603 110.5 181.105 111.81 181.868 114.431C182.091 115.197 182.415 115.667 183.637 116.996C186.393 119.994 187.756 122.235 188.003 124.169C188.223 125.894 187.659 129.079 186.588 132.165C186.341 132.876 186.183 133.499 186.236 133.55C186.289 133.6 186.898 133.521 187.588 133.375C189.732 132.918 192.539 132.746 194.684 132.94C195.746 133.036 197.759 133.159 199.159 133.212C202.349 133.333 203.73 133.047 206.791 131.632C212.096 129.178 217.705 124.835 220.384 121.107C222.766 117.793 223.583 115.122 224.029 109.191C224.171 107.305 224.22 107.123 224.993 105.59C225.44 104.701 225.921 103.933 226.062 103.882C226.4 103.76 228.459 104.748 228.459 105.033C228.459 105.155 228.146 105.887 227.762 106.658C227.087 108.016 227.06 108.141 226.882 110.655C226.586 114.825 226.042 116.959 224.511 119.958C222.719 123.471 219.615 126.807 215.3 129.859C213.997 130.78 212.734 131.656 212.493 131.805C212.252 131.955 212.105 132.126 212.167 132.187C212.323 132.34 215.511 131.759 220.388 130.688C229.691 128.645 232.382 128.164 236.6 127.796C239.655 127.528 245.067 127.69 247.978 128.134C250.441 128.51 254.325 129.406 255.829 129.946C256.36 130.136 256.891 130.292 257.008 130.292C257.28 130.292 260.042 128.269 262.76 126.078C269.011 121.038 273.79 116.285 279.073 109.853C282.244 105.993 283.781 104.266 285.829 102.263C288.309 99.8376 291.355 97.3347 291.682 97.453C291.99 97.5652 292.85 98.5732 292.85 98.8234C292.85 98.9141 291.801 99.8809 290.518 100.973C287.001 103.968 285.232 105.854 280.171 112.004C274.487 118.912 267.308 125.703 260.42 130.688C259.509 131.347 259.35 131.53 259.542 131.699C259.888 132.002 269.593 137.442 270.878 138.053C271.727 138.457 272.053 138.538 272.308 138.409C272.852 138.134 274.465 136.361 275.306 135.112C275.852 134.302 276.202 133.941 276.445 133.941C276.877 133.941 278.441 134.847 278.576 135.177C278.631 135.312 278.249 136.02 277.708 136.786C275.774 139.527 273.384 141.546 272.075 141.546C271.242 141.546 269.324 140.583 262.665 136.82C255.606 132.831 255.036 132.564 252.057 131.851C245.599 130.304 239.775 130.086 232.757 131.127C230.056 131.528 228.267 131.879 223.195 133.003C215.738 134.656 211.399 135.409 207.756 135.684C206.936 135.746 206.106 135.877 205.913 135.975C205.712 136.077 204.852 136.134 203.896 136.108C202.405 136.068 201.891 136.143 199.022 136.825C194.966 137.79 193.072 138.388 190.649 139.469C186.389 141.368 182.466 144.125 177.191 148.925L175.312 150.634L176.082 152.173C177.172 154.352 177.594 156.057 177.592 158.275C177.592 159.906 177.505 160.388 176.69 163.349C176.195 165.148 175.76 166.713 175.724 166.827C175.683 166.96 175.312 167.034 174.683 167.034C173.918 167.034 173.682 166.972 173.59 166.746C173.526 166.588 173.886 164.931 174.392 163.064C175.177 160.161 175.309 159.45 175.304 158.156C175.29 155.603 174.286 152.999 172.039 149.713C171.515 148.947 171.086 148.182 171.086 148.012C171.086 147.684 172.424 146.827 172.747 146.949C172.847 146.986 173.189 147.392 173.507 147.85L174.086 148.684L175.437 147.534C176.18 146.901 176.946 146.216 177.139 146.012C177.757 145.36 180.942 142.808 182.76 141.508C186.18 139.065 188.572 137.833 193.456 136C193.749 135.891 193.694 135.849 193.129 135.751C191.667 135.499 187.423 136.161 185.386 136.96C184.109 137.461 183.162 138.106 181.042 139.918C178.935 141.72 178.148 142.267 176.613 142.995C172.888 144.762 167.459 145.642 159.396 145.784L154.811 145.864L150.607 145.198C144.106 144.168 140.627 144.017 135.382 144.534C130.265 145.038 123.693 146.56 120.452 147.99C114.312 150.701 92.8387 164.238 83.5206 171.273C81.1049 173.097 79.2349 174.673 78.6056 175.416C77.49 176.732 76.8322 179.724 75.8263 188.052C75.2249 193.033 75.0946 193.789 74.8061 193.97C74.5109 194.155 74.4906 194.297 74.6176 195.292C74.9043 197.538 76.8729 200.407 79.9502 203.064C80.7643 203.767 81.4668 204.456 81.511 204.596C81.5549 204.736 81.7118 205.894 81.8589 207.168C82.0845 209.126 82.2244 209.703 82.7609 210.892L83.3961 212.299L83.0928 213.419C82.71 214.832 82.8113 216.725 83.339 218.023C84.2726 220.318 86.3605 222.796 89.2104 224.991C91.6691 226.885 93.0482 227.758 96.3225 229.494C97.7786 230.266 99.2862 231.137 99.6731 231.431C100.335 231.932 100.396 231.948 100.699 231.689C100.876 231.538 101.123 231.414 101.248 231.414C101.373 231.414 102.986 232.118 104.831 232.977C110.498 235.618 113.562 236.42 118.012 236.428C120.182 236.428 121.059 236.355 123.013 235.987C124.315 235.741 125.796 235.463 126.302 235.369C126.809 235.274 127.223 235.135 127.223 235.058C127.223 234.983 126.612 234.604 125.864 234.218C121.028 231.724 117.95 228.232 116.658 223.775C116.311 222.578 116.258 222.008 116.263 219.498C116.276 214.566 117.237 211.296 121.193 202.811C122.015 201.049 122.65 199.571 122.604 199.528C122.442 199.375 120.516 200.524 119.569 201.34C117.708 202.945 116.362 204.9 114.533 208.657C112.72 212.382 110.234 216.698 109.469 217.448C108.682 218.219 106.281 219.583 105.999 219.418C105.767 219.283 105.116 218.096 105.117 217.808C105.117 217.691 105.67 217.301 106.345 216.943C107.021 216.585 107.721 216.138 107.902 215.95C108.341 215.493 111.246 210.288 112.336 208.002C114.469 203.533 116.233 201.118 118.787 199.172C120.053 198.207 122.531 196.998 124.106 196.576C124.659 196.427 125.151 196.246 125.199 196.172C125.247 196.099 124.913 195.907 124.456 195.745C121.829 194.815 118.947 193.122 116.965 191.346C115.853 190.35 115.625 190.215 115.184 190.293C114.77 190.368 114.315 190.163 112.661 189.16C111.551 188.487 107.742 186.495 104.195 184.732C100.649 182.97 97.7475 181.429 97.7475 181.308C97.7475 181.028 98.3908 179.831 98.6093 179.703C98.7576 179.617 111.553 185.848 112.095 186.27C112.614 186.675 112.434 186.158 111.384 184.226C110.053 181.778 108.89 179.07 109.026 178.734C109.132 178.474 110.683 177.909 110.917 178.046C110.994 178.091 111.307 178.741 111.611 179.491C113.242 183.515 115.357 186.771 117.923 189.213C121.913 193.009 126.707 194.831 134.11 195.367C136.259 195.522 137.194 195.522 138.321 195.367C139.836 195.159 147.302 193.433 152.401 192.111C155.684 191.26 155.774 191.21 157.184 189.458C157.624 188.912 158.227 188.213 158.525 187.907C159.184 187.229 160.601 186.569 161.436 186.551C162.662 186.525 162.727 186.408 162.035 185.471C161.47 184.707 156.827 175.099 156.588 174.2C156.501 173.873 156.602 173.775 157.326 173.482C158.267 173.101 158.554 173.142 158.805 173.689C162.006 180.67 163.604 183.869 164.383 184.86C165.803 186.665 165.815 186.672 168.104 186.956C169.213 187.093 172.135 187.466 174.595 187.783C183.086 188.879 186.227 188.955 188.878 188.128C191.288 187.377 195.783 185.341 200.211 182.997C200.935 182.614 203.126 181.544 205.08 180.619L208.633 178.939V177.898C208.633 175.855 208.903 175.088 210.845 171.615C213.382 167.079 214.035 166.122 219.229 159.336C221.75 156.042 223.96 152.896 225.131 150.937C225.552 150.232 226.003 149.654 226.132 149.654C226.634 149.654 227.757 150.328 227.757 150.629C227.757 151.343 225.021 155.405 220.908 160.797C216.054 167.162 214.9 168.867 212.527 173.18C211.313 175.387 211.085 175.93 210.984 176.862C210.848 178.115 210.909 178.154 212.29 177.7C212.71 177.562 213.618 177.369 214.308 177.271C215.531 177.097 215.655 177.114 219.083 177.931C223.21 178.915 225.023 179.113 229.95 179.116C234.293 179.116 248.262 178.495 248.677 178.279C248.845 178.192 249.831 177.82 250.868 177.453C253.077 176.67 254.595 175.913 256.197 174.797C258.38 173.275 259.612 171.754 261.113 168.726C261.577 167.792 262.07 166.986 262.209 166.935C262.469 166.841 263.795 167.399 263.978 167.68C264.127 167.906 262.523 171.057 261.476 172.596C260.396 174.184 258.322 176.128 256.531 177.229C255.807 177.675 255.211 178.113 255.206 178.204C255.206 178.295 255.571 178.459 256.028 178.57C257.812 179.001 259.801 179.862 262.108 181.204C267.763 184.493 270.33 185.237 276.021 185.237C278.966 185.237 283.587 184.817 284.262 184.488C284.996 184.13 289.141 180.176 291.489 177.595C295.827 172.824 297.226 171.785 303.815 168.431C306.013 167.313 309.276 165.417 312.547 163.36C317.409 160.301 317.967 159.899 320.618 157.535C327.508 151.392 330.638 147.921 332.204 144.689C332.49 144.098 333.187 142.439 333.751 141.002C336.121 134.974 338.393 130.543 341.439 126.009C345.961 119.278 347.325 116.14 347.001 113.213C346.865 111.989 346.471 111.262 343.143 106.095C338.268 98.5256 334.958 92.9398 334.958 92.2808C334.958 92.0052 337.134 91.0388 337.476 91.1627C337.604 91.2089 337.937 91.7088 338.216 92.2737C339.25 94.3645 340.889 97.0947 344.696 103.065C346.843 106.433 348.836 109.636 349.126 110.182C350.109 112.038 350.281 113.889 349.712 116.491C349.095 119.311 347.579 122.16 343.31 128.518C342.467 129.773 341.802 130.927 341.833 131.083C341.926 131.558 344.677 133.174 348.555 135.032C350.582 136.003 352.761 137.119 353.397 137.514C354.67 138.303 360.021 142.611 360.164 142.963C360.267 143.215 359.463 144.281 359.06 144.426C358.884 144.49 357.777 143.704 355.815 142.121C354.178 140.8 352.506 139.521 352.1 139.279C351.695 139.037 349.773 138.077 347.83 137.146C345.887 136.214 343.495 134.961 342.515 134.361C341.534 133.761 340.668 133.27 340.59 133.27C340.283 133.27 338.479 137.275 335.632 144.276C333.931 148.459 331.215 151.756 324.069 158.315L320.132 161.927L314.948 165.206C308.736 169.135 308.11 169.5 304.559 171.28C301.331 172.898 300.2 173.558 298.64 174.737C297.347 175.714 295.156 177.833 293.17 180.026C292.43 180.844 291.07 182.258 290.147 183.169C289.225 184.079 288.469 184.871 288.467 184.929C288.467 184.987 288.726 185.397 289.047 185.839C292.77 190.977 293.011 191.353 293.469 192.739C294.116 194.697 294.068 194.851 292.705 195.197C291.425 195.522 291.131 195.464 290.991 194.859C290.647 193.372 290.106 192.346 288.458 190.053C287.472 188.682 286.571 187.487 286.455 187.396C286.316 187.288 285.87 187.289 285.135 187.396C280.689 188.072 274.409 188.246 271.122 187.786C267.751 187.314 265.325 186.4 261.679 184.23C257.428 181.7 254.925 180.874 252.404 181.171L251.402 181.29L251.519 182.13C251.585 182.592 251.88 183.684 252.175 184.557C253.089 187.255 254.137 188.923 255.673 190.128C256.097 190.46 256.497 190.82 256.563 190.927C256.729 191.198 255.807 192.513 255.45 192.514C254.97 192.514 253.411 191.241 252.556 190.147C251.028 188.191 249.862 185.525 249.325 182.751C249.21 182.159 249.017 181.575 248.896 181.452C248.712 181.265 247.799 181.274 243.261 181.509C234.823 181.944 230.231 182.054 226.652 181.906C222.909 181.752 222.496 181.692 218.318 180.695L215.283 179.972L214.022 180.218C213.329 180.353 212.049 180.728 211.179 181.05C209.49 181.675 204.767 183.859 202.205 185.199C198.722 187.021 193.335 189.551 191.438 190.255C190.328 190.667 188.812 191.121 188.068 191.264C185.44 191.768 181.381 191.549 172.928 190.448C164.369 189.333 161.868 189.142 161.079 189.54C160.895 189.633 160.278 190.284 159.708 190.988C159.137 191.692 158.029 192.844 157.246 193.548C155.852 194.802 155.822 194.846 155.823 195.617C155.823 196.571 156.944 198.842 159.136 202.34C159.926 203.601 160.826 205.091 161.136 205.65L161.699 206.666L161.787 209.811L161.876 212.955L162.738 213.344C163.213 213.558 164.978 214.076 166.662 214.497L169.722 215.261L169.614 216.126C169.454 217.414 169.238 217.838 168.744 217.838C168.151 217.838 163.729 216.743 162.363 216.258C160.735 215.68 159.533 215.028 159.143 214.511C158.837 214.105 158.805 213.756 158.805 210.815V207.567L158.287 206.6C158.003 206.069 157.203 204.749 156.509 203.668C153.803 199.446 152.537 196.516 152.773 195.016C152.882 194.315 152.872 194.292 152.468 194.378C152.238 194.426 149.541 195.068 146.475 195.803C138.819 197.64 138.386 197.709 135.294 197.591C133.895 197.536 132.131 197.411 131.374 197.311C130.194 197.154 129.97 197.164 129.795 197.38C129.676 197.527 128.822 197.776 127.75 197.976C126.736 198.166 125.844 198.411 125.767 198.522C125.467 198.951 122.577 205.154 121.427 207.835C117.227 217.631 117.46 224.103 122.184 228.867C125.306 232.015 129.475 233.93 139.066 236.623C142.742 237.654 144.713 238.605 147.688 240.781C149.163 241.86 151.436 244.069 151.436 244.424C151.436 244.663 150.218 245.643 149.922 245.643C149.808 245.643 149.296 245.186 148.783 244.627C147.589 243.326 145.29 241.653 143.083 240.476C141.788 239.786 140.657 239.355 138.628 238.779C137.132 238.354 134.709 237.632 133.243 237.175L130.578 236.344L129.39 236.792C128.187 237.246 126.008 237.702 121.872 238.365C117.348 239.091 112.697 238.513 107.604 236.595C106.995 236.365 106.455 236.216 106.405 236.263C106.356 236.309 107.13 236.864 108.128 237.495C116.04 242.499 124.634 246.132 133.085 248.045C139.757 249.554 143.904 249.97 151.787 249.92C154.826 249.9 158.853 249.944 160.735 250.017C165.763 250.211 170.011 249.819 179.683 248.27C186.136 247.237 190.193 246.396 192.008 245.716C197.987 243.476 205.566 242.489 214.949 242.729C217.217 242.787 222.033 242.954 225.652 243.1C232.826 243.389 236.693 243.344 243.811 242.887C250.035 242.487 259.874 242.487 262.841 242.887C265.401 243.231 269.757 244.037 274.076 244.964C283.027 246.885 286.391 247.189 293.695 246.736C300.442 246.318 303.624 246.419 308.64 247.212C312.796 247.869 325.468 249.019 331.449 249.281C335.315 249.45 336.92 249.61 338.011 249.933C338.667 250.128 343.788 250.697 347.064 250.94C348.739 251.063 349.998 251.063 351.363 250.94C352.424 250.843 354.386 250.718 355.723 250.663C358.069 250.566 358.182 250.544 358.969 250.049C360.135 249.313 360.438 248.672 360.345 247.135C360.254 245.636 359.822 244.514 358.581 242.555C357.657 241.097 357.647 241.088 353.956 238.446C351.922 236.99 349.619 235.251 348.84 234.584C346.542 232.615 342.518 228.261 339.379 224.347C338.781 223.601 338.223 222.951 338.139 222.902C338.055 222.853 337.049 223.114 335.902 223.482C328.156 225.964 320.891 226.834 313.465 226.171L312.237 226.061L313.465 227.308C314.858 228.723 315.672 229.921 316.339 231.538C316.784 232.617 316.798 232.76 316.776 235.963C316.762 237.784 316.677 239.497 316.584 239.77C316.423 240.241 316.371 240.264 315.557 240.223C314.314 240.159 314.247 240.04 314.46 238.281C314.558 237.461 314.604 235.935 314.562 234.888C314.499 233.313 314.404 232.799 314.017 231.909C312.565 228.572 308.156 225.355 304.167 224.721C300.367 224.116 277.189 221.635 268.463 220.898C264.779 220.587 263.373 220.626 255.655 221.253C249.488 221.754 243.941 221.917 241.414 221.672C238.095 221.35 237.091 221.074 233.662 219.543C231.204 218.445 230.317 218.124 229.775 218.138C228.76 218.164 226.226 219.419 221.777 222.098C213.461 227.106 211.545 227.667 202.756 227.672C198.514 227.672 197.496 227.624 195.299 227.301C191.872 226.798 189.142 226.256 185.499 225.358C182.538 224.627 182.419 224.612 181.2 224.789C179.516 225.035 178.538 225.486 175.691 227.327C174.365 228.185 172.806 229.111 172.227 229.385C170.735 230.092 168.634 230.68 166.737 230.922C163.842 231.291 156.371 230.866 154.795 230.242C154.415 230.092 154.391 230.014 154.501 229.297C154.673 228.182 154.849 228.062 156.007 228.271C159.372 228.877 163.617 229.076 166.354 228.755C169.345 228.404 171.212 227.665 174.333 225.594C177.16 223.719 177.455 223.56 179.003 223.07C181.509 222.277 182.173 222.309 187.053 223.46C194.093 225.121 199.245 225.748 204.335 225.564C207.739 225.44 209.698 225.221 211.441 224.766C213.161 224.318 216.417 222.774 219.159 221.107C225.751 217.1 228.349 215.855 230.122 215.855C230.502 215.855 231.925 216.394 234.104 217.362C236.173 218.281 237.939 218.955 238.635 219.09C242.136 219.767 246.641 219.79 254.163 219.169C264.013 218.356 264.843 218.348 271.796 219C278.49 219.628 293.544 221.216 300.132 221.989C305.34 222.6 306.111 222.76 308.098 223.649C309.102 224.097 309.935 224.445 309.948 224.421C309.962 224.397 310.07 224.166 310.189 223.906C310.361 223.53 310.485 223.453 310.804 223.528C313.685 224.211 320.064 224.395 323.905 223.907C330.928 223.014 337.993 220.881 345.223 217.47C347.557 216.368 356.877 210.973 359.075 209.451C360.035 208.786 360.923 208.241 361.047 208.241C361.324 208.241 362.361 209.557 362.276 209.799C362.137 210.192 358.418 212.563 353.436 215.436C348.17 218.472 345.892 219.643 342.457 221.079C341.469 221.492 340.597 221.89 340.519 221.964C340.44 222.037 340.974 222.818 341.704 223.699C346.533 229.527 350.323 233.201 354.609 236.214C358.605 239.023 359.292 239.597 360.141 240.839C363.126 245.206 363.507 248.69 361.256 251.014C360.651 251.637 360.441 251.958 360.602 252.013C360.88 252.109 364.137 252.199 365.399 252.145C365.882 252.126 367.303 252.07 368.558 252.023L368.565 252.027ZM113.151 230.187C111.68 229.056 108.305 226.738 105.651 225.035C102.997 223.333 100.68 221.809 100.501 221.649C100.192 221.373 100.191 221.338 100.476 220.926C100.642 220.687 100.911 220.492 101.074 220.492C101.56 220.492 110.625 226.374 113.445 228.519C117.467 231.577 117.159 231.276 116.796 231.799C116.626 232.043 116.338 232.242 116.156 232.242C115.974 232.242 114.621 231.317 113.15 230.187H113.151ZM220.356 204.138C219.064 202.835 217.007 200.125 216.5 199.056C215.353 196.641 215.091 194.345 215.576 190.943C215.751 189.71 215.98 188.591 216.084 188.457C216.334 188.135 217.924 188.317 218.073 188.685C218.129 188.823 218.04 189.873 217.878 191.019C217.518 193.544 217.513 194.271 217.848 195.916C218.281 198.053 218.956 199.189 221.565 202.169C222.304 203.014 222.798 203.721 222.742 203.856C222.634 204.123 221.556 204.935 221.31 204.935C221.221 204.935 220.791 204.576 220.357 204.138H220.356ZM171.29 175.495C170.314 174.505 169.515 173.58 169.515 173.439C169.515 173.299 169.958 172.827 170.498 172.392L171.481 171.599L173.298 173.413C174.298 174.411 175.169 175.373 175.234 175.551C175.326 175.801 175.158 176.035 174.495 176.582C174.024 176.971 173.509 177.29 173.351 177.292C173.193 177.292 172.265 176.485 171.29 175.495ZM320.842 117.779C319.06 117.478 317.129 116.621 316.146 115.694C315.178 114.78 314.874 113.848 315.036 112.294C315.251 110.234 314.634 105.587 313.535 100.999C312.032 94.7219 309.038 88.5103 305.518 84.3663C302.651 80.9902 298.84 78.2526 296.104 77.6023C292.832 76.8248 285.323 76.8157 281.366 77.5842C277.93 78.2517 275.981 79.3666 272.439 82.6895C266.497 88.2654 264.494 89.6981 260.631 91.1378C259.006 91.7438 251.968 93.7128 251.417 93.7155C251.204 93.7155 251.008 93.3883 250.72 92.5425C250.346 91.4469 250.338 91.3541 250.615 91.1629C250.779 91.0496 252.396 90.5638 254.208 90.082C256.021 89.6002 258.135 88.9909 258.907 88.7276C260.205 88.2853 260.348 88.1898 260.792 87.4662C261.056 87.0355 261.863 85.8308 262.584 84.7892C264.158 82.5162 265.325 80.3927 266.41 77.8287C268.527 72.8282 268.886 70.191 267.953 66.4976C267.207 63.5481 267.532 61.5911 269.155 59.2522C270.667 57.0743 275.425 52.5251 275.913 52.7925C276.21 52.956 277.067 53.9199 277.067 54.0916C277.067 54.1632 275.976 55.2695 274.643 56.5501C269.997 61.0152 269.34 62.4461 270.225 66.1692C270.983 69.3547 270.875 71.9638 269.849 75.2397C269.178 77.3855 267.518 81.0846 266.276 83.2029C265.743 84.1106 265.331 84.9172 265.358 84.9953C265.426 85.1864 268.03 82.9708 269.295 81.646C271.05 79.8071 273.98 77.4406 275.521 76.6168C277.23 75.7025 279.547 74.9624 281.938 74.5672C283.293 74.3431 284.734 74.2846 288.91 74.2841C293.655 74.2836 294.345 74.3187 295.912 74.6417C300.727 75.6331 305.687 79.3964 309.82 85.1936C313.035 89.7032 315.685 96.2179 317.058 102.989C317.36 104.475 317.947 108.306 317.947 108.786C317.947 109.156 318.491 108.825 321.223 106.794C324.077 104.672 324.139 104.637 326.016 104.076C328.585 103.309 330.545 102.996 330.757 103.32C331.006 103.699 331.157 104.823 330.982 104.988C330.894 105.072 329.871 105.358 328.709 105.626C327.547 105.894 326.248 106.244 325.824 106.403C325.4 106.563 323.632 107.757 321.895 109.055C320.158 110.354 318.607 111.418 318.449 111.421C318.236 111.421 318.133 111.649 318.047 112.302C317.897 113.428 318.007 113.667 318.889 114.143C319.892 114.683 320.607 114.875 322.523 115.117L324.175 115.325L324.227 116.452C324.26 117.14 324.199 117.67 324.074 117.813C323.816 118.105 322.706 118.094 320.841 117.78L320.842 117.779ZM280.165 249.672C279.307 249.424 278.367 249.494 278.562 249.79C278.619 249.878 279.195 249.943 279.841 249.934L281.015 249.916L280.165 249.671V249.672ZM390.76 245.306C395.405 242.34 399.82 237.865 402.941 232.962L403.978 231.332L403.946 230.008C403.909 228.444 403.605 226.338 403.351 225.871C403.252 225.689 402.608 224.981 401.921 224.298C401.234 223.616 399.86 222.253 398.867 221.269L397.062 219.481L395.864 220.442C395.061 221.086 394.514 221.688 394.206 222.271C393.953 222.748 392.702 224.461 391.427 226.077C390.006 227.876 388.987 229.336 388.798 229.843C388.408 230.89 388.387 232.972 388.739 235.642C389.2 239.126 389.108 240.859 388.302 243.91C387.917 245.367 387.602 246.691 387.601 246.852C387.601 247.13 387.632 247.131 388.17 246.87C388.484 246.719 389.648 246.015 390.758 245.306L390.76 245.306ZM72.1401 193.639C72.1401 193.346 73.4208 183.07 73.5455 182.343C73.8745 180.43 73.9945 180.604 71.419 179.272C70.1541 178.618 68.9895 178.051 68.8306 178.012C68.6471 177.966 68.4265 178.125 68.2254 178.446C67.3586 179.83 64.318 182.007 61.894 182.979C60.7741 183.428 60.4699 183.477 58.8933 183.465C57.9283 183.453 56.9128 183.369 56.6367 183.268C56.1549 183.09 56.1397 183.051 56.2565 182.299C56.3236 181.868 56.4535 181.442 56.5457 181.353C56.6418 181.259 57.4834 181.21 58.5051 181.238C60.2438 181.284 60.3345 181.269 61.5673 180.705C62.266 180.385 63.3001 179.828 63.8654 179.466C64.9875 178.747 66.5253 177.237 66.5253 176.854C66.5253 176.722 65.749 175.892 64.8 175.01C63.1929 173.516 59.5073 169.147 59.5073 168.735C59.5073 168.634 59.1324 168.423 58.674 168.265C54.0619 166.678 52.5717 166.027 50.3703 164.636C49.5576 164.122 48.6878 163.663 48.4378 163.615C47.9014 163.513 45.692 164.389 41.0858 166.529C37.8906 168.014 35.4198 168.861 33.2877 169.202C31.6077 169.471 28.0841 169.304 25.9084 168.854C23.3699 168.328 23.3393 168.301 23.7244 166.994C23.9422 166.254 24.0078 166.246 26.3174 166.696C29.9804 167.409 32.6962 167.311 35.7321 166.357C37.6929 165.741 43.9514 162.887 43.7527 162.7C43.6726 162.624 42.2301 162.339 40.5475 162.067C35.6456 161.274 33.8086 160.615 30.9707 158.63C29.0555 157.29 25.5476 153.975 23.4852 151.554C21.5004 149.225 18.8719 145.52 17.8535 143.616C16.3217 140.753 15.5957 137.052 15.581 132.031C15.5675 128.441 15.7941 126.711 16.5433 124.584C17.2104 122.689 18.1644 121.309 19.9869 119.601C20.7829 118.855 21.4343 118.164 21.4343 118.065C21.4343 117.965 20.8692 117.616 20.1785 117.288C17.5933 116.06 15.0135 114.389 13.0266 112.653C12.1731 111.908 11.8926 111.757 11.3575 111.757C11.0037 111.757 10.4904 111.867 10.2168 112C9.18686 112.502 7.5864 114.656 7.32279 115.895C7.27438 116.122 6.83299 116.83 6.34207 117.467C2.29375 122.722 1.77925 129.485 4.85045 137.079C5.67552 139.119 7.63224 142.773 8.99328 144.816C11.2052 148.136 14.5126 152.095 16.2534 153.507C17.1213 154.211 17.5361 155.179 18.0082 157.601C20.2293 168.998 28.6693 178.374 42.7788 185.118C50.086 188.61 57.7242 191.046 66.7013 192.747C70.6689 193.499 72.1395 193.74 72.1401 193.639V193.639ZM74.9426 176.095C75.2036 175.398 75.6258 174.529 75.8809 174.166C76.1358 173.803 76.2804 173.468 76.202 173.422C76.1236 173.376 75.1185 173.143 73.9682 172.903C71.2906 172.345 68.866 171.685 66.4449 170.853C65.3876 170.49 64.4881 170.225 64.4463 170.265C64.3194 170.384 65.7764 172.075 66.7509 172.941C67.2542 173.388 68.1 174.06 68.6308 174.435C69.7163 175.202 74.0734 177.484 74.3128 177.411C74.3983 177.384 74.6816 176.793 74.9426 176.095ZM6.17213 112.995C6.91519 111.77 8.19306 110.562 9.31164 110.027C9.81602 109.786 10.1998 109.536 10.1643 109.473C9.41892 108.133 8.57402 106.302 8.34851 105.537C8.18971 104.998 8.01954 103.639 7.97051 102.516C7.81959 99.0631 8.39201 96.8053 10.3691 93.0551C13.7826 86.5803 19.6025 79.1414 22.8392 77.116C25.5148 75.4418 31.958 73.8972 39.8567 73.0365C42.8878 72.706 42.4787 72.977 43.5475 70.5858C45.0859 67.1427 48.6887 60.4868 50.0686 58.5388C55.6791 50.6173 65.8134 41.6075 71.9206 39.111C74.1153 38.2138 74.8561 38.1089 79.0348 38.1032C82.8738 38.1032 84.8985 37.9422 85.7204 37.5889C85.9811 37.4767 87.4665 36.0399 89.0214 34.3955C90.69 32.6309 92.321 31.0781 93.001 30.6068C96.7265 28.0246 103.199 25.4613 108.511 24.4641C111.697 23.8661 113.11 23.7932 115.469 24.1055C116.575 24.2519 117.696 24.3716 117.96 24.3716H118.44V22.3442C118.44 19.9947 118.723 18.7619 119.561 17.4526C120.252 16.373 120.812 15.8586 121.16 15.9847C121.305 16.0373 121.628 16.371 121.878 16.7265L122.331 17.3728L121.716 18.2539C121.378 18.7384 121.01 19.5181 120.899 19.9865C120.64 21.0787 120.752 24.2841 121.059 24.5743C121.235 24.7404 124.501 24.8084 136.407 24.8933C144.725 24.9527 151.886 25.0436 152.32 25.0954C152.754 25.1474 154.136 25.2733 155.391 25.3754C156.645 25.4774 158.206 25.6651 158.859 25.7921C160.487 26.1091 163.169 27.0685 164.922 27.9615C165.725 28.3706 166.411 28.6785 166.446 28.6455C166.509 28.5835 167.767 24.7929 168.465 22.5511C168.943 21.0167 169.207 20.5244 170.078 19.5504L170.762 18.7838L169.539 16.9485C168.01 14.6557 166.985 13.393 165.305 11.7317C162.785 9.23901 162.096 8.96432 158.022 8.83007L155.04 8.73184L154.992 8.23522C154.966 7.96228 154.902 7.56396 154.853 7.35034C154.74 6.87325 154.704 6.88027 151.398 8.01412L148.985 8.842L146.398 8.56195C142.966 8.19064 134.966 8.05336 131.442 8.30546C121.619 9.00823 112.447 11.2807 103.906 15.1276C96.7579 18.3471 90.3607 22.4001 85.429 26.8346C84.0853 28.0427 84.0597 28.0564 83.3237 27.9547C82.9137 27.8984 82.4084 27.8068 82.2005 27.7517C81.9205 27.6769 81.7936 27.7381 81.7101 27.9861C81.6406 28.1931 81.383 28.3612 81.0352 28.4268C79.238 28.7652 76.3325 29.9471 73.1123 31.6496C70.0775 33.2539 68.8765 34.004 66.3491 35.8737C62.1108 39.0092 60.0762 40.8392 52.8484 48.0165C51.1649 49.6884 49.5068 51.2277 49.1641 51.4372C48.2467 51.998 41.7654 53.874 41.2042 53.7414C40.8019 53.6456 40.3073 54.0314 36.5766 57.3463C30.455 62.7855 30.3799 62.8481 29.2113 63.4943C24.9984 65.8233 20.854 69.8993 17.4124 75.0984C15.1176 78.5651 11.9103 85.3268 10.818 89.0004C10.6557 89.5465 10.1033 90.6265 9.59076 91.4002C7.33738 94.8011 5.46236 98.3695 4.48378 101.119C3.3004 104.445 2.99623 108.126 3.69657 110.65C4.09523 112.088 5.04237 113.908 5.39138 113.908C5.51568 113.908 5.86664 113.497 6.17152 112.995L6.17213 112.995ZM45.746 50.3724C46.621 50.1119 47.5811 49.7797 47.8793 49.6342C48.1776 49.4887 50.1554 47.6366 52.2744 45.5182C57.6705 40.1238 60.7296 37.3491 63.9813 34.9002C67.3357 32.3739 68.8732 31.3981 72.4368 29.533C73.9157 28.7593 75.0913 28.0936 75.0493 28.0541C74.9277 27.9393 73.0857 28.4844 71.4489 29.1186C65.5105 31.419 57.9572 36.7251 50.4053 43.9009C48.0956 46.0957 44.1451 50.1461 43.8276 50.645C43.6338 50.9498 43.9658 50.9026 45.746 50.3724ZM327.422 47.6596C327.422 46.3839 327.103 44.9696 326.547 43.7859C325.185 40.8811 319.276 36.6463 310.906 32.5774C305.463 29.9314 301.813 28.5763 297.502 27.6015C293.394 26.6727 288.745 25.0358 278.936 21.0641C271.372 18.0019 271.977 18.122 269.035 19.1011C265.57 20.2544 261.256 22.6926 259.808 24.3163C259.146 25.0586 258.603 26.5428 257.861 29.637C257.143 32.6341 256.811 33.641 256.112 34.9426C255.852 35.4274 255.67 35.8537 255.708 35.8899C255.747 35.9264 257.018 35.692 258.533 35.3697C265.472 33.8935 271.118 33.2507 277.155 33.2496C283.051 33.2496 287.229 33.8102 291.737 35.2094C294.856 36.1772 297.349 37.3359 301.718 39.8469C310.89 45.1187 311.693 45.4521 317.07 46.2242C320.553 46.7242 322.754 47.2542 325.58 48.273C326.448 48.5862 327.218 48.8477 327.29 48.8543C327.362 48.8667 327.421 48.3231 327.421 47.6596H327.422ZM211.521 40.609C212.784 39.9819 215.949 38.2991 218.554 36.8693C221.16 35.4397 224.695 33.5573 226.412 32.6864C228.128 31.8154 229.47 31.049 229.395 30.9833C229.319 30.9177 227.52 30.7416 225.397 30.5922C223.274 30.4428 220.984 30.2789 220.309 30.2278L219.081 30.1346L217.373 32.2817C215.368 34.803 213.238 37.2416 211.125 39.4351C209.107 41.5291 208.913 41.749 209.082 41.749C209.161 41.749 210.259 41.2358 211.521 40.6086V40.609ZM214.214 16.7241C216.333 15.627 218.122 14.2538 219.897 12.3619C220.799 11.4001 222.011 10.2715 222.589 9.85393C224.963 8.14176 229.922 6.54151 233.029 6.48503L233.818 6.47142L233.117 6.15474C231.955 5.63087 227.697 4.37686 225.333 3.86256C218.099 2.28884 210.016 1.99167 202.325 3.01651C200.003 3.32603 196.736 3.9358 196.572 4.0904C196.527 4.13347 196.678 4.24212 196.907 4.33173C200.681 5.80429 201.868 6.41545 204.342 8.16071C206.061 9.37264 208.614 11.7802 209.887 13.3891C210.329 13.9476 211.062 15.0834 211.516 15.913C212 16.7972 212.451 17.4213 212.605 17.4213C212.75 17.4213 213.474 17.1079 214.214 16.7248V16.7241ZM172.142 10.6415C173.291 9.29361 174.572 7.9302 174.988 7.6116C176.668 6.32444 179.448 4.93921 181.866 4.18417C183.866 3.55963 183.115 3.45599 177.424 3.57084C171.17 3.69712 168.054 4.01927 162.102 5.15438C160.727 5.4164 158.931 5.80537 158.111 6.01849L156.62 6.40608L157.497 6.51955C157.979 6.58284 158.891 6.63926 159.522 6.64792C162.74 6.68817 165.005 7.95067 168.144 11.4539C169.034 12.4474 169.828 13.2223 169.907 13.1759C169.986 13.1295 170.992 11.9889 172.142 10.641V10.6415Z" fill="#22ACAC"/>
</g>
<defs>
<clipPath id="clip0_97_7520">
<rect width="416" height="334" fill="white"/>
</clipPath>
</defs>
</svg>
