<svg width="101" height="109" viewBox="0 0 101 109" fill="none" xmlns="http://www.w3.org/2000/svg">
<path d="M31.4917 23.8868C26.6755 24.4677 22.8205 28.57 22.2633 33.7116C20.7664 47.5236 20.7664 61.4765 22.2633 75.2886C22.8205 80.4302 26.6755 84.5322 31.4917 85.1131C44.0192 86.6241 56.9792 86.6241 69.507 85.1131C74.323 84.5322 78.1778 80.4302 78.735 75.2886C79.8106 65.3641 80.1136 55.367 79.6436 45.4019C79.6314 45.1445 79.7202 44.8935 79.8893 44.7113L84.2605 39.9935C84.7668 39.4475 85.6312 39.7889 85.685 40.559C86.5099 52.3895 86.2835 64.2846 85.005 76.0797C84.1006 84.4228 77.8937 90.9564 70.2081 91.8838C57.2144 93.4507 43.7839 93.4507 30.7905 91.8838C23.1045 90.9564 16.8977 84.4228 15.9935 76.0797C14.4397 61.7422 14.4397 47.2579 15.9935 32.9202C16.8977 24.5774 23.1045 18.0435 30.7905 17.1165C43.7839 15.5492 57.2144 15.5492 70.2081 17.1165C72.9149 17.443 75.4386 18.465 77.6114 20.0166C78.0389 20.3219 78.0814 20.9706 77.7191 21.3619L74.3402 25.0083C74.0637 25.3065 73.6349 25.3567 73.2907 25.1575C72.1401 24.4922 70.8616 24.0502 69.507 23.8868C56.9792 22.3758 44.0192 22.3758 31.4917 23.8868Z" fill="#22ACAC"/>
<path d="M88.5032 27.3878C89.7358 26.0575 89.7358 23.9008 88.5032 22.5706C87.2705 21.2404 85.2724 21.2404 84.0398 22.5706L48.3965 61.0368L38.0033 49.8207C36.7707 48.4905 34.7722 48.4905 33.5397 49.8207C32.3071 51.151 32.3071 53.3073 33.5397 54.6376L46.1648 68.2626C47.3974 69.5929 49.3955 69.5929 50.6282 68.2626L88.5032 27.3878Z" fill="#22ACAC"/>
</svg>
