<svg width="180" height="126" viewBox="0 0 180 126" fill="none" xmlns="http://www.w3.org/2000/svg">
<path d="M111.516 2.7422V5.48438H108.703H105.891V31.1484V56.8125H103.008H100.125V54.0703V51.3281H91.4766H82.8281L82.8562 59.7234L82.8984 68.1328L85.8234 68.175L88.7344 68.2031V71.0859V73.9688H91.4766H94.2188V79.6641V85.3594H97.1719H100.125V91.0547V96.75H102.783H105.441L105.525 97.4813C105.666 98.7609 105.905 103.613 105.933 105.891L105.961 108.07L108.745 108.113L111.516 108.141V116.719V125.297H140.062H168.609V116.719V108.141H171.352H174.094V99.7031V91.2656L174.417 91.2516C174.586 91.2516 175.894 91.1391 177.328 91.0125L179.93 90.7734L179.972 71.0297L180 51.2859L177.23 51.3703C175.711 51.4266 174.431 51.5109 174.389 51.5531C174.347 51.5953 174.262 60.525 174.22 71.3813C174.178 82.2375 174.108 91.1672 174.066 91.1953C174.023 91.2375 172.814 91.2234 171.366 91.1672C169.917 91.1109 168.694 91.0828 168.666 91.1109C168.637 91.1391 168.609 94.9922 168.609 99.6609V108.155L165.698 108.141L162.773 108.113L162.731 113.752L162.703 119.391H139.992H117.281V113.723V108.07L114.398 108.113L111.516 108.155V102.445V96.75H108.703H105.891V91.0547V85.3594H103.008H100.125V79.6641V73.9688H97.1719H94.2188V71.0859V68.2031H91.4766H88.7344V62.5078V56.8125H94.4297H100.125V59.7656V62.7328L103.008 62.6906L105.891 62.6484L105.919 65.3906L105.961 68.1328H108.703H111.445L111.487 36.8016L111.516 5.48438H117.141H122.766V31.1484V56.8125H125.719H128.672V45.4219V34.0313H134.367H140.062V45.4219V56.8125H142.805H145.547V48.1641V39.5156H151.383H157.219L157.247 51.075L157.289 62.6484L160.003 62.6766L162.703 62.7047V54.0703V45.4219H165.656H168.609V48.1641V50.9063H171.352H174.094V48.1641V45.4219H171.352H168.609V42.75C168.609 40.0922 168.609 40.0781 168.3 40.0219C168.117 39.9797 165.6 39.8531 162.703 39.7266C159.806 39.6 157.416 39.4734 157.387 39.4594C157.275 39.3328 156.938 36.1969 156.938 35.1844V34.0313H148.5H140.062V31.1484V28.2656H134.367H128.672V16.875V5.48438H125.719H122.766V2.7422V1.52588e-05H117.141H111.516V2.7422Z" fill="#22ACAC"/>
<path d="M0 58.0922V106.636L5.52656 106.523C8.55 106.467 11.0812 106.397 11.1234 106.369C11.1656 106.341 11.25 105.117 11.2922 103.627C11.3484 102.15 11.4328 100.884 11.475 100.814C11.5172 100.744 12.7406 100.688 14.2031 100.688H16.8469L16.9031 98.4656C16.9594 96.0891 17.0578 95.7234 17.6906 95.4563C17.9016 95.3719 19.125 95.2734 20.4328 95.2313L22.7812 95.1609V92.3062V89.4375H25.5234H28.2656V95.0625V100.688H31.1484H34.0312V106.383V112.078H35.1281C35.7188 112.078 37.0125 112.036 38.0109 111.98L39.7969 111.895V106.453V101.011L39.0656 100.913C38.6578 100.87 37.7437 100.828 37.0406 100.828C36.3375 100.828 35.3672 100.786 34.8891 100.744L34.0312 100.645L34.0594 95.0484L34.1016 89.4375H31.1906H28.2656V86.4844V83.5312H25.5234H22.7812V86.4844V89.4375H19.8281H16.875V92.1797V94.9219H14.1328H11.3906V97.8047V100.688H8.4375H5.48438V60.8484C5.48438 38.925 5.5125 20.9672 5.54062 20.9391C5.56875 20.9109 6.90469 20.8969 8.49375 20.925L11.3906 20.9672V23.8359V26.7188H14.1328H16.875V29.4609V32.2031H19.8281H22.7812V35.1562V38.1094H25.5234H28.2656V35.1562V32.2031H25.5234H22.7812V29.4609V26.7188H19.8281H16.875V23.8359V20.9531H14.1328H11.3906V18.1406V15.3281H8.4375H5.48438V12.4453V9.5625H2.74219H0V58.0922Z" fill="#22ACAC"/>
<path d="M28.6312 38.8406C28.5891 39.2484 28.5187 40.4859 28.4766 41.5828L28.4062 43.5938H31.2188H34.0312L34.0594 46.5047L34.1016 49.4297L37.0266 49.4719L39.9375 49.5V52.2422V54.9844H42.6797H45.4219V52.2422V49.5H42.7641H40.1062L40.0219 49.1063C39.825 48.15 39.6562 46.2234 39.6562 44.9719V43.5938H36.8438H34.0312V40.8516V38.1094H31.3734H28.7016L28.6312 38.8406Z" fill="#22ACAC"/>
<path d="M45.479 55.4485C45.4508 55.5469 45.4368 56.7844 45.4508 58.2047L45.493 60.7782L48.418 60.75L51.329 60.736V63.7172V66.6985L53.5508 66.6C56.0821 66.5016 56.4758 66.4313 56.6165 66.1079C56.6727 65.9813 56.743 64.7297 56.7852 63.3094L56.8415 60.75H54.0852H51.329V58.0079V55.2657H48.4461C46.2243 55.2657 45.5352 55.3079 45.479 55.4485Z" fill="#22ACAC"/>
<path d="M56.8133 69.3984V72.1406H59.7664H62.7195V75.0938V78.0469H51.3289H39.9383V83.7422V89.4375H42.6805H45.4227V95.0625V100.688H48.3758H51.3289V106.383V112.078H45.4086H39.4883L39.5727 112.683C39.7977 114.188 39.9383 115.763 39.9383 116.817V117.984H45.6336H51.3289V115.031V112.078H54.0711H56.8133V106.383V100.688H54.0711H51.3289V95.0625V89.4375H48.3617H45.3945L45.4789 87.6375C45.6195 85.05 45.718 84.1359 45.9008 83.8969C46.0273 83.7141 47.5883 83.6719 57.1367 83.5875L68.2039 83.4891V77.8078V72.1406H65.4617H62.7195V69.3984V66.6563H59.7664H56.8133V69.3984Z" fill="#22ACAC"/>
</svg>
