<svg width="82" height="80" viewBox="0 0 82 80" fill="none" xmlns="http://www.w3.org/2000/svg">
<g clip-path="url(#clip0_93_6382)">
<path fill-rule="evenodd" clip-rule="evenodd" d="M47.7729 22C42.5406 22 38.0148 25.0078 35.8801 29.3794C35.3062 30.5547 33.9135 31.0964 32.6822 30.6232C31.026 29.9867 29.2222 29.6363 27.3295 29.6363C19.1739 29.6363 12.5625 36.166 12.5625 44.221C12.5625 52.276 19.1739 58.8056 27.3295 58.8056H66.6435C72.1937 58.8056 76.6929 54.362 76.6929 48.8803C76.6929 43.399 72.1937 38.9553 66.6435 38.9553C65.7407 38.9553 64.869 39.0723 64.0421 39.2903C63.2314 39.5043 62.3661 39.3073 61.7319 38.765C61.0974 38.2223 60.7768 37.4043 60.8753 36.5813C60.9361 36.074 60.9671 35.557 60.9671 35.0316C60.9671 27.8344 55.0599 22 47.7729 22ZM32.4103 25.2857C35.6561 20.3047 41.3219 17 47.7729 17C57.4946 17 65.4417 24.5048 65.9986 33.9686C66.2125 33.9597 66.4275 33.9552 66.6435 33.9552C74.9896 33.9552 81.7554 40.6373 81.7554 48.8803C81.7554 57.1233 74.9896 63.8056 66.6435 63.8056H27.3295C16.378 63.8056 7.5 55.0373 7.5 44.221C7.5 33.4046 16.378 24.6363 27.3295 24.6363C29.0833 24.6363 30.7868 24.8618 32.4103 25.2857Z" fill="#22ACAC"/>
</g>
<defs>
<clipPath id="clip0_93_6382">
<rect width="81" height="80" fill="white" transform="translate(0.5)"/>
</clipPath>
</defs>
</svg>
