<svg width="180" height="121" viewBox="0 0 180 121" fill="none" xmlns="http://www.w3.org/2000/svg">
<path d="M151.946 0.244629C150.696 0.56974 150.014 0.829826 146.425 2.34159C141.586 4.38978 135.319 6.34044 133.354 6.40546C132.737 6.43797 131.763 6.56801 131.227 6.71431C130.675 6.86061 130.025 6.9744 129.782 6.9744C129.538 6.9744 129.083 7.08819 128.775 7.23449C128.369 7.44581 128.174 7.46207 128.028 7.31577C127.784 7.07193 127.184 7.08819 126.972 7.33202C126.891 7.44581 126.761 7.86845 126.696 8.27484C126.599 8.89255 126.648 9.0551 126.924 9.31519C127.119 9.494 127.265 9.72158 127.265 9.81911C127.265 10.4531 130.236 21.1654 131.746 25.9608C132.234 27.5051 132.623 28.9193 132.623 29.0981C132.623 29.4232 132.997 30.2685 133.321 30.6911C133.419 30.8049 133.516 31.1626 133.533 31.4877C133.549 31.9753 133.695 32.2192 134.474 32.9344C134.994 33.4058 135.855 34.0235 136.407 34.3161C137.819 35.0151 140.141 35.7304 141.392 35.8441C141.976 35.8929 142.967 36.0392 143.584 36.1855C144.672 36.4131 149.77 38.3637 153.408 39.9243C154.349 40.3307 155.632 40.7533 156.249 40.8833C157.321 41.0784 157.418 41.0784 157.824 40.7858C158.068 40.607 158.36 40.4607 158.474 40.4607C158.945 40.4607 160.422 39.6154 162.257 38.315C163.329 37.5672 164.969 36.4781 165.894 35.8929C166.82 35.324 168.07 34.4462 168.655 33.9585C169.775 33.0157 173.315 30.4961 175.978 28.7242C177.407 27.7814 177.521 27.6514 177.537 27.1637C177.537 26.6598 177.634 26.5623 178.657 25.9933C179.258 25.6519 179.826 25.2618 179.908 25.1155C180.151 24.6929 179.891 24.2052 179.388 24.0914C179.031 24.0264 178.885 23.8801 178.82 23.5387C178.673 22.9048 177.391 21.7994 176.563 21.6043C176.189 21.5231 175.247 21.2305 174.435 20.9541C172.99 20.4665 170.1 19.5236 167.648 18.7596C166.95 18.532 166.187 18.3532 165.943 18.3532C164.319 18.3207 160.568 17.1178 160.552 16.6139C160.552 16.0124 158.782 11.3634 157.483 8.46991C156.606 6.5355 155.794 3.73956 155.535 1.7889C155.453 1.13868 155.307 0.520973 155.226 0.439697C155.031 0.244629 153.943 -0.0154572 153.326 0.000797272C153.067 0.000797272 152.433 0.114586 151.946 0.244629ZM176.871 23.49C177.147 23.7013 177.163 23.7501 176.952 23.8801C176.563 24.1239 176.173 24.0589 175.978 23.7338C175.897 23.555 175.816 23.3762 175.816 23.3274C175.816 23.1324 176.563 23.2461 176.871 23.49ZM156.444 39.1115C156.395 39.274 156.363 39.1765 156.363 38.9164C156.363 38.6401 156.395 38.5263 156.444 38.6238C156.476 38.7376 156.476 38.9652 156.444 39.1115Z" fill="#22ACAC"/>
<path d="M24.3988 17.3778C24.0415 17.6379 23.0185 18.3206 22.1255 18.8896C21.2324 19.4748 19.4138 20.6939 18.066 21.6042C16.2474 22.8396 14.4125 23.88 10.8078 25.6844C6.78081 27.7163 5.95269 28.1877 5.8715 28.5128C5.79031 28.8217 5.36813 29.1143 3.87426 29.862C2.83504 30.3822 1.5685 30.9836 1.06513 31.1787C0.545519 31.39 0.0908624 31.6826 0.0421492 31.8452C-0.0877527 32.2353 0.0908624 32.6254 0.46433 32.7392C0.675421 32.8205 0.75661 32.9343 0.691659 33.1294C0.61047 33.3895 1.53602 34.885 5.66041 41.1108C6.09883 41.7773 7.07309 43.3216 7.82003 44.5245L9.184 46.719L8.79429 47.1416C8.03112 47.9381 8.48577 48.6859 9.62241 48.5071C10.3044 48.4095 10.3206 48.4095 10.8402 49.2386C11.4573 50.2139 11.8307 50.4577 12.3016 50.2139C12.7238 49.9863 14.2502 50.1814 14.2502 50.4577C14.2502 50.5715 14.0391 50.7015 13.763 50.7503C13.1135 50.8966 12.9349 51.5468 13.422 52.067C13.6007 52.2621 13.763 52.5872 13.763 52.766C13.763 52.9448 13.8605 53.1724 13.9741 53.2699C14.0878 53.3674 15.6629 53.465 17.7413 53.5137C19.706 53.5463 22.4178 53.7088 23.7492 53.8389C25.097 53.9852 26.9481 54.1152 27.8736 54.1477C29.4487 54.1802 29.5624 54.164 29.8546 53.8226C30.017 53.6113 30.4067 53.3674 30.7315 53.2862C31.4135 53.0911 31.7544 52.5384 31.4946 52.0508C31.3323 51.7744 31.5271 51.5793 33.1671 50.3602C34.1901 49.6124 35.4404 48.7346 35.9763 48.4095C37.6488 47.3854 45.7189 41.2571 48.8853 38.6075C50.7688 37.0144 51.9217 35.9578 51.9217 35.7628C51.9217 35.4376 51.4346 34.9337 51.1098 34.9337C50.9962 34.9337 50.6552 35.0963 50.3467 35.2913C49.7783 35.6327 49.7783 35.6327 49.957 35.2913C50.0544 35.1125 50.0869 34.8524 50.0381 34.7224C49.9894 34.5924 50.0706 34.4461 50.2005 34.3973C50.5902 34.251 50.5253 33.5358 50.1031 33.2432C49.8108 33.0318 49.2425 32.9831 47.294 32.9831C45.9625 32.9831 42.8123 32.8043 40.3117 32.5767C37.8111 32.3491 35.3268 32.1703 34.7747 32.1703H33.8004L32.2416 29.1955C31.381 27.57 30.3255 25.6031 29.8871 24.8553C29.4487 24.0913 28.5881 22.5308 27.9711 21.3767C26.7857 19.1984 26.4447 18.8733 25.8277 19.2634C25.5679 19.426 25.3568 19.4422 25.0483 19.3285L24.6261 19.1659L25.3243 18.6295C26.055 18.0768 26.2661 17.5241 25.9413 17.1177C25.6491 16.7764 25.1295 16.8576 24.3988 17.3778ZM3.32217 32.1865C2.83504 32.5604 2.77009 33.0643 3.12732 33.5845C3.32217 33.8609 3.32217 33.9421 3.14356 34.0072C3.01366 34.0559 2.6889 33.7796 2.36415 33.3244L1.77959 32.5604L2.70514 32.1378C3.74435 31.6826 3.93921 31.6826 3.32217 32.1865ZM35.278 34.0559C34.8721 34.3648 34.7097 34.3323 34.7097 33.9747C34.7097 33.7471 34.8071 33.6983 35.1481 33.7633C35.5541 33.8446 35.5541 33.8609 35.278 34.0559ZM33.2646 35.4702C33.1347 35.6002 33.0859 35.5839 33.0859 35.4051C33.0859 35.08 33.297 34.8524 33.3782 35.0963C33.4269 35.2101 33.362 35.3726 33.2646 35.4702ZM28.1334 38.835C28.0847 38.9163 27.8736 39.0789 27.6788 39.1764C27.3703 39.3227 27.3703 39.3065 27.7275 39.0139C28.1821 38.64 28.2796 38.5912 28.1334 38.835ZM26.9156 39.6478C26.5584 39.9242 21.4597 42.8339 19.6086 43.8255L18.8779 44.2156L19.3326 43.8417C19.7385 43.5004 27.0455 39.339 27.2404 39.339C27.2891 39.339 27.1429 39.469 26.9156 39.6478ZM21.5571 40.3793C21.5571 40.4118 21.3461 40.5581 21.07 40.7044C20.453 41.0133 20.4205 40.8832 21.0375 40.5581C21.5409 40.2818 21.5571 40.2655 21.5571 40.3793Z" fill="#22ACAC"/>
<path d="M106.967 27.3749C105.587 27.4887 102.469 27.635 100.066 27.7C96.1041 27.8138 95.6657 27.7976 95.4546 27.5537C95.3409 27.4074 95.1136 27.2936 94.9674 27.2936C94.6589 27.2936 94.9512 27.0986 89.6415 30.7235C83.1464 35.145 75.5958 39.5503 71.9748 41.0295C71.1791 41.3546 70.3023 41.8423 70.0263 42.0861C69.7665 42.33 69.0682 42.7689 68.4837 43.0615C67.2334 43.6954 66.5352 44.3131 66.5352 44.7845C66.5352 45.2397 66.795 45.451 67.5257 45.5811L68.1102 45.6948L68.2239 50.3439C68.2888 52.9123 68.4025 56.8298 68.4837 59.0731C68.5649 61.3001 68.6461 67.3471 68.6461 72.5001C68.6461 81.0018 68.6136 81.8795 68.3863 81.9771C68.1589 82.0584 68.1265 82.3347 68.2076 83.9928C68.3213 86.8537 68.8572 87.9428 70.5134 88.7231C71.7475 89.3083 72.5269 89.4058 75.953 89.5034C79.1519 89.5846 83.6822 89.3083 85.8418 88.9019C86.2965 88.8206 86.6537 88.8206 86.7349 88.9182C86.9622 89.1295 87.5468 89.097 87.7741 88.8694C87.8878 88.7556 87.969 88.333 87.969 87.8941C87.969 87.1463 87.9852 87.1138 88.6672 86.8212C89.9175 86.2685 96.7536 82.3835 100.31 80.2052C106.334 76.5152 105.814 76.8078 106.139 77.1004C106.48 77.4093 107.032 77.4418 107.259 77.1492C107.357 77.0354 107.487 76.6453 107.535 76.3039C107.633 75.7512 107.779 75.5562 108.477 75.0848C109.598 74.3207 110.994 73.0203 111.108 72.6464C111.254 72.175 110.913 71.6711 110.442 71.6711C110.166 71.6711 109.776 71.9312 109.224 72.4839C107.714 73.9956 107.747 74.0444 107.86 71.0697C108.477 54.424 108.688 41.3871 108.445 35.1288L108.234 30.0246L108.688 29.5369C108.948 29.2768 109.419 28.9354 109.728 28.7891C110.15 28.5778 110.312 28.399 110.345 28.0251C110.41 27.5537 110.036 27.0986 109.663 27.1636C109.565 27.1636 108.347 27.2774 106.967 27.3749Z" fill="#22ACAC"/>
<path d="M137.949 38.2013C137.17 38.2663 135.611 38.5752 134.458 38.884C133.321 39.2091 131.99 39.518 131.519 39.5667C129.928 39.7781 129.944 41.111 131.552 41.111C131.925 41.111 133.159 40.8672 134.263 40.5583C136.488 39.9406 137.982 39.6318 137.965 39.7943C137.965 39.8431 137.154 40.4608 136.147 41.1435C133.744 42.8016 126.583 48.1334 122.702 51.1406C119.162 53.9041 117.214 55.2858 117.019 55.1557C116.775 55.0094 117.149 54.343 119.227 51.1894C120.38 49.4338 121.257 47.9221 121.257 47.7107C121.257 47.4994 121.143 47.2393 121.013 47.1255C120.461 46.6704 120.071 47.0768 117.961 50.2954C115.054 54.7331 114.843 55.2858 115.704 56.1148C116.061 56.4562 116.564 56.6513 117.993 56.9764C118.984 57.2039 119.99 57.4478 120.218 57.529C121.176 57.9029 121.906 57.4803 121.663 56.7163C121.565 56.4237 120.104 55.7572 119.503 55.7247C119.292 55.7247 119.325 55.6597 119.633 55.4483C119.86 55.302 121.5 54.0341 123.287 52.6361C125.073 51.2544 127.703 49.2388 129.132 48.1821C130.561 47.1255 132.542 45.6625 133.516 44.931C135.725 43.2892 139.508 40.6233 139.557 40.6721C139.605 40.7371 138.988 43.1592 138.534 44.5734C138.014 46.264 138.014 46.9142 138.55 47.158C138.891 47.3043 139.021 47.3043 139.232 47.0768C139.654 46.6541 140.953 41.9888 141.148 40.2007C141.262 39.2579 141.246 39.1929 140.742 38.6239C140.174 37.9737 140.287 37.99 137.949 38.2013Z" fill="#22ACAC"/>
<path d="M40.9139 48.0357C40.5729 48.2633 40.5566 48.3933 40.5566 50.344C40.5566 53.4651 40.8164 56.0497 41.1412 56.4073C41.5147 56.8137 41.9368 56.7974 42.2454 56.3585C42.4565 56.0659 42.5052 55.5295 42.5052 53.9202V51.8558L44.5836 53.0912C45.7202 53.7577 47.5551 54.7818 48.6755 55.3344C49.7959 55.9034 51.6957 56.96 52.8973 57.7077C56.1773 59.7072 56.7619 60.016 57.2166 59.9185C57.5088 59.8697 57.6063 59.9185 57.6063 60.1461C57.6063 60.5524 57.1841 60.5362 55.7389 60.1298C54.4724 59.7722 53.0597 59.7072 52.7674 59.9998C52.5239 60.2436 52.5239 60.8288 52.7674 61.0726C52.8811 61.1864 53.1896 61.2677 53.4656 61.2677C53.7417 61.2677 54.5211 61.414 55.1868 61.5765C57.8661 62.2755 58.6292 62.2268 59.0027 61.349C59.3275 60.5687 59.295 60.1461 58.7429 57.8865C58.4831 56.7812 58.2558 55.5458 58.2558 55.1231C58.2558 53.8552 57.5413 53.2212 56.908 53.9202C56.4859 54.3754 56.5833 55.627 57.2003 58.0654L57.3302 58.5368L56.8431 58.2929C56.5833 58.1466 55.4304 57.4476 54.2938 56.7324C53.1409 56.0172 51.2573 54.928 50.072 54.3429C48.9028 53.7414 46.8244 52.6035 45.4604 51.807C44.0965 51.0105 42.8949 50.3765 42.7974 50.409C42.6513 50.4578 42.018 49.5475 42.018 49.2711C42.018 49.0111 47.344 50.2465 48.8866 50.8479C49.5848 51.1243 50.283 51.3518 50.4292 51.3518C51.1436 51.3518 51.3547 50.3765 50.7539 49.9864C49.5361 49.1899 44.064 47.7756 42.2291 47.7756C41.6283 47.7756 41.1412 47.8732 40.9139 48.0357Z" fill="#22ACAC"/>
<path d="M154.545 80.5467C153.343 80.758 150.631 81.2619 148.537 81.652C146.442 82.0422 144.217 82.4161 143.584 82.4811C139.427 82.855 132.38 84.7731 129.246 86.3661C128.792 86.5937 128.288 86.9676 128.093 87.2114C127.655 87.7804 127.395 87.6503 127.152 86.7238C126.989 86.1548 126.859 85.9598 126.535 85.8785C125.869 85.7159 125.593 86.0735 125.723 86.9513C125.788 87.3577 125.853 88.0405 125.869 88.4956C125.885 89.0645 126.031 89.5197 126.356 90.0236C127.379 91.6167 132.202 105.808 132.169 107.059C132.153 107.352 132.283 107.742 132.478 108.002C132.689 108.262 132.835 108.685 132.851 109.108C132.867 109.725 132.932 109.839 133.598 110.278C134.183 110.668 134.312 110.847 134.28 111.188C134.215 111.741 134.426 111.904 137.333 113.464C138.713 114.196 140.174 115.041 140.58 115.317C143.422 117.317 147.108 119.3 148.001 119.3C148.423 119.3 148.537 119.365 148.537 119.625C148.537 120.129 149.121 120.356 149.608 120.031C149.933 119.82 149.998 119.641 150.014 118.926C150.031 118.471 150.079 118.243 150.112 118.438C150.242 119.072 150.583 119.218 151.492 119.023C152.255 118.877 152.304 118.877 152.434 119.218C152.515 119.414 152.677 119.625 152.807 119.674C153.44 119.917 157.24 119.153 164.044 117.414C165.278 117.105 170.75 115.415 171.188 115.22C172.049 114.829 174.29 113.578 174.55 113.334C174.712 113.188 174.842 112.96 174.858 112.814C174.858 112.668 175.02 112.31 175.232 112.001C175.589 111.448 175.589 111.448 176.774 111.481C178.122 111.53 178.414 111.367 178.414 110.619C178.414 110.245 178.268 109.969 177.895 109.611C176.709 108.506 175.8 107.888 175.345 107.856C175.02 107.84 174.517 107.515 173.689 106.767C172.081 105.336 170.62 104.215 169.159 103.288C168.493 102.865 166.902 101.776 165.635 100.882L163.313 99.2567L163.735 98.8666C163.963 98.6553 164.125 98.3952 164.092 98.2814C163.589 96.8834 163.167 95.1766 162.241 90.9339C160.942 84.9519 160.098 81.9772 159.562 81.5383C159.205 81.2457 159.026 81.2457 158.409 81.5057C158.166 81.6033 158.149 81.5383 158.231 81.0181C158.393 79.994 158.02 79.9452 154.545 80.5467ZM129.116 90.2187C129.425 91.5841 129.425 91.6654 129.214 91.6654C129.051 91.6654 128.223 90.1212 128.012 89.4222C127.899 89.1133 127.947 89.0645 128.369 89.0645C128.84 89.0645 128.857 89.1133 129.116 90.2187ZM162.404 98.4277C162.452 98.5577 162.436 98.6228 162.339 98.574C162.241 98.5252 162.176 98.4114 162.176 98.3139C162.176 98.0863 162.29 98.1351 162.404 98.4277ZM133.971 105.564C134.101 105.873 133.76 106.068 133.582 105.791C133.371 105.466 133.403 105.32 133.663 105.32C133.793 105.32 133.923 105.434 133.971 105.564Z" fill="#22ACAC"/>
<path d="M34.5479 81.5383C34.0607 81.9447 33.2976 82.5136 32.8429 82.8062C31.008 83.9766 22.8404 87.1302 14.4943 89.8773C12.8055 90.43 11.2792 90.999 11.133 91.1453C10.9382 91.3078 10.8408 91.3241 10.8408 91.194C10.8408 90.8689 10.1101 90.6251 9.72036 90.8364C9.29818 91.064 9.28194 91.5517 9.63917 92.8358C9.8665 93.5998 9.8665 93.8274 9.70412 94.0225C9.5255 94.2501 9.47679 94.2338 9.2657 93.9412C8.85976 93.356 7.91797 93.6161 7.91797 94.2988C7.91797 94.6402 17.2222 111.578 17.6768 112.05C18.2614 112.684 19.2194 111.952 18.7973 111.172C18.6349 110.863 18.6511 110.847 19.0246 110.944C19.2844 111.009 19.8527 110.879 20.5834 110.603C21.2167 110.359 21.785 110.197 21.8337 110.262C21.8824 110.31 21.8337 110.392 21.7038 110.424C20.0638 111.009 19.6091 111.221 19.528 111.497C19.3331 112.115 19.7066 112.391 21.4602 112.96C22.402 113.269 23.1814 113.578 23.1814 113.643C23.1814 113.822 23.2139 113.838 21.2167 113.123C20.2099 112.765 19.2681 112.472 19.1058 112.472C18.9434 112.472 18.6836 112.651 18.5374 112.879C18.2939 113.253 18.2939 113.318 18.5374 113.692C18.6836 113.903 18.9434 114.163 19.122 114.261C19.3006 114.358 19.4468 114.569 19.4468 114.732C19.4468 115.22 19.9339 115.496 22.0448 116.179C23.7498 116.731 31.8686 118.975 32.1609 118.975C32.2096 118.975 32.2746 119.218 32.3071 119.495C32.4045 120.584 33.6061 120.503 36.1554 119.267C37.0485 118.828 37.7305 118.585 38.1039 118.601C38.4287 118.617 38.8671 118.52 39.0944 118.406C39.3218 118.276 40.1012 117.886 40.8319 117.528C41.5626 117.17 43.024 116.341 44.0794 115.675C48.9183 112.668 50.5096 111.757 51.8735 111.27C52.9615 110.879 53.3187 110.684 53.3512 110.441C53.3836 110.245 53.8058 109.839 54.4066 109.465C54.9587 109.108 55.7543 108.539 56.1928 108.181C56.9072 107.628 56.9884 107.515 56.9235 107.011C56.8747 106.523 56.9072 106.458 57.232 106.458C57.6542 106.458 57.9952 105.938 57.849 105.499C57.7353 105.109 55.6732 103.938 53.1401 102.817C51.9872 102.297 49.8438 101.289 48.4149 100.59L45.7844 99.3055L42.0659 91.8768C40.02 87.7804 38.1364 83.9116 37.8928 83.2614C37.4219 82.0259 37.0972 81.7496 36.4964 82.0747C36.3015 82.1722 36.1716 82.4161 36.1716 82.6437C36.1716 82.9688 36.0904 83.05 35.7657 83.05C35.2298 83.05 35.2461 82.9688 35.9281 82.3836C36.5126 81.8634 36.6588 81.327 36.3015 80.9693C35.9443 80.6117 35.4572 80.7743 34.5479 81.5383ZM36.8211 84.7731C36.8211 84.9032 36.7562 84.9682 36.6588 84.9194C36.5776 84.8707 36.4964 84.7081 36.4964 84.5781C36.4964 84.448 36.5776 84.383 36.6588 84.4318C36.7562 84.4805 36.8211 84.6431 36.8211 84.7731ZM17.8068 92.5432C17.6444 92.7058 14.3968 93.9737 14.3319 93.9087C14.2182 93.8112 17.206 92.4945 17.5632 92.4782C17.7418 92.4782 17.8392 92.5107 17.8068 92.5432ZM56.55 106.295C56.5987 106.377 56.5338 106.458 56.4039 106.458C56.2577 106.458 56.1441 106.377 56.1441 106.295C56.1441 106.198 56.209 106.133 56.2902 106.133C56.3876 106.133 56.5013 106.198 56.55 106.295ZM18.5212 110.018C18.44 110.343 18.3913 110.327 18.0503 109.709C17.8392 109.335 17.6606 108.864 17.6606 108.669C17.6606 108.49 17.5145 108.002 17.3359 107.612C16.7838 106.409 16.9786 106.637 17.823 108.181C18.3751 109.205 18.5862 109.758 18.5212 110.018Z" fill="#22ACAC"/>
<path d="M108.608 84.2368C107.585 84.7407 107.163 86.5776 107.017 91.0316C106.919 94.1364 106.935 94.2339 107.276 94.5753C107.682 94.9816 107.78 94.9979 108.202 94.689C108.478 94.4777 108.527 94.1689 108.608 91.0641C108.705 87.6667 108.965 85.8135 109.322 85.8135C109.42 85.8135 109.68 86.0086 109.907 86.2362C110.654 87.0652 113.788 89.6824 114.129 89.7636C114.47 89.8612 115.087 89.3898 115.087 89.0484C115.087 88.8371 114.453 88.2194 112.099 86.1387C109.582 83.9117 109.404 83.8304 108.608 84.2368Z" fill="#22ACAC"/>
<path d="M60.6253 84.448C60.3168 84.7406 60.3005 84.9031 60.5279 85.342C60.6903 85.6184 60.8851 85.6509 62.2978 85.6509C63.7592 85.6509 63.9053 85.6834 63.9865 85.976C64.0677 86.3174 63.8566 86.4474 63.7429 86.1223C63.6293 85.7972 62.8012 85.9272 62.3465 86.3336C61.9568 86.6912 61.0312 87.2764 58.4982 88.7394C58.1409 88.9508 56.5659 89.7798 55.007 90.6088C53.4482 91.4379 51.5322 92.4619 50.7528 92.8846C49.9571 93.291 49.3238 93.5836 49.3238 93.5023C49.3238 93.421 49.6486 92.7058 50.0545 91.9255C50.4605 91.129 50.7852 90.365 50.7852 90.2187C50.7852 89.8286 50.4605 89.5522 50.0383 89.5522C49.5836 89.5522 49.1939 90.0886 48.3983 91.7792C47.8949 92.8196 47.7812 93.226 47.7812 94.055C47.7812 94.9003 47.8462 95.1278 48.1872 95.5017C48.8529 96.217 49.8759 96.5746 51.5322 96.6721C52.9448 96.7371 53.0423 96.7209 53.2209 96.3958C53.367 96.1032 53.3508 95.9569 53.1559 95.6643C52.9611 95.3392 52.7338 95.2741 51.6134 95.1766C50.8827 95.1116 50.2981 95.0141 50.2981 94.949C50.3143 94.884 50.5417 94.7215 50.8339 94.5914C54.0003 93.0634 62.7037 88.1542 63.402 87.504C63.6942 87.2277 63.9378 87.0489 63.9378 87.1301C63.9378 87.2114 63.7267 87.9592 63.4507 88.7882C62.6063 91.4216 62.6225 92.3156 63.5319 92.3156C64.019 92.3156 64.1651 92.0881 64.4899 90.8527C64.636 90.2675 64.9283 89.1783 65.1556 88.4306C65.7889 86.3336 65.6265 84.8219 64.7659 84.3505C64.5873 84.2692 63.6455 84.1879 62.655 84.1879C61.2586 84.1879 60.8202 84.2367 60.6253 84.448Z" fill="#22ACAC"/>
<path d="M109.664 88.8858C109.241 89.3409 109.436 89.7148 110.589 90.6414C111.141 91.0803 112.327 92.1044 113.22 92.9009C114.113 93.7137 115.931 95.2579 117.247 96.3633C119.828 98.4928 122.28 100.85 123.693 102.557L124.554 103.613L122.085 103.695C119.877 103.76 119.585 103.808 119.374 104.085C119.065 104.507 119.081 104.735 119.455 105.06C119.731 105.32 120.121 105.336 123.125 105.288L126.486 105.239L126.957 104.702C127.541 104.052 127.541 103.808 127.006 100.151C126.502 96.6234 126.356 96.152 125.771 96.087C125.495 96.0544 125.268 96.152 125.122 96.3633C124.911 96.6722 124.927 96.9648 125.236 98.8666C125.43 100.037 125.642 101.37 125.69 101.825L125.804 102.638L125.041 101.744C123.579 100.021 120.169 96.7534 117.766 94.754C116.435 93.6486 114.714 92.1856 113.95 91.5029C111.986 89.7148 110.524 88.5769 110.216 88.5769C110.07 88.5769 109.81 88.7232 109.664 88.8858Z" fill="#22ACAC"/>
</svg>
