<svg width="99" height="94" viewBox="0 0 99 94" fill="none" xmlns="http://www.w3.org/2000/svg">
<path d="M69.916 11.75C70.9885 10.7213 72.2617 9.90529 73.6629 9.34857C75.0641 8.79185 76.566 8.50531 78.0827 8.50531C79.5994 8.50531 81.1012 8.79185 82.5024 9.34857C83.9037 9.90529 85.1769 10.7213 86.2493 11.75C87.3218 12.7787 88.1725 13.9999 88.7529 15.3439C89.3333 16.688 89.6321 18.1285 89.6321 19.5833C89.6321 21.0381 89.3333 22.4786 88.7529 23.8227C88.1725 25.1667 87.3218 26.388 86.2493 27.4167L31.1243 80.2917L8.66602 86.1667L14.791 64.625L69.916 11.75Z" stroke="#22ACAC" stroke-width="10" stroke-linecap="round" stroke-linejoin="round"/>
</svg>
