<svg width="506" height="317" viewBox="0 0 506 317" fill="none" xmlns="http://www.w3.org/2000/svg">
<path d="M16.7231 0.57193C9.25107 2.19263 2.60928 8.71487 0.593017 16.423C0.079069 18.439 0 35.1992 0 158.529V298.342L0.830224 301.03C1.97672 304.786 3.87438 307.79 6.91853 310.636C9.72548 313.245 12.0976 314.628 16.3673 316.051L19.1347 317H253.416H487.697L490.979 315.656C492.758 314.905 495.09 313.719 496.158 313.047C498.767 311.347 502.009 307.79 503.551 304.904C506.239 299.844 506.041 311.94 505.962 157.225L505.844 17.174L505.013 14.9999C503.551 11.1261 502.523 9.54498 499.834 6.69891C497.937 4.68292 496.474 3.53659 494.418 2.54837C488.765 -0.218628 510.588 -0.0209961 252.625 0.0185242C57.9971 0.0185242 18.7789 0.137115 16.7231 0.57193ZM324.578 40.496C324.578 45.1604 324.697 48.9947 324.894 48.9947C325.053 48.9947 326.555 47.0974 328.294 44.8442L331.418 40.6937H335.529H339.641L338.85 41.84C338.376 42.4725 336.676 44.6465 335.055 46.623C333.434 48.639 332.09 50.4178 332.09 50.6154C332.09 50.813 333.908 53.6986 336.162 57.0191C338.376 60.3 340.273 63.146 340.313 63.3042C340.392 63.5018 338.573 63.6204 336.28 63.6204H332.05L330.192 60.6162C329.164 58.956 327.622 56.7029 326.753 55.5565L325.171 53.5405L324.934 54.7264C324.776 55.3589 324.657 57.6515 324.618 59.7861L324.578 63.6599L321.139 63.5413L317.66 63.4227L317.541 47.6903L317.462 31.9973H321.02H324.578V40.496ZM256.223 33.5785C259.228 34.1714 261.007 35.1992 261.995 36.978C263.497 39.5869 263.062 42.5515 260.73 45.5952L259.702 46.9392L261.362 48.0856C264.13 49.9434 264.683 50.9712 264.683 54.3311C264.683 56.9005 264.565 57.4144 263.497 58.9164C260.69 62.9089 257.607 63.739 246.695 63.5413L240.567 63.4227L240.449 55.9123C240.37 51.7617 240.449 44.9628 240.567 40.7727L240.844 33.1832H247.486C251.123 33.1832 255.037 33.3809 256.223 33.5785ZM366.84 40.6146C372.889 51.6432 372.415 51.5641 372.415 41.5633V33.1832H375.775H379.096L379.215 40.9704C379.294 45.279 379.294 52.157 379.215 56.2285L379.136 63.6599L375.499 63.5413L371.901 63.4227L367.789 55.9123C365.536 51.7617 362.927 47.1369 362.017 45.6348L360.357 42.8678L360.238 53.2243L360.159 63.6204H356.799H353.438V48.4018V33.1832H358.103H362.729L366.84 40.6146ZM282.276 40.7332C284.332 41.4447 286.23 42.9864 286.862 44.4884C287.297 45.4767 287.416 48.0065 287.416 54.7264V63.6204H284.253C281.406 63.6204 281.09 63.5413 280.655 62.7112C280.418 62.2369 280.141 61.802 280.102 61.723C280.023 61.6439 279.311 62.0392 278.441 62.5926C273.974 65.5178 269.072 64.6086 266.976 60.4581C264.881 56.3866 266.462 51.9989 270.653 50.1806C272.353 49.4295 276.9 48.5994 279.272 48.5994C281.051 48.5994 281.09 47.967 279.509 46.4254C278.56 45.5162 277.888 45.2395 275.99 45.1209C273.934 44.9628 272.907 45.1604 268.4 46.4649C267.807 46.623 267.767 46.3068 267.925 43.9746C268.044 42.512 268.202 41.2076 268.321 41.089C268.4 41.0099 269.665 40.6937 271.127 40.417C274.172 39.8636 280.22 40.0217 282.276 40.7332ZM309.595 40.8123C310.82 41.4843 311.571 42.2748 312.243 43.5793C313.113 45.2395 313.232 46.0301 313.429 52.2756C313.508 56.0309 313.508 60.1418 313.35 61.3672L313.074 63.6204H309.792H306.511L306.234 56.189C306.076 52.078 305.839 48.2041 305.641 47.5717C305.364 46.5044 305.206 46.4254 303.19 46.3068C301.964 46.2277 300.541 46.3858 299.948 46.5835L298.881 47.0183V55.3193V63.6204H295.323H291.764V52.157V40.6937H295.323C298.841 40.6937 298.881 40.6937 298.881 41.6819C298.881 42.8678 298.999 42.9073 300.778 41.8005C304.139 39.745 306.946 39.4287 309.595 40.8123ZM396.333 40.3379C399.654 40.8518 401.354 41.761 402.738 43.8164C403.608 45.1209 403.647 45.4371 403.647 54.3706V63.6204H400.287C396.966 63.6204 396.926 63.6204 396.926 62.6322C396.926 62.0788 396.847 61.6439 396.768 61.6439C396.689 61.6439 395.266 62.2764 393.605 63.067C390.284 64.6481 388.822 64.7272 386.094 63.4227C383.247 62.0788 381.626 57.5725 382.852 54.3706C384.078 51.1688 386.726 49.6667 392.577 48.9947C397.598 48.4018 397.48 48.4413 396.689 47.2159C395.266 45.0418 391.826 44.4489 387.438 45.6348C384.196 46.5044 384.275 46.5439 384.275 43.6583V41.1285L385.777 40.8518C387.477 40.5356 391.194 40.0217 392.459 39.9426C392.933 39.9426 394.673 40.1007 396.333 40.3379ZM424.363 40.4565C425.075 40.7332 426.3 41.5633 427.091 42.2353L428.514 43.5002L430.531 42.1167C434.049 39.7054 436.777 39.3892 439.544 41.089C441.996 42.5911 442.391 44.2513 442.668 54.252L442.905 63.1065L439.465 63.4227C437.568 63.5809 435.907 63.5809 435.749 63.4623C435.63 63.3042 435.472 59.7861 435.472 55.596C435.433 47.5322 435.235 46.4254 433.575 46.0301C433.1 45.9115 431.914 46.0301 430.926 46.3463L429.147 46.8602L429.028 55.0031C428.91 64.3714 429.305 63.6204 424.561 63.6204H421.912L421.793 55.4774C421.635 47.4136 421.635 47.3345 420.647 46.5439C419.659 45.7534 418.314 45.7929 416.061 46.623L415.112 47.0183V55.3193V63.6204H411.791C408.707 63.6204 408.47 63.5809 408.233 62.7112C408.114 62.2369 407.996 57.0981 407.996 51.2479V40.6937H411.554C415.073 40.6937 415.112 40.6937 415.112 41.6819C415.112 42.8678 415.231 42.9073 417.01 41.8005C419.975 39.9821 422.189 39.5473 424.363 40.4565ZM462.87 41.168C466.072 42.6701 467.456 45.2 467.93 50.4968L468.207 53.3429H460.221C454.37 53.3429 452.274 53.4615 452.274 53.8172C452.274 54.0544 452.63 55.0426 453.065 55.9518C454.133 58.1259 455.991 59.035 459.193 59.035C461.367 59.035 462.553 58.6793 467.219 56.6238C467.574 56.4657 467.693 57.1772 467.693 59.4303V62.395L465.637 63.067C464.491 63.4227 461.842 63.7785 459.746 63.8971C452.947 64.2924 448.677 62.3159 446.463 57.7701C445.514 55.8332 445.356 55.0426 445.356 52.157C445.395 49.6272 445.593 48.3623 446.186 46.9788C447.293 44.607 449.27 42.433 451.247 41.4052C454.449 39.7845 459.707 39.6659 462.87 41.168ZM123.664 85.9937C125.996 87.14 127.459 88.7212 128.645 91.2905C129.357 92.8322 129.475 94.018 129.594 100.422L129.752 107.774L122.992 108.011C119.276 108.169 113.82 108.169 110.815 108.011L105.359 107.774L104.173 110.225C103.541 111.569 102.79 112.873 102.513 113.11C102.236 113.348 101.999 114.375 101.999 115.443C101.999 116.945 102.236 117.735 103.145 118.961C106.269 123.269 105.518 130.74 101.564 134.693C96.7013 139.595 86.6596 139.713 81.5992 134.93C80.1759 133.626 78.555 129.08 78.0806 125.206C77.8039 123.072 77.8434 122.914 79.4643 120.66C80.9666 118.526 81.0852 118.17 80.9666 116.154L80.848 114.02L80.4131 115.877C80.1759 116.905 79.2666 118.803 78.4364 120.107L76.8946 122.479L65.4296 122.597C59.1436 122.676 53.8064 122.597 53.6483 122.479C53.4902 122.36 53.3716 115.522 53.4506 107.26L53.5692 92.2788L54.6367 90.4604C55.9018 88.3259 57.6808 86.7052 59.8947 85.717C61.3971 85.045 63.2947 84.9659 91.5619 84.9659H121.608L123.664 85.9937ZM127.024 109.079H129.673L129.594 115.68L129.475 122.321L118.129 122.439L106.822 122.518L105.438 120.66C102.592 116.747 102.513 115.759 104.45 111.371L105.715 108.565L115.045 108.802C120.145 108.96 125.522 109.079 127.024 109.079ZM76.776 126.985C77.0922 130.464 78.9108 134.772 81.0062 137.025C81.6387 137.737 82.1527 138.33 82.0736 138.33C82.034 138.33 80.2155 138.053 78.0411 137.737C75.3527 137.342 70.9249 137.144 63.7691 137.144H53.3716V130.424V123.704L64.9552 123.783L76.4992 123.902L76.776 126.985ZM124.652 124.495H129.673V130.582V136.67L119.117 136.867C112.08 137.025 107.652 137.263 105.952 137.658C104.529 137.974 102.79 138.33 102.078 138.488L100.734 138.725L102.711 136.432C105.636 133.033 105.873 132.44 106.941 125.522L107.178 123.981L113.385 124.218C116.785 124.376 121.845 124.495 124.652 124.495ZM82.034 139.832C84.8805 140.069 87.7666 140.227 88.4782 140.267L89.7433 140.306V143.824V147.342L86.3038 147.58C80.8876 147.975 62.504 147.58 60.5668 147.066C58.432 146.473 56.0204 144.338 54.5181 141.69C53.8855 140.622 53.3716 139.555 53.3716 139.397C53.3716 139.002 75.3923 139.318 82.034 139.832ZM129.238 140.188C128.487 142.441 125.957 145.208 123.624 146.394L121.331 147.58H107.929C100.576 147.619 94.4479 147.501 94.3293 147.382C94.2107 147.263 93.9735 145.643 93.8549 143.745L93.5781 140.306H98.4804C101.169 140.267 104.885 140.03 106.743 139.753C108.838 139.397 113.741 139.199 119.869 139.16L129.634 139.12L129.238 140.188ZM206.212 173.51H212.696V177.898C212.696 183.314 212.261 184.341 208.861 187.069L206.37 189.085L206.33 192.642C206.291 194.619 206.172 196.674 206.014 197.149L205.777 198.097L204.986 197.228C204.314 196.477 204.156 195.686 204.077 191.891L203.919 187.464L207.161 184.539L210.403 181.614L210.165 179.084C210.047 177.701 209.889 176.475 209.81 176.396C209.691 176.317 207.872 176.198 205.737 176.159C202.258 176.08 201.665 176.198 200.282 176.989C198.542 178.017 198.344 177.898 197.672 175.487C197.04 173.234 197.119 172.997 198.503 173.273C199.175 173.392 202.654 173.51 206.212 173.51ZM275.279 173.352L276.741 173.629V184.144C276.741 189.915 276.623 195.33 276.504 196.121C276.227 197.623 276.227 197.623 274.29 197.623H272.314L272.59 195.726C272.748 194.698 273.144 193.235 273.46 192.484C273.895 191.417 273.974 190.271 273.776 187.622L273.5 184.183H267.648C262.667 184.183 261.758 184.104 261.56 183.551C261.442 183.195 261.323 180.823 261.323 178.254V173.55L262.825 173.392C265.355 173.155 273.697 173.115 275.279 173.352ZM392.34 173.906C393.091 173.906 393.091 174.143 392.854 180.863L392.577 187.859L395.345 187.662C396.847 187.543 398.508 187.187 398.982 186.871C399.852 186.278 399.891 186.12 399.733 181.06C399.615 176.159 399.654 175.882 400.326 176.119C400.761 176.277 401.315 176.554 401.591 176.791C402.184 177.266 402.224 180.112 401.631 183.195C401.275 185.171 401.315 185.646 401.947 186.832C402.619 188.097 402.619 188.215 401.947 189.361C401.433 190.271 401.275 191.496 401.275 194.382C401.235 197.86 401.196 198.137 400.682 197.465C400.287 196.951 400.089 195.765 400.089 194.026C400.089 190.113 399.654 189.441 397.084 189.085C395.898 188.966 394.001 188.966 392.815 189.085L390.68 189.361L390.403 182.879C390.087 176.04 390.363 172.72 391.115 173.471C391.352 173.708 391.905 173.906 392.34 173.906ZM115.876 173.906C116.587 174.301 116.627 174.815 116.627 180.626V186.95H120.145H123.624L123.862 182.286C124.059 177.345 124.534 175.131 125.087 176.515C125.245 176.91 125.482 179.361 125.601 181.93C125.838 186.278 125.917 186.634 126.787 187.346L127.775 188.097L126.945 189.164C126.234 190.073 126.115 190.745 126.115 194.105C126.115 196.279 125.957 198.018 125.799 198.018C125.601 198.018 125.127 197.781 124.692 197.465C124.059 196.991 123.901 196.279 123.743 193.196L123.545 189.52L118.841 189.401L114.136 189.282L114.413 186.871C114.531 185.567 114.65 182.009 114.65 179.005C114.65 175.961 114.769 173.51 114.887 173.51C115.006 173.51 115.441 173.708 115.876 173.906ZM291.211 173.906H294.137L294.176 178.135C294.216 183.472 294.413 184.262 295.876 184.618C296.509 184.816 297.181 185.171 297.339 185.448C297.734 186.041 297.813 193.196 297.457 195.37C297.299 196.319 296.864 197.03 296.35 197.307C295.481 197.781 285.755 197.9 284.292 197.425C282.988 197.03 282.632 195.33 282.751 190.113L282.869 185.171L284.332 184.381L285.834 183.59V178.491V173.392L287.06 173.669C287.732 173.787 289.63 173.906 291.211 173.906ZM318.253 174.182C318.371 174.301 318.49 176.357 318.569 178.807C318.727 183.116 318.687 183.274 317.66 184.499C317.106 185.171 315.762 186.357 314.694 187.148L312.757 188.571L312.639 192.998L312.52 197.425L311.453 197.544C310.188 197.702 310.188 197.86 310.346 191.298L310.425 187.148L313.35 184.381L316.276 181.614V178.728V175.882H312.797C309.713 175.882 306.748 176.396 304.771 177.226C304.218 177.463 304.06 177.187 303.981 175.566L303.823 173.629L310.939 173.827C314.853 173.906 318.134 174.103 318.253 174.182ZM328.848 174.103C329.046 174.261 328.887 174.617 327.939 176.277C327.504 176.989 327.346 178.61 327.346 182.049V186.832L332.801 187.069C335.766 187.187 338.771 187.464 339.404 187.662C340.076 187.899 340.431 188.097 340.194 188.097C339.957 188.136 339.799 189.954 339.799 192.761V197.425L332.801 197.544C326.436 197.623 325.764 197.583 325.448 196.951C325.211 196.556 325.053 191.101 325.013 184.816L324.973 173.392L326.832 173.669C327.82 173.787 328.729 173.985 328.848 174.103ZM381.903 174.143C382.101 174.341 382.298 174.854 382.378 175.289C382.496 176.04 382.259 176.08 377.831 176.198L373.166 176.317L373.285 180.151L373.403 183.986L374.985 184.065C375.854 184.144 377.871 184.302 379.492 184.42L382.378 184.658L382.219 190.903C382.14 194.382 381.982 197.307 381.864 197.425C381.389 197.86 372.573 197.742 370.952 197.228C369.331 196.714 366.485 194.303 366.999 193.828C367.117 193.71 368.343 193.868 369.726 194.263C371.11 194.619 373.561 195.014 375.182 195.093C379.373 195.409 379.729 195.093 379.689 190.943C379.689 189.164 379.531 187.622 379.373 187.425C379.215 187.266 377.238 187.069 374.985 187.029L370.913 186.871L370.636 181.416C370.478 178.412 370.478 175.408 370.636 174.696L370.913 173.392L376.25 173.59C379.175 173.708 381.705 173.945 381.903 174.143ZM422.189 173.748L424.64 174.024L424.679 181.179C424.679 185.132 424.719 189.757 424.719 191.496C424.758 193.235 424.64 195.33 424.482 196.121L424.165 197.623H417.326C410.526 197.623 410.447 197.623 410.21 196.714C409.696 194.737 409.656 194.737 414.44 195.014C416.852 195.133 419.579 195.093 420.449 194.935L422.031 194.658L422.149 191.891C422.228 189.836 422.07 188.769 421.556 187.78L420.845 186.436L417.207 186.515C415.191 186.555 413.531 186.476 413.531 186.278C413.531 186.12 413.412 185.606 413.293 185.132C413.096 184.341 413.175 184.302 417.247 184.499C419.54 184.618 421.438 184.579 421.438 184.46C421.438 184.341 421.714 182.839 422.031 181.14C422.347 179.44 422.624 177.542 422.624 176.91V175.764L419.224 176.04C417.326 176.159 414.677 176.159 413.254 176.04C411 175.803 410.645 175.645 410.131 174.657L409.538 173.51H414.638C417.445 173.51 420.845 173.629 422.189 173.748ZM445.435 174.064C445.83 174.42 445.83 185.685 445.475 186.634C445.198 187.266 444.526 187.346 439.228 187.346H433.298L433.337 190.389C433.417 195.409 432.982 195.093 439.544 195.093L445.237 195.054L445.751 196.358L446.305 197.623H438.833H431.321V190.824V184.065L435.551 184.302C439.9 184.539 442.786 184.144 443.577 183.195C443.893 182.839 443.933 181.535 443.735 179.203L443.458 175.764L440.375 176.04C438.714 176.159 436.065 176.159 434.563 176.04C432.151 175.803 431.756 175.645 431.361 174.815C431.124 174.301 430.926 173.748 430.926 173.629C430.926 173.313 445.079 173.708 445.435 174.064ZM57.7203 184.579V195.251H59.4599C61.5947 195.251 61.6738 195.093 61.6738 190.468C61.6738 188.531 61.7529 186.95 61.8715 186.95C61.9505 186.95 62.504 187.148 63.0575 187.425L64.0854 187.859L63.9668 192.642L63.8482 197.425L57.0483 197.544L50.2879 197.623L49.4181 196.437L48.5879 195.251H51.7506C53.4902 195.251 54.9925 195.093 55.1111 194.896C55.2297 194.698 55.4669 190.468 55.5855 185.448L55.8622 176.396L53.2134 176.08C51.2762 175.882 50.2879 175.566 49.4972 174.854L48.4297 173.945L53.0948 173.906H57.7203V184.579ZM84.5247 174.578C84.9991 175.764 84.841 185.092 84.327 185.962C83.8922 186.713 83.4573 186.753 78.1992 186.753H72.5458L72.7039 190.705C72.783 192.88 72.9016 194.737 73.0202 194.856C73.0993 194.975 75.8667 195.093 79.1085 195.172L84.9991 195.291V196.477V197.623H77.6853H70.3714L70.4504 191.18L70.5691 184.776L75.9062 184.697C83.655 184.539 83.0224 184.934 83.0224 180.033V175.882H77.2108C72.3876 175.882 71.3202 175.764 70.6877 175.21C70.2923 174.854 69.976 174.42 69.976 174.222C69.976 174.064 73.1783 173.906 77.0922 173.906C83.5364 173.906 84.248 173.985 84.5247 174.578ZM105.399 174.143C106.229 174.341 106.229 174.538 106.19 185.488C106.15 191.615 105.992 196.872 105.834 197.109C105.597 197.504 103.818 197.623 99.192 197.623H92.8665L91.8781 196.516L90.8502 195.449L97.3339 195.251L103.778 195.054L103.897 191.061L104.015 187.029L100.141 186.871C97.2548 186.753 95.9897 186.555 95.199 186.002C94.5665 185.606 94.0921 185.132 94.0921 184.934C94.0921 184.737 96.0293 184.579 98.4409 184.579C102.632 184.579 102.79 184.539 103.422 183.59C103.818 182.958 104.134 181.377 104.292 179.242L104.49 175.843L99.3897 175.922C95.2386 176.001 93.9735 175.843 92.5502 175.289C91.0874 174.657 90.9293 174.499 91.5619 174.261C92.4316 173.906 104.173 173.827 105.399 174.143ZM169.801 175.013C169.801 175.961 169.761 175.961 165.056 176.001L160.312 176.08L160.431 179.044C160.47 180.665 160.589 182.602 160.708 183.274L160.945 184.579H165.254H169.524L169.84 186.239C170.156 188.215 170.156 195.291 169.801 196.358C169.682 196.832 169.089 197.228 168.338 197.386C166.48 197.742 160.47 197.663 158.929 197.228C157.545 196.872 154.619 194.303 155.054 193.868C155.173 193.749 156.398 193.947 157.782 194.303C160.312 194.975 166.677 195.291 167.429 194.777C167.666 194.658 167.784 192.998 167.705 190.745L167.587 186.99L163.159 186.871L158.731 186.753L158.612 183.195C158.533 181.219 158.612 178.333 158.731 176.752L159.008 173.866L164.384 173.985C169.761 174.103 169.801 174.103 169.801 175.013ZM180.277 174.341C180.277 174.578 179.921 175.21 179.487 175.764C178.775 176.673 178.696 177.384 178.696 181.851V186.95H183.203C185.654 186.95 188.5 187.069 189.528 187.187L191.386 187.464L191.268 192.445L191.149 197.425L185.614 197.544C182.57 197.623 179.368 197.544 178.459 197.425L176.838 197.188L176.601 193.947C176.442 192.168 176.442 186.911 176.601 182.286L176.838 173.906H178.577C179.526 173.906 180.277 174.103 180.277 174.341ZM230.486 179.242V184.579H231.593C233.688 184.579 233.767 184.816 233.57 190.547C233.451 193.472 233.253 196.16 233.056 196.516C232.819 197.149 232.107 197.228 226.77 197.228C219.219 197.228 219.219 197.228 218.863 192.919C218.705 191.219 218.705 188.729 218.863 187.425C219.1 185.29 219.219 185.013 220.405 184.46C221.947 183.709 222.184 182.8 222.184 177.621V173.906H226.335H230.486V179.242ZM63.4528 208.454C66.7342 209.837 66.3784 213.079 62.4645 217.466C61.3971 218.692 60.6459 219.759 60.7645 219.917C60.8831 220.036 62.0296 220.154 63.2552 220.154C64.5993 220.154 65.7854 220.392 66.2598 220.747C66.9319 221.261 66.5761 221.301 62.5831 221.34C58.3529 221.34 58.1157 221.301 58.1157 220.55C58.1157 220.115 59.1831 218.573 60.5273 217.15C65.2319 212.091 65.0342 208.928 60.0529 209.877C57.4436 210.391 57.5227 210.391 58.1552 209.6C58.7482 208.928 60.725 207.94 61.5947 207.901C61.8715 207.901 62.7017 208.138 63.4528 208.454ZM74.2062 208.652C75.8667 209.679 76.1434 210.747 75.1946 212.565L74.4434 214.027L75.3923 215.846C76.3016 217.585 76.3411 217.743 75.7481 219.087C74.7202 221.617 70.8063 222.605 68.6319 220.905C68.0784 220.471 67.604 219.957 67.604 219.799C67.604 219.641 68.6714 219.68 70.0156 219.917C73.2179 220.471 73.7318 220.115 73.7318 217.348V215.213L72.269 215.095C71.4388 215.016 70.7667 214.858 70.7667 214.699C70.8063 214.541 71.5179 213.948 72.3481 213.355C73.4946 212.565 73.9295 211.972 73.9295 211.26C73.9295 209.916 72.6248 209.442 69.9365 209.758C67.604 210.035 67.5249 209.442 69.7388 208.454C71.4388 207.703 72.7434 207.782 74.2062 208.652ZM85.8689 215.53C86.4224 215.964 86.5805 216.36 86.3038 216.518C85.5922 216.992 84.9991 218.494 84.9991 219.917C84.9991 221.064 84.841 221.34 84.2085 221.34C83.4968 221.34 83.4178 221.064 83.4178 219.166V216.992H80.5317C78.9108 216.992 77.5271 216.874 77.369 216.755C76.8946 216.281 79.5038 212.723 82.1131 210.233L84.8015 207.703L84.9201 211.26C84.9991 214.344 85.1177 214.897 85.8689 215.53ZM54.6762 220.313L55.9413 221.064L54.5576 221.38C53.2134 221.696 49.4181 221.459 49.4181 221.064C49.4181 220.945 49.853 220.55 50.3669 220.115C51.4739 219.245 51.8692 217.308 51.5134 214.107C51.3158 212.17 51.1181 211.695 50.3274 211.34C49.0228 210.747 49.1809 210.391 51.3158 209.324L53.1739 208.375L53.2925 213.988L53.4111 219.562L54.6762 220.313ZM237.009 215.885C239.025 217.664 238.67 221.577 236.377 222.724C235.151 223.396 234.4 223.198 232.581 221.894L231.316 220.945L230.565 221.933C229.893 222.763 229.735 222.803 229.537 222.289C229.419 221.933 229.3 221.143 229.3 220.51C229.3 219.166 228.786 219.048 227.956 220.233L227.363 221.064L226.572 220.115L225.821 219.166L225.505 221.301C225.228 223.317 225.188 223.356 224.714 222.487C224.161 221.498 224.002 218.218 224.398 216.676C224.714 215.609 225.979 215.53 226.256 216.597C226.572 217.901 227.64 217.98 228.549 216.834C229.498 215.648 229.972 215.569 230.921 216.439C231.593 217.032 231.712 217.032 232.858 216.043C234.4 214.779 235.665 214.739 237.009 215.885ZM241.318 216.992C242.149 218.059 242.979 218.969 243.177 218.969C243.374 218.969 243.532 218.257 243.532 217.387C243.532 216.518 243.73 215.806 243.928 215.806C244.165 215.806 244.323 217.269 244.323 219.364C244.323 221.301 244.244 222.921 244.125 222.921C244.007 222.921 243.216 221.815 242.386 220.471L240.844 218.059L240.528 219.601L240.212 221.143L239.935 219.364C239.618 217.506 239.5 215.016 239.698 215.016C239.777 215.016 240.488 215.885 241.318 216.992ZM252.546 216.122C252.783 216.478 253.021 217.071 253.021 217.466C253.021 218.02 253.337 218.178 254.602 218.178C256.104 218.178 256.183 218.099 256.183 216.992C256.183 216.32 256.342 215.806 256.539 215.806C256.895 215.806 257.369 218.969 257.369 221.419C257.369 222.566 257.488 222.842 257.962 222.684C258.476 222.487 258.951 221.182 260.137 216.676C260.651 214.62 261.244 214.581 263.221 216.399L264.762 217.743L265.988 216.399C266.739 215.53 267.53 215.016 268.162 215.016C270.1 215.016 272.748 215.53 272.551 215.846C272.432 216.043 272.116 216.202 271.8 216.202C271.483 216.202 270.772 216.399 270.218 216.597C268.834 217.111 269.427 217.98 271.523 218.376L272.986 218.692L271.404 219.048C268.834 219.601 268.755 219.641 269.23 220.51C269.427 220.945 270.455 221.538 271.523 221.854L273.381 222.447L270.93 222.487L268.439 222.526V220.233C268.439 218.929 268.202 217.625 267.925 217.19C267.411 216.518 267.332 216.518 266.541 217.308C266.107 217.743 265.514 219.127 265.276 220.431L264.762 222.724L263.893 220.036C262.904 216.953 261.916 215.648 261.323 216.597C261.086 216.913 260.453 218.692 259.9 220.55C259.307 222.408 258.793 224.028 258.674 224.186C258.595 224.384 258.002 223.91 257.33 223.238C256.539 222.368 256.183 221.538 256.183 220.668C256.183 219.403 256.104 219.364 254.642 219.364C253.021 219.364 252.665 219.838 252.586 222.131C252.507 224.424 251.874 221.459 251.874 218.652C251.835 215.885 251.795 215.806 250.886 215.806C249.384 215.806 248.672 217.19 248.672 220.036C248.672 221.894 248.514 222.526 248.118 222.526C247.723 222.526 247.604 221.894 247.604 219.917C247.644 217.546 247.525 217.19 246.577 216.36L245.509 215.451L247.011 215.332C249.384 215.095 251.993 215.451 252.546 216.122ZM277.097 216.241C277.73 218.059 277.69 218.178 276.188 218.178H274.804L275.476 216.597C275.832 215.727 276.267 215.016 276.425 215.016C276.544 215.016 276.86 215.569 277.097 216.241ZM282.948 215.411H284.372L284.134 217.862C283.976 219.68 284.055 220.55 284.49 221.103C285.558 222.566 285.044 222.605 283.304 221.182C282.355 220.392 281.446 219.759 281.327 219.759C281.209 219.759 281.09 220.392 281.09 221.143C281.09 222.091 280.893 222.526 280.497 222.526C279.825 222.526 279.706 220.708 280.181 217.071C280.339 215.49 280.537 215.016 280.972 215.174C281.288 215.332 282.197 215.411 282.948 215.411ZM276.465 219.562C276.939 219.245 277.532 218.969 277.769 218.969C278.244 218.969 279.746 222.012 279.469 222.329C279.351 222.408 278.599 222.052 277.809 221.459L276.346 220.431L275.16 221.261C274.527 221.736 273.895 222.131 273.776 222.131C273.341 222.131 273.618 221.064 274.448 219.759C275.279 218.494 275.358 218.455 275.476 219.285C275.595 220.115 275.674 220.115 276.465 219.562ZM223.37 235.966V244.662H224.279C225.94 244.662 226.612 243.437 226.572 240.551C226.572 238.021 226.612 237.942 227.521 237.942C228.509 237.942 228.509 237.982 228.509 241.658V245.374L227.165 245.611C226.414 245.769 224.24 245.888 222.302 245.888C219.535 245.927 218.468 245.769 217.4 245.216L216.056 244.465L218.665 244.346C220.998 244.227 221.354 244.148 221.551 243.358C221.67 242.883 221.788 239.405 221.788 235.65V228.851H219.456C217.479 228.851 217.123 228.732 216.926 228.06C216.728 227.309 216.926 227.27 220.049 227.27H223.37V235.966ZM260.69 229.523C258.516 234.464 254.365 241.421 251.558 244.781C250.807 245.69 250.649 245.769 250.649 245.176C250.688 244.03 252.032 241.342 255.669 235.175C258.911 229.72 260.69 227.27 261.402 227.27C261.56 227.27 261.244 228.297 260.69 229.523ZM295.876 227.625C296.271 227.665 295.916 244.267 295.52 245.69C295.283 246.441 295.125 246.52 293.939 246.125C292.753 245.769 292.634 245.611 292.792 244.504C293.425 239.524 293.702 236.164 293.425 235.887C293.267 235.729 291.092 235.531 288.602 235.492L284.055 235.373L283.937 231.855C283.858 229.918 283.897 228.139 283.976 227.902C284.095 227.625 286.072 227.507 289.827 227.507C292.951 227.546 295.678 227.586 295.876 227.625ZM169.168 231.894C169.247 232.962 169.88 232.329 170.789 230.432C172.41 226.953 172.805 227.428 171.461 231.262C170.789 233.318 170.038 234.978 169.801 234.978C169.287 234.978 167.745 231.104 167.468 229.048L167.231 227.467L168.18 229.444C168.733 230.511 169.168 231.657 169.168 231.894ZM176.126 229.088C175.731 229.365 175.217 229.681 174.98 229.76C174.703 229.839 174.703 230.234 175.098 231.064L175.612 232.211L176.363 231.262C177.233 230.195 177.233 230.195 177.787 231.815C178.024 232.448 178.34 233.318 178.498 233.713C178.775 234.345 178.617 234.345 176.956 233.555L175.138 232.646L173.952 233.792C172.528 235.175 172.489 234.938 173.715 231.302C174.98 227.586 175.019 227.586 176.008 228.1C176.838 228.535 176.838 228.574 176.126 229.088ZM180.238 231.499L180.277 233.99L182.254 234.029C183.361 234.069 184.468 234.108 184.745 234.148C185.259 234.187 185.259 234.148 184.824 230.274C184.587 227.823 184.626 227.665 185.377 227.665C186.168 227.665 186.207 227.863 186.207 231.46V235.294L184.389 235.017C183.361 234.899 181.78 234.78 180.831 234.78H179.091V232.448C179.091 231.183 179.21 229.562 179.368 228.811C179.566 227.704 179.645 227.625 179.921 228.258C180.08 228.693 180.238 230.155 180.238 231.499ZM192.691 228.574C194.549 229.799 194.352 232.883 192.375 234.187C191.821 234.543 190.675 234.938 189.766 235.057L188.184 235.294V231.42V227.546L189.963 227.744C190.952 227.863 192.177 228.258 192.691 228.574ZM245.114 231.104C245.114 233.041 244.995 235.254 244.877 236.045L244.6 237.547H239.935H235.23V241.105V244.662L239.105 244.583C241.2 244.544 243.374 244.662 243.928 244.86C244.877 245.176 244.837 245.216 243.335 245.492C242.465 245.651 239.935 245.809 237.721 245.809L233.649 245.848V240.947V236.045L235.467 235.768C236.456 235.65 238.591 235.65 240.172 235.768C242.939 236.045 243.018 236.005 243.256 235.136C243.414 234.622 243.532 232.962 243.532 231.46V228.732L240.291 229.009C237.009 229.246 234.321 228.89 233.53 228.1C233.214 227.783 234.795 227.665 239.105 227.665H245.114V231.104ZM279.43 232.211C279.548 236.401 278.955 246.125 278.56 246.52C278.481 246.639 277.888 246.481 277.255 246.164C275.99 245.571 275.99 245.334 276.504 239.207L276.82 235.571H272.037H267.253V231.618V227.625L273.302 227.744L279.311 227.863L279.43 232.211ZM201.112 235.057C203.128 235.847 204.67 236.598 204.591 236.757C204.393 237.073 198.779 239.524 197 240.077C196.091 240.354 196.091 240.314 196.091 236.757C196.091 233.436 196.17 233.12 196.803 233.397C197.158 233.515 199.135 234.306 201.112 235.057ZM175.296 237.942C176.008 239.721 176.126 241.105 175.573 241.105C175.335 241.105 175.138 241.698 175.059 242.37C174.98 243.239 174.703 243.714 174.268 243.793C173.635 243.911 173.556 243.595 173.556 241.026C173.556 236.243 174.189 235.175 175.296 237.942ZM179.447 240.828C179.487 243.476 179.407 243.911 178.854 243.793C178.498 243.714 177.984 243.002 177.708 242.132C177.391 241.302 176.996 240.433 176.798 240.235C176.521 239.958 176.838 239.247 177.628 238.18C179.17 236.124 179.407 236.48 179.447 240.828ZM170.987 237.942C170.67 238.575 170.275 240.235 170.117 241.579C169.84 244.069 169.84 244.069 169.563 242.488C169.366 241.619 169.247 240.156 169.247 239.207C169.208 237.745 169.089 237.547 168.338 237.547C167.587 237.547 167.547 237.468 168.022 237.152C168.338 236.954 169.287 236.757 170.117 236.757H171.619L170.987 237.942ZM185.456 237.587C185.773 238.259 185.773 238.812 185.417 239.919C185.021 241.144 185.021 241.579 185.575 242.607C186.524 244.465 186.366 244.504 184.428 242.923L182.689 241.46L182.017 242.725C181.107 244.504 180.673 243.595 180.673 239.8V236.757H182.847C184.626 236.757 185.061 236.915 185.456 237.587ZM188.5 239.524C188.619 242.33 189.014 243.081 190.398 243.081C191.386 243.081 191.624 242.33 191.821 238.772C191.9 237.705 192.138 236.954 192.493 236.836C192.928 236.677 193.007 237.191 192.849 239.642C192.612 243.397 192.177 244.03 189.845 243.753C188.935 243.674 188.066 243.476 187.947 243.397C187.868 243.279 187.67 241.737 187.512 239.919C187.314 237.191 187.354 236.677 187.828 236.836C188.224 236.954 188.421 237.784 188.5 239.524ZM61.0017 268.973C62.1482 269.447 62.5436 269.882 62.8994 271.147C63.1761 272.016 63.2947 272.846 63.1366 272.965C63.018 273.083 62.1482 272.728 61.1994 272.214C58.432 270.593 56.8506 270.475 54.7553 271.74C53.7669 272.293 52.7785 273.242 52.5413 273.795C51.8692 275.534 51.9878 280.673 52.6995 282.096C54.1622 284.903 57.0087 285.733 60.0133 284.231C62.7412 282.847 63.2552 282.808 63.2552 283.954C63.2552 284.784 63.4528 284.982 64.1645 284.982C64.9947 284.982 65.1528 284.665 65.6272 282.689C65.904 281.464 66.6551 279.013 67.2877 277.274C67.9598 275.534 68.8691 272.965 69.383 271.542L70.2528 268.973H71.9132H73.6132L76.4992 277.076C78.0806 281.543 79.5038 285.772 79.662 286.444C79.8992 287.63 79.8201 287.749 78.9899 287.749C77.6062 287.749 76.9736 287.195 75.9062 284.903L74.9178 282.808H71.7946H68.7109L67.7226 285.258C66.8133 287.512 66.6156 287.749 65.5877 287.749C64.8761 287.749 64.2435 287.432 63.7691 286.8L63.0575 285.891L61.5157 286.919C60.211 287.749 59.4994 287.946 57.325 287.946C55.0715 287.946 54.3994 287.749 52.7785 286.76C49.4181 284.665 47.8763 279.922 49.0228 275.06C49.853 271.581 50.4065 270.791 53.0948 269.526C55.9018 268.221 58.7087 268.024 61.0017 268.973ZM147.464 269.724C149.796 271.265 151.022 273.993 151.022 277.748C151.022 282.452 150.429 284.349 148.492 285.93C146.475 287.63 145.131 288.144 142.996 288.144C140.782 288.104 138.529 287.037 136.631 285.061C135.089 283.44 135.089 283.44 134.892 279.566C134.694 275.099 135.168 272.925 136.671 271.107C139.161 268.182 144.143 267.51 147.464 269.724ZM157.268 269.486C157.584 269.921 157.743 272.135 157.743 277.353V284.547L161.815 284.665L165.847 284.784V286.168V287.551L162.882 287.67C161.261 287.749 158.612 287.67 157.07 287.551L154.184 287.274V283.48C154.184 281.345 154.303 277.115 154.461 274.032L154.698 268.38L155.726 268.617C156.28 268.775 156.991 269.131 157.268 269.486ZM90.613 269.17C91.4037 269.407 92.5502 270.158 93.1037 270.83C94.0525 271.937 94.1711 272.372 94.013 274.111C93.8944 275.534 93.42 276.839 92.5502 278.262L91.2851 280.357L92.827 281.977C94.6851 283.914 97.2548 287.156 97.2548 287.512C97.2548 287.63 96.4641 287.749 95.4758 287.749C93.6967 287.749 93.6967 287.749 90.4549 283.796C87.4107 280.12 87.134 279.882 86.3828 280.396C85.7108 280.831 85.5922 281.424 85.4735 284.349C85.3549 287.472 85.3154 287.749 84.5643 287.749C84.1294 287.749 83.4178 287.551 82.9829 287.353C82.2317 286.919 82.2317 286.563 82.3899 277.946C82.5085 273.004 82.5875 268.933 82.6271 268.854C82.6666 268.577 89.3875 268.854 90.613 269.17ZM109.313 269.842C112.436 271.502 113.859 273.993 113.859 277.748C113.82 281.464 113.306 283.321 111.883 284.784C110.104 286.602 107.692 287.393 103.106 287.63L99.2316 287.867V278.262V268.696L103.501 268.854C106.822 268.973 108.087 269.21 109.313 269.842ZM120.185 272.332V275.89H124.138H128.092V272.332V268.775H129.673H131.254V277.866V286.958H129.871H128.527L128.408 282.729L128.289 278.499L124.336 278.459H120.382L120.264 282.887C120.145 287.551 119.513 288.974 119.315 285.061L119.157 282.808L118.841 284.982C118.485 287.077 118.445 287.116 118.09 285.97C117.892 285.298 117.655 281.187 117.536 276.76L117.299 268.775H118.762H120.185V272.332ZM176.917 269.21C177.866 269.447 179.368 270.237 180.198 270.988C184.191 274.388 184.191 281.74 180.159 285.258C178.301 286.879 176.561 287.353 172.094 287.353H168.417V278.064V268.775H171.817C173.675 268.775 175.968 268.973 176.917 269.21ZM198.463 269.961V271.147H194.114H189.766V273.518V275.851L193.838 275.969L197.87 276.088V277.274V278.459L193.877 278.42H189.845L189.607 281.305C189.449 282.926 189.449 284.389 189.568 284.586C189.686 284.824 191.742 284.982 194.154 284.982H198.463V286.168V287.353H192.533H186.603V278.064V268.775H192.533H198.463V269.961ZM210.996 269.447C214.593 271.147 214.751 275.297 211.391 278.934C210.837 279.566 210.719 279.962 210.996 280.317C211.233 280.594 212.616 282.333 214.119 284.191C216.491 287.195 216.689 287.551 215.937 287.67C214.396 287.907 212.379 286.523 209.968 283.598C208.663 281.977 207.042 280.396 206.449 280.08L205.303 279.487L205.026 281.898C204.907 283.203 204.789 284.982 204.789 285.812C204.789 287.314 204.749 287.353 203.405 287.353H202.021V278.064V268.775H205.817C208.544 268.775 210.007 268.973 210.996 269.447Z" fill="#22ACAC"/>
<path d="M248.277 41.7216V45.1211L251.084 44.963C253.259 44.8444 254.01 44.6467 254.445 44.0538C255.235 42.9865 255.156 40.5358 254.326 39.8242C253.654 39.2313 253.101 39.0732 249.78 38.5198L248.277 38.2826V41.7216Z" fill="#22ACAC"/>
<path d="M248.277 54.0938V58.0862H250.373C252.982 58.0862 255.235 57.4537 256.224 56.4655C256.975 55.7145 257.212 53.659 256.738 52.3545C256.303 51.2872 254.405 50.5757 251.242 50.299L248.277 50.0618V54.0938Z" fill="#22ACAC"/>
<path d="M279.114 52.8684C278.561 52.9474 277.177 53.2637 276.031 53.5799C273.738 54.2123 273.105 55.082 273.501 57.1375C273.896 59.3116 275.991 59.865 278.877 58.5605L280.459 57.849L280.34 55.3192C280.3 53.8961 280.221 52.7498 280.182 52.7498C280.142 52.7103 279.668 52.7893 279.114 52.8684Z" fill="#22ACAC"/>
<path d="M393.843 53.1451C390.917 53.6985 389.691 54.6867 389.691 56.5446C389.691 59.0349 392.34 59.9045 395.859 58.521C396.887 58.1257 396.926 57.9676 396.926 55.5563C396.926 54.1333 396.808 52.9079 396.649 52.8288C396.452 52.7498 395.226 52.8684 393.843 53.1451Z" fill="#22ACAC"/>
<path d="M455.041 44.9233C454.29 45.3186 453.302 46.3464 452.788 47.216L451.918 48.7972L452.788 49.0739C453.262 49.1925 455.397 49.311 457.532 49.3506C461.406 49.3901 461.406 49.3901 461.13 48.4809C460.023 44.8048 457.809 43.5003 455.041 44.9233Z" fill="#22ACAC"/>
<path d="M263.456 176.436C263.338 176.712 263.298 178.017 263.377 179.282L263.496 181.614H268.319C270.968 181.614 273.261 181.456 273.419 181.298C273.617 181.14 273.814 179.835 273.893 178.452L274.051 175.882H268.872C264.84 175.882 263.614 176.001 263.456 176.436Z" fill="#22ACAC"/>
<path d="M288.679 176.159C287.77 176.317 287.77 176.396 288.047 180.151C288.165 182.246 288.442 184.144 288.6 184.341C288.798 184.539 289.588 184.539 290.34 184.421L291.763 184.144V180.033V175.882L290.695 175.922C290.063 175.961 289.193 176.08 288.679 176.159Z" fill="#22ACAC"/>
<path d="M284.885 189.599C284.767 191.101 284.806 192.919 284.964 193.67L285.281 195.054H289.788H294.334L294.453 191.259L294.571 187.464L290.934 187.227C284.648 186.753 285.202 186.555 284.885 189.599Z" fill="#22ACAC"/>
<path d="M327.86 189.164C327.267 189.441 327.148 194.698 327.741 195.054C327.939 195.172 330.232 195.172 332.881 195.014L337.665 194.737L337.546 191.931L337.427 189.124L332.881 189.045C330.39 189.006 328.097 189.085 327.86 189.164Z" fill="#22ACAC"/>
<path d="M178.695 190.982C178.695 191.694 178.814 192.959 178.933 193.749C179.209 195.251 179.209 195.251 181.067 195.251C182.095 195.251 184.27 195.133 185.93 195.014L188.974 194.737V192.247V189.717H183.835H178.695V190.982Z" fill="#22ACAC"/>
<path d="M224.16 178.412C224.16 179.795 224.279 181.772 224.437 182.8L224.674 184.657L226.216 184.46C227.086 184.341 227.837 184.183 227.876 184.104C227.955 184.065 228.114 182.286 228.232 180.191L228.469 176.356L227.244 176.119C224.279 175.526 224.16 175.605 224.16 178.412Z" fill="#22ACAC"/>
<path d="M221.235 188.768C221.117 189.796 220.998 191.654 220.998 192.919V195.251H226.375H231.751L231.514 194.342C231.396 193.868 231.277 192.01 231.277 190.192V186.95H226.375H221.512L221.235 188.768Z" fill="#22ACAC"/>
<path d="M81.4424 212.723C79.1494 215.332 79.1494 215.411 81.4424 215.411H83.4191V213.237C83.4191 212.051 83.3005 211.063 83.1424 211.102C82.9447 211.102 82.1936 211.853 81.4424 212.723Z" fill="#22ACAC"/>
<path d="M233.254 218.534C233.254 219.799 233.491 220.747 233.966 221.34L234.717 222.25L235.547 221.419C236.417 220.55 237.049 218.178 236.654 217.19C236.535 216.795 235.903 216.597 234.835 216.597H233.254V218.534Z" fill="#22ACAC"/>
<path d="M281.484 217.506C281.484 218.336 281.959 218.613 282.552 218.139C283.303 217.506 283.184 216.992 282.275 216.992C281.84 216.992 281.484 217.229 281.484 217.506Z" fill="#22ACAC"/>
<path d="M285.597 229.404C285.478 229.681 285.439 230.708 285.518 231.657L285.636 233.396L289.708 233.515L293.741 233.634V231.222V228.851H289.787C286.743 228.851 285.755 228.969 285.597 229.404Z" fill="#22ACAC"/>
<path d="M189.369 231.222C189.369 233.989 189.448 234.385 190.081 234.385C191.741 234.345 193.204 231.974 192.532 230.274C192.176 229.246 190.713 228.06 189.883 228.06C189.488 228.06 189.369 228.93 189.369 231.222Z" fill="#22ACAC"/>
<path d="M268.676 229.207C268.558 229.365 268.558 230.432 268.716 231.578L268.953 233.594H272.788H276.623L276.86 231.578C277.018 230.432 277.018 229.365 276.9 229.207C276.781 229.009 274.923 228.851 272.788 228.851C270.653 228.851 268.795 229.009 268.676 229.207Z" fill="#22ACAC"/>
<path d="M182.134 238.693C181.897 239.642 182.134 239.919 183.122 239.919C183.636 239.919 183.834 239.642 183.834 238.93C183.834 237.705 182.45 237.547 182.134 238.693Z" fill="#22ACAC"/>
<path d="M71.6765 273.321C71.1626 274.309 69.9766 278.38 69.9766 279.21C69.9766 279.724 70.4114 279.843 71.9928 279.843H74.0091L73.7719 278.538C73.6533 277.866 73.2184 276.206 72.823 274.902C72.1905 272.846 72.0324 272.649 71.6765 273.321Z" fill="#22ACAC"/>
<path d="M140.743 271.423C138.806 272.451 137.976 274.151 137.699 277.669C137.462 280.436 137.541 280.713 138.569 282.254C140.032 284.31 141.02 284.982 142.641 284.982C144.262 284.982 145.725 284.231 147.227 282.689C148.334 281.503 148.334 281.385 148.176 278.183C147.978 274.625 147.266 272.728 145.725 271.74C144.222 270.751 142.285 270.633 140.743 271.423Z" fill="#22ACAC"/>
<path d="M85.3923 274.309V277.511L87.8434 277.392C90.255 277.274 90.255 277.274 90.7689 275.811C91.0457 275.02 91.3224 273.874 91.4015 273.281C91.5201 272.214 91.4015 272.135 89.148 271.66C85.1946 270.83 85.3923 270.712 85.3923 274.309Z" fill="#22ACAC"/>
<path d="M102.079 277.827C102.197 281.582 102.474 284.784 102.632 284.981C103.344 285.653 107.811 283.835 109.709 282.096L111.567 280.436L111.29 278.38C110.658 273.755 108.76 271.818 104.213 271.304L101.881 271.028L102.079 277.827Z" fill="#22ACAC"/>
<path d="M171.184 277.827C171.184 283.717 171.263 284.626 171.816 284.863C172.963 285.298 177.153 284.27 178.221 283.322C181.304 280.476 180.79 274.27 177.311 272.293C176.639 271.937 175.018 271.503 173.674 271.344L171.184 271.068V277.827Z" fill="#22ACAC"/>
<path d="M205.186 274.506V277.906L206.688 277.629C208.902 277.234 210.048 276.601 210.641 275.415C211.669 273.281 209.574 271.146 206.372 271.146H205.186V274.506Z" fill="#22ACAC"/>
</svg>
