<svg width="105" height="97" viewBox="0 0 105 97" fill="none" xmlns="http://www.w3.org/2000/svg">
<path fill-rule="evenodd" clip-rule="evenodd" d="M28.8187 13.1354C26.2832 13.1354 23.9155 14.3173 22.509 16.285L6.95573 38.0447C6.00356 39.3768 5.88968 41.0828 6.65733 42.5147C15.1685 58.3912 26.9965 72.5204 41.4463 84.0723L49.033 90.1377C51.0276 91.7325 53.9717 91.7325 55.9663 90.1377L63.5531 84.0723C78.0026 72.5204 89.8309 58.3912 98.342 42.5147C99.1094 41.0828 98.9958 39.3768 98.0434 38.0447L82.4902 16.285C81.0836 14.3173 78.7159 13.1354 76.1804 13.1354H28.8187ZM27.9174 19.6479C28.1183 19.3668 28.4565 19.1979 28.8187 19.1979H38.9579L30.6591 37.7746C30.4679 38.2025 30.3236 38.6438 30.2264 39.092C27.1764 38.8802 24.1291 38.625 21.0854 38.3262L14.994 37.7281L27.9174 19.6479ZM14.7071 43.7959C22.4785 57.093 32.7405 68.9969 45.0168 78.9386L31.4732 45.2533C27.7797 45.0165 24.0897 44.717 20.405 44.3553L14.7071 43.7959ZM38.5671 45.6312L52.4996 80.2837L66.4322 45.6312C57.1484 46.0249 47.8508 46.0249 38.5671 45.6312ZM73.5263 45.2533L59.9824 78.9386C72.2588 68.9969 82.5205 57.093 90.2919 43.7959L84.594 44.3553C80.9094 44.717 77.2196 45.0165 73.5263 45.2533ZM90.0051 37.7281L83.9137 38.3262C80.8699 38.625 77.8227 38.8802 74.7729 39.092C74.6754 38.6438 74.5312 38.2025 74.3401 37.7746L66.0413 19.1979H76.1804C76.5427 19.1979 76.8811 19.3668 77.0818 19.6479L90.0051 37.7281ZM68.0637 39.4873C57.6944 39.9896 47.3048 39.9896 36.9356 39.4873L45.9996 19.1979H58.9996L68.0637 39.4873Z" fill="#22ACAC"/>
</svg>
