<svg width="180" height="74" viewBox="0 0 180 74" fill="none" xmlns="http://www.w3.org/2000/svg">
<path d="M0.10148 0.536503C0.0434915 0.579994 0 13.3955 0 28.9944V57.3798L1.71066 57.4378C3.21837 57.5103 3.47932 57.5538 4.0882 57.9017L4.76956 58.2932L8.33586 58.2497L11.9167 58.2062L12.3371 57.6988C12.569 57.4233 12.83 56.9739 12.9315 56.684C13.0474 56.336 13.1199 52.4073 13.1779 43.6365L13.2649 31.0965L13.6853 30.3716C13.9173 29.9657 14.6421 29.1104 15.2945 28.458C17.0197 26.7184 18.9478 25.8775 20.441 26.211C20.9049 26.3124 20.9774 26.3994 21.3108 27.3272L21.6732 28.342L21.7167 42.8537L21.7602 57.3653L23.1085 57.4523C24.1668 57.5103 24.6162 57.6118 25.1961 57.9017C25.9354 58.2787 26.0079 58.2787 29.3422 58.3222C32.6041 58.3511 32.7636 58.3367 33.155 58.0467C33.9088 57.4813 34.0973 56.9594 34.2423 54.9733C34.3148 53.9295 34.3438 47.7537 34.3148 40.7371C34.2568 27.1388 34.2713 27.3707 33.3435 24.5728C32.1257 20.905 29.9656 18.1071 27.3706 16.8313C25.7904 16.0485 23.152 15.3816 21.1369 15.2656C18.6433 15.1206 16.4833 15.6135 14.3667 16.7733C13.6273 17.1792 13.4244 17.2517 13.3229 17.0923C13.2504 16.9763 13.1924 14.2508 13.1924 11.0179C13.1924 4.92914 13.1199 4.1318 12.5545 3.26197C12.4241 3.07351 12.3226 2.62409 12.3226 2.27616C12.3226 1.91373 12.2356 1.5658 12.1486 1.49332C12.0471 1.42083 11.4383 1.14538 10.8004 0.898933L9.64061 0.435024H4.91454C2.31954 0.435024 0.144972 0.478516 0.10148 0.536503Z" fill="#22ACAC"/>
<path d="M149.756 1.13108C148.93 1.60948 148.799 1.73996 148.64 2.31984C148.538 2.68227 147.074 8.74208 145.392 15.8022C143.711 22.8623 141 34.2426 139.376 41.0997C137.738 47.9569 136.23 54.2776 136.027 55.1475L135.65 56.7132L136.216 57.2206C136.535 57.5105 137.129 57.8874 137.55 58.0759C138.26 58.3948 138.492 58.4238 140.753 58.4238C143.116 58.4238 143.203 58.4093 143.725 58.0614C144.015 57.8584 144.378 57.699 144.523 57.699C144.653 57.699 144.871 57.612 145.001 57.5105C145.262 57.2931 145.378 56.8871 146.77 51.0303C147.364 48.5223 148.901 42.0565 150.191 36.6781C151.481 31.2997 153.177 24.1526 153.975 20.8037C154.772 17.4549 155.816 13.0767 156.294 11.0906C157.469 6.21958 158.599 1.17457 158.599 0.841133C158.599 0.594685 158.382 0.580185 154.642 0.580185H150.698L149.756 1.13108Z" fill="#22ACAC"/>
<path d="M170.878 1.11665L169.617 1.62405L169.399 2.3779C169.284 2.78382 167.094 11.917 164.543 22.6884C161.977 33.4453 159.107 45.5214 158.15 49.5082C156.613 55.9739 156.454 56.7712 156.657 56.9017C156.787 56.9742 157.12 57.2496 157.396 57.5106C158.208 58.2644 158.991 58.4384 161.6 58.4674C163.63 58.4819 163.949 58.4529 164.369 58.2064C164.615 58.047 164.833 57.873 164.833 57.815C164.833 57.757 165.079 57.699 165.384 57.699C166.312 57.699 166.558 57.5686 166.718 56.9887C166.834 56.5248 168.588 49.2037 172.009 34.866C172.603 32.387 174.126 25.9648 175.416 20.5863C178.997 5.63976 180.069 0.97168 179.997 0.768719C179.939 0.623749 179.069 0.580257 176.039 0.594753L172.154 0.609249L170.878 1.11665Z" fill="#22ACAC"/>
<path d="M40.5626 11.0472L40.5191 16.1647L38.3445 16.2372L36.1699 16.3097V20.5864V24.863L37.0832 25.0515C37.5761 25.1675 37.9531 25.2979 37.9096 25.3704C37.8806 25.4284 37.9531 25.5734 38.098 25.7039C38.475 26.0373 39.8232 26.6752 40.1421 26.6752C40.3596 26.6752 40.4466 26.8056 40.5046 27.1391C40.5481 27.4 40.6061 32.3146 40.635 38.0554C40.693 49.3922 40.7365 50.0446 41.5339 52.4511C42.3312 54.8141 43.636 56.2784 46.057 57.5251C48.449 58.7574 49.2898 58.9313 52.6967 58.9313C56.5239 58.9313 57.0748 58.7719 57.7417 57.4816C57.9736 57.0177 58.0461 56.5393 58.1041 54.9156C58.1766 52.741 58.0026 51.4218 57.5387 50.6245C57.3793 50.349 57.2633 49.8706 57.2633 49.5082C57.2633 49.1602 57.2198 48.8413 57.1473 48.7978C57.0893 48.7688 56.4804 48.7978 55.7846 48.8703C53.9869 49.0733 53.4215 48.8993 53.0446 48.0585C52.8851 47.7105 52.6967 46.9422 52.6242 46.3623C52.4792 45.188 52.4212 28.7193 52.5662 27.9944C52.7112 27.313 53.1461 27.1101 54.9437 26.8781C56.321 26.6897 56.6399 26.6027 57.1908 26.2113L57.8432 25.7473L58.9594 26.1533C59.5828 26.3707 60.4092 26.6172 60.7861 26.7042C61.163 26.7911 61.5399 26.9651 61.5979 27.0956C61.6704 27.2261 61.7574 32.0971 61.8009 37.9105C61.8734 49.2182 61.9024 49.9141 62.6417 52.2626C63.2651 54.3212 64.1204 55.539 65.8166 56.8292C68.0057 58.4964 69.2379 58.8733 72.7317 58.9603C77.9942 59.1053 78.5741 58.6849 78.6901 54.7272C78.7626 52.4366 78.5451 50.9724 78.0667 50.4505C77.9362 50.3055 77.8492 49.9286 77.8492 49.5372C77.8492 49.1747 77.8057 48.8413 77.7478 48.8123C77.6753 48.7833 77.0954 48.8123 76.443 48.8993C75.7037 48.9863 74.9933 48.9863 74.6309 48.9138C74.08 48.7978 73.964 48.6963 73.6886 48.1309C73.5146 47.7685 73.2971 46.9712 73.2246 46.3478C73.0072 44.7531 73.0072 28.4728 73.2246 27.8494C73.4421 27.2261 73.732 27.1101 75.5732 26.8781C77.3853 26.6607 77.6753 26.4867 78.0957 25.3849C78.3131 24.834 78.3566 24.2541 78.3566 22.1086C78.3566 19.5571 78.3421 19.4846 77.9652 18.6872C77.7333 18.2378 77.5593 17.6579 77.5593 17.3825C77.5593 16.3822 77.3563 16.2807 75.2542 16.2082C74.2105 16.1792 73.3261 16.1067 73.2536 16.0487C73.1957 15.9908 73.1087 14.5265 73.0507 12.7869C72.9782 10.3659 72.9057 9.48154 72.7028 8.94514C72.5723 8.56822 72.3983 8.26377 72.3258 8.26377C72.2533 8.26377 72.1954 7.95934 72.1954 7.59691C72.1954 7.16199 72.0794 6.74157 71.8909 6.43713L71.5865 5.94423L66.7154 5.97322L61.8299 6.01672L61.7864 11.1197L61.7574 16.2227L59.5393 16.2662L57.3358 16.3097L57.2923 17.136C57.2488 18.0784 56.9733 18.2958 56.9733 17.397C56.9733 16.5127 56.5239 16.2952 54.3783 16.1647L52.6677 16.0632L52.5662 15.3239C52.5227 14.9035 52.4792 13.6277 52.4792 12.4824C52.4792 10.3514 52.2328 8.87266 51.8124 8.39425C51.6964 8.26377 51.6094 7.87235 51.6094 7.49543C51.6094 6.87205 51.5659 6.78507 51.0005 6.37915L50.4061 5.94423H45.5061H40.5916L40.5626 11.0472Z" fill="#22ACAC"/>
<path d="M100.104 15.6137C97.8276 15.9326 96.0009 16.8604 93.5219 18.9625L92.7971 19.5859L92.5071 19.1075C92.3477 18.8465 92.1592 18.5566 92.0867 18.4696C92.0142 18.3826 91.8983 17.8462 91.8403 17.2808L91.7388 16.237H86.9837C82.7795 16.237 82.2142 16.266 82.1417 16.469C82.0982 16.5995 82.0547 29.4005 82.0547 44.9414V73.1674L82.6056 73.2688C82.8955 73.3123 83.3449 73.3558 83.5914 73.3558C83.8233 73.3558 84.1133 73.4428 84.2003 73.5298C84.3452 73.6748 85.302 73.7183 87.926 73.7183C91.9128 73.7183 91.9417 73.7038 92.5506 72.544C92.8406 72.0076 92.8551 71.6887 92.942 65.02C92.9855 61.1927 93.0725 57.9454 93.1305 57.8004C93.3045 57.438 93.6959 57.4959 95.2326 58.1193C97.2622 58.9457 98.6974 59.2211 101.118 59.2066C103.423 59.2066 104.511 58.9892 106.236 58.1918C111.165 55.9448 114.311 50.4648 115.34 42.3899C116.166 35.8517 114.992 27.1679 112.644 22.4708C111.237 19.6439 109.121 17.4983 106.729 16.4255C105.091 15.7007 102.133 15.3382 100.104 15.6137ZM101.017 26.443C102.148 27.0229 103.076 28.2117 103.742 29.8789C104.815 32.6188 104.844 40.0559 103.8 43.8976C103.119 46.3621 101.626 48.3917 100.118 48.8991C98.451 49.4645 95.943 49.0876 94.3483 48.0438C93 47.1595 93.058 47.5654 93.1015 38.6641L93.145 30.9517L93.6379 30.0383C94.3048 28.8206 95.9575 27.1389 96.9868 26.6315C98.364 25.9501 99.9442 25.8777 101.017 26.443Z" fill="#22ACAC"/>
<path d="M121.921 16.5124L121.414 16.7879L121.327 18.4406C121.283 19.3394 121.24 21.8619 121.225 24.0365L121.182 27.9942L121.559 28.4726C121.762 28.7335 122.341 29.1685 122.849 29.4149L123.762 29.8933L127.357 29.8353L130.938 29.7918L131.431 29.2264C131.707 28.9075 131.924 28.5741 131.924 28.4871C131.924 28.3856 132.055 28.2696 132.199 28.2261C132.431 28.1681 132.489 27.9652 132.591 27.0229C132.707 25.7906 132.562 16.5994 132.431 16.3675C132.373 16.295 130.271 16.237 127.386 16.237C122.834 16.2515 122.385 16.266 121.921 16.5124Z" fill="#22ACAC"/>
<path d="M122.995 45.3329L121.386 45.3909L121.284 46.3622C121.241 46.8986 121.197 49.4646 121.197 52.0596V56.8001L121.777 57.3075C122.98 58.3948 123.082 58.4238 127.069 58.4238C129.983 58.4238 130.707 58.3803 131.055 58.2064C131.302 58.0759 131.49 57.9164 131.49 57.8439C131.49 57.757 131.621 57.699 131.766 57.699C132.534 57.699 132.505 57.9889 132.505 51.6537V45.7968L131.969 45.5649C131.519 45.3619 130.809 45.3184 128.011 45.3039C126.141 45.2894 123.879 45.3039 122.995 45.3329Z" fill="#22ACAC"/>
</svg>
