<svg width="320" height="634" viewBox="0 0 320 634" fill="none" xmlns="http://www.w3.org/2000/svg">
<path d="M106.266 1.9844C104.039 4.33049 103.558 7.3383 103.618 17.3242C103.678 25.7461 104.881 34.95 107.048 43.011L108.432 48.1242L105.965 48.786C102.354 49.7485 96.4567 53.8992 93.5682 57.5086C82.616 71.2844 83.5186 88.85 95.554 94.986C102.053 98.2946 109.936 96.1891 116.796 89.2711C119.805 86.2633 123.837 80.7289 124.439 78.8641C124.559 78.5633 126.064 79.225 127.869 80.4282C135.391 85.4813 144.117 85.6617 153.384 80.9696C157.958 78.6836 156.152 78.5633 151.278 80.7891C142.853 84.6992 134.489 83.7367 128.29 78.3227C126.184 76.4578 125.643 75.6758 126.064 74.8938C127.087 72.8485 128.531 65.75 129.133 59.8547C130.938 40.5446 122.814 9.08283 114.028 1.74377C111.381 -0.48201 108.492 -0.361694 106.266 1.9844ZM115.232 6.55627C119.625 12.6922 123.897 26.3477 125.823 40.2438C127.207 49.8688 126.846 65.6297 125.101 70.8633L123.958 74.4727L121.37 70.6227C116.917 64.0657 110.478 49.3274 111.742 48.5453C112.103 48.3047 112.043 47.9438 111.441 47.5227C110.418 46.7406 108.612 40.0032 107.168 31.7617C105.002 19.1891 105.483 5.17268 108.131 2.5258C109.214 1.44299 109.455 1.44299 111.08 2.28518C112.043 2.76643 113.908 4.69143 115.232 6.55627ZM110.478 53.7188C112.765 60.2758 116.917 68.4571 120.106 72.668C123.055 76.5782 123.115 76.6383 122.273 78.6836C119.805 84.5188 113.186 91.918 108.492 94.0836C101.933 97.0313 93.508 93.6625 89.8974 86.5641C87.7912 82.5336 87.6708 75.4352 89.5965 69.1789C92.6053 59.5539 99.6461 51.5532 106.867 49.5078C108.733 48.9664 108.793 49.0266 110.478 53.7188Z" fill="#44B8B7"/>
<path d="M26.471 31.8821C26.2905 32.4837 25.9294 33.5063 25.6887 34.1681C24.5453 37.1157 26.7117 37.7774 29.3595 35.2509C31.3453 33.386 31.4657 32.3634 29.9011 31.461C28.1559 30.5587 26.8321 30.7391 26.471 31.8821Z" fill="#44B8B7"/>
<path d="M199.239 43.5523C190.573 45.2968 179.681 53.5984 175.65 61.4789C175.048 62.682 174.266 63.825 173.904 64.0656C173.423 64.3664 173.242 66.7125 173.303 70.9836C173.363 76.7586 173.543 77.8414 175.048 80.9093C180.765 92.5195 198.156 96.4898 218.796 90.8953C221.264 90.2336 223.671 89.3914 224.032 89.0906C225.536 87.8875 224.152 87.5265 221.384 88.3687C209.048 92.1586 196.591 92.4593 187.926 89.2109C183.713 87.6468 179.441 83.857 177.455 79.9468C175.89 76.8187 174.988 70.8031 175.65 68.0359L176.071 66.532L180.404 67.7351C186.06 69.1789 197.434 69.7203 202.85 68.8179C212.478 67.1336 219.398 60.9375 219.398 54.0195C219.398 51.6734 219.037 50.9515 216.991 48.6656C212.839 44.214 205.979 42.2289 199.239 43.5523ZM208.807 45.4172C210.312 45.8984 212.358 47.282 214.103 48.9664C218.796 53.6586 218.556 57.0875 213.32 61.7797C208.025 66.6523 199.54 68.6976 189.912 67.5547C184.556 66.8929 177.876 65.3289 177.154 64.607C176.191 63.7648 179.501 58.6515 183.593 54.6211C191.717 46.6203 201.165 43.1312 208.807 45.4172Z" fill="#44B8B7"/>
<path d="M38.8672 53.4781C38.8672 53.7187 39.8902 55.5234 41.2141 57.5687C52.1061 74.8336 60.5309 98.5352 60.5309 111.89C60.5309 114.055 60.7114 114.477 61.7344 114.477C62.7575 114.477 62.938 114.055 62.938 111.89C62.938 105.513 60.1097 92.8203 56.499 83.1953C51.9256 70.9836 42.1769 53.1172 40.0707 53.1172C39.4088 53.1172 38.8672 53.2977 38.8672 53.4781Z" fill="#44B8B7"/>
<path d="M256.949 67.1937C247.922 69.2391 238.775 76.0367 236.669 82.2328C234.202 89.3914 235.947 96.8508 241.182 101.663C245.395 105.513 250.811 105.754 257.31 102.445L259.536 101.302L260.62 103.709C262.004 106.656 266.216 110.627 269.706 112.13C273.678 113.935 279.816 115.078 285.292 115.078C292.935 115.078 292.634 114.055 284.871 113.755C274.159 113.273 267.359 110.145 263.568 103.769L261.643 100.641L267.841 94.4445C273.016 89.2711 274.4 87.4664 276.627 82.9547C278.853 78.3828 279.274 76.9391 279.455 73.1492C279.635 69.6602 279.515 68.7578 278.853 68.7578C277.228 68.7578 268.864 74.7734 265.735 78.2023C263.989 80.1273 261.703 83.4359 260.68 85.6016C258.995 89.0906 258.814 90.1133 258.814 95.1062V100.701L256.106 102.024C254.301 102.866 252.255 103.287 249.968 103.348C245.455 103.348 242.085 101.002 239.558 96.0687C236.97 91.1359 237.03 86.0828 239.738 80.6086C242.025 76.0367 245.154 73.0891 250.389 70.5625C257.31 67.3141 264.712 66.7727 271.211 69.1187C273.317 69.9008 274.34 70.0211 274.821 69.5398C275.784 68.5773 270.428 66.893 265.133 66.5922C262.485 66.4719 259.115 66.7125 256.949 67.1937ZM277.469 73.6906C276.867 77.9617 275.243 81.932 272.113 86.7445C269.285 91.1359 262.786 98.2344 261.643 98.2344C261.161 98.2344 260.92 96.9109 260.92 93.7828C260.92 89.9328 261.161 88.85 263.027 85.1805C265.313 80.5484 269.586 75.8562 274.34 72.668C276.085 71.525 277.529 70.5625 277.65 70.5625C277.77 70.5625 277.71 72.0062 277.469 73.6906Z" fill="#44B8B7"/>
<path d="M172.4 124.342C172.219 124.523 172.4 126.628 172.821 129.034C174.025 136.133 174.867 148.164 174.867 158.15C174.867 164.767 175.048 167.414 175.589 167.414C176.071 167.414 176.191 164.286 175.89 155.202C175.409 139.863 173.543 123.259 172.4 124.342Z" fill="#44B8B7"/>
<path d="M111.26 133.245C113.126 138.238 119.625 158.992 120.166 161.82C120.588 163.925 121.189 165.609 121.43 165.609C121.671 165.609 121.911 165.429 121.911 165.128C121.791 162.18 112.343 132.523 111.501 132.523C111.2 132.523 111.08 132.884 111.26 133.245Z" fill="#44B8B7"/>
<path d="M228.425 162.842C223.731 169.941 220 176.076 220.121 176.437C220.241 176.859 221.384 175.475 222.708 173.369C223.972 171.264 227.763 165.429 231.133 160.496C238.354 149.909 238.294 149.969 237.572 149.969C237.271 149.969 233.179 155.744 228.425 162.842Z" fill="#44B8B7"/>
<path d="M55.1148 161.459C55.1148 162.963 74.3113 184.258 75.6953 184.258C75.9962 184.258 72.8068 180.528 68.5343 175.956C64.3219 171.445 59.7484 166.331 58.4847 164.707C55.0546 160.376 55.1148 160.436 55.1148 161.459Z" fill="#44B8B7"/>
<path d="M147.186 181.851C139.002 182.994 130.336 185.04 121.731 187.927C98.5026 195.627 82.8566 206.455 71.0619 222.998C67.6318 227.811 63.4194 236.052 61.6743 241.286C60.9522 243.512 59.207 247.362 57.7628 249.828C56.3787 252.294 54.2725 256.926 53.1893 260.055C51.3238 265.529 51.2035 266.13 51.2637 274.793C51.2637 282.192 51.5044 284.839 52.6477 289.531C56.1982 303.969 63.2389 321.053 79.7876 355.402C82.4955 360.997 86.5274 370.381 88.7539 376.156C96.6973 396.73 97.4796 398.354 112.343 426.988C120.888 443.471 123.777 447.862 130.276 454.419C134.789 458.931 136.294 460.014 141.77 462.661C150.255 466.751 154.407 467.774 161.327 467.473C164.276 467.293 167.225 466.932 167.826 466.691C168.789 466.27 168.91 466.451 168.729 467.955C168.549 469.639 168.428 469.699 165.841 469.579C164.336 469.458 157.717 469.338 151.097 469.278C141.65 469.158 138.159 469.338 134.669 470.12C130.035 471.203 123.115 474.03 123.115 474.873C123.115 475.534 128.832 477.219 131.058 477.219C131.961 477.219 132.743 477.459 132.743 477.82C132.743 478.121 132.142 478.422 131.419 478.422C129.494 478.422 125.522 479.565 125.522 480.166C125.522 480.407 126.846 481.249 128.471 482.031C131.419 483.355 131.419 483.415 130.216 484.437L128.952 485.4L130.577 486.663L132.142 487.926L128.411 489.19C123.476 490.874 122.573 491.416 124.078 491.897C126.846 492.739 137.738 494.062 142.973 494.123L148.69 494.243L142.973 494.724C136.294 495.326 128.531 496.95 128.531 497.672C128.531 497.973 130.637 498.694 133.225 499.296C137.016 500.198 140.446 500.379 152.301 500.379C161.267 500.379 168.729 500.078 171.919 499.597C177.034 498.755 177.154 498.815 180.163 500.319C183.533 502.003 184.315 502.905 183.412 503.808C183.051 504.169 181.727 504.048 179.621 503.326C175.469 502.003 152.18 501.462 142.913 502.424C135.211 503.206 124.319 505.432 124.319 506.214C124.319 506.936 127.869 508.38 132.924 509.643L137.016 510.726L132.382 511.387C129.855 511.688 127.508 512.29 127.207 512.591C126.485 513.312 134.729 514.937 143.996 515.779C152.542 516.561 163.012 515.839 171.317 513.854C176.492 512.651 178.899 512.711 183.232 514.155L185.278 514.876L181.727 515.899C173.122 518.305 162.651 518.726 143.515 517.463C134.007 516.862 130.818 516.982 131.78 517.944C131.961 518.185 133.826 518.666 135.933 519.027C138.641 519.569 139.303 519.869 138.46 520.17C135.09 521.313 133.044 522.757 132.864 523.96C132.623 525.765 134.97 527.93 138.28 528.953C140.566 529.615 155.25 531.299 159.161 531.359H160.605L160.244 544.714C159.642 567.393 154.166 610.284 149.593 628.211C148.991 630.677 148.57 632.783 148.69 632.903C149.412 633.685 150.796 632.181 151.398 629.955C156.453 611.247 162.832 559.452 162.832 537.014V531.54L168.428 531.179C171.437 530.938 174.988 530.457 176.311 530.096L178.598 529.434L177.214 527.991C175.409 526.066 170.655 523.84 165.48 522.576C163.193 522.035 160.786 521.193 160.124 520.712C159.462 520.291 157.235 519.869 155.009 519.869C152.842 519.809 149.352 519.569 147.186 519.328C144.899 519.027 148.028 518.967 154.708 519.148C167.104 519.508 174.626 518.847 182.088 516.862C186.903 515.598 188.588 514.816 187.986 514.215C187.745 513.974 185.759 513.312 183.533 512.771L179.441 511.748L183.593 509.763L187.805 507.778L186 506.334L184.195 504.891L185.579 503.808L186.963 502.725L185.579 501.462C184.796 500.74 183.111 499.657 181.788 499.116L179.38 498.093L182.991 497.07C184.977 496.529 187.805 495.506 189.31 494.844L192.018 493.641L189.129 492.198L186.301 490.814L187.805 489.43C190.513 486.844 189.37 484.618 184.676 483.174L182.088 482.452L185.398 480.948C188.407 479.565 189.671 478.422 188.106 478.422C186.963 478.422 187.504 477.339 188.888 476.978C189.972 476.677 190.092 476.497 189.31 476.016C187.926 475.113 178.057 471.985 173.784 471.203C170.896 470.601 170.053 470.241 170.294 469.579C170.534 469.098 170.655 468.075 170.655 467.293C170.655 466.21 171.437 465.488 173.904 464.044C177.696 461.939 188.888 450.75 192.86 445.155C197.373 438.779 202.85 426.748 207.062 413.814C209.228 407.137 212.418 398.955 214.103 395.526C215.727 392.158 222.527 381.149 229.207 371.163C243.95 348.966 246.839 344.213 251.653 334.648C260.138 317.624 263.388 305.051 263.388 289.531C263.327 274.793 260.619 264.747 252.195 247.723C243.77 230.638 235.345 218.848 223.791 207.658C210.131 194.544 195.628 186.664 178.598 183.055C171.919 181.611 153.865 180.949 147.186 181.851ZM177.996 184.859C198.998 189.311 217.412 201.041 232.216 219.449C239.196 228.051 244.191 236.052 250.209 247.843C258.573 264.446 261.522 275.274 261.522 289.832C261.522 301.683 259.596 311.127 254.481 324.121C251.773 331.039 250.69 332.242 253.097 325.745C255.324 319.669 257.671 307.999 258.212 300.66C258.874 290.855 257.129 278.162 253.579 267.634C250.871 259.453 239.858 237.676 235.165 231.119C232.697 227.751 216.149 211.869 210.913 207.899C203.331 202.184 192.499 197.552 180.704 194.965C175.409 193.823 172.701 193.642 160.726 193.582C146.283 193.582 142.913 193.943 132.081 196.65C116.315 200.56 100.97 208.019 90.3185 216.983C88.6938 218.366 85.6247 220.532 83.5787 221.795C77.0194 225.705 72.6265 229.375 68.8354 234.067C63.7805 240.383 63.8407 240.323 65.5256 236.473C72.9876 219.569 88.092 204.711 106.867 195.747C118.361 190.273 133.465 185.762 145.982 183.897C154.106 182.754 170.354 183.235 177.996 184.859ZM180.403 196.83C190.874 199.116 200.322 202.966 207.664 207.899C211.515 210.486 217.713 215.599 217.352 215.96C217.292 216.08 215.426 215.358 213.32 214.396C207.724 211.869 200.623 209.764 192.86 208.32C189.069 207.598 183.713 206.335 180.885 205.553C165.419 201.222 144.959 201.222 125.462 205.613C117.88 207.298 105.062 211.388 99.7061 213.794C97.6 214.757 95.7345 215.419 95.6141 215.298C95.4938 215.178 97.6 213.674 100.368 211.99C113.366 203.869 128.411 198.394 144.779 195.928C152.722 194.725 172.942 195.206 180.403 196.83ZM167.345 204.711C169.391 205.072 167.345 205.192 161.026 205.012C155.911 204.831 147.968 205.012 143.334 205.372C138.761 205.673 134.91 205.854 134.729 205.733C133.586 204.53 161.388 203.688 167.345 204.711ZM177.575 208.019C184.014 208.681 186.12 209.162 189.611 210.726C201.345 216.02 210.552 224.623 218.195 237.496L219.639 239.902L216.389 237.015C211.094 232.443 201.826 226.487 196.11 223.961C177.515 215.78 155.731 214.456 138.039 220.351C111.862 229.134 89.8973 253.738 83.0973 281.951C78.7044 299.878 79.7274 311.849 87.7911 336.573C88.9345 340.183 89.8371 343.07 89.7769 343.07C89.7168 343.07 88.1522 341.205 86.2867 338.98C83.2778 335.31 82.6159 334.047 80.8106 327.911C75.2743 309.804 73.469 297.953 73.5292 280.207C73.5292 265.168 74.3716 259.212 77.7415 249.708C87.0088 223.84 108.853 209.523 142.673 207.117C150.857 206.576 167.165 206.997 177.575 208.019ZM114.088 210.847C101.451 216.441 97.1787 219.148 90.5592 225.705C83.3982 232.924 78.8849 240.323 75.5752 250.49C72.2053 260.716 71.6637 264.987 71.7238 280.808C71.7238 296.93 72.6265 304.089 76.4778 319.248C77.6212 323.58 78.7044 327.79 78.8849 328.633C79.1256 329.595 78.4637 328.933 77.0796 326.828C71.7238 318.707 68.4141 310.044 67.1504 300.48C65.5256 288.869 67.4513 265.89 71.3628 249.467C73.4088 240.805 77.1398 233.766 84 225.826C87.0088 222.337 88.5734 221.073 92.6053 219.088C98.4424 216.14 113.366 210.245 114.991 210.185C115.352 210.185 114.931 210.486 114.088 210.847ZM201.646 212.29C208.446 214.215 212.357 215.78 217.894 218.727C222.046 220.953 223.37 222.096 227.582 227.149C238.775 240.444 241.363 245.256 243.71 256.686C245.876 267.033 248.704 301.502 248.042 309.142C247.621 313.774 245.034 325.144 244.011 326.768C243.529 327.61 243.469 327.55 243.71 326.527C245.154 320.451 245.515 316.842 245.515 307.879C245.515 296.63 244.853 291.336 242.265 281.35C239.257 269.92 234.021 258.551 227.823 250.129C226.619 248.444 224.092 244.294 222.166 240.805C216.931 231.36 213.802 226.848 208.927 221.976C205.196 218.246 202.488 216.14 194.365 210.907C193.342 210.245 193.462 210.185 195.027 210.546C196.049 210.726 198.998 211.508 201.646 212.29ZM173.965 219.449C190.934 222.036 204.234 228.473 216.389 240.023C223.43 246.76 224.754 248.745 229.869 260.897C235.646 274.432 238.655 287.305 238.655 298.555C238.655 314.737 234.503 326.046 218.736 352.996C203.451 379.224 197.795 391.737 187.504 422.657C184.435 431.861 181.366 440.223 180.644 441.305C179.441 443.11 174.265 446.479 172.701 446.539C172.34 446.539 171.858 445.637 171.678 444.554C171.497 443.531 170.655 438.719 169.812 433.906C163.855 399.437 164.216 376.998 171.016 357.448C172.219 354.019 173.904 349.808 174.747 348.063L176.372 344.875L184.195 344.634C200.683 344.093 210.673 339.882 208.626 334.468C206.52 328.994 195.809 327.79 187.203 332.062C183.773 333.686 178.418 338.258 176.492 341.205C175.589 342.589 175.409 342.589 172.641 341.927C168.428 340.844 163.614 338.498 160.665 336.092L158.078 334.047L159.823 330.317C162.23 325.204 163.012 320.993 162.711 314.255C162.29 305.954 159.281 298.675 155.37 296.81C153.865 296.088 153.504 296.148 152.06 297.171C149.292 299.216 148.149 302.405 147.908 309.142C147.547 317.925 149.352 324.843 153.565 331.159L155.671 334.227L153.986 336.633C152.06 339.401 147.426 343.612 144.237 345.356L141.95 346.619L139.122 342.469C133.947 334.949 129.975 332.242 124.018 332.242C117.819 332.242 114.088 335.009 114.088 339.641C114.088 344.153 120.407 348.605 129.614 350.409C132.563 351.011 136.956 350.59 140.085 349.387C141.409 348.845 143.515 352.515 146.644 360.876C149.593 368.697 151.639 377.299 152.602 386.323C153.685 395.887 153.083 417.544 151.458 427.53C149.954 436.854 147.848 445.937 147.246 445.937C147.005 445.937 145.08 444.855 143.034 443.531C136.595 439.38 133.947 434.026 124.92 407.137C119.685 391.676 117.519 385.962 114.329 379.585C111.681 374.412 104.4 362.801 99.3451 355.643C97.2991 352.815 95.0725 349.748 94.3504 348.725C93.0265 346.86 87.4902 330.257 84.9628 320.572C79.246 298.494 83.338 275.755 96.8176 255.362C109.334 236.413 127.207 223.84 147.487 219.75C154.287 218.366 165.841 218.246 173.965 219.449ZM79.246 228.773C73.5292 235.992 70.4 243.752 68.1132 256.084C64.2017 277.319 63.6601 296.69 66.7893 308.48C68.715 315.819 73.1681 324.963 77.7415 331.039C80.0884 334.047 81.8938 337.415 83.3982 341.266C86.7681 349.988 88.8141 354.38 99.1646 375.555C111.38 400.459 114.028 406.716 117.759 419.89C119.444 425.725 121.069 431.079 121.37 431.68C121.731 432.282 121.911 433.184 121.791 433.666C121.611 434.628 115.292 426.627 112.103 421.454C111.2 420.07 105.363 407.377 99.0442 393.18C91.161 375.494 85.8654 362.621 82.1345 352.094C79.1256 343.672 74.1309 330.377 71.0619 322.617C61.1929 297.953 59.0265 288.388 59.0867 269.98C59.0867 253.738 60.1699 248.865 65.1646 241.827C67.0902 239.18 70.0389 235.511 71.6637 233.706C74.6725 230.337 81.0513 224.983 81.4725 225.465C81.5929 225.585 80.5699 227.089 79.246 228.773ZM250.088 263.483C261.402 292.118 257.611 320.512 238.053 352.996C234.202 359.373 223.791 374.833 222.227 376.457C221.926 376.758 223.31 373.93 225.356 370.141C232.276 357.207 242.747 335.551 244.913 329.716C247.681 322.256 249.306 315.338 249.848 309.142C250.45 300.72 247.621 265.529 245.575 256.626C245.094 254.52 244.673 252.595 244.673 252.355C244.733 251.452 247.742 257.708 250.088 263.483ZM57.4619 258.851C56.5592 265.108 57.0407 281.23 58.3646 288.388C59.9893 297.051 63.2991 308.36 66.9097 317.083C71.4831 328.272 78.6442 347.401 78.4035 347.702C78.1628 347.883 71.0017 332.783 66.5486 322.617C54.5734 295.426 50.8424 279.064 53.6106 265.769C54.453 261.558 57.5221 253.197 57.9433 253.678C58.1238 253.798 57.8831 256.144 57.4619 258.851ZM238.956 276.598C242.988 288.93 244.793 304.45 243.529 316.18C242.566 324.662 240.641 332.122 236.91 341.626C233.48 350.289 229.568 357.147 215.908 378.262C198.637 404.851 194.244 412.972 191.115 424.041C189.25 430.357 187.504 434.387 185.157 437.455C183.954 439.019 194.304 407.678 198.757 396.308C202.549 386.563 211.575 368.877 220.602 353.598C236.97 325.745 240.942 314.135 240.28 295.848C239.919 285.621 237.993 276.537 234.081 266.551C231.012 258.671 231.073 258.43 234.081 264.566C235.586 267.514 237.752 272.928 238.956 276.598ZM157.536 301.983C160.304 307.037 161.207 311.308 160.906 317.744C160.726 322.256 160.304 324.422 158.92 327.73C158.018 330.016 157.175 332.062 157.055 332.182C156.212 333.144 151.639 324.241 150.496 319.489C148.63 311.488 149.773 300.961 152.782 298.855C154.467 297.712 155.671 298.434 157.536 301.983ZM204.113 332.543C210.131 335.069 206.34 339.461 196.411 341.506C190.634 342.709 177.876 343.491 177.876 342.649C177.876 341.506 185.398 334.889 188.166 333.565C193.462 331.039 199.54 330.618 204.113 332.543ZM129.554 335.31C132.021 336.513 135.15 339.762 138.34 344.574C139.242 345.898 139.965 347.161 139.965 347.341C139.965 347.582 138.219 348.063 136.053 348.484C131.48 349.326 127.929 348.725 122.092 346.018C116.616 343.431 114.75 340.363 116.496 337.055C118.18 333.987 124.92 333.084 129.554 335.31ZM159.642 337.656C162.23 339.942 166.442 342.108 170.835 343.371C172.701 343.912 174.265 344.454 174.265 344.514C174.265 344.634 173.363 346.68 172.219 349.146C171.076 351.612 169.331 356.305 168.308 359.613C162.29 379.465 162.17 399.557 168.007 434.147C169.511 442.749 169.933 446.9 169.511 447.321C167.947 448.885 150.977 448.283 149.954 446.599C149.773 446.358 150.435 442.268 151.398 437.455C152.421 432.703 153.565 425.244 154.106 420.973C155.129 411.949 155.31 392.639 154.407 385.18C152.903 373.208 149.713 361.899 145.38 353.056C144.057 350.409 143.094 348.244 143.154 348.183C145.26 347.281 150.857 342.83 153.565 339.822C155.49 337.656 157.235 335.912 157.356 335.851C157.476 335.851 158.499 336.694 159.642 337.656ZM89.0548 345.176C91.3415 348.063 92.7256 350.951 95.6743 358.711C97.7805 364.185 100.85 372.005 102.595 376.096C104.28 380.187 105.603 383.676 105.483 383.796C104.942 384.277 85.2035 342.408 85.2035 340.844C85.2035 340.363 85.3238 340.544 89.0548 345.176ZM102.715 363.944C113.366 380.307 115.653 385.3 124.92 412.551C131.058 430.658 133.887 437.094 137.557 441.245C145.26 450.028 162.832 452.916 175.349 447.381L178.538 445.998L177.214 447.802C175.469 450.269 173.965 451.111 169.933 451.953C163.193 453.276 155.37 453.036 148.088 451.171C140.326 449.186 136.474 447.441 131.359 443.531C126.545 439.922 124.559 436.012 121.671 424.522C118.662 412.551 114.149 399.798 104.761 376.457C100.188 365.208 96.3362 355.643 96.2159 355.222C95.3734 353.056 97.1185 355.462 102.715 363.944ZM218.917 378.081C217.894 379.826 214.885 385.059 212.177 389.691C205.196 401.843 193.642 425.183 190.513 433.605C187.986 440.463 187.625 441.005 183.713 444.915C181.426 447.201 179.441 448.945 179.32 448.765C178.779 448.283 181.667 443.892 184.496 440.824C188.467 436.553 190.092 433.365 192.619 425.244C196.29 413.393 199.6 407.016 212.959 386.202C220.06 375.133 222.407 371.945 218.917 378.081ZM211.334 396.97C210.251 399.256 207.784 405.813 205.919 411.588C201.826 423.98 198.035 433.124 194.304 439.38C191.717 443.772 187.504 449.547 187.504 448.705C187.504 447.381 190.273 440.463 192.8 435.591C194.425 432.462 197.855 424.642 200.382 418.205C204.294 408.46 208.687 399.437 212.297 393.601C213.802 391.255 213.32 392.94 211.334 396.97ZM122.393 438.057C123.115 439.019 129.073 450.75 128.832 450.75C128.17 450.75 117.097 433.244 117.097 432.282C117.097 431.921 120.287 435.41 122.393 438.057ZM132.743 450.269C132.743 450.569 133.044 450.75 133.405 450.75C133.766 450.75 134.91 451.412 135.933 452.194C141.469 456.344 148.811 458.57 157.235 458.63C161.508 458.691 162.832 458.871 164.216 459.894C167.165 461.999 165.54 462.48 155.43 462.48C147.246 462.48 145.982 462.36 143.395 461.157C139.904 459.533 133.405 453.457 130.396 448.945C127.026 443.952 126.906 443.531 129.975 446.84C131.48 448.464 132.683 450.028 132.743 450.269ZM184.435 450.208C182.269 454.239 180.584 455.743 175.168 458.45C169.692 461.157 169.15 461.217 167.104 459.713L165.299 458.39L168.549 457.066C170.294 456.344 172.821 454.901 174.085 453.938C175.349 452.916 177.756 451.412 179.38 450.569C181.065 449.727 183.232 448.283 184.195 447.321C185.218 446.419 186.06 445.817 186.18 446.058C186.301 446.298 185.519 448.163 184.435 450.208ZM135.15 448.344C135.993 449.005 136.354 449.547 135.993 449.547C135.572 449.547 134.669 449.005 133.887 448.344C132.021 446.84 133.165 446.78 135.15 448.344ZM142.191 451.893C143.756 452.494 146.704 453.337 148.69 453.698C153.264 454.6 158.619 456.224 158.619 456.766C158.619 457.487 148.991 456.164 145.26 454.901C140.446 453.337 136.053 450.75 137.979 450.75C138.701 450.75 140.626 451.231 142.191 451.893ZM168.85 454.901C165.6 456.645 163.133 456.946 161.207 455.983C159.522 455.081 159.522 455.081 163.133 454.66C165.119 454.48 167.285 454.239 167.947 454.119C170.655 453.698 170.835 453.878 168.85 454.901ZM175.469 461.037C172.761 462.841 170.053 463.984 170.053 463.202C170.053 462.781 171.196 461.999 172.641 461.458C175.65 460.315 176.733 460.134 175.469 461.037ZM167.947 463.924C168.488 464.887 164.096 465.789 159.221 465.729C152.963 465.669 150.857 464.706 156.814 464.586C159.281 464.526 162.411 464.285 163.734 464.044C167.104 463.323 167.526 463.323 167.947 463.924ZM165.78 471.023C167.225 471.564 167.165 471.624 164.577 472.887C163.133 473.609 160.605 474.451 158.92 474.752C153.625 475.835 138.942 476.798 135.03 476.376C130.336 475.835 126.124 474.812 126.124 474.211C126.124 473.489 133.766 471.203 138.159 470.601C143.034 469.94 163.855 470.241 165.78 471.023ZM177.154 473.429C183.051 475.053 186.602 476.497 186.18 476.978C185.94 477.158 184.375 476.858 182.57 476.316C180.644 475.715 176.071 475.173 171.076 474.993C163.734 474.692 162.952 474.512 164.457 473.91C165.359 473.489 166.683 472.707 167.345 472.226C168.729 471.143 169.812 471.323 177.154 473.429ZM180.223 477.339L182.931 478.121L178.117 479.264C174.205 480.226 170.715 480.467 158.319 480.527C148.75 480.587 141.83 480.948 139.363 481.43C134.368 482.452 133.586 482.392 130.637 481.129L128.23 480.046L131.841 479.264C133.826 478.843 139.363 478.181 144.177 477.82C148.991 477.399 153.865 476.858 155.009 476.617C158.198 475.775 177.094 476.316 180.223 477.339ZM185.579 478.963C186.12 479.264 185.398 479.805 183.292 480.708C180.945 481.67 179.561 481.911 177.395 481.61L174.566 481.249L179.38 479.926C182.028 479.144 184.315 478.542 184.496 478.482C184.676 478.482 185.157 478.662 185.579 478.963ZM162.23 482.091C159.402 482.633 135.993 483.415 137.557 482.873C140.205 482.091 146.704 481.55 155.31 481.55C162.411 481.55 164.216 481.73 162.23 482.091ZM175.168 482.573C176.913 482.994 176.853 483.054 173.664 484.016C166.322 486.182 164.216 486.423 154.708 486.302C149.412 486.242 142.913 486.483 140.326 486.783C136.354 487.265 135.211 487.144 133.526 486.362C131.72 485.52 130.878 484.498 132.021 484.437C132.262 484.377 138.159 484.257 145.08 484.137C152.06 484.016 160.184 483.535 163.133 483.054C169.211 482.091 172.52 481.971 175.168 482.573ZM184.496 484.979C187.083 486.182 187.444 487.686 185.519 488.949C184.134 489.851 183.713 489.851 180.283 488.949C178.237 488.408 174.867 487.806 172.701 487.626C170.534 487.445 168.669 487.024 168.488 486.783C168.308 486.483 168.669 486.242 169.271 486.242C169.873 486.242 172.4 485.58 174.867 484.798C179.561 483.355 180.945 483.355 184.496 484.979ZM154.708 488.107C151.458 488.769 138.701 488.708 140.265 488.047C140.927 487.746 145.019 487.566 149.292 487.566C155.009 487.566 156.453 487.746 154.708 488.107ZM176.071 489.731C178.899 490.333 180.885 490.994 180.464 491.235C178.839 492.258 167.285 493.461 159.041 493.461C150.134 493.461 130.035 491.957 127.749 491.115C125.582 490.273 133.225 488.528 135.752 489.25C138.701 490.092 148.991 489.912 154.708 488.949C160.485 487.987 168.91 488.287 176.071 489.731ZM186 492.679C187.143 493.22 188.106 493.882 188.106 494.062C188.106 494.604 179.2 497.251 177.274 497.251C176.432 497.311 172.881 496.83 169.391 496.288C165.841 495.747 161.147 495.266 158.92 495.266C152.421 495.266 154.588 494.844 163.434 494.363C170.835 494.002 181.366 492.619 182.028 491.957C182.51 491.416 183.834 491.656 186 492.679ZM169.451 497.311L173.965 498.033L170.956 498.634C166.202 499.476 139.664 499.296 135.572 498.394C133.646 497.912 132.142 497.431 132.322 497.311C133.826 495.807 160.545 495.807 169.451 497.311ZM174.145 504.048C177.154 504.59 179.681 505.191 179.681 505.492C179.681 506.094 171.678 508.259 166.442 509.041C161.147 509.883 140.386 509.944 136.655 509.101C132.262 508.139 127.929 506.695 127.929 506.094C127.929 505.372 140.446 503.627 148.871 503.206C159.582 502.605 167.646 502.905 174.145 504.048ZM183.653 506.936C185.097 508.019 184.796 508.259 180.704 509.944C177.696 511.147 176.973 511.207 172.761 510.666L168.127 510.064L172.52 509.041C174.988 508.44 177.936 507.598 179.08 507.056C181.727 505.913 182.209 505.913 183.653 506.936ZM172.46 511.808C175.228 513.613 148.329 515.298 138.701 513.974C130.938 512.891 130.637 512.53 136.655 511.808C143.575 511.026 171.257 511.026 172.46 511.808ZM154.888 521.794C159.642 522.576 159.703 522.637 160.003 527.389L160.124 529.735L154.708 529.615C141.77 529.374 132.864 526.066 135.752 522.576C137.557 520.471 145.08 520.17 154.888 521.794ZM165.299 523.9C169.09 525.043 173.724 527.269 174.747 528.532C175.349 529.254 174.988 529.434 172.34 529.795C170.595 529.976 167.766 530.156 166.021 530.156H162.952L162.531 527.569C162.35 526.186 161.989 524.562 161.869 523.96C161.508 522.697 161.267 522.697 165.299 523.9Z" fill="#44B8B7"/>
<path d="M278.011 187.326C268.804 193.341 256.106 203.508 256.106 204.891C256.106 205.252 257.009 204.711 258.092 203.748C261.823 200.199 269.105 194.605 275.965 189.973C283.788 184.679 284.329 184.258 283.367 184.258C283.006 184.258 280.598 185.641 278.011 187.326Z" fill="#44B8B7"/>
<path d="M22.0176 204.049C22.0176 204.951 37.4831 216.562 41.1539 218.487C43.922 219.93 43.0795 218.667 39.9503 216.682C38.2052 215.539 33.4512 212.17 29.4193 209.102C25.3273 206.034 22.0176 203.808 22.0176 204.049Z" fill="#44B8B7"/>
<path d="M297.087 223.66C287.157 227.45 275.363 232.924 275.363 233.706C275.363 234.007 275.543 234.187 275.844 234.067C283.547 230.097 304.127 221.555 305.993 221.555C306.354 221.555 306.655 221.254 306.655 220.953C306.655 220.051 306.474 220.111 297.087 223.66Z" fill="#44B8B7"/>
<path d="M2.15918 241.406C2.15918 241.707 3.72378 242.248 5.64945 242.609C13.7132 244.234 29.9008 248.986 33.5716 250.791C34.4742 251.272 35.3167 251.392 35.4972 251.091C36.1592 250.069 19.4902 244.715 7.45475 242.068C4.50608 241.466 2.15918 241.166 2.15918 241.406Z" fill="#44B8B7"/>
<path d="M304.85 274.252C298.712 274.973 291.37 275.816 288.482 276.056C285.533 276.237 283.186 276.718 283.186 277.019C283.186 277.38 284.39 277.5 286.075 277.259C287.639 277.079 295.522 276.237 303.646 275.334C311.77 274.432 318.63 273.469 318.991 273.169C319.774 272.507 317.607 272.627 304.85 274.252Z" fill="#44B8B7"/>
<path d="M13.2921 286.283C6.67259 287.065 1.07613 287.666 0.83542 287.726C0.534535 287.726 0.354004 287.967 0.354004 288.208C0.354004 288.689 22.8602 286.463 28.9381 285.38L31.9469 284.899L28.6372 284.839C26.8319 284.839 19.9115 285.501 13.2921 286.283Z" fill="#44B8B7"/>
<path d="M284.51 308.541C285.051 309.082 310.867 312.391 313.876 312.33L316.584 312.21L313.274 311.729C305.451 310.526 287.278 308.18 285.773 308.18C284.931 308.18 284.329 308.36 284.51 308.541Z" fill="#44B8B7"/>
<path d="M33.5117 338.98C27.5541 341.987 22.6196 344.694 22.6196 344.995C22.6196 345.296 22.8002 345.476 23.101 345.356C25.8692 344.153 45.4869 333.926 45.4869 333.746C45.4869 333.024 43.8019 333.746 33.5117 338.98Z" fill="#44B8B7"/>
<path d="M273.558 336.092C273.558 336.273 275.002 336.814 276.747 337.416C278.432 337.957 284.57 340.664 290.287 343.431C295.943 346.138 300.637 348.184 300.637 347.883C300.637 347.281 286.435 340.303 279.756 337.596C275.844 335.972 273.558 335.43 273.558 336.092Z" fill="#44B8B7"/>
<path d="M58.3649 367.855C52.1666 374.352 44.1029 383.977 44.5241 384.398C44.7047 384.578 44.9454 384.638 45.0657 384.518C45.6675 383.616 53.1896 374.893 57.402 370.261C63.1188 364.005 63.841 362.08 58.3649 367.855Z" fill="#44B8B7"/>
<path d="M252.496 364.967C252.496 365.087 255.565 367.253 259.296 369.719C262.966 372.186 267.72 375.795 269.827 377.66C271.873 379.525 273.558 380.788 273.558 380.487C273.558 379.344 266.035 373.028 259.777 368.877C254.12 365.148 252.496 364.245 252.496 364.967Z" fill="#44B8B7"/>
</svg>
