<svg width="720" height="714" viewBox="0 0 720 714" fill="none" xmlns="http://www.w3.org/2000/svg">
<path d="M189.359 533.123C184.185 533.123 179.553 534.146 175.463 536.191C171.492 538.236 168.124 541.184 165.356 545.034C162.589 548.764 160.484 553.336 159.04 558.75C157.716 564.164 157.055 570.24 157.055 576.977C157.055 586.121 158.138 593.941 160.303 600.438C162.589 606.815 166.138 611.688 170.951 615.056C175.763 618.425 181.899 620.11 189.359 620.11C194.653 620.11 199.886 619.508 205.06 618.305C210.353 617.102 216.068 615.417 222.204 613.252V636.171C216.55 638.457 210.955 640.142 205.421 641.225C199.886 642.307 193.69 642.849 186.832 642.849C173.598 642.849 162.649 640.142 153.987 634.728C145.444 629.193 139.128 621.493 135.037 611.627C130.947 601.641 128.901 590.031 128.901 576.797C128.901 567.051 130.225 558.148 132.872 550.087C135.519 541.906 139.369 534.868 144.422 528.972C149.595 523.077 155.912 518.505 163.371 515.256C170.951 512.008 179.613 510.384 189.359 510.384C195.735 510.384 202.112 511.226 208.489 512.91C214.986 514.474 221.182 516.64 227.077 519.407L218.234 541.605C213.421 539.319 208.549 537.334 203.616 535.65C198.803 533.965 194.051 533.123 189.359 533.123Z" fill="white"/>
<path d="M272.685 512.188C284.356 512.188 293.981 513.632 301.56 516.52C309.14 519.287 314.795 523.558 318.525 529.333C322.254 534.988 324.119 542.147 324.119 550.809C324.119 556.704 322.976 561.878 320.69 566.329C318.525 570.661 315.577 574.39 311.847 577.519C308.238 580.526 304.328 582.993 300.117 584.918L338.015 641.044H307.696L277.016 591.595H262.398V641.044H235.147V512.188H272.685ZM270.7 534.567H262.398V569.397H271.241C277.257 569.397 282.13 568.736 285.859 567.412C289.589 566.089 292.296 564.104 293.981 561.457C295.665 558.69 296.507 555.381 296.507 551.531C296.507 547.44 295.545 544.192 293.62 541.786C291.815 539.259 288.988 537.454 285.138 536.371C281.408 535.168 276.595 534.567 270.7 534.567Z" fill="white"/>
<path d="M418.714 641.044L409.329 610.364H362.407L353.023 641.044H323.606L369.084 511.647H402.471L448.13 641.044H418.714ZM393.448 557.486C392.846 555.441 392.064 552.854 391.102 549.726C390.139 546.598 389.177 543.41 388.214 540.161C387.252 536.913 386.47 534.086 385.868 531.679C385.266 534.086 384.424 537.093 383.341 540.703C382.379 544.192 381.416 547.561 380.454 550.809C379.612 553.937 378.95 556.163 378.469 557.486L369.265 587.444H402.832L393.448 557.486Z" fill="white"/>
<path d="M490.077 512.188C501.507 512.188 511.071 513.271 518.772 515.437C526.592 517.482 532.427 520.911 536.277 525.724C540.247 530.416 542.233 536.793 542.233 544.854C542.233 549.666 541.451 554.058 539.887 558.028C538.322 561.998 536.036 565.247 533.029 567.773C530.141 570.3 526.592 571.924 522.381 572.646V573.548C526.712 574.39 530.622 575.894 534.111 578.06C537.601 580.226 540.368 583.354 542.413 587.444C544.458 591.535 545.481 596.949 545.481 603.687C545.481 611.507 543.556 618.245 539.706 623.899C535.976 629.434 530.562 633.705 523.464 636.713C516.365 639.6 507.943 641.044 498.198 641.044H450.012V512.188H490.077ZM493.145 563.261C501.085 563.261 506.56 561.998 509.568 559.472C512.696 556.945 514.26 553.275 514.26 548.463C514.26 543.53 512.455 539.981 508.846 537.815C505.236 535.65 499.521 534.567 491.701 534.567H477.263V563.261H493.145ZM477.263 584.918V618.485H495.13C503.311 618.485 509.026 616.921 512.275 613.793C515.523 610.545 517.147 606.274 517.147 600.98C517.147 597.731 516.425 594.904 514.982 592.498C513.658 590.091 511.312 588.227 507.943 586.903C504.575 585.58 500.003 584.918 494.228 584.918H477.263Z" fill="white"/>
<path d="M259.577 698.118C259.577 701.326 258.8 704.058 257.246 706.314C255.692 708.52 253.461 710.224 250.553 711.427C247.696 712.63 244.312 713.232 240.402 713.232C238.397 713.232 236.466 713.132 234.612 712.931C232.807 712.731 231.153 712.455 229.649 712.104C228.145 711.703 226.816 711.227 225.663 710.675V704.209C227.468 705.011 229.699 705.738 232.356 706.389C235.063 707.041 237.845 707.367 240.703 707.367C243.359 707.367 245.59 707.016 247.395 706.314C249.2 705.612 250.553 704.61 251.456 703.306C252.358 702.003 252.809 700.474 252.809 698.719C252.809 696.965 252.433 695.486 251.681 694.283C250.929 693.08 249.626 691.977 247.771 690.974C245.966 689.921 243.435 688.818 240.176 687.665C237.87 686.813 235.84 685.911 234.085 684.958C232.381 683.956 230.952 682.828 229.799 681.575C228.646 680.321 227.769 678.893 227.167 677.288C226.616 675.684 226.34 673.829 226.34 671.724C226.34 668.867 227.067 666.435 228.521 664.43C229.975 662.375 231.98 660.795 234.536 659.693C237.143 658.59 240.126 658.038 243.485 658.038C246.442 658.038 249.15 658.314 251.606 658.865C254.062 659.417 256.293 660.144 258.298 661.046L256.193 666.836C254.338 666.034 252.308 665.357 250.102 664.806C247.946 664.255 245.691 663.979 243.334 663.979C241.078 663.979 239.199 664.305 237.695 664.956C236.191 665.608 235.063 666.535 234.311 667.739C233.559 668.892 233.183 670.245 233.183 671.799C233.183 673.604 233.559 675.108 234.311 676.311C235.063 677.514 236.291 678.592 237.995 679.544C239.7 680.497 242.006 681.524 244.913 682.627C248.072 683.78 250.729 685.034 252.884 686.387C255.09 687.691 256.744 689.27 257.847 691.124C259 692.979 259.577 695.31 259.577 698.118Z" fill="white"/>
<path d="M284.378 685.184L298.365 658.79H305.659L287.762 691.651V712.48H280.995V691.952L263.098 658.79H270.467L284.378 685.184Z" fill="white"/>
<path d="M343.438 698.118C343.438 701.326 342.661 704.058 341.107 706.314C339.553 708.52 337.322 710.224 334.414 711.427C331.557 712.63 328.173 713.232 324.263 713.232C322.257 713.232 320.327 713.132 318.473 712.931C316.668 712.731 315.014 712.455 313.51 712.104C312.006 711.703 310.677 711.227 309.524 710.675V704.209C311.329 705.011 313.56 705.738 316.217 706.389C318.924 707.041 321.706 707.367 324.563 707.367C327.22 707.367 329.451 707.016 331.256 706.314C333.061 705.612 334.414 704.61 335.316 703.306C336.219 702.003 336.67 700.474 336.67 698.719C336.67 696.965 336.294 695.486 335.542 694.283C334.79 693.08 333.487 691.977 331.632 690.974C329.827 689.921 327.296 688.818 324.037 687.665C321.731 686.813 319.701 685.911 317.946 684.958C316.242 683.956 314.813 682.828 313.66 681.575C312.507 680.321 311.63 678.893 311.028 677.288C310.477 675.684 310.201 673.829 310.201 671.724C310.201 668.867 310.928 666.435 312.382 664.43C313.836 662.375 315.841 660.795 318.397 659.693C321.004 658.59 323.987 658.038 327.346 658.038C330.303 658.038 333.01 658.314 335.467 658.865C337.923 659.417 340.154 660.144 342.159 661.046L340.054 666.836C338.199 666.034 336.169 665.357 333.963 664.806C331.807 664.255 329.551 663.979 327.195 663.979C324.939 663.979 323.06 664.305 321.556 664.956C320.052 665.608 318.924 666.535 318.172 667.739C317.42 668.892 317.044 670.245 317.044 671.799C317.044 673.604 317.42 675.108 318.172 676.311C318.924 677.514 320.152 678.592 321.856 679.544C323.561 680.497 325.867 681.524 328.774 682.627C331.933 683.78 334.59 685.034 336.745 686.387C338.951 687.691 340.605 689.27 341.708 691.124C342.861 692.979 343.438 695.31 343.438 698.118Z" fill="white"/>
<path d="M371.247 712.48H364.48V664.731H347.711V658.79H387.941V664.731H371.247V712.48Z" fill="white"/>
<path d="M426.04 712.48H396.037V658.79H426.04V664.731H402.804V681.499H424.686V687.365H402.804V706.54H426.04V712.48Z" fill="white"/>
<path d="M461.507 712.48L443.836 665.408H443.535C443.635 666.41 443.71 667.688 443.761 669.242C443.861 670.797 443.936 672.501 443.986 674.356C444.036 676.16 444.061 678.015 444.061 679.92V712.48H437.82V658.79H447.821L464.364 702.78H464.665L481.509 658.79H491.435V712.48H484.742V679.469C484.742 677.715 484.767 675.985 484.818 674.281C484.868 672.526 484.943 670.897 485.043 669.393C485.143 667.839 485.219 666.535 485.269 665.483H484.968L467.071 712.48H461.507Z" fill="white"/>
<mask id="mask0_158_37" style="mask-type:alpha" maskUnits="userSpaceOnUse" x="77" y="267" width="551" height="237">
<path d="M627.958 503.743L77.1951 503.743V267.701L627.958 267.701V503.743Z" fill="#1E1E1E"/>
</mask>
<g mask="url(#mask0_158_37)">
<g filter="url(#filter0_d_158_37)">
<circle cx="348.866" cy="515.619" r="242.918" stroke="#22ACAC" stroke-width="10" shape-rendering="crispEdges"/>
</g>
</g>
<mask id="mask1_158_37" style="mask-type:alpha" maskUnits="userSpaceOnUse" x="29" y="40" width="647" height="397">
<rect x="675.463" y="436.938" width="645.773" height="396.371" transform="rotate(-180 675.463 436.938)" fill="#D9D9D9"/>
</mask>
<g mask="url(#mask1_158_37)">
<circle cx="352.578" cy="189.763" r="242.175" transform="rotate(-180 352.578 189.763)" stroke="#22ACAC" stroke-width="10"/>
</g>
<circle cx="314.723" cy="252.855" r="9.81444" stroke="#22ACAC" stroke-width="16"/>
<circle cx="396.373" cy="252.855" r="9.81444" stroke="#22ACAC" stroke-width="16"/>
<mask id="mask2_158_37" style="mask-type:alpha" maskUnits="userSpaceOnUse" x="0" y="387" width="720" height="120">
<rect y="387.948" width="720" height="118.763" fill="#D9D9D9"/>
</mask>
<g mask="url(#mask2_158_37)">
<mask id="mask3_158_37" style="mask-type:alpha" maskUnits="userSpaceOnUse" x="40" y="263" width="618" height="237">
<rect x="652.649" y="494.289" width="607.567" height="226.041" transform="rotate(-180 652.649 494.289)" fill="#D9D9D9" stroke="black" stroke-width="10"/>
</mask>
<g mask="url(#mask3_158_37)">
<circle cx="349.608" cy="500.031" r="182.794" stroke="#22ACAC" stroke-width="10"/>
</g>
</g>
<mask id="mask4_158_37" style="mask-type:alpha" maskUnits="userSpaceOnUse" x="96" y="0" width="147" height="237">
<rect x="96.1514" y="211.424" width="224.165" height="75.7113" transform="rotate(-70.59 96.1514 211.424)" fill="#D9D9D9"/>
</mask>
<g mask="url(#mask4_158_37)">
<circle cx="121.871" cy="107.159" r="66.2113" transform="rotate(-97.4291 121.871 107.159)" stroke="#22ACAC" stroke-width="19"/>
</g>
<mask id="mask5_158_37" style="mask-type:alpha" maskUnits="userSpaceOnUse" x="466" y="10" width="146" height="238">
<rect x="537.69" y="10.876" width="224.165" height="75.7114" transform="rotate(70.91 537.69 10.876)" fill="#D9D9D9"/>
</mask>
<g mask="url(#mask5_158_37)">
<circle cx="582.47" cy="108.486" r="66.2114" transform="rotate(44.0709 582.47 108.486)" stroke="#22ACAC" stroke-width="19"/>
</g>
<defs>
<filter id="filter0_d_158_37" x="96.9482" y="267.701" width="503.835" height="503.835" filterUnits="userSpaceOnUse" color-interpolation-filters="sRGB">
<feFlood flood-opacity="0" result="BackgroundImageFix"/>
<feColorMatrix in="SourceAlpha" type="matrix" values="0 0 0 0 0 0 0 0 0 0 0 0 0 0 0 0 0 0 127 0" result="hardAlpha"/>
<feOffset dy="4"/>
<feGaussianBlur stdDeviation="2"/>
<feComposite in2="hardAlpha" operator="out"/>
<feColorMatrix type="matrix" values="0 0 0 0 0 0 0 0 0 0 0 0 0 0 0 0 0 0 0.25 0"/>
<feBlend mode="normal" in2="BackgroundImageFix" result="effect1_dropShadow_158_37"/>
<feBlend mode="normal" in="SourceGraphic" in2="effect1_dropShadow_158_37" result="shape"/>
</filter>
</defs>
</svg>
