<svg width="66" height="45" viewBox="0 0 66 45" fill="none" xmlns="http://www.w3.org/2000/svg">
<path fill-rule="evenodd" clip-rule="evenodd" d="M0.677285 11.6277C-0.307335 19.388 -0.263436 28.3382 1.10668 36.0669C1.86481 40.3435 5.97941 43.6218 11.0585 43.9966L16.3665 44.3878C27.4347 45.2041 38.5652 45.2041 49.6334 44.3878L54.9414 43.9966C60.0206 43.6218 64.1353 40.3435 64.8934 36.0669C66.2634 28.3382 66.3074 19.3886 65.3225 11.6281C65.1953 10.7285 65.0523 9.83001 64.8934 8.93305C64.1353 4.65654 60.0206 1.37803 54.9414 1.0035L49.6334 0.612099C38.5652 -0.204033 27.4347 -0.204033 16.3665 0.612099L11.0585 1.0035C5.97941 1.37803 1.86481 4.65654 1.10668 8.93305C0.947709 9.82983 0.804589 10.7282 0.677285 11.6277ZM16.8231 5.06744C27.5872 4.27369 38.4126 4.27369 49.1769 5.06744L54.4848 5.45884C57.136 5.65433 59.2839 7.36572 59.6796 9.59805C59.7207 9.82989 59.7608 10.0618 59.7998 10.2939L40.2544 19.5049C35.7428 21.6309 30.257 21.6309 25.7455 19.5049L6.20021 10.294C6.23908 10.0619 6.27908 9.82992 6.32017 9.59805C6.71593 7.36572 8.86375 5.65433 11.515 5.45884L16.8231 5.06744ZM60.4448 15.1058C61.1266 21.8668 60.8715 28.679 59.6796 35.4018C59.2839 37.6343 57.136 39.3456 54.4848 39.5412L49.1769 39.9326C38.4126 40.7263 27.5872 40.7263 16.8231 39.9326L11.515 39.5412C8.86375 39.3456 6.71593 37.6343 6.32017 35.4018C5.12835 28.679 4.87332 21.8671 5.55508 15.1059L23.1851 23.4141C29.2891 26.2906 36.7108 26.2906 42.8145 23.4141L60.4448 15.1058Z" fill="#22ACAC"/>
</svg>
