<svg width="63" height="63" viewBox="0 0 63 63" fill="none" xmlns="http://www.w3.org/2000/svg">
<path fill-rule="evenodd" clip-rule="evenodd" d="M19.0312 26.25C19.0312 19.3637 24.6137 13.7812 31.5 13.7812C38.3862 13.7812 43.9688 19.3637 43.9688 26.25C43.9688 33.1364 38.3862 38.7188 31.5 38.7188C24.6137 38.7188 19.0312 33.1364 19.0312 26.25ZM31.5 17.7188C26.7884 17.7188 22.9688 21.5383 22.9688 26.25C22.9688 30.9616 26.7884 34.7812 31.5 34.7812C36.2116 34.7812 40.0313 30.9616 40.0313 26.25C40.0313 21.5383 36.2116 17.7188 31.5 17.7188Z" fill="#22ACAC"/>
<path fill-rule="evenodd" clip-rule="evenodd" d="M9.25128 23.2492C10.1814 11.9654 19.6108 3.28125 30.9328 3.28125H32.0668C43.389 3.28125 52.8182 11.9654 53.7483 23.2492C54.2481 29.3107 52.3757 35.3296 48.5256 40.0381L35.944 55.4253C33.6471 58.2343 29.3526 58.2343 27.0557 55.4253L14.474 40.0381C10.624 35.3296 8.75163 29.3107 9.25128 23.2492ZM30.9328 7.21875C21.66 7.21875 13.9372 14.3311 13.1755 23.5727C12.7596 28.6175 14.3179 33.6268 17.5222 37.5456L30.1039 52.9329C30.8255 53.8151 32.1742 53.8151 32.8958 52.9329L45.4774 37.5456C48.6818 33.6268 50.24 28.6175 49.8242 23.5727C49.0624 14.3311 41.3396 7.21875 32.0668 7.21875H30.9328Z" fill="#22ACAC"/>
</svg>
