<svg width="439" height="625" viewBox="0 0 439 625" fill="none" xmlns="http://www.w3.org/2000/svg">
<path d="M286.351 0.29541C282.057 0.734253 274.249 2.7334 267.076 5.17133C254.975 9.31586 248.876 11.1687 244.972 11.7538L241.459 12.3389L239.8 10.7299C238.921 9.85217 237.311 7.70679 236.286 5.95148L234.432 2.78217L231.016 3.07471C220.135 4.09863 210.23 6.29279 189.784 12.1439C176.61 15.8983 167.582 18.2388 161.337 19.4578C158.897 19.9453 158.506 20.1404 158.506 21.1155C158.506 21.7494 158.067 23.5048 157.531 25.065C156.994 26.6253 156.555 28.8682 156.555 30.0872C156.555 31.9888 156.896 32.769 159.141 35.7433C160.605 37.6448 164.167 41.7894 167.094 44.9587C170.022 48.1768 173.584 52.3214 175.048 54.223C177.537 57.5873 181.44 64.8036 181.44 66.1201C181.44 66.4615 182.026 66.754 182.758 66.754C184.514 66.754 189.833 72.1663 194.127 78.4074C199.007 85.4287 202.618 90.2071 205.057 92.9376C207.204 95.3268 207.546 95.4731 214.231 97.6185C240.239 105.956 258.098 109.028 277.763 108.589C285.96 108.443 286.79 108.345 288.449 107.273C290.108 106.249 290.449 106.2 292.596 106.736C295.134 107.37 295.573 107.273 304.551 103.567C307.772 102.202 309.333 101.861 311.09 101.958L313.383 102.104L311.48 104.103C308.894 106.736 305.137 108.102 298.598 108.736C295.329 109.077 292.206 109.711 290.157 110.491C286.985 111.71 286.594 111.759 278.69 111.466C267.369 111.125 232.627 106.883 224.039 104.835C215.402 102.787 207.839 99.9589 204.374 97.4722L202.959 96.497L199.299 97.9598C189.98 101.665 183.392 105.42 165.094 117.707C153.481 125.46 143.965 131.36 141.33 132.384C140.696 132.579 140.452 132.432 140.452 131.847C140.452 131.36 139.671 129.312 138.744 127.215C137.817 125.119 136.89 122.339 136.695 121.072C136.451 119.17 135.817 117.853 133.572 114.879C132.011 112.831 130.352 110.003 129.864 108.687C129.229 106.883 128.644 106.103 127.619 105.713C126.838 105.371 125.374 104.006 124.398 102.641C121.91 99.2763 121.324 98.8375 118.738 98.5449L116.542 98.3011V100.885V103.518L120.544 107.322C125.667 112.197 125.521 112.441 116.933 113.319C113.176 113.66 110.297 114.197 109.272 114.733C107.662 115.611 107.613 115.611 107.906 118.341C108.052 119.901 108.833 122.583 109.662 124.485L111.175 127.849L116.25 127.508C120.836 127.166 126.399 126.289 128.253 125.557C128.79 125.314 129.766 126.24 131.523 128.532C134.841 132.969 135.573 134.529 135.573 137.308C135.573 139.551 135.475 139.698 131.474 143.55C128.107 146.816 127.326 147.84 126.887 149.742C126.399 151.595 125.716 152.521 123.179 154.862C121.422 156.422 118.494 159.494 116.591 161.688C114.444 164.175 112.541 165.881 111.516 166.271C110.345 166.661 109.516 167.539 108.394 169.636C107.027 172.074 104.588 175.487 97.1218 185.238C95.9995 186.701 93.6573 190.651 91.8519 194.064C89.1682 199.232 88.1922 200.598 85.5573 202.938C83.1663 205.083 82.0928 206.546 80.7753 209.325C78.9211 213.177 76.5789 216.201 75.0175 216.688C74.5295 216.883 74.0904 217.371 74.0904 217.81C74.0904 219.224 71.8946 223.417 69.7476 226.05L67.6982 228.585L65.2584 226.879C61.062 223.807 60.9156 223.514 60.9156 216.493C60.9156 209.862 60.574 208.74 58.5246 208.545C57.4511 208.399 57.3047 208.692 56.6704 211.276C55.8409 215.03 54.4746 217.176 51.986 218.59C45.9354 222.1 35.054 219.321 27.4907 212.446C22.1232 207.521 20.513 202.255 22.6112 196.453C24.9534 189.871 30.0281 187.189 36.0299 189.334L37.689 189.968L35.298 190.553C32.3703 191.285 29.1986 194.21 29.1986 196.161C29.1986 197.672 29.0034 197.672 35.8835 196.599C40.4215 195.965 41.739 195.917 43.398 196.404C45.3498 196.989 45.3986 197.038 45.1059 198.794C44.9595 199.769 44.6667 201.573 44.5203 202.743L44.1788 204.888L46.0818 204.547C50.2294 203.767 52.1324 201.67 52.1324 198.013C52.1324 195.624 50.5222 193.137 48.18 191.87C47.0577 191.236 46.1794 190.309 45.8378 189.286C45.1547 187.384 42.6661 185.824 37.9329 184.312C36.1275 183.727 34.3221 182.849 33.8829 182.362C33.151 181.533 33.151 181.387 33.8341 180.704C34.2245 180.265 35.7859 179.68 37.2986 179.387C39.7872 178.851 40.0799 178.656 40.7631 177.047C41.8366 174.463 41.2998 171.147 39.1528 167.246C36.0299 161.688 35.4444 160.323 35.2004 157.641C34.9564 155.447 34.7612 155.057 33.7853 154.813C30.8088 154.033 27.4907 149.596 26.954 145.549C26.5148 142.379 26.1732 142.087 23.1479 142.135C19.0003 142.135 17.1949 143.647 14.1208 149.596C12.7545 152.277 11.437 154.618 11.193 154.764C10.4123 155.203 9.534 150.132 9.77798 146.524C10.4611 135.894 21.0009 127.947 33.9805 128.239C37.8354 128.337 38.6649 128.239 39.836 127.362C41.8854 125.85 43.5932 122.973 45.2523 118.195C46.1306 115.757 47.3505 112.588 48.0336 111.125L49.2535 108.443L52.0348 108.394C55.8897 108.394 58.1343 107.175 60.8668 103.616C65.4048 97.716 65.3072 97.8135 67.3566 98.6425C70.0403 99.7639 70.7235 99.6664 76.1398 96.9846C78.8235 95.6194 81.3121 94.5467 81.6536 94.5467C81.9952 94.5467 82.9223 94.888 83.7519 95.3268C85.7037 96.2532 90.3392 96.302 93.4134 95.3755C94.7796 94.9855 97.8537 93.669 100.342 92.4012L104.831 90.1584L104.539 93.0352C104.344 94.7905 104.392 96.0095 104.734 96.2045C104.978 96.3508 107.613 95.4243 110.541 94.1078C120.397 89.6708 123.764 89.2807 131.962 91.8649C132.889 92.1575 133.133 91.8649 133.816 89.8658C134.255 88.5981 134.597 86.8427 134.597 86.0139C134.597 84.6486 134.353 84.356 132.059 83.2833C130.205 82.4544 128.79 82.1131 126.692 82.1619L123.813 82.2106L121.52 78.6512C119.226 75.1406 119.226 75.0918 114.835 73.3853C112.444 72.41 108.052 70.8498 105.075 69.9721C92.4862 66.0714 87.9483 64.2186 82.9711 60.8054C80.8241 59.2939 79.9458 59.0013 76.6765 58.7575C69.4548 58.1237 62.0379 59.9277 55.4993 63.8773C52.23 65.8763 48.6679 68.5581 41.1534 74.7017C37.9329 77.3347 34.1757 80.2115 32.7606 81.0404L30.2233 82.6007L27.5395 89.9146C24.2214 99.0812 23.3919 101.763 22.9039 105.81C22.4648 108.979 22.4648 109.028 18.5612 112.978C15.3895 116.196 14.2184 117.073 12.4129 117.512C10.4123 118 10.022 118.341 9.04604 120.34C8.26532 121.852 7.28941 122.924 5.97193 123.656C4.2153 124.631 3.87373 125.167 2.70264 128.532C-0.713043 138.43 -0.908225 148.279 2.21468 158.177C3.92252 163.541 4.94723 165.394 7.53339 167.783C8.80207 168.953 11.681 172.415 13.9744 175.487C16.2678 178.559 19.1467 182.264 20.3666 183.678L22.5136 186.262L19.4883 190.651C15.6822 196.161 15.0479 197.672 15.0479 201.28C15.0479 203.864 15.3895 204.791 17.9756 209.813C19.5371 212.934 21.0009 216.249 21.1961 217.176C21.4401 218.541 21.8792 219.077 23.0503 219.565C23.9287 219.906 25.9293 221.71 27.5395 223.466C29.101 225.27 31.0528 227.171 31.8823 227.659C34.1269 229.073 37.6402 229.317 42.9589 228.439C45.5938 228 49.1559 227.659 50.9613 227.659H54.133L57.3047 230.438C59.0614 231.998 61.0132 234.144 61.6963 235.265L62.8674 237.264L61.306 241.75C60.2812 244.773 59.159 246.967 57.9391 248.284C56.5728 249.893 56.036 251.014 55.5481 253.599C54.865 257.402 52.718 262.229 50.7173 264.472C49.6438 265.691 49.3023 266.715 49.0095 269.202C48.424 275.004 46.3258 283.342 43.886 289.485C43.1053 291.436 42.8613 293.142 42.8613 296.653C42.8613 299.383 42.6661 301.285 42.3733 301.285C42.1293 301.285 39.9336 303.187 37.4938 305.478C35.054 307.77 32.4191 309.867 31.6383 310.11C30.516 310.549 30.0769 311.134 29.3937 313.133C28.9546 314.548 27.2955 318.79 25.7341 322.593C21.6841 332.393 20.9033 335.514 20.5618 342.779C20.269 348.728 20.3178 348.971 21.3913 350.044C22.416 351.068 22.416 351.263 21.8792 352.97C21.2937 354.822 21.3425 354.969 25.0022 362.283C30.8576 373.839 33.9317 377.739 45.0571 387.345C50.7173 392.221 51.5957 393.196 51.8396 394.805C52.474 398.364 55.2065 405.971 57.7927 411.237C60.9156 417.673 66.0391 425.572 73.8952 436.104C77.1157 440.395 80.9217 445.612 82.3368 447.66C83.947 449.951 85.8013 451.951 87.0699 452.731C89.0218 453.95 90.2904 455.364 96.1459 462.678C99.1224 466.383 102.928 469.309 109.077 472.673C116.054 476.428 119.275 478.67 121.812 481.352C124.106 483.888 124.301 484.424 122.935 484.863C121.764 485.204 120.739 484.814 117.811 482.815C113.517 479.889 110.687 481.401 110.297 486.911C110.15 489.251 110.443 490.714 112.151 495.59C113.322 499.003 114.249 502.806 114.444 504.757C114.688 507.682 115.03 508.462 117.323 511.973C119.958 515.922 121.178 518.994 120.641 520.359C120.397 520.993 120.104 520.993 118.006 520.311C115.762 519.628 115.518 519.384 114.883 517.336C114.493 516.117 113.81 513.338 113.371 511.193C112.346 506.268 111.077 503.586 109.272 502.514C106.539 500.905 105.905 501.246 99.1712 508.121C91.6079 515.874 88.729 519.628 86.2404 524.894C84.1422 529.282 83.1663 532.793 82.3856 538.254C82.0928 540.546 81.5073 542.35 80.9217 543.13C76.4325 548.737 72.8217 555.612 71.4066 561.171C70.8211 563.414 70.6259 565.705 70.7723 569.021C70.9187 573.068 71.1626 574.092 72.4801 576.822C74.4807 580.869 75.9934 582.283 78.3356 582.332C80.0434 582.381 80.2386 582.235 82.044 579.309C83.1175 577.603 84.5814 575.945 85.3133 575.555C86.5332 574.921 86.7284 574.97 87.8019 576.091C88.8754 577.213 88.973 577.749 88.973 582.04C88.9242 584.624 88.8266 589.061 88.729 591.889C88.5338 597.74 88.6802 598.228 93.1694 604.566C101.806 616.805 114.542 623.095 126.887 621.193C131.864 620.413 134.109 619.535 134.109 618.365C134.109 617.878 134.646 616.512 135.329 615.342C136.012 614.221 136.549 612.807 136.549 612.319C136.549 609.93 134.255 606.614 129.473 601.885C124.057 596.57 120.983 592.62 121.715 591.938C121.959 591.694 123.032 591.255 124.106 590.914C127.326 589.939 136.5 585.404 140.843 582.722C147.869 578.334 154.554 572.873 162.947 564.681C171.34 556.49 186.808 539.814 187.393 538.352C187.589 537.913 187.833 536.694 188.028 535.67C188.223 534.548 189.248 532.598 190.76 530.599C193.688 526.747 194.127 525.772 194.127 522.7C194.127 519.579 195.396 514.996 196.86 512.753L198.031 510.949H202.422C207.643 510.949 215.256 511.924 225.063 513.826C233.407 515.386 231.504 514.07 240.727 524.602C243.411 527.673 250.779 535.67 257.073 542.35C272.249 558.44 279.568 566.486 285.765 573.848C290.01 578.919 291.23 580.041 292.84 580.528C294.207 580.918 295.719 582.04 297.769 584.234C299.964 586.574 301.184 587.452 302.502 587.696C305.332 588.183 305.771 587.744 307.089 583.161C308.504 578.431 310.114 574.872 311.285 574.189C312.7 573.312 316.311 575.555 319.092 579.017L321.63 582.186L320.605 584.039C318.897 587.062 318.068 591.206 318.068 596.667V601.69L321.093 605.688C330.364 617.878 338.366 623.339 347.589 623.924L351.492 624.167L354.908 618.902C358.665 613.002 360.373 609.247 361.008 605.249C361.495 602.421 361.008 598.471 359.934 595.79L359.251 594.132L363.545 590.231C370.815 583.6 373.987 581.308 377.842 580.138C381.258 579.065 381.404 578.968 382.721 576.432C384.088 573.799 387.894 569.947 389.114 569.947C389.455 569.947 389.992 569.021 390.285 567.851C390.578 566.729 392.041 562.926 393.505 559.367C397.165 550.736 397.604 549.03 397.604 544.105C397.604 540.643 397.799 539.619 398.531 538.693C399.458 537.523 399.458 537.474 398.531 536.352C397.75 535.377 397.604 534.402 397.604 529.526V523.821L394.579 520.847C390.382 516.751 388.138 515.337 385.796 515.337C382.478 515.337 380.526 516.605 374.621 522.602C371.499 525.82 368.522 528.551 367.985 528.697C367.4 528.892 366.765 529.819 366.375 531.086C365.35 534.646 363.594 536.45 360.178 537.474C359.3 537.766 359.104 537.571 358.812 536.206C356.567 525.918 348.126 510.023 337.195 495.492L336.024 493.883L337.342 493.396C338.074 493.103 341.977 491.055 346.076 488.812C350.126 486.569 355.591 483.888 358.275 482.864C361.691 481.499 363.252 480.67 363.594 479.841C363.935 479.109 364.911 478.524 366.619 478.037C369.498 477.159 370.083 476.769 371.938 474.233C373.011 472.771 373.548 472.429 374.865 472.429C376.232 472.429 376.72 472.088 377.842 470.381C380.428 466.432 382.673 464.043 389.992 457.363C397.702 450.341 400.581 447.026 402.874 442.638C404.435 439.614 407.314 436.348 408.437 436.348C408.876 436.348 409.413 435.519 409.803 434.3C410.681 431.228 412.292 428.254 417.61 419.818C425.222 407.677 426.589 404.313 427.662 395.878C428.736 386.808 428.931 386.175 431.81 381.25C434.103 377.349 435.177 372.961 437.128 359.406C438.934 347.314 439.422 335.514 438.641 324.933C438.348 320.886 437.86 310.354 437.616 301.529C437.031 281.148 436.64 277.734 434.347 273.249C432.981 270.567 432.542 269.007 432.249 265.935C432.005 262.765 431.468 261.108 429.663 257.158C426.345 249.893 426.345 247.504 429.809 243.554C432.834 240.092 433.713 238.483 433.81 236.045C433.908 233.607 432.834 232.096 429.516 230.097C424.539 226.976 424.295 226.732 424.637 224.782C424.783 223.807 425.076 222.003 425.222 220.735L425.564 218.395L422.343 215.03C418.537 210.935 418.098 210.008 419.513 208.107C420.88 206.302 420.831 204.547 419.318 202.597C417.415 200.061 416.634 197.721 415.122 189.578C414.341 185.385 413.511 181.387 413.267 180.753C412.584 178.949 401.361 173.78 391.602 170.806C389.016 169.977 388.577 169.636 386.235 166.515C376.622 153.35 362.032 139.064 342.709 123.851C335.39 118.097 335.195 117.951 332.804 117.951C330.754 117.951 330.266 117.805 330.022 116.976C329.827 116.439 328.412 115.123 326.802 114.05C325.24 112.929 323.581 111.417 323.191 110.588C322.752 109.808 322.215 109.272 321.971 109.418C321.483 109.711 318.799 108.492 317.482 107.322C316.652 106.639 316.213 104.006 316.994 104.396C321.142 106.541 320.702 106.541 333.145 105.274C337.342 104.835 341.636 104.835 349.98 105.274C365.253 105.956 374.719 105.176 378.72 102.836C379.647 102.299 382.136 101.519 384.234 101.129C389.455 100.154 390.48 99.6664 391.993 97.4722C392.871 96.2532 394.53 94.9855 397.214 93.5227C403.216 90.3046 404.679 89.0856 405.655 86.5014C406.436 84.5511 406.436 83.9172 405.948 81.5768C404.484 75.1406 397.799 72.1175 385.21 72.1175C371.889 72.1175 355.542 75.2869 349.687 79.0413C348.028 80.0652 346.369 80.6016 343.832 80.9429C338.61 81.6255 338.708 81.5768 333.78 84.7461C329.73 87.3303 325.826 88.7931 325.094 88.0617C324.265 87.2328 329.925 79.8214 337.83 71.2886C343.441 65.2425 347.735 59.879 349.589 56.6121C350.077 55.7832 350.76 55.0518 351.151 55.0518C351.492 55.0518 352.322 54.7105 352.956 54.2717C353.591 53.8329 354.371 53.6378 354.615 53.8329C354.908 53.9791 355.689 52.9552 356.421 51.4437C357.836 48.4694 360.08 46.0314 362.52 44.8612C363.496 44.3736 364.277 43.5447 364.57 42.6183C365.448 39.9365 367.4 37.4498 369.547 36.1333C372.816 34.1342 373.938 31.3062 373.938 25.065C373.938 20.823 373.792 19.8478 372.67 17.4586C371.059 14.0942 368.376 11.0224 365.546 9.36462C363.447 8.14563 363.252 8.14563 354.518 8.1944C338.61 8.3407 335.048 9.26709 318.653 17.4586C309.04 22.2858 301.77 25.4551 299.184 25.9915C297.769 26.284 295.573 25.4551 295.28 24.5287C295.182 24.2361 296.354 23.456 297.866 22.8708C301.623 21.3106 307.089 17.6536 309.919 14.7281L312.31 12.2902L310.992 9.7547C307.089 2.05078 299.135 -1.02106 286.351 0.29541ZM297.525 14.8744C296.89 15.557 294.499 17.4586 292.206 19.0677C289.913 20.6767 287.326 22.6758 286.497 23.5048C283.96 25.8939 284.643 24.1874 287.375 21.2131C290.254 18.0437 296.354 13.6066 297.769 13.6066C298.647 13.6066 298.647 13.7042 297.525 14.8744ZM238.141 21.9932C239.556 22.9684 239.848 23.0172 243.703 22.4808C247.314 21.9932 248.095 22.042 250.388 22.8221C253.56 23.9435 255.853 25.065 257.854 26.5765C259.318 27.698 259.367 27.8931 259.952 33.8417C260.587 40.4241 261.465 44.1298 262.831 45.7876L263.709 46.8603L269.516 44.0811C272.737 42.5208 275.957 40.8142 276.738 40.3266C278.69 38.9126 278.348 39.9853 275.908 42.7158C274.298 44.4711 272.59 45.6414 269.662 47.0554C267.418 48.0793 264.441 49.5421 262.978 50.3222C260.831 51.3949 260.245 51.5412 259.611 51.0536C258.098 49.7859 257.073 46.324 256.341 39.6927C255.805 34.8656 255.365 32.6714 254.78 32.0376C253.609 30.7698 247.607 27.8931 244.142 26.9666C237.36 25.2113 226.576 25.5526 208.766 28.0393C204.081 28.7219 197.25 29.5508 193.639 29.9409C185.734 30.8186 174.121 30.9161 174.121 30.136C174.121 27.698 179.245 25.7964 185.978 25.7964C191.199 25.7964 197.006 25.2113 212.913 23.1147C232.676 20.4817 235.896 20.3354 238.141 21.9932ZM365.887 27.2592C364.082 30.6235 359.348 33.4516 353.347 34.8168C350.858 35.4019 348.516 36.4259 345.344 38.3275C340.904 41.058 340.855 41.058 334.951 41.6918C331.242 42.0819 327.339 42.8621 324.411 43.7885C319.678 45.3488 313.774 46.1777 311.578 45.6414C310.797 45.3975 309.236 43.7397 307.04 40.7167C304.746 37.5474 303.283 36.0358 302.404 35.792C300.648 35.4019 296.939 36.2796 293.084 38.0349C291.279 38.8638 288.595 39.644 287.18 39.7903C284.643 40.0341 284.545 39.9853 284.204 38.7663C283.716 36.816 284.35 35.1094 285.911 34.3292C287.619 33.4028 287.814 33.4028 287.814 34.3292C287.814 35.6945 291.523 35.1581 296.646 33.1103C299.281 32.0376 302.648 31.0136 304.063 30.8674L306.698 30.5748L309.821 34.7193C311.529 37.011 313.188 39.2539 313.481 39.7903C313.969 40.5704 314.652 40.6679 318.604 40.6191C322.41 40.5704 324.118 40.2291 328.559 38.8151C332.365 37.5961 335.341 37.011 338.806 36.7672C343.978 36.3771 345.149 35.9871 350.175 32.7202C352.127 31.4525 354.371 30.5748 357.738 29.7947C360.324 29.1608 363.155 28.1368 364.033 27.503C366.033 26.089 366.57 25.9915 365.887 27.2592ZM220.135 38.5225C219.11 40.2291 217.159 42.1794 216.817 41.7894C216.573 41.5456 220.33 37.011 220.769 37.011C220.916 37.011 220.623 37.6936 220.135 38.5225ZM189.004 43.3009C193.444 48.4206 196.421 51.1024 199.885 53.2965C201.642 54.418 201.934 54.808 201.934 56.2708C201.934 57.7336 202.276 58.1724 204.521 59.8302C207.985 62.4144 211.157 65.8763 216.573 73.0927C222.916 81.528 226.82 85.2825 231.553 87.5742C234.188 88.8419 236.091 90.2071 237.799 92.0599L240.239 94.6442L235.798 94.4492C231.944 94.3029 230.87 94.0103 227.991 92.5963C223.551 90.4509 219.257 86.2576 212.767 77.7736C207.009 70.2646 204.277 67.2416 200.958 64.8524C198.665 63.1946 198.128 62.4144 198.031 60.4153C197.982 59.4889 197.299 58.8063 195.249 57.4898C192.907 56.027 183.051 46.1777 179.976 42.277L178.952 40.9604L180.806 39.7415C183.734 37.7424 184.27 37.9374 189.004 43.3009ZM231.212 50.4197C234.579 51.3461 244.045 51.3461 248.144 50.4685L251.218 49.8346L251.95 51.2974C252.34 52.0775 252.682 52.8089 252.682 52.9064C252.682 53.199 246.289 55.0518 243.557 55.5394C237.165 56.6609 228.821 56.1733 225.063 54.4667L223.844 53.8817L225.942 51.785C227.064 50.6147 228.138 49.6884 228.284 49.6884C228.43 49.6884 229.748 50.0297 231.212 50.4197ZM344.417 53.4428C343.051 55.1981 313.383 89.7683 310.943 92.4988C308.894 94.6929 306.893 95.6194 299.72 97.4235C290.254 99.8614 274.737 100.544 257.561 99.2763L249.998 98.6912L249.656 96.1069C249.12 92.4012 247.558 88.3055 245.606 85.5262C244.679 84.161 241.361 80.4553 238.287 77.2859C235.164 74.0679 232.822 71.2886 233.017 71.0936C233.261 70.8986 234.871 70.606 236.628 70.4109L239.848 70.1184L244.582 75.0918C249.949 80.7479 252.243 84.7949 253.17 90.4509L253.706 93.8641L262.831 94.4492C284.545 95.8632 299.33 94.6442 310.114 90.5484L313.09 89.427L329.095 70.7523C337.878 60.5129 345.149 52.1263 345.247 52.1263C345.344 52.1263 345.003 52.7114 344.417 53.4428ZM297.525 58.0749C296.793 60.0253 295.378 63.731 294.353 66.2664C293.377 68.8019 291.816 72.0687 290.84 73.4828C289.083 76.1645 288.205 76.6521 289.425 74.2142C289.815 73.4828 291.035 70.3622 292.157 67.2903C293.279 64.2186 294.646 60.8054 295.231 59.7327C296.158 57.8311 298.403 54.5643 298.745 54.5643C298.842 54.5643 298.305 56.1733 297.525 58.0749ZM287.814 79.6264C287.424 81.3817 285.667 83.8197 284.789 83.8197C283.813 83.8197 284.545 81.6255 286.204 79.6752C287.18 78.4562 288.058 77.5786 288.107 77.6273C288.205 77.676 288.058 78.6025 287.814 79.6264ZM389.358 82.7957C388.626 84.1122 385.942 86.3064 384.039 87.0865C383.161 87.4279 380.721 88.1105 378.671 88.5005C376.622 88.8906 370.083 90.3534 364.179 91.7186C355.445 93.7665 352.371 94.2541 347.589 94.4492C342.075 94.6442 337.586 94.0591 337.586 93.1814C337.586 92.9864 338.757 92.1087 340.221 91.2311C342.807 89.622 342.904 89.622 349.833 89.4757C356.421 89.3782 357.738 89.1344 370.279 86.3552C377.647 84.6973 384.673 83.0396 385.893 82.6495C389.163 81.6255 389.943 81.6743 389.358 82.7957ZM37.1522 93.3277C34.9076 98.0573 34.5173 101.568 35.8835 103.957C36.7131 105.322 36.8106 106.005 36.4691 108.004C36.2739 109.321 36.0787 110.686 36.0787 111.027C36.0299 111.807 33.7365 110.686 32.3703 109.174C30.9064 107.565 31.1016 103.323 32.8094 99.6176C34.1757 96.5945 38.5673 89.1344 38.8113 89.3782C38.9089 89.4757 38.1769 91.2311 37.1522 93.3277ZM130.693 179.144C130.693 179.534 129.912 180.704 128.985 181.728C126.789 184.068 126.594 182.606 128.79 180.119C130.498 178.217 130.693 178.12 130.693 179.144ZM401.752 181.338C401.947 181.63 403.167 182.41 404.484 183.044C406.29 183.971 406.875 184.556 406.875 185.385C406.875 186.848 404.679 191.187 403.362 192.357C402.386 193.284 402.337 193.284 402.679 192.162C402.825 191.577 403.069 190.7 403.216 190.212C403.362 189.627 402.825 189.042 401.117 188.164C398.482 186.75 396.872 184.166 397.409 182.118C397.653 181.045 397.994 180.85 399.556 180.85C400.629 180.85 401.605 181.094 401.752 181.338ZM119.86 193.137C119.47 193.771 116.982 197.77 114.347 202.06C109.223 210.398 102.05 221.32 101.66 221.32C101.562 221.32 103.026 218.833 105.027 215.81C106.978 212.836 110.492 207.18 112.883 203.279C117.616 195.478 119.86 192.065 120.3 192.065C120.446 192.065 120.251 192.552 119.86 193.137ZM391.749 196.941C390.285 198.794 389.309 199.574 390.09 198.257C390.919 196.941 392.969 194.551 393.115 194.747C393.261 194.844 392.627 195.819 391.749 196.941ZM406.973 195.868C404.143 199.769 398.043 203.962 393.603 204.937C391.651 205.376 391.895 204.547 394.384 202.158C395.847 200.695 397.214 199.915 398.97 199.476C400.337 199.086 402.825 197.867 404.533 196.697C406.241 195.527 407.656 194.551 407.754 194.551C407.851 194.503 407.461 195.137 406.973 195.868ZM250.437 207.911C251.999 212.592 254.292 218.492 255.561 220.93L257.854 225.465L259.757 225.416C260.831 225.416 264.344 225.123 267.515 224.782C278.641 223.514 290.645 224.441 302.697 227.464C309.528 229.17 309.284 229.073 309.284 230.389C309.284 231.755 310.846 233.412 314.115 235.607C316.409 237.118 317.092 238.483 317.092 241.458C317.092 243.798 316.36 244.968 313.09 248.186C311.187 249.991 310.309 250.527 308.504 250.771C302.99 251.502 297.232 249.454 287.619 243.359C281.129 239.166 278.153 238.142 272.932 238.191C269.272 238.24 264.002 239.556 262.831 240.726C262.636 240.921 263.563 244.627 264.929 248.869C266.296 253.16 268.199 259.108 269.126 262.034C270.053 265.008 271.614 269.055 272.59 271.054L274.396 274.711L282.203 274.565C298.501 274.224 310.895 277.734 322.069 285.828C326.119 288.705 328.851 291.826 330.608 295.336C332.95 300.164 332.755 308.55 329.974 320.399C328.998 324.494 328.461 325.86 327.485 326.737C324.313 329.517 323.63 330.589 322.264 334.587C320.8 339.025 319.775 340.292 315.579 343.12C313.139 344.778 310.504 347.557 309.675 349.361C309.284 350.239 308.748 350.532 307.625 350.532C305.869 350.58 305.381 350.922 302.599 353.945L300.55 356.188L301.77 361.698C302.892 367.061 304.795 372.571 306.259 374.765C306.698 375.448 306.991 377.398 307.089 379.885C307.137 382.128 307.381 385.297 307.577 386.955C307.967 389.88 307.918 390.027 306.454 391.441C304.405 393.488 303.283 393.391 301.575 390.855C299.476 387.784 298.305 384.273 296.354 374.862C295.378 370.182 294.207 365.208 293.767 363.794L292.987 361.161L290.986 361.454C289.913 361.649 283.569 363.112 276.884 364.769L264.783 367.841L265.076 370.767C265.271 372.376 266.393 376.52 267.613 380.031C268.833 383.493 270.15 387.589 270.59 389.051C271.37 391.879 271.273 396.024 270.346 398.413C269.858 399.632 269.711 399.681 267.711 399.242C264.881 398.608 262.294 395.926 261.318 392.416C260.879 390.953 260.196 387.052 259.757 383.688C258.537 374.277 257.61 370.913 255.561 368.719C254.585 367.695 254.292 367.695 246.387 367.939C232.188 368.426 221.843 366.671 213.645 362.429C207.692 359.406 205.155 356.919 204.423 353.555C203.008 346.826 204.667 341.706 208.961 339.463C211.108 338.342 215.256 338.83 218.622 340.536C220.184 341.316 224.673 344.291 228.626 347.167C237.653 353.75 241.068 355.456 245.411 355.798C248.144 355.993 248.973 355.846 250.632 354.92L252.584 353.847L251.657 350.58C251.12 348.825 249.949 343.51 248.973 338.83C248.046 334.149 246.924 328.98 246.533 327.371C245.558 323.422 242.923 316.547 242.191 315.913C241.8 315.571 240.678 315.62 238.726 315.962C234.871 316.693 224.039 316.205 219.989 315.181C215.402 313.962 208.327 310.403 205.253 307.721C199.885 303.089 196.128 297.238 194.322 290.753C193.102 286.267 192.858 277.344 193.883 271.737C194.713 267.251 194.81 266.959 197.348 264.082C198.811 262.424 201.69 258.767 203.789 255.939C207.448 250.966 207.692 250.771 211.693 248.772C213.987 247.65 216.378 246.139 217.012 245.407C218.037 244.188 218.086 243.749 217.842 241.214C217.403 237.459 216.622 235.412 212.962 228.146C208.424 219.272 207.546 215.518 208.815 210.935C209.4 208.692 210.327 208.594 212.962 210.496C215.792 212.592 217.305 215.859 219.696 225.318C221.745 233.559 222.721 236.289 224.234 237.947C225.503 239.41 230.773 237.898 239.507 233.51C242.581 231.998 246.143 230.341 247.412 229.853C249.559 229.073 249.705 228.878 249.461 227.708C248.778 224.977 247.607 221.905 245.948 218.638C242.923 212.592 241.849 209.179 241.8 205.62C241.8 203.816 242.093 201.67 242.435 200.89C242.971 199.525 243.215 199.379 245.362 199.379H247.656L250.437 207.911ZM411.267 207.668C411.267 208.789 406.924 212.787 400.922 217.224C396.775 220.247 394.92 221.418 395.555 220.491C397.116 218.297 401.459 214.445 405.704 211.471C407.851 209.911 409.949 208.35 410.291 207.911C411.023 207.034 411.267 206.985 411.267 207.668ZM416.781 221.857C416.293 222.685 415.122 224.051 414.146 224.928C412.096 226.684 407.851 229.756 407.851 229.512C407.851 228.732 410.925 225.465 413.853 223.173C415.805 221.662 417.415 220.394 417.513 220.345C417.61 220.345 417.269 221.028 416.781 221.857ZM423.758 235.021C425.417 236.045 425.515 237.069 424.1 238.24C423.563 238.678 422.929 238.63 421.416 238.093C418.342 237.021 417.513 237.216 413.999 239.897C410.242 242.725 410.388 241.799 414.292 238.045C419.464 232.974 420.148 232.779 423.758 235.021ZM89.9977 238.142C89.5585 238.776 88.4362 240.775 87.4603 242.53L85.7037 245.7L87.2651 247.455C89.1194 249.552 89.0706 249.991 86.2892 255.842C84.7278 259.157 80.6777 265.691 80.1898 265.691C80.0922 265.691 81.1169 263.594 82.4344 261.059C85.2645 255.598 85.4109 253.94 83.4103 252.087L81.9952 250.771L83.6543 247.65C85.4597 244.237 90.1929 236.923 90.5344 236.923C90.6808 236.923 90.4368 237.459 89.9977 238.142ZM77.994 272.566C77.994 275.93 77.994 275.979 76.5301 276.467C75.7494 276.759 75.0663 277.198 75.0663 277.442C75.0663 277.686 74.8711 277.881 74.6759 277.881C74.4807 277.881 74.3343 276.857 74.3831 275.638C74.4319 273.98 74.8711 272.859 76.0422 271.249C76.8717 270.079 77.6524 269.104 77.7988 269.104C77.8964 269.104 77.994 270.664 77.994 272.566ZM73.1144 284.073C73.1144 285.633 72.8705 289.047 72.5289 291.631C72.0897 295.288 72.0897 297.043 72.5289 299.481C73.0657 302.406 73.0657 302.797 72.1385 304.357C71.553 305.283 70.9187 306.697 70.6747 307.477C68.5277 314.548 67.7957 317.424 67.9909 318.009C68.1373 318.351 69.406 319.326 70.8211 320.155C72.2361 320.935 74.9199 322.495 76.7741 323.617C83.2151 327.322 84.8742 330.492 83.3127 336.05C82.8735 337.659 82.6296 337.903 81.5073 337.757C80.4338 337.611 80.141 337.318 79.7994 335.514C79.2139 332.637 76.8717 330.394 71.1626 327.371C65.6 324.446 63.6481 322.885 64.0873 321.813C64.2825 321.374 65.0632 318.838 65.8927 316.157C66.6735 313.475 67.7957 310.403 68.4301 309.33C69.162 307.965 69.406 306.99 69.162 306.161C68.4789 303.723 69.0156 290.119 69.9915 284.902C70.1867 283.732 71.9922 281.294 72.6753 281.294C72.9193 281.294 73.1144 282.562 73.1144 284.073ZM62.5258 296.263C60.818 298.359 51.4493 306.21 49.0095 307.672C48.1312 308.16 48.18 308.111 49.1071 306.844C50.6198 304.698 54.377 301.236 58.7198 298.018C60.8668 296.409 62.965 294.703 63.3066 294.264C63.6969 293.825 64.0873 293.581 64.2337 293.727C64.3801 293.874 63.5993 294.995 62.5258 296.263ZM38.0305 314.304C36.3227 317.717 34.81 322.349 34.0293 326.64C33.2486 331.077 33.3462 341.706 34.2733 346.485C34.6636 348.63 34.9076 351.214 34.7124 352.141C34.1269 355.749 37.3474 360.088 45.545 366.817C48.2776 369.109 51.3517 371.888 52.2788 373.01L54.0354 375.009L60.5252 375.691C64.0873 376.081 69.8452 376.569 73.2608 376.813C76.6765 377.057 79.6042 377.349 79.7506 377.447C79.8482 377.593 79.5067 379.104 78.9699 380.811C78.4332 382.518 77.994 385.199 77.994 386.711C77.994 389.149 78.238 389.831 79.653 391.831C80.5802 393.147 82.1904 396.17 83.3127 398.657C86.4356 405.824 88.6314 408.652 92.0959 409.92C92.9254 410.213 93.5109 411.139 94.2429 413.431C95.3652 416.795 95.5604 416.893 100.147 418.648L102.538 419.575L103.709 423.67C104.344 425.962 105.027 428.497 105.271 429.326C105.515 430.204 105.807 431.13 106.003 431.423C106.198 431.715 109.906 434.348 114.249 437.274C118.592 440.248 123.471 443.71 125.082 444.978C129.376 448.44 131.767 450 137.768 453.121C141.282 454.925 144.063 456.826 145.82 458.533C148.796 461.361 149.821 461.995 158.019 465.408C161.385 466.822 164.313 468.431 165.533 469.455C167.338 471.113 167.68 471.21 171.584 471.503C175.634 471.747 175.78 471.795 177.244 473.551C178.122 474.526 180.025 475.842 181.684 476.574C192.614 481.401 202.862 483.888 218.037 485.302C223.844 485.838 224.868 486.082 226.527 487.203C229.894 489.544 232.48 489.983 242.239 489.983H251.12L251.95 491.25L252.779 492.567L260.928 492.274C265.368 492.128 271.126 491.64 273.664 491.202C276.201 490.763 281.471 490.324 285.375 490.275C292.792 490.08 292.304 490.178 300.16 486.96C302.111 486.179 303.868 485.887 307.82 485.789C313.725 485.692 317.921 484.668 325.192 481.645C336.805 476.866 339.684 475.745 342.856 474.965C345.588 474.282 346.759 473.648 348.809 471.795C351.541 469.309 356.226 466.871 359.251 466.286C360.422 466.091 361.983 465.213 363.447 463.896C364.765 462.726 366.765 461.166 367.936 460.386C370.864 458.387 376.671 455.266 376.964 455.559C377.549 456.144 375.402 458.874 373.548 459.898C372.426 460.532 369.791 462.044 367.693 463.214C365.594 464.384 362.618 466.481 361.105 467.846C359.056 469.699 357.543 470.576 355.445 471.162C351.248 472.381 347.442 474.477 344.954 476.866C343.1 478.67 342.172 479.109 338.61 480.036C336.317 480.621 331.34 482.425 327.583 484.034C314.213 489.739 311.187 490.568 303.917 490.714C299.037 490.811 298.549 490.909 293.914 492.908L289.034 495.005L282.203 495.151C278.446 495.2 273.176 495.59 270.492 496.077C267.808 496.516 261.855 497.004 257.317 497.15L248.973 497.443L248.144 496.126L247.265 494.858L238.385 494.907C228.577 494.956 226.576 494.566 222.526 492.03C220.574 490.811 219.55 490.519 215.646 490.275C210.23 489.885 202.276 488.812 197.299 487.788C187.491 485.741 174.853 480.816 173.633 478.475C172.852 477.013 170.803 476.33 167.338 476.33C164.557 476.33 164.02 476.086 160.068 473.209C159.19 472.527 156.799 471.308 154.7 470.479C147.088 467.358 145.088 466.237 142.746 463.799C141.038 462.044 138.598 460.435 133.572 457.753C129.62 455.656 124.984 452.779 122.642 450.878C120.397 449.074 114.883 445.075 110.345 442.004L102.148 436.445L100.977 432.349C100.342 430.155 99.708 427.522 99.6104 426.547C99.3664 424.645 99.708 424.889 93.5597 422.305C91.4127 421.379 91.2663 421.232 90.4368 418.258C89.6561 415.284 89.5097 415.089 87.2163 414.016C84.3374 412.651 82.6296 410.359 79.8482 404.02C77.6524 399.144 76.1398 396.463 74.8711 395.439C73.7976 394.512 73.8464 391.197 75.1151 386.516C75.7006 384.37 76.0422 382.566 75.8958 382.42C75.7494 382.274 73.0657 381.981 69.8452 381.737C66.6735 381.494 61.1108 381.055 57.4999 380.714L50.9125 380.128L47.2529 376.618C45.2523 374.716 41.6902 371.596 39.3968 369.645C37.0546 367.695 34.3221 364.916 33.2974 363.404C31.5407 360.869 31.3456 360.332 31.0528 356.188C30.8576 353.75 30.516 350.337 30.2233 348.581C28.6618 339.025 30.76 324.933 34.6636 318.351C36.0787 316.01 39.104 311.524 39.2992 311.524C39.348 311.524 38.8113 312.792 38.0305 314.304ZM68.2349 332.93L70.4307 334.1L68.2349 335.124C66.3807 335.953 64.8192 336.148 57.6463 336.294L49.2047 336.489V334.49C49.2047 332.686 49.3511 332.491 50.8149 332.052C51.6445 331.759 55.4505 331.613 59.2078 331.662C65.356 331.759 66.2831 331.906 68.2349 332.93ZM69.8452 342.925C70.9675 343.559 73.9928 344.681 76.5301 345.412C81.1657 346.68 83.0687 347.606 84.2398 349.02C85.2157 350.239 86.1428 352.141 86.4844 353.652L86.826 355.066L84.0446 354.774C82.3368 354.579 80.9217 354.14 80.2386 353.555C78.7747 352.238 70.3331 348.338 67.4054 347.655C64.2825 346.875 62.5258 345.217 63.3066 343.754C64.5265 341.511 66.8686 341.219 69.8452 342.925ZM409.315 412.017C408.973 412.553 408.632 412.943 408.534 412.797C408.193 412.456 408.876 410.993 409.364 410.993C409.657 410.993 409.608 411.432 409.315 412.017ZM395.262 436.689C392.529 440.053 381.014 451.219 381.014 450.488C380.965 449.903 395.945 434.885 396.531 434.885C396.628 434.885 396.043 435.714 395.262 436.689ZM126.545 493.396C126.887 494.42 130.986 496.809 132.401 496.809C132.889 496.809 133.133 497.296 133.133 498.467C133.133 500.417 131.767 501.685 129.62 501.685C128.058 501.685 124.203 500.027 123.374 498.954C122.349 497.735 122.593 495.005 123.862 493.639C125.228 492.177 126.106 492.079 126.545 493.396ZM140.306 499.832C141.038 500.563 142.55 501.538 143.721 501.977C145.868 502.806 146.21 503.489 145.332 505.147C144.844 505.976 144.697 506.024 143.673 505.342C143.087 504.952 141.574 504.464 140.306 504.318C138.11 504.025 138.012 504.074 138.012 505.147C137.964 506.268 137.915 506.268 136.5 504.659C135.182 503.245 135.036 502.709 135.231 501.148C135.377 500.173 136.207 498.272 137.085 496.955L138.744 494.615L138.891 496.565C138.988 497.833 139.476 498.954 140.306 499.832ZM328.315 498.32C328.315 498.613 328.607 498.759 328.998 498.613C329.681 498.369 332.023 499.783 332.804 500.953C333.487 501.88 333.194 503.343 332.121 504.464C330.852 505.829 329.242 505.927 328.071 504.61C327.583 504.074 326.802 503.635 326.363 503.635C324.655 503.635 324.069 500.173 325.484 498.369C326.119 497.638 328.315 497.589 328.315 498.32ZM153.285 504.025C153.822 504.61 155.14 505.244 156.164 505.39C157.726 505.683 157.921 505.829 157.531 506.609C157.238 507.097 157.043 508.072 157.043 508.755V510.071L153.529 509.73C151.578 509.535 149.674 509.145 149.382 508.901C147.625 507.487 148.455 502.904 150.846 500.319L151.919 499.149L152.065 501.051C152.163 502.075 152.7 503.391 153.285 504.025ZM319.043 503.976C319.824 504.757 320.849 506.171 321.239 507.146C321.971 508.901 321.922 508.999 320.8 509.73C319.19 510.803 317.384 510.218 315.628 508.121C314.115 506.268 313.627 503.44 314.798 503.001C316.213 502.416 317.677 502.757 319.043 503.976ZM165.338 504.903C165.338 506.366 167.729 507.585 169.925 507.195C171.242 506.902 171.291 506.951 170.705 508.072C168.949 511.485 166.021 512.899 163.191 511.729C162.069 511.29 161.434 510.656 161.434 510.12C161.532 507.828 163.776 503.635 164.947 503.635C165.143 503.635 165.338 504.171 165.338 504.903ZM180.074 509.389C181.294 509.535 181.343 509.632 180.904 510.949C180.22 512.851 178.952 513.875 176.854 514.216C175.39 514.46 175.097 514.362 174.999 513.582C174.853 511.485 175.243 510.12 176.707 507.828L178.269 505.439L178.513 507.341C178.708 508.95 178.952 509.242 180.074 509.389ZM290.645 508.804C291.913 509.437 292.206 509.828 292.206 511.193C292.206 512.997 291.523 513.728 289.425 514.167C288.107 514.411 287.912 514.313 287.375 512.851C287.082 511.973 286.351 510.754 285.814 510.169L284.789 509.047L286.399 508.56C288.741 507.926 288.937 507.926 290.645 508.804ZM137.622 509.291C141.038 509.876 142.746 512.899 140.208 513.875C137.768 514.801 133.474 511.778 134.304 509.73C134.597 508.901 134.987 508.852 137.622 509.291ZM309.821 511.534C311.627 513.094 312.212 513.972 312.212 514.947C312.212 516.459 310.699 518.263 309.48 518.263C307.43 518.263 304.502 515.532 303.087 512.314C302.599 511.144 302.648 510.9 303.575 510.218C305.43 508.95 307.186 509.291 309.821 511.534ZM336.268 510.656C338.415 511.583 340.709 513.826 341.928 516.264C342.807 517.922 342.856 518.263 342.221 518.263C341.831 518.263 341.05 518.507 340.562 518.799C338.513 520.116 334.804 517.629 332.56 513.484L331.242 511.046L332.56 510.559C334.414 509.876 334.463 509.876 336.268 510.656ZM261.367 515.142C264.1 516.946 266.344 518.653 266.344 518.994C266.344 519.823 263.417 523.431 262.88 523.236C261.806 522.944 254.292 517.726 253.072 516.459C251.803 515.142 251.755 514.996 252.486 513.923C253.218 512.899 254.731 512.022 255.902 511.973C256.195 511.924 258.635 513.387 261.367 515.142ZM282.008 515.289C283.667 516.898 283.911 517.483 283.911 519.287C283.911 522.115 283.423 522.797 281.813 522.407C279.666 521.871 276.933 518.75 276.103 515.874C275.762 514.655 275.859 514.265 276.494 513.875C278.25 512.899 280.056 513.338 282.008 515.289ZM151.382 515.142C153.383 515.825 153.676 516.117 153.432 516.995C153.285 517.531 153.139 518.312 153.139 518.604C153.139 519.482 149.626 519.433 147.576 518.555C145.527 517.726 144.795 515.922 146.112 514.996C147.284 514.167 148.552 514.216 151.382 515.142ZM327.827 516.166C327.827 516.654 328.266 517.678 328.803 518.507C330.803 521.481 329.73 524.065 326.948 523.041C325.728 522.554 325.387 522.164 325.387 521.091C325.387 520.311 324.801 519.092 323.874 518.068C323.045 517.093 322.508 516.117 322.703 515.825C322.849 515.581 324.069 515.337 325.436 515.337C327.387 515.337 327.827 515.484 327.827 516.166ZM161.434 518.702C161.434 519.384 161.922 519.677 163.337 519.921C164.411 520.067 165.435 520.408 165.582 520.701C165.728 520.945 165.289 522.261 164.606 523.578L163.337 526.016L161.776 525.04C160.897 524.553 159.629 524.114 158.897 524.114C157.677 524.114 157.531 523.919 157.531 522.602C157.531 520.798 158.262 519.287 159.629 518.165C160.8 517.239 161.434 517.434 161.434 518.702ZM299.086 518.848C301.575 520.554 302.648 522.31 302.355 524.211C302.258 525.04 301.867 525.382 300.794 525.479C298.501 525.772 297.329 525.187 296.451 523.431C296.012 522.505 294.987 521.383 294.158 520.945C292.255 519.969 292.304 518.897 294.304 518.019C296.451 517.093 296.451 517.093 299.086 518.848ZM184.856 521.871C184.856 522.115 184.173 523.383 183.343 524.699C182.319 526.259 181.635 526.942 181.294 526.601C180.464 525.772 180.806 523.821 182.221 521.725C183.49 519.823 183.636 519.726 184.222 520.506C184.563 520.993 184.856 521.578 184.856 521.871ZM174.951 522.651C175.585 522.651 176.073 522.895 176.073 523.139C176.073 524.163 174.609 526.552 173.682 527.039C172.218 527.82 169.973 527.625 169.095 526.649C168.412 525.869 168.461 525.625 170.071 523.529C171.681 521.335 171.828 521.237 172.804 521.92C173.389 522.31 174.365 522.651 174.951 522.651ZM319.775 522.797C321.874 524.845 322.557 527.381 321.239 528.356C318.556 530.258 314.164 527.43 314.164 523.773C314.164 521.432 314.359 521.188 316.457 521.188C317.677 521.188 318.556 521.627 319.775 522.797ZM273.81 524.797C275.811 526.698 276.103 527.283 276.103 528.99C276.103 531.33 275.518 531.72 272.834 530.989C270.882 530.453 268.882 528.697 267.808 526.601C267.32 525.625 267.32 525.382 268.003 524.992C268.443 524.748 268.784 524.065 268.784 523.431C268.784 522.846 268.931 522.212 269.077 522.017C269.662 521.481 271.517 522.554 273.81 524.797ZM130.888 525.918C132.303 527.088 132.45 527.527 132.255 528.99C131.913 531.525 131.474 531.623 130.156 529.624C129.229 528.112 128.644 527.722 127.277 527.625C123.179 527.332 122.642 526.796 124.398 525.04C125.814 523.626 128.644 524.016 130.888 525.918ZM346.466 525.918C348.37 527.917 349.004 528.99 349.492 531.038C349.785 532.354 349.736 532.403 347.882 532.403C345.442 532.403 343.197 530.599 342.416 527.966C341.88 526.308 341.928 525.918 342.709 525.089C343.929 523.724 344.466 523.87 346.466 525.918ZM112.151 525.089C112.151 525.918 114.639 528.015 115.615 528.015C116.835 528.015 116.835 529.77 115.566 531.769C114.151 534.11 112.932 533.866 111.468 531.038C110.882 529.916 110.345 529.477 109.467 529.477C107.857 529.477 107.662 527.82 109.028 525.674C109.76 524.602 112.151 524.114 112.151 525.089ZM291.328 526.406C292.596 527.576 293.523 529.38 293.719 531.184C293.914 532.549 293.767 532.647 292.255 532.793C290.888 532.939 290.254 532.647 288.497 530.891C286.399 528.844 285.96 527.625 286.643 525.82C287.082 524.748 289.913 525.138 291.328 526.406ZM309.724 529.77C310.553 530.453 311.236 531.428 311.236 531.964C311.236 532.452 311.48 532.891 311.724 532.891C312.017 532.891 312.212 533.963 312.212 535.328V537.766H310.309C308.65 537.766 308.357 537.571 307.82 536.255C307.479 535.426 306.357 534.207 305.332 533.573C303.575 532.5 303.478 532.305 303.966 531.086C304.258 530.355 304.698 529.477 304.99 529.136C305.82 528.112 308.113 528.405 309.724 529.77ZM336.805 529.916C337.781 530.745 339.05 533.378 339.05 534.597C339.05 535.67 337 535.524 335.488 534.305C333.877 533.086 332.706 529.575 333.682 528.99C334.463 528.502 335.536 528.844 336.805 529.916ZM141.184 530.843C142.111 532.549 142.306 532.647 144.453 532.598H146.747L146.064 533.914C145.332 535.28 142.648 537.766 141.867 537.766C141.623 537.766 141.428 537.376 141.428 536.84C141.428 536.206 141.087 535.914 140.159 535.914C138.744 535.914 136.061 533.622 136.061 532.354C136.061 531.525 138.793 528.99 139.72 528.99C140.013 528.99 140.647 529.819 141.184 530.843ZM152.749 532.891C152.553 535.67 152.602 535.767 153.822 536.109C154.554 536.255 155.676 536.304 156.311 536.206C157.97 535.865 157.872 536.743 155.872 539.034C154.359 540.741 154.066 540.887 151.968 540.79C150.699 540.741 149.431 540.594 149.187 540.448C148.601 540.058 148.65 537.523 149.284 535.28C149.723 533.817 152.309 529.965 152.846 529.965C152.895 529.965 152.846 531.281 152.749 532.891ZM376.037 532.013C375.646 532.647 374.67 534.207 373.938 535.572C373.158 536.889 371.499 539.522 370.279 541.423C367.009 546.251 364.911 550.151 364.911 551.175C364.911 551.663 365.35 552.589 365.936 553.174L366.961 554.247L365.887 557.855C365.35 559.806 364.374 563.121 363.74 565.267C363.008 567.9 362.276 569.362 361.447 569.996C360.812 570.484 360.129 570.923 359.983 570.923C359.788 570.923 360.373 568.631 361.3 565.803C363.252 559.854 363.301 558.928 361.935 557.465L360.91 556.392L361.935 554.149C362.471 552.882 364.179 549.956 365.692 547.616C367.253 545.275 369.888 540.936 371.645 538.01C374.573 532.988 375.988 530.94 376.524 530.94C376.622 530.94 376.427 531.428 376.037 532.013ZM121.617 533.232C121.812 533.476 123.13 533.963 124.496 534.353C127.277 535.231 127.814 536.109 126.594 538.01C125.521 539.619 123.179 540.058 121.52 538.888C120.788 538.4 119.568 537.913 118.738 537.766C116.64 537.425 116.542 535.816 118.494 534.158C120.056 532.891 120.983 532.598 121.617 533.232ZM284.691 535.524C286.107 536.986 287.717 538.303 288.302 538.498C289.571 538.888 289.571 540.302 288.302 541.423C287.766 541.911 287.326 542.691 287.326 543.179C287.326 543.959 287.034 543.91 284.789 542.594C281.373 540.643 279.178 538.157 278.787 535.816C278.397 533.427 278.69 532.891 280.544 532.891C281.715 532.891 282.642 533.476 284.691 535.524ZM329.29 536.743C330.706 538.79 330.608 541.326 329.047 542.155C327.583 542.935 327.436 542.837 325.143 539.034L323.435 536.206L324.557 534.841L325.631 533.524L326.948 534.451C327.68 534.938 328.705 536.011 329.29 536.743ZM105.124 535.085C104.929 535.572 105.515 536.206 106.783 537.035C108.345 538.01 108.735 538.547 108.735 539.766C108.735 540.546 108.394 541.911 107.954 542.691L107.222 544.154L106.247 542.935C105.71 542.301 104.539 541.277 103.563 540.643C101.953 539.668 101.855 539.473 102.148 537.815C102.684 534.695 102.88 534.353 104.197 534.353C105.075 534.353 105.368 534.548 105.124 535.085ZM164.167 535.962C163.386 537.133 163.386 537.181 164.85 537.766C165.631 538.108 166.85 538.205 167.534 538.059C168.997 537.669 169.046 538.01 167.778 540.107C166.607 541.96 163.972 543.374 162.361 542.935C159.922 542.301 159.824 541.96 161.385 539.327C163.63 535.524 164.46 534.305 164.703 534.548C164.85 534.646 164.557 535.28 164.167 535.962ZM300.843 538.595C303.673 539.863 304.405 540.692 304.405 542.496C304.405 543.715 304.21 544.105 303.575 544.105C303.087 544.105 302.209 544.251 301.623 544.398C300.648 544.641 300.501 544.495 300.501 543.422C300.501 542.399 300.16 542.008 299.037 541.618C297.476 541.082 297.232 540.253 298.061 538.693C298.696 537.571 298.598 537.571 300.843 538.595ZM317.824 540.302C318.507 540.594 319.043 541.033 319.043 541.228C319.043 541.472 319.678 542.35 320.459 543.227C322.264 545.324 323.142 548.201 322.166 549.03C321.044 549.956 318.556 549.664 317.238 548.396C314.798 546.104 313.92 542.789 315.237 540.692C315.969 539.571 316.165 539.522 317.824 540.302ZM134.694 542.008C137.866 543.52 138.159 544.3 136.549 546.884C135.524 548.591 134.987 548.591 132.547 546.933C131.864 546.446 130.595 545.909 129.766 545.763C128.936 545.568 128.253 545.227 128.253 544.983C128.253 544.398 131.132 540.692 131.571 540.692C131.767 540.692 133.182 541.277 134.694 542.008ZM339.342 546.153C340.562 548.542 341.977 549.566 344.807 550.2C345.637 550.346 346.369 550.639 346.369 550.736C346.369 551.126 343.929 555.807 343.734 555.807C343.636 555.807 342.124 555.368 340.367 554.832C337.195 553.857 337.195 553.808 335.244 550.346C333.097 546.397 333.145 544.983 335.536 543.081C336.756 542.155 336.854 542.106 337.488 542.984C337.83 543.471 338.708 544.885 339.342 546.153ZM115.615 545.178C117.713 547.469 118.006 547.665 118.787 546.982C120.495 545.568 118.445 548.64 116.396 550.541C114.054 552.735 113.615 552.833 113.615 551.126C113.615 549.615 112.395 548.542 110.833 548.493C109.516 548.493 109.467 548.103 110.443 545.665C111.126 544.105 112.346 542.642 113.078 542.642C113.176 542.642 114.347 543.764 115.615 545.178ZM102.197 549.469C103.319 549.469 102.977 550.102 101.172 551.565C100.245 552.297 99.464 553.223 99.464 553.613C99.464 554.491 98.7809 554.54 97.4634 553.857C96.9266 553.564 96.5363 552.833 96.5363 552.15C96.5363 550.736 95.3164 549.42 94.3405 549.761C93.0718 550.249 93.5597 548.981 95.414 546.836L97.2194 544.739L99.3664 547.079C100.537 548.396 101.806 549.469 102.197 549.469ZM294.646 546.202C296.793 547.274 296.842 547.323 296.988 549.859C297.134 552.15 297.037 552.394 296.11 552.394C293.865 552.394 290.742 549.907 290.742 548.152C290.742 546.836 291.572 545.08 292.108 545.129C292.304 545.129 293.426 545.617 294.646 546.202ZM144.356 546.787C144.356 547.177 144.697 547.518 145.088 547.518C145.527 547.518 146.503 547.86 147.235 548.201C148.455 548.835 148.747 548.835 149.723 548.152C150.748 547.421 150.797 547.421 150.211 548.445C149.918 549.079 148.747 550.444 147.674 551.516C146.161 553.028 145.478 553.369 144.697 553.126C144.112 552.931 142.892 552.687 142.062 552.54C140.745 552.345 140.452 552.053 140.452 551.078C140.452 549.566 141.672 547.226 142.746 546.592C143.965 545.909 144.356 545.958 144.356 546.787ZM311.09 550.736L314.115 553.954L313.09 555.368C312.31 556.441 311.871 556.636 311.187 556.295C309.967 555.612 307.528 552.345 307.186 550.931C306.845 549.615 307.235 547.518 307.772 547.518C307.918 547.518 309.431 548.981 311.09 550.736ZM156.896 549.956C156.603 551.078 158.165 551.712 160.214 551.321L161.385 551.078L160.409 552.931C159.092 555.563 156.262 556.88 153.92 556.002C152.944 555.612 152.944 554.686 153.92 552.735C154.7 551.224 156.506 548.981 156.945 548.981C157.043 548.981 157.043 549.42 156.896 549.956ZM128.839 555.759C129.717 555.173 130.205 555.222 130.205 555.807C130.205 556.441 126.009 560.683 125.423 560.683C125.179 560.683 124.74 560.147 124.447 559.513C124.154 558.879 122.935 557.855 121.666 557.27C119.617 556.295 119.421 556.051 119.714 554.881C119.909 554.198 120.592 552.882 121.276 551.955L122.544 550.298L125.374 553.223C127.326 555.222 128.4 556.002 128.839 555.759ZM107.125 554.832C107.515 555.856 108.003 556.295 108.735 556.295C109.662 556.295 109.76 556.49 109.467 557.368C109.272 558.001 109.028 559.074 108.882 559.806C108.491 561.707 104.831 562.292 104.831 560.391C104.831 560.001 104.392 559.269 103.856 558.733C102.831 557.709 102.88 556.295 103.953 554.198C104.685 552.833 106.491 553.174 107.125 554.832ZM92.6326 556.587C92.6326 557.221 93.0718 558.148 93.6085 558.635C94.5844 559.562 94.5844 559.562 93.6085 560.439C92.779 561.171 92.4374 561.22 91.2176 560.683C88.8266 559.708 88.3874 558.879 89.6561 557.611C90.1929 556.978 90.6808 556.149 90.6808 555.759C90.6808 555.32 90.8272 554.832 91.0224 554.686C91.5591 554.101 92.6326 555.368 92.6326 556.587ZM303.087 556.831C305.722 558.05 307.723 565.072 305.43 565.072C303.966 565.072 301.331 562.975 300.16 560.927C298.745 558.44 298.745 557.563 300.16 556.88C301.575 556.197 301.721 556.197 303.087 556.831ZM138.647 559.903C139.232 560.049 140.306 560.196 141.087 560.196C142.697 560.196 142.746 560.537 141.282 562.682C139.964 564.681 137.915 565.559 136.549 564.681C136.012 564.34 135.231 564.096 134.841 564.096C133.377 564.096 134.255 560.537 136.158 558.733C137.232 557.709 137.28 557.709 137.427 558.635C137.524 559.172 138.061 559.757 138.647 559.903ZM116.347 562.877C117.323 563.56 118.787 564.096 119.519 564.096C121.568 564.096 121.617 566.095 119.665 567.851C117.957 569.411 115.859 569.265 113.566 567.461C112.541 566.632 111.419 566.144 111.126 566.339C110.004 567.022 111.272 564.34 112.688 562.975C113.468 562.243 114.2 561.658 114.347 561.658C114.444 561.658 115.371 562.195 116.347 562.877ZM152.065 562.487C154.31 562.829 154.359 563.316 152.553 565.315C150.699 567.363 147.723 568.095 146.112 566.876C145.332 566.29 145.283 566.047 145.82 565.023C146.991 562.829 148.406 561.561 149.479 561.902C150.016 562.097 151.187 562.341 152.065 562.487ZM98.976 564.34C98.976 565.072 99.5128 566.095 100.196 566.729C101.806 568.192 101.806 569.46 100.196 569.46C98.976 569.46 97.7074 571.02 98.2441 571.898C98.9272 572.97 97.0242 572.288 96.0971 571.118C94.7796 569.46 94.8284 567.9 96.0971 565.218C97.2682 562.78 98.976 562.243 98.976 564.34ZM379.599 565.949C378.72 567.607 373.402 572.19 369.108 575.018C366.814 576.53 364.862 577.749 364.716 577.749C364.618 577.749 364.814 576.92 365.253 575.847C365.741 574.58 366.521 573.751 367.644 573.166C370.035 572.044 375.549 568.387 377.842 566.388C379.94 564.535 380.428 564.438 379.599 565.949ZM130.791 570.24C131.815 570.971 132.645 571.751 132.645 571.995C132.645 572.239 132.206 573.312 131.669 574.336C130.449 576.676 129.034 576.871 126.887 575.067C126.058 574.384 124.984 573.848 124.398 573.848C123.813 573.848 123.374 573.604 123.374 573.263C123.374 572.434 127.18 568.972 128.107 568.972C128.546 568.972 129.766 569.557 130.791 570.24ZM107.662 574.433C107.857 575.213 108.247 575.36 110.15 575.213C112.346 575.116 112.395 575.165 112.541 576.53C112.639 577.895 112.444 578.09 110.101 579.065C108.686 579.65 107.076 580.187 106.539 580.236C104.685 580.382 103.807 580.187 104.1 579.699C104.246 579.455 103.953 578.968 103.368 578.627C102.05 577.798 102.148 577.31 103.856 574.97C104.978 573.409 105.563 573.019 106.344 573.214C106.93 573.409 107.515 573.946 107.662 574.433ZM141.916 573.361C142.99 574.043 141.916 575.506 140.257 575.701C138.452 575.945 137.378 575.018 138.061 573.799C138.598 572.775 140.647 572.58 141.916 573.361ZM122.593 579.846C123.423 580.479 123.423 580.577 122.3 581.845C121.422 582.869 120.544 583.259 118.836 583.454L116.542 583.746V581.991C116.542 580.821 116.835 580.089 117.421 579.748C118.592 579.017 121.568 579.114 122.593 579.846ZM350.809 581.552C350.321 582.43 350.614 582.722 353.395 584.283C356.958 586.282 357.397 586.379 358.714 585.16C359.251 584.721 358.519 585.843 357.055 587.647C354.079 591.353 353.347 591.548 349.882 589.207C348.906 588.525 347.833 587.988 347.491 587.988C347.15 587.988 346.857 587.744 346.857 587.501C346.857 586.525 348.272 583.6 349.589 581.893C350.956 580.089 351.688 579.894 350.809 581.552ZM110.345 590.475C111.029 590.768 111.76 591.499 112.053 592.084C112.297 592.62 114.298 595.156 116.494 597.643C121.032 602.811 121.422 603.494 121.422 605.493C121.422 607.248 121.568 607.248 117.811 606.175C115.323 605.493 114.347 604.859 111.907 602.421C109.174 599.642 105.319 593.449 105.319 591.791C105.319 590.036 107.954 589.354 110.345 590.475ZM344.173 599.69C343.197 601.592 343.148 605.834 344.027 607.979C345.149 610.661 345.979 611.051 349.492 610.808C352.322 610.564 352.615 610.612 352.127 611.344C351.2 612.807 349.297 613.879 346.71 614.416C343.148 615.098 341.733 614.464 340.416 611.539C338.757 607.784 339.586 603.494 342.758 599.739C344.368 597.789 345.149 597.789 344.173 599.69Z" fill="#22ACAC"/>
<path d="M247.314 245.017C245.851 245.407 243.46 246.285 242.044 246.919C238.238 248.674 229.748 253.501 229.748 253.94C229.748 254.769 232.725 264.716 233.896 267.885C235.506 272.078 239.605 280.075 241.117 281.976C242.24 283.342 242.24 283.342 244.387 282.61C245.607 282.22 249.949 281.099 254.048 280.124C258.196 279.197 262.783 277.832 264.246 277.149C266.833 275.979 266.881 275.882 266.589 274.37C266.003 271.298 264.734 267.836 261.611 260.718C258.781 254.135 256.586 247.406 256.586 245.115C256.586 244.334 256.195 244.237 253.316 244.286C251.462 244.286 248.778 244.627 247.314 245.017Z" fill="#22ACAC"/>
<path d="M218.963 260.474C209.302 269.348 208.765 269.933 207.497 272.712C206.813 274.224 205.984 277.198 205.74 279.246L205.252 282.952L206.862 284.317C210.327 287.194 215.255 287.974 223.404 286.901C233.114 285.682 233.163 285.633 233.163 284.707C233.163 283 230.674 274.37 229.015 270.274C227.405 266.227 223.599 259.547 222.282 258.475C221.842 258.084 221.013 258.572 218.963 260.474Z" fill="#22ACAC"/>
<path d="M294.743 303.772C291.083 304.211 288.009 305.82 286.496 308.063C285.13 310.111 285.081 311.232 286.35 312.987C287.765 314.938 289.863 320.496 292.449 329.029C294.645 336.197 296.353 340.78 296.89 340.78C297.573 340.78 303.575 337.464 306.161 335.66C315.237 329.175 319.58 320.399 317.823 311.915C316.652 306.356 316.31 305.966 311.577 304.991C309.284 304.552 305.966 304.064 304.111 303.918C302.257 303.821 300.11 303.626 299.281 303.528C298.5 303.479 296.451 303.577 294.743 303.772Z" fill="#22ACAC"/>
<path d="M273.42 308.55C272.883 308.794 270.151 309.33 267.32 309.818C261.367 310.793 257.561 311.768 255.073 313.036C252.779 314.206 249.608 317.717 249.949 318.79C250.096 319.228 250.779 321.228 251.511 323.227C252.194 325.226 253.511 330.345 254.438 334.588C257.073 346.924 259.66 353.457 261.953 353.457C263.417 353.457 277.031 350.629 279.763 349.752C283.667 348.484 288.79 345.656 288.79 344.729C288.742 341.414 284.448 326.298 282.203 321.374C281.227 319.326 280.349 316.498 280.154 314.986C279.812 311.915 278.495 308.892 277.323 308.404C276.25 308.014 274.64 308.063 273.42 308.55Z" fill="#22ACAC"/>
<path d="M112.297 132.432C112.101 133.213 111.955 136.626 111.906 140.136C111.906 146.036 112.004 146.67 113.224 149.303C114.346 151.692 114.736 152.131 115.663 151.985C117.127 151.79 117.371 149.449 116.347 146.426C115.81 144.866 115.712 143.159 115.907 139.99C116.054 137.601 116.054 134.627 115.859 133.408C115.517 131.262 115.42 131.116 114.102 131.116C112.931 131.116 112.589 131.36 112.297 132.432Z" fill="#22ACAC"/>
<path d="M73.1129 133.017C69.2581 134.236 65.696 137.65 62.3779 143.306C60.4749 146.573 57.9863 153.106 57.9863 154.862C57.9863 156.178 62.3291 160.713 63.9882 161.103C64.7201 161.298 66.0376 161.298 66.9159 161.151C68.2822 160.859 68.6725 160.42 70.0876 157.3C70.9659 155.349 73.7961 150.912 76.3334 147.45C78.9196 143.988 81.213 140.77 81.4081 140.331C81.9449 139.405 79.4563 134.87 77.8461 133.846C76.3822 132.871 74.5768 132.579 73.1129 133.017Z" fill="#22ACAC"/>
<path d="M121.081 133.31C119.374 134.48 118.739 137.162 119.422 140.185L120.008 142.818H122.545C123.96 142.818 125.912 142.574 126.937 142.282C128.84 141.794 129.035 141.355 128.791 138.186C128.401 133.944 124.107 131.213 121.081 133.31Z" fill="#22ACAC"/>
<path d="M81.2151 158.226C78.8241 160.664 78.3362 164.662 80.288 166.222C81.3127 167.051 82.1422 167.198 84.2892 167.1L87.0218 166.954L87.8513 164.467C88.4856 162.517 88.5832 161.541 88.1929 160.176C87.2658 156.861 83.6549 155.837 81.2151 158.226Z" fill="#22ACAC"/>
<path d="M95.0724 165.93C90.4856 167.198 88.3874 169.002 83.6055 175.731C79.7994 181.094 77.7012 185.239 78.5795 185.775C80.6777 187.091 83.0687 185.531 85.6061 181.192C86.582 179.534 89.7049 175.779 92.5838 172.805C98.2929 167.003 99.6104 165.199 98.1465 165.296C97.6585 165.296 96.2923 165.589 95.0724 165.93Z" fill="#22ACAC"/>
<path d="M176.074 601.251C176.074 610.905 182.32 616.659 195.592 619.194C206.181 621.242 213.744 621.583 244.973 621.486L274.592 621.34L276.154 620.218C277.666 619.097 277.764 619.048 288.499 619.34C295.428 619.535 300.649 619.926 303.186 620.413C311.482 622.071 316.068 621.876 320.753 619.535C324.754 617.585 324.998 616.903 323.436 612.66C321.631 607.833 317.044 604.469 310.115 602.86C308.359 602.47 303.235 601.787 298.746 601.348C288.597 600.373 267.029 600.666 259.27 601.885C252.488 602.957 233.555 603.347 224.528 602.665C220.576 602.324 211.158 601.446 203.644 600.666C196.129 599.886 186.858 599.057 183.052 598.91L176.074 598.569V601.251Z" fill="#22ACAC"/>
</svg>
