<svg width="62" height="61" viewBox="0 0 62 61" fill="none" xmlns="http://www.w3.org/2000/svg">
<path fill-rule="evenodd" clip-rule="evenodd" d="M38.9723 8.81877C38.6149 8.46128 38.13 8.26044 37.6244 8.26044C37.1189 8.26044 36.634 8.46128 36.2766 8.81877L12.9125 32.1829C12.673 32.4223 12.5017 32.7212 12.4161 33.0488L9.87442 42.7796C9.70339 43.4343 9.89234 44.1307 10.3709 44.6091C10.8494 45.0877 11.5458 45.2768 12.2005 45.1057L21.9311 42.564C22.2588 42.4784 22.5578 42.3071 22.7973 42.0674L46.1614 18.7035C46.9056 17.9591 46.9056 16.7521 46.1614 16.0077L38.9723 8.81877ZM15.9741 34.5128L37.6244 12.8625L42.1176 17.3556L20.4672 39.006L14.3856 40.5945L15.9741 34.5128Z" fill="#22ACAC"/>
<path d="M10.666 48.9271C9.61323 48.9271 8.75977 49.7806 8.75977 50.8333C8.75977 51.8861 9.61323 52.7396 10.666 52.7396H48.791C49.8438 52.7396 50.6973 51.8861 50.6973 50.8333C50.6973 49.7806 49.8438 48.9271 48.791 48.9271H10.666Z" fill="#22ACAC"/>
</svg>
