<svg width="72" height="64" viewBox="0 0 72 64" fill="none" xmlns="http://www.w3.org/2000/svg">
<path fill-rule="evenodd" clip-rule="evenodd" d="M56.2515 28.0003L56.232 28.6477L56.2515 29.3336L56.2332 29.9821L56.2515 30.6669L56.2338 31.32L56.2515 32.0003L55.7643 50.9416C55.6488 55.4357 51.8034 59.1573 46.7757 59.6413C39.6135 60.3307 32.3883 60.3307 25.226 59.6413C20.1983 59.1573 16.353 55.4357 16.2374 50.9416L15.7503 32.0003L15.7679 31.3155L15.7503 30.6669L15.7688 29.9848L15.7502 29.3336L15.7697 28.6507L15.75 28.0003L16.242 11.739C16.2489 11.5121 16.2668 11.2876 16.2954 11.0659L16.3066 10.9721L16.3155 10.8965C16.5573 8.69895 17.9273 6.78225 19.9239 5.63204C20.0729 5.54399 20.2253 5.46012 20.3811 5.38065C20.5334 5.30052 20.6889 5.22452 20.8474 5.15281C21.8272 4.69319 22.9206 4.39527 24.0846 4.30001C32.0121 3.65137 39.9897 3.65137 47.9169 4.30004C49.0791 4.39511 50.1711 4.69223 51.1497 5.15063C51.3081 5.22223 51.4635 5.29812 51.6159 5.37815C51.7767 5.45999 51.9339 5.54652 52.0872 5.63748C54.0732 6.78513 55.4373 8.69188 55.6842 10.8784L55.7076 11.0765C55.7355 11.2948 55.7529 11.5158 55.7595 11.739L56.2515 28.0003ZM51.2235 11.522L51.6945 29.8331L51.3129 42.4472C51.2271 45.2827 48.7698 47.6136 45.5919 47.8736C39.2112 48.3957 32.7903 48.3957 26.4097 47.8736C23.2319 47.6136 20.7746 45.2827 20.6888 42.4472L20.3072 29.8347L20.7781 11.522C20.7791 11.4826 20.781 11.4434 20.7836 11.4043C20.9621 10.3316 21.6615 9.40562 22.6531 8.8433C23.0288 8.66922 23.4456 8.55377 23.889 8.51111C31.9401 7.73609 40.0617 7.73609 48.1128 8.51111C48.5559 8.55377 48.9726 8.66913 49.3482 8.84308C50.3403 9.40553 51.0399 10.332 51.2181 11.4052C51.2208 11.444 51.2226 11.4829 51.2235 11.522ZM36.0009 57.8669C38.4861 57.8669 40.5009 56.076 40.5009 53.8669C40.5009 51.6576 38.4861 49.8669 36.0009 49.8669C33.5157 49.8669 31.5009 51.6576 31.5009 53.8669C31.5009 56.076 33.5157 57.8669 36.0009 57.8669Z" fill="#22ACAC"/>
</svg>
