<svg width="585" height="490" viewBox="0 0 585 490" fill="none" xmlns="http://www.w3.org/2000/svg">
<path d="M179.887 0.376678C170.664 0.787567 166.418 1.56375 160.026 4.07486C149.16 8.32092 139.207 16.4934 130.213 28.4555C125.556 34.6648 120.944 42.4264 119.164 46.9464C110.261 70.14 124.551 91.1877 161.853 109.724C180.252 118.856 203.583 127.028 232.62 134.561L243.121 137.301H167.697L92.3175 137.346L74.1005 144.971L55.9292 152.641L153.634 152.87C207.372 153.007 251.02 153.235 250.655 153.372C245.861 155.472 185.64 178.894 185.137 178.894C184.544 178.894 184.453 197.248 184.453 334.126V489.359H215.499H246.546V334.218L246.591 179.122L254.444 176.063C258.782 174.374 273.848 168.484 287.956 162.914L313.615 152.87H403.33H493.091V307.92V462.969L494.141 462.695C494.689 462.558 501.309 459.91 508.843 456.76L522.54 451.053V294.314V137.575L444.695 137.346C367.262 137.118 366.851 137.118 370.047 136.251C382.876 132.781 399.13 125.111 412.507 116.207C422.415 109.633 433.372 99.5428 439.536 91.3246C446.019 82.7412 450.128 74.2491 452.503 64.7525C453.416 61.0999 453.553 59.2737 453.553 52.8818C453.553 46.4442 453.416 44.7549 452.503 41.4676C450.311 33.3407 446.293 26.4922 440.358 20.6938C432.277 12.8866 421.776 8.09265 407.713 5.76416C402.509 4.89667 387.99 5.07932 381.461 6.03809C372.695 7.31647 368.631 8.45789 363.061 11.106C341.466 21.47 324.892 38.363 312.519 62.6979C303.297 80.778 296.403 104.474 293.8 127.074C292.659 137.118 292.659 137.118 291.106 137.118H289.737L281.884 105.843C273.437 72.1489 272.524 68.7703 269.739 60.4151C261.293 35.2126 252.39 23.1593 232.118 9.41669C223.717 3.66394 217.782 1.33545 209.335 0.376678C204.861 -0.125549 192.397 -0.125549 179.887 0.376678ZM164.227 14.8955C177.33 19.3242 192.214 29.9622 211.573 48.7727C231.388 68.0398 256.179 97.3969 279.692 129.357C282.477 133.1 284.897 136.479 285.08 136.753C285.354 137.21 284.075 137.346 279.327 137.346H273.255L261.156 130.909C224.676 111.459 196.689 94.338 175.55 78.4495C164.592 70.2313 159.57 65.9395 152.265 58.5888C140.942 47.266 135.6 38.0434 135.6 30.0991C135.646 22.931 140.668 16.5391 148.201 14.028C152.265 12.7039 158.657 13.0692 164.227 14.8955ZM431.729 18.685C435.062 19.9177 438.029 22.8397 438.76 25.5334C439.947 29.9165 437.755 35.9888 432.368 43.2939C428.807 48.1335 414.881 62.0587 407.165 68.4507C390.592 82.239 370.732 96.6664 345.575 113.285L334.891 120.362L318.683 126.754C309.78 130.27 302.429 133.055 302.338 133.009C302.155 132.872 313.843 117.486 319.961 109.724C361.052 57.904 395.066 25.9444 416.388 19.1872C420.543 17.8632 420.726 17.8175 425.154 17.7719C428.213 17.7262 429.766 17.9545 431.729 18.685Z" fill="#22ACAC"/>
<path d="M254.124 116.299C254.901 117.029 260.699 120.088 260.699 119.769C260.699 119.586 260.06 118.627 259.284 117.668C258.005 116.07 257.686 115.888 255.768 115.888C254.535 115.888 253.85 116.07 254.124 116.299Z" fill="#22ACAC"/>
<path d="M138.111 122.188L122.588 128.443L137.289 128.58C160.665 128.763 181.622 128.489 180.572 128.032C180.07 127.804 177.193 126.617 174.18 125.339C171.167 124.106 165.322 121.458 161.213 119.495C157.104 117.486 153.726 115.888 153.68 115.933C153.634 115.979 146.649 118.764 138.111 122.188Z" fill="#22ACAC"/>
<path d="M425.748 118.216C423.556 120.043 416.48 124.974 411.549 128.078C410.864 128.489 419.904 128.626 452.457 128.763C495.74 128.9 496.196 128.9 512.039 128.626C522.677 128.443 524.366 128.717 529.069 131.411L531.443 132.781V288.424C531.443 373.985 531.58 444.113 531.717 444.25C531.854 444.387 543.77 439.776 558.198 433.977L584.405 423.385V269.659V115.888L506.469 115.934H428.487L425.748 118.216Z" fill="#22ACAC"/>
<path d="M20.3172 169.26L0.228283 177.387L0.0913132 331.067L0 484.793H87.4324H174.819L174.956 348.828C175.047 274.088 174.91 207.977 174.682 201.951C174.317 190.902 174.682 182.41 175.824 177.022C176.828 172.365 180.891 169.717 191.803 166.567C198.378 164.649 202.715 163.051 202.715 162.503C202.715 162.366 176.143 162.275 143.727 162.366C92.6373 162.503 54.3314 162.092 43.1455 161.316C40.4974 161.134 39.8582 161.362 20.3172 169.26Z" fill="#22ACAC"/>
<path d="M316.72 163.188C307.315 165.197 297.088 168.804 279.19 176.383C273.438 178.803 265.676 181.953 261.978 183.368L255.221 185.925V335.359V484.793L343.018 484.885L430.77 485.021L457.114 474.52L483.504 464.019V313.216V162.458L401.687 162.503C331.559 162.549 319.368 162.64 316.72 163.188Z" fill="#22ACAC"/>
</svg>
