<svg width="74" height="80" viewBox="0 0 74 80" fill="none" xmlns="http://www.w3.org/2000/svg">
<path fill-rule="evenodd" clip-rule="evenodd" d="M38.5735 44.3645C32.0012 49.8435 24.6763 54.1678 16.8664 57.1785L15.4352 57.7301C12.2921 58.9421 8.98534 56.6338 8.56165 53.1268C7.51851 44.4931 7.51851 35.5071 8.56165 26.8734C8.98534 23.3664 12.2921 21.0582 15.4352 22.2699L16.8664 22.8216C24.6763 25.8325 32.0012 30.1568 38.5735 35.6355C38.6889 32.693 38.9211 29.7634 39.2703 26.8734C39.694 23.3664 43.0007 21.0582 46.1438 22.2699L47.5751 22.8216C55.4749 25.8672 62.8785 30.2565 69.5088 35.8251C72.0247 37.9385 72.0247 42.0618 69.5088 44.1751C62.8785 49.7438 55.4749 54.1331 47.5751 57.1785L46.1438 57.7301C43.0007 58.9421 39.694 56.6338 39.2703 53.1268C38.9211 50.2368 38.6889 47.3071 38.5735 44.3645ZM35.9811 39.7794C36.114 39.8911 36.114 40.1091 35.9811 40.2205C29.737 45.4651 22.7645 49.5988 15.3247 52.4668L13.8935 53.0185C13.5858 53.1371 13.1813 52.9111 13.1288 52.4768C12.1379 44.2748 12.1379 35.7254 13.1288 27.5235C13.1813 27.0892 13.5858 26.8629 13.8935 26.9815L15.3247 27.5333C22.7645 30.4015 29.737 34.5351 35.9811 39.7794ZM66.6897 39.7794C66.8227 39.8911 66.8227 40.1091 66.6897 40.2205C60.4457 45.4651 53.4733 49.5988 46.0335 52.4668L44.6022 53.0185C44.2945 53.1371 43.8901 52.9111 43.8376 52.4768C42.8466 44.2748 42.8466 35.7254 43.8376 27.5235C43.8901 27.0892 44.2945 26.8629 44.6022 26.9815L46.0335 27.5333C53.4733 30.4015 60.4457 34.5351 66.6897 39.7794Z" fill="#22ACAC"/>
</svg>
