<svg width="180" height="180" viewBox="0 0 180 180" fill="none" xmlns="http://www.w3.org/2000/svg">
<path d="M160.531 160.031V160.531H160.031H90H19.9688H19.4688V160.031V90V19.9687V19.4687H19.9688H90H160.031H160.531V19.9687V90V160.031ZM5.5625 90V174.438H90H174.438V90V5.56248H90H5.5625V90Z" stroke="#22ACAC"/>
<path d="M89.2551 28.0687C89.1285 28.1953 89.1285 31.2047 89.2551 34.0031L89.3395 36.1406H90.0004H90.6754L90.7738 33.2859C90.816 31.725 90.8441 29.9109 90.816 29.25L90.7738 28.0547L90.0707 28.0125C89.677 27.9844 89.3113 28.0125 89.2551 28.0687Z" fill="#22ACAC"/>
<path d="M83.3055 32.3016C83.3617 32.9062 83.4883 34.0594 83.5727 34.875L83.7414 36.3516L84.1633 36.3937C84.9508 36.45 84.9648 36.4078 84.7258 33.9609C84.6133 32.7375 84.5148 31.6266 84.5148 31.4719C84.5148 31.2609 84.4023 31.2187 83.868 31.2187H83.207L83.3055 32.3016Z" fill="#22ACAC"/>
<path d="M95.4844 31.528C95.4844 31.7108 95.3859 32.7936 95.2734 33.9608C95.1609 35.114 95.0625 36.1405 95.0625 36.2249C95.0625 36.4499 95.9203 36.6046 96.1031 36.4218C96.2438 36.2811 96.4688 34.7483 96.6938 32.3015L96.7922 31.2186H96.1313C95.5547 31.2186 95.4844 31.2468 95.4844 31.528Z" fill="#22ACAC"/>
<path d="M77.6245 32.161C77.4276 32.2032 77.2308 32.2875 77.1886 32.3719C77.1042 32.4985 78.1167 37.2375 78.2573 37.3782C78.412 37.5328 79.312 37.2375 79.312 37.0407C79.312 36.8016 78.5105 32.7375 78.3839 32.3016C78.3136 32.0625 78.2573 32.0485 77.6245 32.161Z" fill="#22ACAC"/>
<path d="M101.616 32.3016C101.489 32.7375 100.688 36.8016 100.688 37.0407C100.688 37.2375 101.588 37.5328 101.742 37.3782C101.883 37.2375 102.895 32.4985 102.811 32.3719C102.769 32.3016 102.488 32.2032 102.206 32.1469C101.784 32.0766 101.686 32.1047 101.616 32.3016Z" fill="#22ACAC"/>
<path d="M71.5925 33.8204C71.3253 33.9469 71.1566 34.1016 71.1847 34.2001C71.2269 34.2985 71.5925 35.3813 71.9863 36.5907C72.3941 37.8141 72.7738 38.8407 72.8441 38.8829C72.9003 38.9251 73.1534 38.8829 73.4066 38.7985C73.8144 38.6438 73.8425 38.5876 73.7722 38.1938C73.6034 37.3641 72.3519 33.6938 72.2113 33.6516C72.1409 33.6376 71.8597 33.7079 71.5925 33.8204Z" fill="#22ACAC"/>
<path d="M107.606 33.8485C107.423 34.186 106.172 38.236 106.172 38.461C106.172 38.6579 106.973 38.9954 107.156 38.8829C107.227 38.8407 107.606 37.8141 108.014 36.5907C108.408 35.3813 108.773 34.2985 108.816 34.2C108.844 34.1016 108.661 33.9469 108.366 33.8204C107.747 33.5532 107.761 33.5532 107.606 33.8485Z" fill="#22ACAC"/>
<path d="M65.8133 36.0423C65.6023 36.1548 65.4758 36.3235 65.5039 36.4641C65.5601 36.7595 67.332 40.6407 67.5289 40.8798C67.6414 41.0204 67.768 41.0063 68.1195 40.8235C68.3586 40.711 68.5695 40.5845 68.5976 40.5704C68.6117 40.5563 68.1758 39.4876 67.6273 38.1938C66.5726 35.747 66.5164 35.6766 65.8133 36.0423Z" fill="#22ACAC"/>
<path d="M112.373 38.1798C111.825 39.4735 111.389 40.5563 111.403 40.5704C111.431 40.5845 111.642 40.711 111.881 40.8235C112.232 41.0063 112.359 41.0204 112.471 40.8798C112.598 40.7251 114.229 37.2376 114.482 36.6048C114.623 36.2391 114.412 36.0423 113.807 35.9157L113.385 35.8313L112.373 38.1798Z" fill="#22ACAC"/>
<path d="M58.9641 36.3656C58.6266 36.5625 58.3594 36.7453 58.3594 36.7875C58.3594 36.8718 62.1281 43.2984 62.325 43.5515C62.4375 43.6922 62.5922 43.664 63 43.4531C63.2953 43.2984 63.5766 43.1297 63.6188 43.0593C63.7031 42.9187 59.8922 36.1125 59.6953 36.0422C59.625 36.0281 59.2875 36.1687 58.9641 36.3656Z" fill="#22ACAC"/>
<path d="M120.136 36.1687C119.503 37.1531 116.325 42.975 116.382 43.0593C116.424 43.1297 116.705 43.2984 117 43.4531C117.408 43.664 117.563 43.6922 117.675 43.5515C117.872 43.2984 121.641 36.8718 121.641 36.7875C121.641 36.7031 120.474 36 120.333 36C120.291 36 120.207 36.0843 120.136 36.1687Z" fill="#22ACAC"/>
<path d="M84.6556 38.7844C84.304 38.8125 83.9665 38.8828 83.9103 38.9391C83.854 38.9953 83.854 39.5859 83.9384 40.2328C84.0087 40.8797 84.1072 41.7656 84.1494 42.1875C84.2619 43.3828 85.1197 51.3844 85.429 54.2812C85.5556 55.3219 85.7103 56.8125 85.7806 57.5859C85.8509 58.3594 86.104 60.7922 86.3431 63C86.5681 65.2078 86.8915 68.2453 87.0462 69.75C87.4822 73.8844 87.8619 77.4141 88.1712 80.2688C88.5228 83.4891 88.565 88.3266 88.2556 88.5938C88.1431 88.6781 87.9744 88.9594 87.89 89.2125C87.7634 89.5922 87.4681 89.8313 85.9915 90.6891C85.0212 91.2656 84.2056 91.7719 84.1634 91.8281C84.0931 91.9547 85.4853 94.3594 85.64 94.3594C85.6962 94.3594 86.2869 94.0359 86.9478 93.6562C87.6087 93.2625 88.2134 92.9531 88.2978 92.9531C88.3962 92.9531 88.4525 93.4734 88.4525 94.5V96.0469H89.1415H89.8306L89.915 96.9891C89.9712 97.5234 90.14 99.1125 90.2947 100.547C90.4353 101.981 90.6744 104.217 90.815 105.539L91.0681 107.93L91.8275 107.888C92.2494 107.859 92.629 107.803 92.6572 107.775C92.6853 107.747 92.5728 106.509 92.404 105.019C92.2353 103.528 91.9822 101.138 91.8134 99.7031C91.6587 98.2688 91.49 95.9203 91.4478 94.4578C91.3775 92.1797 91.3915 91.7859 91.5884 91.575C91.715 91.4484 91.954 91.125 92.1369 90.8719C92.39 90.5203 95.7369 88.4953 106.523 82.1813C114.257 77.6531 120.642 73.8984 120.712 73.8281C120.768 73.7719 120.487 73.1391 120.065 72.45L119.306 71.1703L118.04 71.9156C117.351 72.3234 111.135 75.9656 104.217 80.0297C97.2978 84.0797 91.5884 87.4125 91.5181 87.4406C91.4619 87.4688 91.4056 77.8641 91.4056 66.1078V44.7188H89.929H88.4525V55.3641C88.4525 61.2141 88.4244 65.9672 88.3822 65.925C88.2978 65.8547 88.129 64.4344 87.6087 59.4141C87.44 57.8672 87.215 55.7156 87.1025 54.6328C86.99 53.55 86.8634 52.3828 86.8353 52.0312C86.7369 51.1031 86.3853 47.7141 86.0619 44.6484C85.9072 43.1719 85.7103 41.2734 85.6119 40.4297C85.5275 39.5719 85.415 38.8547 85.3728 38.8125C85.3306 38.7703 85.0072 38.7562 84.6556 38.7844Z" fill="#22ACAC"/>
<path d="M55.2094 42.2016C55.0125 42.3562 54.8438 42.5391 54.8438 42.6094C54.8438 42.8484 57.7969 46.6875 57.9656 46.6875C58.2047 46.6734 58.8234 46.1531 58.7531 46.0125C58.5984 45.6328 55.8703 41.9203 55.7438 41.9062C55.6594 41.9062 55.4203 42.0328 55.2094 42.2016Z" fill="#22ACAC"/>
<path d="M122.696 43.9031C121.923 45 121.262 45.9422 121.248 46.0125C121.177 46.1531 121.796 46.6734 122.035 46.6875C122.204 46.6875 125.157 42.8484 125.157 42.6094C125.157 42.4547 124.454 41.9062 124.257 41.9062C124.173 41.9203 123.47 42.8062 122.696 43.9031Z" fill="#22ACAC"/>
<path d="M50.4563 46.0265C50.2313 46.2093 50.0625 46.4061 50.0625 46.4905C50.0625 46.6452 53.3531 50.2452 53.55 50.3155C53.6063 50.3296 53.8313 50.1749 54.0422 49.9499L54.4078 49.5702L52.7344 47.6718C51.8203 46.6311 51.0188 45.7593 50.9484 45.7452C50.8922 45.7311 50.6672 45.8577 50.4563 46.0265Z" fill="#22ACAC"/>
<path d="M127.293 47.6296L125.592 49.5702L125.957 49.9499C126.168 50.1749 126.393 50.3296 126.45 50.3155C126.661 50.2452 129.937 46.6452 129.937 46.4765C129.937 46.3358 129.206 45.703 129.051 45.703C129.023 45.703 128.236 46.5749 127.293 47.6296Z" fill="#22ACAC"/>
<path d="M45.9979 50.4984C45.6182 51.0187 45.4073 50.7375 47.8823 52.9312L49.5557 54.4219L49.9495 54.0422C50.1745 53.8312 50.3292 53.6062 50.3151 53.55C50.2448 53.3391 46.6448 50.0625 46.476 50.0625C46.3917 50.0625 46.1667 50.2594 45.9979 50.4984Z" fill="#22ACAC"/>
<path d="M131.541 51.75C130.542 52.6781 129.713 53.4797 129.684 53.55C129.67 53.6062 129.825 53.8312 130.05 54.0422L130.444 54.4219L132.117 52.9312C134.592 50.7375 134.381 51.0187 134.002 50.4984C133.833 50.2594 133.608 50.0625 133.524 50.0625C133.439 50.0625 132.553 50.8219 131.541 51.75Z" fill="#22ACAC"/>
<path d="M42.2016 55.2093C42.0328 55.4202 41.9062 55.6593 41.9062 55.7436C41.9203 55.8702 45.6328 58.5983 46.0125 58.753C46.1531 58.8233 46.6734 58.2046 46.6875 57.9655C46.6875 57.7968 42.8484 54.8436 42.6094 54.8436C42.5391 54.8436 42.3563 55.0124 42.2016 55.2093Z" fill="#22ACAC"/>
<path d="M135.295 56.3202C134.198 57.1358 133.312 57.8811 133.312 57.9655C133.327 58.2046 133.847 58.8233 133.988 58.753C134.367 58.5983 138.08 55.8702 138.094 55.7436C138.094 55.5468 137.545 54.8436 137.391 54.8436C137.32 54.8436 136.378 55.5046 135.295 56.3202Z" fill="#22ACAC"/>
<path d="M36.338 59.0061C36.0849 59.4421 36.0146 59.6952 36.113 59.7936C36.3943 60.0749 42.9474 63.6889 43.0599 63.6186C43.1302 63.5764 43.299 63.2952 43.4537 62.9999C43.6646 62.5921 43.6927 62.4374 43.5521 62.3249C43.299 62.128 36.8724 58.3592 36.788 58.3592C36.7458 58.3592 36.549 58.6546 36.338 59.0061Z" fill="#22ACAC"/>
<path d="M140.204 60.0889C138.614 61.0311 137.068 61.9452 136.786 62.1139L136.252 62.4374L136.547 62.9858C136.702 63.2952 136.871 63.5764 136.941 63.6186C137.054 63.6889 143.607 60.0749 143.888 59.7936C143.986 59.6952 143.916 59.4421 143.663 59.0061C143.452 58.6546 143.241 58.3592 143.185 58.3592C143.129 58.3733 141.793 59.1467 140.204 60.0889Z" fill="#22ACAC"/>
<path d="M36.1555 65.5875C36.0711 65.6859 35.9586 65.9531 35.9164 66.1921L35.832 66.614L38.1805 67.6265C39.4742 68.175 40.557 68.6109 40.5711 68.5968C40.5852 68.5687 40.7117 68.3578 40.8242 68.1187C41.007 67.7671 41.0211 67.6406 40.8805 67.5281C40.7258 67.4015 37.3086 65.7984 36.6055 65.5171C36.4086 65.4468 36.2539 65.4609 36.1555 65.5875Z" fill="#22ACAC"/>
<path d="M141.468 66.389C140.273 66.9375 139.218 67.4437 139.12 67.5281C138.979 67.6406 138.993 67.7671 139.176 68.1187C139.289 68.3578 139.415 68.5687 139.429 68.5968C139.443 68.6109 140.526 68.175 141.82 67.6265L144.168 66.614L144.084 66.1781C143.901 65.3062 143.817 65.3203 141.468 66.389Z" fill="#22ACAC"/>
<path d="M33.8205 71.6343C33.6939 71.9156 33.6377 72.2109 33.6799 72.2812C33.7642 72.4078 37.4205 73.6171 38.2221 73.7718C38.5877 73.8421 38.658 73.814 38.7986 73.4062C38.883 73.1531 38.9252 72.8999 38.883 72.8437C38.8408 72.7734 37.8142 72.3937 36.5908 71.9859C35.3814 71.5921 34.2986 71.2265 34.2002 71.1843C34.1017 71.1562 33.933 71.339 33.8205 71.6343Z" fill="#22ACAC"/>
<path d="M143.521 71.9437C142.284 72.3515 141.229 72.7453 141.159 72.8156C141.089 72.8859 141.117 73.139 141.201 73.3921C141.342 73.814 141.412 73.8421 141.778 73.7718C142.579 73.6171 146.236 72.4078 146.32 72.2812C146.418 72.1265 146.025 71.1562 145.87 71.1703C145.814 71.1703 144.745 71.5218 143.521 71.9437Z" fill="#22ACAC"/>
<path d="M32.3713 77.1891C32.301 77.2312 32.2025 77.5125 32.1463 77.7937C32.076 78.2156 32.1041 78.3141 32.301 78.3844C32.7369 78.5109 36.801 79.3125 37.04 79.3125C37.2369 79.3125 37.5322 78.4125 37.3775 78.2578C37.2369 78.1172 32.4978 77.1047 32.3713 77.1891Z" fill="#22ACAC"/>
<path d="M145.069 77.6531C143.761 77.9484 142.664 78.2156 142.622 78.2437C142.594 78.2859 142.608 78.5391 142.65 78.8203C142.72 79.1578 142.819 79.3125 142.988 79.3125C143.311 79.3125 147.783 78.3844 147.867 78.3141C147.98 78.1875 147.769 77.2172 147.6 77.1609C147.516 77.1328 146.377 77.3578 145.069 77.6531Z" fill="#22ACAC"/>
<path d="M31.2188 83.8687C31.2188 84.4453 31.2469 84.5156 31.5422 84.5156C31.7109 84.5156 32.8078 84.6141 33.9609 84.7266C35.1281 84.8391 36.1406 84.9375 36.225 84.9375C36.45 84.9375 36.6047 84.0797 36.4219 83.8969C36.2812 83.7562 34.7484 83.5312 32.3156 83.3062L31.2188 83.2078V83.8687Z" fill="#22ACAC"/>
<path d="M145.688 83.489C144.718 83.6015 143.832 83.7422 143.719 83.8125C143.536 83.9109 143.466 84.7406 143.635 84.9093C143.663 84.9234 144.718 84.8531 145.983 84.7406C147.235 84.614 148.388 84.5156 148.529 84.5156C148.74 84.5156 148.782 84.4031 148.782 83.8828V83.25L148.121 83.264C147.741 83.2781 146.658 83.3765 145.688 83.489Z" fill="#22ACAC"/>
<path d="M28.0408 89.3531C27.9986 89.4515 27.9846 89.8171 28.0127 90.1546L28.0549 90.7734L29.2502 90.8156C29.9111 90.8437 31.7252 90.8156 33.3002 90.7734L36.1408 90.675V90V89.339L34.0033 89.2546C30.3471 89.0859 28.1252 89.1281 28.0408 89.3531Z" fill="#22ACAC"/>
<path d="M145.308 89.2546L143.859 89.3109V89.9859V90.675L146.714 90.7734C148.275 90.8156 150.089 90.8437 150.75 90.8156L151.945 90.7734V90V89.2265H149.344C147.909 89.2125 146.095 89.2406 145.308 89.2546Z" fill="#22ACAC"/>
<path d="M34.5938 95.2032C34.0875 95.2594 33.1313 95.3579 32.4563 95.4141L31.2188 95.5125V96.1454V96.7922L32.3156 96.6938C34.7484 96.4688 36.2813 96.2438 36.4219 96.1032C36.5063 96.0188 36.5203 95.7657 36.4781 95.5125C36.3797 95.0063 36.3375 95.0063 34.5938 95.2032Z" fill="#22ACAC"/>
<path d="M143.521 95.5125C143.479 95.7657 143.493 96.0188 143.577 96.1032C143.718 96.2438 145.251 96.4688 147.698 96.6938L148.78 96.7922V96.1313C148.78 95.5547 148.752 95.4844 148.471 95.4844C148.288 95.4844 147.205 95.386 146.038 95.2735C144.885 95.161 143.859 95.0625 143.774 95.0625C143.69 95.0625 143.577 95.2594 143.521 95.5125Z" fill="#22ACAC"/>
<path d="M34.5938 101.123C31.7813 101.714 32.0344 101.602 32.1469 102.206C32.2032 102.487 32.3016 102.769 32.3719 102.811C32.4985 102.895 37.2376 101.883 37.3782 101.742C37.4063 101.714 37.3923 101.461 37.3501 101.18C37.2376 100.575 37.2094 100.575 34.5938 101.123Z" fill="#22ACAC"/>
<path d="M142.65 101.18C142.608 101.461 142.594 101.714 142.622 101.742C142.763 101.883 147.502 102.895 147.628 102.811C147.699 102.769 147.797 102.487 147.853 102.206C147.924 101.784 147.895 101.686 147.699 101.616C147.263 101.489 143.199 100.687 142.96 100.687C142.833 100.687 142.706 100.87 142.65 101.18Z" fill="#22ACAC"/>
<path d="M36.0136 106.875C34.8324 107.255 33.7917 107.62 33.7214 107.691C33.5386 107.873 33.9745 108.9 34.1995 108.816C34.298 108.773 35.3808 108.408 36.5902 108.014C37.8136 107.606 38.8402 107.227 38.8824 107.156C39.0089 106.945 38.6433 106.172 38.4183 106.172C38.2777 106.186 37.2089 106.495 36.0136 106.875Z" fill="#22ACAC"/>
<path d="M141.202 106.594C141.118 106.847 141.076 107.1 141.118 107.156C141.16 107.227 142.187 107.606 143.41 108.014C144.62 108.408 145.702 108.773 145.801 108.816C145.984 108.886 146.448 107.93 146.321 107.719C146.237 107.592 142.581 106.383 141.779 106.228C141.413 106.158 141.343 106.186 141.202 106.594Z" fill="#22ACAC"/>
<path d="M38.1383 112.387L35.832 113.386L35.9164 113.822C36.0992 114.694 36.1836 114.68 38.532 113.611C39.7273 113.062 40.782 112.556 40.8805 112.472C41.007 112.373 40.993 112.233 40.8242 111.853C40.6977 111.586 40.557 111.375 40.5148 111.389C40.4727 111.389 39.3898 111.839 38.1383 112.387Z" fill="#22ACAC"/>
<path d="M139.19 111.853C139.008 112.233 138.994 112.373 139.12 112.472C139.219 112.556 140.273 113.062 141.469 113.611C143.817 114.68 143.901 114.694 144.084 113.822L144.169 113.386L141.989 112.458C140.78 111.937 139.711 111.487 139.612 111.445C139.486 111.389 139.331 111.544 139.19 111.853Z" fill="#22ACAC"/>
<path d="M39.6005 118.195C37.7583 119.222 36.1833 120.136 36.113 120.206C36.0146 120.305 36.0849 120.558 36.338 120.994C36.549 121.345 36.7458 121.641 36.788 121.641C36.8724 121.641 43.299 117.872 43.5521 117.675C43.6927 117.562 43.6646 117.408 43.4537 117C43.299 116.705 43.1302 116.423 43.0599 116.381C42.9896 116.339 41.4427 117.155 39.6005 118.195Z" fill="#22ACAC"/>
<path d="M136.856 116.48C136.786 116.564 136.617 116.845 136.504 117.084C136.322 117.436 136.307 117.562 136.448 117.675C136.701 117.872 143.128 121.641 143.212 121.641C143.254 121.641 143.451 121.345 143.662 120.994C143.986 120.459 144.014 120.333 143.845 120.178C143.69 120.037 138.557 117.127 137.306 116.466C137.067 116.339 136.968 116.339 136.856 116.48Z" fill="#22ACAC"/>
<path d="M43.9172 122.667C42.8203 123.455 41.9203 124.172 41.9062 124.256C41.9062 124.453 42.4547 125.156 42.6094 125.156C42.8484 125.156 46.6875 122.203 46.6875 122.034C46.6734 121.809 46.1953 121.219 46.0266 121.233C45.9703 121.233 45.0141 121.88 43.9172 122.667Z" fill="#22ACAC"/>
<path d="M133.566 121.57C133.425 121.753 133.312 121.978 133.312 122.048C133.312 122.217 137.18 125.156 137.391 125.156C137.545 125.156 138.094 124.453 138.094 124.256C138.08 124.102 134.255 121.317 133.959 121.261C133.875 121.233 133.692 121.373 133.566 121.57Z" fill="#22ACAC"/>
<path d="M47.8823 127.069C45.4073 129.262 45.6182 128.981 45.9979 129.502C46.1667 129.741 46.3917 129.938 46.476 129.938C46.6448 129.938 50.2448 126.661 50.3151 126.45C50.3292 126.394 50.1745 126.169 49.9495 125.958L49.5557 125.578L47.8823 127.069Z" fill="#22ACAC"/>
<path d="M129.993 126.014L129.6 126.422L129.937 126.759C131.4 128.18 133.382 129.938 133.523 129.938C133.65 129.938 134.296 129.206 134.296 129.052C134.296 129.009 131.667 126.647 130.837 125.958L130.401 125.592L129.993 126.014Z" fill="#22ACAC"/>
<path d="M51.7781 131.513C50.8359 132.539 50.0625 133.439 50.0625 133.523C50.0625 133.608 50.2594 133.833 50.4984 134.002C51.0188 134.381 50.7375 134.592 52.9313 132.117L54.4219 130.444L54.0422 130.05C53.8313 129.839 53.6203 129.656 53.5781 129.656C53.5359 129.656 52.7203 130.486 51.7781 131.513Z" fill="#22ACAC"/>
<path d="M125.958 130.05L125.578 130.444L127.069 132.117C129.263 134.592 128.981 134.381 129.502 134.002C129.741 133.833 129.938 133.608 129.938 133.523C129.938 133.355 126.661 129.755 126.45 129.684C126.394 129.67 126.169 129.825 125.958 130.05Z" fill="#22ACAC"/>
<path d="M56.3203 135.295C55.5047 136.378 54.8438 137.32 54.8438 137.391C54.8438 137.545 55.5469 138.094 55.7438 138.094C55.8703 138.08 58.5984 134.367 58.7531 133.987C58.8234 133.847 58.2047 133.327 57.9656 133.312C57.8813 133.312 57.1359 134.198 56.3203 135.295Z" fill="#22ACAC"/>
<path d="M121.527 133.594C121.345 133.748 121.218 133.917 121.246 133.987C121.401 134.367 124.129 138.08 124.255 138.094C124.452 138.094 125.155 137.545 125.155 137.391C125.155 137.152 122.202 133.312 122.034 133.312C121.935 133.327 121.696 133.439 121.527 133.594Z" fill="#22ACAC"/>
<path d="M62.325 136.448C62.1281 136.702 58.3594 143.128 58.3594 143.212C58.3594 143.255 58.6547 143.452 59.0063 143.662C59.4422 143.916 59.6953 143.986 59.7938 143.887C60.075 143.606 63.6891 137.053 63.6188 136.941C63.5766 136.87 63.2953 136.702 63 136.547C62.5922 136.336 62.4375 136.308 62.325 136.448Z" fill="#22ACAC"/>
<path d="M116.929 136.603C116.605 136.786 116.38 137.011 116.409 137.123C116.479 137.391 119.952 143.592 120.177 143.845C120.332 144.014 120.459 143.986 120.993 143.662C121.345 143.452 121.64 143.255 121.64 143.212C121.64 143.1 117.829 136.645 117.646 136.448C117.534 136.308 117.365 136.35 116.929 136.603Z" fill="#22ACAC"/>
<path d="M67.5274 139.12C67.4008 139.275 65.7696 142.762 65.5165 143.395C65.3758 143.761 65.5868 143.958 66.1915 144.084L66.6133 144.169L67.6258 141.82C68.1743 140.527 68.6102 139.444 68.5962 139.43C68.568 139.416 68.3571 139.289 68.118 139.177C67.7665 138.994 67.6399 138.98 67.5274 139.12Z" fill="#22ACAC"/>
<path d="M111.867 139.177C111.642 139.303 111.431 139.416 111.403 139.43C111.389 139.444 111.825 140.527 112.373 141.82L113.385 144.169L113.807 144.084C114.412 143.958 114.623 143.761 114.482 143.395C114.173 142.594 112.598 139.275 112.443 139.12C112.331 138.994 112.19 139.008 111.867 139.177Z" fill="#22ACAC"/>
<path d="M72.7734 141.187C72.6891 141.328 71.1562 145.828 71.1562 145.941C71.1562 146.053 72.1688 146.391 72.2812 146.32C72.4078 146.236 73.6172 142.58 73.7719 141.778C73.8422 141.412 73.8141 141.342 73.3922 141.202C72.8438 141.019 72.8859 141.019 72.7734 141.187Z" fill="#22ACAC"/>
<path d="M106.537 141.216C106.2 141.342 106.158 141.413 106.228 141.778C106.383 142.58 107.592 146.236 107.719 146.32C107.873 146.419 108.844 146.025 108.83 145.87C108.801 145.491 107.198 141.131 107.086 141.103C107.016 141.089 106.762 141.131 106.537 141.216Z" fill="#22ACAC"/>
<path d="M77.9072 143.944C77.7384 144.717 77.4853 145.828 77.3447 146.419C77.2181 147.009 77.1478 147.558 77.19 147.628C77.3306 147.853 78.2869 147.966 78.3572 147.769C78.5259 147.333 79.3556 142.875 79.2853 142.805C79.2431 142.763 78.99 142.692 78.7087 142.636L78.2166 142.566L77.9072 143.944Z" fill="#22ACAC"/>
<path d="M100.942 142.692C100.618 142.777 100.618 142.819 101.11 145.322C101.687 148.177 101.603 147.966 102.207 147.853C102.488 147.797 102.77 147.698 102.812 147.628C102.854 147.558 102.784 147.009 102.657 146.419C102.517 145.828 102.263 144.717 102.095 143.958C101.771 142.509 101.743 142.481 100.942 142.692Z" fill="#22ACAC"/>
<path d="M83.8539 143.606C83.7414 143.789 83.5023 145.547 83.3055 147.684L83.207 148.781H83.868C84.4023 148.781 84.5148 148.739 84.5148 148.528C84.5148 148.387 84.6133 147.234 84.7398 145.983C84.8523 144.717 84.9367 143.677 84.9086 143.648C84.8805 143.634 84.6695 143.564 84.4164 143.522C84.1211 143.452 83.9383 143.48 83.8539 143.606Z" fill="#22ACAC"/>
<path d="M95.3868 143.536C95.0071 143.606 95.0212 143.409 95.2743 146.039C95.3868 147.192 95.4852 148.289 95.4852 148.458C95.4852 148.753 95.5555 148.781 96.1321 148.781H96.793L96.6946 147.684C96.4977 145.575 96.2587 143.789 96.1462 143.606C96.0337 143.438 95.9493 143.423 95.3868 143.536Z" fill="#22ACAC"/>
<path d="M89.2273 146.7C89.1851 148.275 89.157 150.089 89.1851 150.75L89.2273 151.945H90.0008H90.7742L90.8164 150.75C90.8445 150.089 90.8164 148.275 90.7742 146.7L90.6758 143.859H90.0008H89.3258L89.2273 146.7Z" fill="#22ACAC"/>
</svg>
