<svg width="2005" height="1257" viewBox="0 0 2005 1257" fill="none" xmlns="http://www.w3.org/2000/svg">
<path d="M66.2644 2.26618C36.6569 8.68805 10.3391 34.5321 2.3498 65.0752C0.313307 73.0634 0 139.475 0 628.163V1182.17L3.28972 1192.82C7.83267 1207.7 15.352 1219.6 27.4144 1230.88C38.5367 1241.22 47.936 1246.7 64.8545 1252.34L75.8203 1256.1H1004.15H1932.48L1945.48 1250.77C1952.53 1247.8 1961.77 1243.1 1966 1240.43C1976.34 1233.7 1989.19 1219.6 1995.29 1208.17C2005.95 1188.12 2005.16 1236.05 2004.85 622.995L2004.38 68.0512L2001.09 59.4365C1995.29 44.0866 1991.22 37.8214 1980.57 26.544C1973.05 18.5558 1967.25 14.0135 1959.11 10.0977C1936.71 -0.86644 2023.18 -0.0832857 1001.02 0.0733452C229.811 0.0733452 74.4104 0.543238 66.2644 2.26618ZM1286.12 160.463C1286.12 178.946 1286.59 194.139 1287.38 194.139C1288 194.139 1293.96 186.621 1300.85 177.693L1313.23 161.247H1329.52H1345.81L1342.68 165.789C1340.8 168.295 1334.06 176.91 1327.64 184.741C1321.22 192.729 1315.89 199.778 1315.89 200.561C1315.89 201.344 1323.09 212.778 1332.02 225.935C1340.8 238.935 1348.32 250.213 1348.47 250.839C1348.79 251.623 1341.58 252.092 1332.49 252.092H1315.73L1308.37 240.189C1304.3 233.61 1298.19 224.682 1294.74 220.14L1288.47 212.152L1287.53 216.851C1286.91 219.357 1286.44 228.441 1286.28 236.899L1286.12 252.249L1272.5 251.779L1258.71 251.309L1258.24 188.97L1257.93 126.788H1272.03H1286.12V160.463ZM1015.27 133.053C1027.18 135.402 1034.23 139.475 1038.14 146.523C1044.1 156.861 1042.37 168.608 1033.13 180.669L1029.06 185.994L1035.64 190.537C1046.6 197.898 1048.79 201.971 1048.79 215.284C1048.79 225.465 1048.32 227.501 1044.1 233.453C1032.97 249.273 1020.75 252.562 977.517 251.779L953.236 251.309L952.766 221.549C952.453 205.103 952.766 178.163 953.236 161.56L954.333 131.487H980.65C995.063 131.487 1010.57 132.27 1015.27 133.053ZM1453.59 160.933C1477.56 204.633 1475.68 204.32 1475.68 164.692V131.487H1488.99H1502.15L1502.62 162.343C1502.93 179.416 1502.93 206.67 1502.62 222.803L1502.31 252.249L1487.89 251.779L1473.64 251.309L1457.35 221.549C1448.42 205.103 1438.08 186.777 1434.48 180.825L1427.9 169.861L1427.43 210.899L1427.11 252.092H1413.8H1400.48V191.79V131.487H1418.97H1437.3L1453.59 160.933ZM1118.51 161.403C1126.65 164.223 1134.17 170.331 1136.68 176.283C1138.4 180.199 1138.87 190.223 1138.87 216.851V252.092H1126.34C1115.06 252.092 1113.81 251.779 1112.08 248.49C1111.14 246.61 1110.05 244.887 1109.89 244.574C1109.58 244.261 1106.76 245.827 1103.31 248.02C1085.61 259.611 1066.18 256.008 1057.88 239.562C1049.58 223.429 1055.84 206.043 1072.45 198.838C1079.19 195.862 1097.2 192.573 1106.6 192.573C1113.65 192.573 1113.81 190.067 1107.54 183.958C1103.78 180.356 1101.12 179.259 1093.6 178.789C1085.45 178.163 1081.38 178.946 1063.52 184.115C1061.17 184.741 1061.01 183.488 1061.64 174.247C1062.11 168.452 1062.74 163.283 1063.21 162.813C1063.52 162.5 1068.53 161.247 1074.33 160.15C1086.39 157.957 1110.36 158.584 1118.51 161.403ZM1226.75 161.716C1231.61 164.379 1234.59 167.512 1237.25 172.681C1240.7 179.259 1241.17 182.392 1241.95 207.139C1242.26 222.019 1242.26 238.309 1241.64 243.165L1240.54 252.092H1227.54H1214.53L1213.44 222.646C1212.81 206.356 1211.87 191.006 1211.09 188.5C1209.99 184.271 1209.36 183.958 1201.38 183.488C1196.52 183.175 1190.88 183.801 1188.53 184.585L1184.3 186.308V219.2V252.092H1170.2H1156.1V206.67V161.247H1170.2C1184.14 161.247 1184.3 161.247 1184.3 165.162C1184.3 169.861 1184.77 170.018 1191.82 165.632C1205.13 157.487 1216.26 156.234 1226.75 161.716ZM1570.45 159.837C1583.61 161.873 1590.35 165.476 1595.83 173.62C1599.27 178.789 1599.43 180.042 1599.43 215.441V252.092H1586.12C1572.96 252.092 1572.8 252.092 1572.8 248.177C1572.8 245.984 1572.49 244.261 1572.17 244.261C1571.86 244.261 1566.22 246.767 1559.64 249.9C1546.48 256.165 1540.69 256.478 1529.88 251.309C1518.6 245.984 1512.18 228.128 1517.03 215.441C1521.89 202.754 1532.38 196.802 1555.57 194.139C1575.46 191.79 1574.99 191.946 1571.86 187.091C1566.22 178.476 1552.59 176.126 1535.2 180.825C1522.36 184.271 1522.67 184.428 1522.67 172.994V162.97L1528.62 161.873C1535.36 160.62 1550.09 158.584 1555.1 158.271C1556.98 158.271 1563.87 158.897 1570.45 159.837ZM1681.52 160.307C1684.34 161.403 1689.19 164.692 1692.33 167.355L1697.97 172.367L1705.96 166.885C1719.9 157.331 1730.71 156.078 1741.67 162.813C1751.39 168.765 1752.95 175.343 1754.05 214.971L1754.99 250.056L1741.36 251.309C1733.84 251.936 1727.26 251.936 1726.63 251.466C1726.16 250.839 1725.54 236.899 1725.54 220.296C1725.38 188.344 1724.6 183.958 1718.02 182.392C1716.14 181.922 1711.44 182.392 1707.52 183.645L1700.47 185.681L1700 217.947C1699.53 255.068 1701.1 252.092 1682.3 252.092H1671.81L1671.34 219.827C1670.71 187.874 1670.71 187.561 1666.79 184.428C1662.88 181.295 1657.55 181.452 1648.62 184.741L1644.86 186.308V219.2V252.092H1631.7C1619.48 252.092 1618.54 251.936 1617.6 248.49C1617.13 246.61 1616.66 226.248 1616.66 203.067V161.247H1630.76C1644.7 161.247 1644.86 161.247 1644.86 165.162C1644.86 169.861 1645.33 170.018 1652.38 165.632C1664.13 158.427 1672.9 156.704 1681.52 160.307ZM1834.1 163.126C1846.79 169.078 1852.27 179.102 1854.15 200.091L1855.25 211.368H1823.6C1800.42 211.368 1792.12 211.838 1792.12 213.248C1792.12 214.188 1793.53 218.104 1795.25 221.706C1799.48 230.321 1806.84 233.923 1819.53 233.923C1828.15 233.923 1832.85 232.514 1851.33 224.369C1852.74 223.742 1853.21 226.562 1853.21 235.49V247.237L1845.06 249.9C1840.52 251.309 1830.03 252.719 1821.72 253.189C1794.78 254.755 1777.86 246.924 1769.09 228.911C1765.33 221.236 1764.7 218.104 1764.7 206.67C1764.86 196.645 1765.64 191.633 1767.99 186.151C1772.38 176.753 1780.21 168.138 1788.04 164.066C1800.73 157.644 1821.57 157.174 1834.1 163.126ZM490.012 340.746C499.254 345.288 505.051 351.553 509.75 361.734C512.57 367.843 513.04 372.542 513.51 397.916L514.137 427.049L487.349 427.989C472.623 428.616 451.005 428.616 439.1 427.989L417.481 427.049L412.782 436.76C410.275 442.086 407.299 447.255 406.202 448.194C405.106 449.134 404.166 453.207 404.166 457.436C404.166 463.388 405.106 466.52 408.709 471.376C421.084 488.449 418.108 518.052 402.443 533.715C383.174 553.137 343.384 553.607 323.333 534.655C317.693 529.486 311.27 511.473 309.391 496.123C308.294 487.665 308.451 487.039 314.873 478.111C320.826 469.653 321.296 468.243 320.826 460.255L320.356 451.797L318.633 459.159C317.693 463.231 314.09 470.749 310.8 475.918L304.691 485.316L259.261 485.786C234.354 486.099 213.205 485.786 212.579 485.316C211.952 484.846 211.482 457.749 211.795 425.013L212.265 365.65L216.495 358.445C221.508 349.987 228.557 343.565 237.33 339.649C243.283 336.986 250.802 336.673 362.809 336.673H481.866L490.012 340.746ZM503.327 432.218H513.823L513.51 458.375L513.04 484.689L468.08 485.159L423.278 485.473L417.795 478.111C406.516 462.604 406.202 458.689 413.878 441.303L418.891 430.182L455.861 431.122C476.07 431.748 497.375 432.218 503.327 432.218ZM304.221 503.172C305.474 516.955 312.68 534.028 320.983 542.956C323.489 545.775 325.526 548.125 325.213 548.125C325.056 548.125 317.85 547.029 309.234 545.775C298.581 544.209 281.036 543.426 252.682 543.426H211.482V516.799V490.171L257.382 490.485L303.124 490.955L304.221 503.172ZM493.928 493.304H513.823V517.425V541.546L471.997 542.33C444.112 542.956 426.567 543.896 419.831 545.462C414.192 546.715 407.299 548.125 404.479 548.751L399.153 549.691L406.986 540.607C418.578 527.136 419.518 524.787 423.748 497.377L424.687 491.268L449.282 492.208C462.754 492.834 482.806 493.304 493.928 493.304ZM325.056 554.077C336.335 555.017 347.771 555.643 350.59 555.8L355.603 555.956V569.897V583.837L341.974 584.777C320.513 586.343 247.669 584.777 239.993 582.74C231.534 580.391 221.978 571.933 216.025 561.439C213.519 557.21 211.482 552.98 211.482 552.354C211.482 550.788 298.738 552.041 325.056 554.077ZM512.1 555.487C509.124 564.415 499.098 575.379 489.855 580.078L480.769 584.777H427.664C398.526 584.933 374.245 584.463 373.775 583.993C373.305 583.524 372.365 577.102 371.895 569.583L370.799 555.956H390.224C400.876 555.8 415.602 554.86 422.964 553.764C431.267 552.354 450.692 551.571 474.973 551.414L513.667 551.258L512.1 555.487ZM817.104 687.526H842.795V704.912C842.795 726.371 841.072 730.443 827.6 741.251L817.731 749.239L817.574 763.336C817.418 771.167 816.948 779.312 816.321 781.192L815.381 784.951L812.248 781.505C809.585 778.529 808.958 775.396 808.645 760.36L808.018 742.817L820.864 731.226L833.71 719.636L832.77 709.611C832.3 704.129 831.673 699.274 831.36 698.961C830.89 698.647 823.684 698.177 815.224 698.021C801.439 697.707 799.089 698.177 793.606 701.31C786.714 705.382 785.93 704.912 783.267 695.358C780.761 686.43 781.074 685.49 786.557 686.587C789.22 687.057 803.006 687.526 817.104 687.526ZM1090.78 686.9L1096.57 687.996V729.66C1096.57 752.528 1096.1 773.987 1095.63 777.119C1094.54 783.071 1094.54 783.071 1086.86 783.071H1079.03L1080.13 775.553C1080.75 771.481 1082.32 765.685 1083.57 762.709C1085.29 758.48 1085.61 753.938 1084.83 743.444L1083.73 729.817H1060.54C1040.81 729.817 1037.2 729.504 1036.42 727.311C1035.95 725.901 1035.48 716.503 1035.48 706.322V687.683L1041.43 687.057C1051.46 686.117 1084.51 685.96 1090.78 686.9ZM1554.63 689.093C1557.61 689.093 1557.61 690.033 1556.67 716.66L1555.57 744.383L1566.53 743.6C1572.49 743.13 1579.07 741.721 1580.95 740.468C1584.39 738.118 1584.55 737.492 1583.92 717.443C1583.45 698.021 1583.61 696.924 1586.27 697.864C1588 698.491 1590.19 699.587 1591.29 700.527C1593.64 702.406 1593.79 713.684 1591.44 725.901C1590.03 733.733 1590.19 735.612 1592.7 740.311C1595.36 745.323 1595.36 745.793 1592.7 750.335C1590.66 753.938 1590.03 758.794 1590.03 770.228C1589.88 784.011 1589.72 785.108 1587.68 782.445C1586.12 780.409 1585.33 775.71 1585.33 768.818C1585.33 753.311 1583.61 750.649 1573.43 749.239C1568.73 748.769 1561.21 748.769 1556.51 749.239L1548.05 750.335L1546.95 724.648C1545.7 697.551 1546.8 684.394 1549.77 687.37C1550.71 688.31 1552.91 689.093 1554.63 689.093ZM459.151 689.093C461.971 690.659 462.128 692.695 462.128 715.72V740.781H476.07H489.855L490.795 722.299C491.578 702.72 493.458 693.948 495.651 699.43C496.278 700.997 497.218 710.708 497.688 720.889C498.628 738.118 498.941 739.528 502.388 742.347L506.304 745.323L503.014 749.552C500.194 753.155 499.724 755.818 499.724 769.131C499.724 777.746 499.098 784.638 498.471 784.638C497.688 784.638 495.808 783.698 494.085 782.445C491.578 780.565 490.952 777.746 490.325 765.529L489.542 750.962L470.9 750.492L452.258 750.022L453.355 740.468C453.825 735.299 454.295 721.202 454.295 709.298C454.295 697.238 454.765 687.526 455.235 687.526C455.705 687.526 457.428 688.31 459.151 689.093ZM1153.91 689.093H1165.5L1165.66 705.852C1165.81 726.997 1166.6 730.13 1172.39 731.54C1174.9 732.323 1177.56 733.733 1178.19 734.829C1179.76 737.178 1180.07 765.529 1178.66 774.143C1178.03 777.902 1176.31 780.722 1174.27 781.818C1170.83 783.698 1132.29 784.168 1126.49 782.288C1121.33 780.722 1119.92 773.987 1120.39 753.311L1120.86 733.733L1126.65 730.6L1132.6 727.467V707.262V687.057L1137.46 688.153C1140.12 688.623 1147.64 689.093 1153.91 689.093ZM1261.06 690.189C1261.53 690.659 1262 698.804 1262.31 708.515C1262.94 725.588 1262.78 726.214 1258.71 731.07C1256.52 733.733 1251.19 738.431 1246.96 741.564L1239.29 747.203L1238.82 764.745L1238.35 782.288L1234.12 782.758C1229.1 783.385 1229.1 784.011 1229.73 758.01L1230.04 741.564L1241.64 730.6L1253.23 719.636V708.202V696.924H1239.44C1227.22 696.924 1215.47 698.961 1207.64 702.25C1205.45 703.19 1204.82 702.093 1204.51 695.671L1203.88 687.996L1232.08 688.779C1247.59 689.093 1260.59 689.876 1261.06 690.189ZM1303.04 689.876C1303.83 690.502 1303.2 691.912 1299.44 698.491C1297.72 701.31 1297.09 707.732 1297.09 721.359V740.311L1318.71 741.251C1330.46 741.721 1342.36 742.817 1344.87 743.6C1347.53 744.54 1348.94 745.323 1348 745.323C1347.06 745.48 1346.44 752.685 1346.44 763.806V782.288L1318.71 782.758C1293.49 783.071 1290.82 782.915 1289.57 780.409C1288.63 778.842 1288 757.227 1287.85 732.323L1287.69 687.057L1295.05 688.153C1298.97 688.623 1302.57 689.406 1303.04 689.876ZM1513.27 690.033C1514.06 690.816 1514.84 692.852 1515.15 694.575C1515.62 697.551 1514.68 697.707 1497.14 698.177L1478.65 698.647L1479.12 713.84L1479.59 729.034L1485.86 729.347C1489.3 729.66 1497.29 730.287 1503.72 730.757L1515.15 731.696L1514.53 756.444C1514.21 770.228 1513.59 781.818 1513.12 782.288C1511.24 784.011 1476.3 783.541 1469.88 781.505C1463.46 779.469 1452.18 769.914 1454.21 768.035C1454.68 767.565 1459.54 768.191 1465.02 769.758C1470.51 771.167 1480.22 772.734 1486.64 773.047C1503.25 774.3 1504.66 773.047 1504.5 756.601C1504.5 749.552 1503.87 743.444 1503.25 742.661C1502.62 742.034 1494.79 741.251 1485.86 741.094L1469.72 740.468L1468.63 718.853C1468 706.949 1468 695.045 1468.63 692.225L1469.72 687.057L1490.87 687.84C1502.46 688.31 1512.49 689.249 1513.27 690.033ZM1672.9 688.466L1682.61 689.563L1682.77 717.913C1682.77 733.576 1682.93 751.902 1682.93 758.794C1683.08 765.685 1682.61 773.987 1681.99 777.119L1680.73 783.071H1653.63C1626.69 783.071 1626.38 783.071 1625.44 779.469C1623.4 771.637 1623.24 771.637 1642.2 772.734C1651.75 773.204 1662.56 773.047 1666.01 772.42L1672.28 771.324L1672.75 760.36C1673.06 752.215 1672.43 747.986 1670.4 744.07L1667.58 738.745L1653.16 739.058C1645.17 739.215 1638.59 738.901 1638.59 738.118C1638.59 737.492 1638.12 735.456 1637.65 733.576C1636.87 730.443 1637.19 730.287 1653.32 731.07C1662.41 731.54 1669.93 731.383 1669.93 730.913C1669.93 730.443 1671.02 724.491 1672.28 717.756C1673.53 711.021 1674.63 703.503 1674.63 700.997V696.454L1661.15 697.551C1653.63 698.021 1643.14 698.021 1637.5 697.551C1628.57 696.611 1627.16 695.985 1625.12 692.069L1622.77 687.526H1642.98C1654.1 687.526 1667.58 687.996 1672.9 688.466ZM1765.01 689.719C1766.58 691.129 1766.58 735.769 1765.17 739.528C1764.07 742.034 1761.41 742.347 1740.42 742.347H1716.92L1717.08 754.408C1717.39 774.3 1715.67 773.047 1741.67 773.047L1764.23 772.89L1766.27 778.059L1768.46 783.071H1738.85H1709.09V756.131V729.347L1725.85 730.287C1743.08 731.226 1754.52 729.66 1757.65 725.901C1758.9 724.491 1759.06 719.323 1758.28 710.081L1757.18 696.454L1744.96 697.551C1738.38 698.021 1727.89 698.021 1721.93 697.551C1712.38 696.611 1710.81 695.985 1709.25 692.695C1708.31 690.659 1707.52 688.466 1707.52 687.996C1707.52 686.743 1763.6 688.31 1765.01 689.719ZM228.714 731.383V773.673H235.607C244.066 773.673 244.379 773.047 244.379 754.721C244.379 747.046 244.693 740.781 245.163 740.781C245.476 740.781 247.669 741.564 249.862 742.661L253.935 744.383L253.465 763.336L252.995 782.288L226.051 782.758L199.263 783.071L195.817 778.372L192.527 773.673H205.059C211.952 773.673 217.905 773.047 218.375 772.264C218.845 771.481 219.785 754.721 220.255 734.829L221.351 698.961L210.856 697.707C203.18 696.924 199.263 695.671 196.13 692.852L191.9 689.249L210.386 689.093H228.714V731.383ZM334.925 691.755C336.805 696.454 336.178 733.419 334.142 736.865C332.419 739.841 330.695 739.998 309.86 739.998H287.459L288.086 755.661C288.399 764.276 288.869 771.637 289.339 772.107C289.652 772.577 300.618 773.047 313.464 773.36L336.805 773.83V778.529V783.071H307.824H278.843L279.156 757.54L279.626 732.166L300.775 731.853C331.479 731.226 328.972 732.793 328.972 713.371V696.924H305.944C286.832 696.924 282.603 696.454 280.096 694.262C278.53 692.852 277.277 691.129 277.277 690.346C277.277 689.719 289.966 689.093 305.474 689.093C331.009 689.093 333.828 689.406 334.925 691.755ZM417.638 690.033C420.928 690.816 420.928 691.599 420.771 734.986C420.614 759.263 419.988 780.095 419.361 781.035C418.421 782.601 411.372 783.071 393.043 783.071H367.979L364.063 778.686L359.99 774.457L385.681 773.673L411.215 772.89L411.685 757.071L412.155 741.094L396.803 740.468C385.367 739.998 380.355 739.215 377.221 737.022C374.715 735.456 372.835 733.576 372.835 732.793C372.835 732.01 380.511 731.383 390.067 731.383C406.672 731.383 407.299 731.226 409.805 727.467C411.372 724.961 412.625 718.696 413.252 710.238L414.035 696.768L393.827 697.081C377.378 697.394 372.365 696.768 366.726 694.575C360.93 692.069 360.303 691.442 362.809 690.502C366.256 689.093 412.782 688.779 417.638 690.033ZM672.826 693.478C672.826 697.238 672.67 697.238 654.028 697.394L635.23 697.707L635.7 709.455C635.856 715.877 636.326 723.552 636.796 726.214L637.736 731.383H654.811H671.73L672.983 737.962C674.236 745.793 674.236 773.83 672.826 778.059C672.357 779.939 670.007 781.505 667.03 782.132C659.668 783.541 635.856 783.228 629.747 781.505C624.264 780.095 612.672 769.914 614.395 768.191C614.865 767.721 619.721 768.505 625.204 769.914C635.23 772.577 660.451 773.83 663.427 771.794C664.367 771.324 664.837 764.745 664.524 755.818L664.054 740.938L646.509 740.468L628.964 739.998L628.494 725.901C628.18 718.069 628.494 706.635 628.964 700.37L630.06 688.936L651.365 689.406C672.67 689.876 672.826 689.876 672.826 693.478ZM714.34 690.816C714.34 691.755 712.93 694.262 711.207 696.454C708.387 700.057 708.074 702.876 708.074 720.576V740.781H725.932C735.645 740.781 746.924 741.251 750.997 741.721L758.359 742.817L757.889 762.553L757.419 782.288L735.488 782.758C723.426 783.071 710.737 782.758 707.134 782.288L700.711 781.348L699.771 768.505C699.144 761.456 699.144 740.624 699.771 722.299L700.711 689.093H707.604C711.363 689.093 714.34 689.876 714.34 690.816ZM913.29 710.238V731.383H917.676C925.978 731.383 926.292 732.323 925.508 755.034C925.039 766.625 924.255 777.276 923.472 778.686C922.532 781.192 919.712 781.505 898.564 781.505C868.643 781.505 868.643 781.505 867.233 764.432C866.607 757.697 866.607 747.829 867.233 742.661C868.173 734.202 868.643 733.106 873.343 730.913C879.452 727.937 880.392 724.335 880.392 703.816V689.093H896.841H913.29V710.238ZM251.429 825.988C264.431 831.47 263.021 844.314 247.512 861.7C243.283 866.556 240.306 870.785 240.776 871.411C241.246 871.881 245.789 872.351 250.645 872.351C255.972 872.351 260.671 873.291 262.551 874.7C265.214 876.737 263.804 876.893 247.982 877.05C231.22 877.05 230.281 876.893 230.281 873.917C230.281 872.194 234.51 866.086 239.836 860.447C258.478 840.398 257.695 827.868 237.957 831.627C227.617 833.663 227.931 833.663 230.437 830.53C232.787 827.868 240.62 823.952 244.066 823.795C245.163 823.795 248.452 824.735 251.429 825.988ZM294.038 826.771C300.618 830.844 301.715 835.073 297.955 842.278L294.978 848.073L298.738 855.278C302.341 862.17 302.498 862.796 300.148 868.122C296.075 878.146 280.566 882.062 271.95 875.327C269.757 873.604 267.877 871.568 267.877 870.941C267.877 870.315 272.107 870.471 277.433 871.411C290.122 873.604 292.159 872.194 292.159 861.23V852.772L286.362 852.302C283.073 851.989 280.41 851.362 280.41 850.736C280.566 850.109 283.386 847.76 286.676 845.41C291.219 842.278 292.942 839.928 292.942 837.109C292.942 831.784 287.772 829.904 277.12 831.157C267.877 832.253 267.564 829.904 276.337 825.988C283.073 823.012 288.242 823.325 294.038 826.771ZM340.251 854.025C342.444 855.748 343.071 857.314 341.974 857.941C339.155 859.82 336.805 865.772 336.805 871.411C336.805 875.953 336.178 877.05 333.672 877.05C330.852 877.05 330.539 875.953 330.539 868.435V859.82H319.103C312.68 859.82 307.197 859.351 306.571 858.881C304.691 857.001 315.03 842.904 325.369 833.037L336.022 823.012L336.492 837.109C336.805 849.326 337.275 851.519 340.251 854.025ZM216.652 872.977L221.665 875.953L216.182 877.206C210.856 878.46 195.817 877.52 195.817 875.953C195.817 875.484 197.54 873.917 199.576 872.194C203.963 868.748 205.529 861.074 204.119 848.386C203.336 840.711 202.553 838.832 199.42 837.422C194.25 835.073 194.877 833.663 203.336 829.434L210.699 825.675L211.169 847.917L211.639 870.001L216.652 872.977ZM939.137 855.435C947.127 862.483 945.717 877.99 936.631 882.532C931.775 885.195 928.798 884.412 921.592 879.243L916.579 875.484L913.603 879.399C910.94 882.689 910.313 882.845 909.53 880.809C909.06 879.399 908.59 876.267 908.59 873.761C908.59 868.435 906.553 867.965 903.264 872.664L900.914 875.953L897.781 872.194L894.804 868.435L893.551 876.893C892.455 884.881 892.298 885.038 890.418 881.592C888.225 877.676 887.598 864.676 889.165 858.567C890.418 854.338 895.431 854.025 896.528 858.254C897.781 863.423 902.01 863.736 905.614 859.194C909.373 854.495 911.253 854.182 915.013 857.628C917.676 859.977 918.146 859.977 922.689 856.061C928.798 851.049 933.811 850.892 939.137 855.435ZM956.213 859.82C959.502 864.049 962.792 867.652 963.575 867.652C964.359 867.652 964.985 864.833 964.985 861.387C964.985 857.941 965.768 855.122 966.552 855.122C967.492 855.122 968.118 860.917 968.118 869.218C968.118 876.893 967.805 883.315 967.335 883.315C966.865 883.315 963.732 878.929 960.442 873.604L954.333 864.049L953.079 870.158L951.826 876.267L950.73 869.218C949.476 861.857 949.007 851.989 949.79 851.989C950.103 851.989 952.923 855.435 956.213 859.82ZM1000.7 856.375C1001.64 857.784 1002.58 860.134 1002.58 861.7C1002.58 863.893 1003.84 864.519 1008.85 864.519C1014.8 864.519 1015.11 864.206 1015.11 859.82C1015.11 857.158 1015.74 855.122 1016.52 855.122C1017.93 855.122 1019.81 867.652 1019.81 877.363C1019.81 881.905 1020.28 883.002 1022.16 882.375C1024.2 881.592 1026.08 876.423 1030.78 858.567C1032.82 850.423 1035.17 850.266 1043 857.471L1049.11 862.796L1053.96 857.471C1056.94 854.025 1060.07 851.989 1062.58 851.989C1070.26 851.989 1080.75 854.025 1079.97 855.278C1079.5 856.061 1078.25 856.688 1076.99 856.688C1075.74 856.688 1072.92 857.471 1070.73 858.254C1065.24 860.29 1067.59 863.736 1075.9 865.303L1081.69 866.556L1075.43 867.965C1065.24 870.158 1064.93 870.315 1066.81 873.761C1067.59 875.484 1071.67 877.833 1075.9 879.086L1083.26 881.436L1073.55 881.592L1063.68 881.749V872.664C1063.68 867.495 1062.74 862.327 1061.64 860.604C1059.6 857.941 1059.29 857.941 1056.16 861.074C1054.43 862.796 1052.08 868.279 1051.14 873.447L1049.11 882.532L1045.66 871.881C1041.75 859.664 1037.83 854.495 1035.48 858.254C1034.54 859.507 1032.03 866.556 1029.84 873.917C1027.49 881.279 1025.45 887.701 1024.98 888.327C1024.67 889.11 1022.32 887.231 1019.66 884.568C1016.52 881.122 1015.11 877.833 1015.11 874.387C1015.11 869.375 1014.8 869.218 1009 869.218C1002.58 869.218 1001.17 871.098 1000.86 880.182C1000.55 889.267 998.039 877.52 998.039 866.399C997.882 855.435 997.726 855.122 994.123 855.122C988.17 855.122 985.35 860.604 985.35 871.881C985.35 879.243 984.723 881.749 983.157 881.749C981.59 881.749 981.12 879.243 981.12 871.411C981.277 862.013 980.807 860.604 977.047 857.314L972.818 853.712L978.771 853.242C988.17 852.302 998.509 853.712 1000.7 856.375ZM1097.98 856.844C1100.49 864.049 1100.33 864.519 1094.38 864.519H1088.9L1091.56 858.254C1092.97 854.808 1094.69 851.989 1095.32 851.989C1095.79 851.989 1097.04 854.182 1097.98 856.844ZM1121.17 853.555H1126.81L1125.87 863.266C1125.24 870.471 1125.55 873.917 1127.28 876.11C1131.51 881.905 1129.47 882.062 1122.58 876.423C1118.82 873.291 1115.22 870.785 1114.75 870.785C1114.28 870.785 1113.81 873.291 1113.81 876.267C1113.81 880.026 1113.02 881.749 1111.46 881.749C1108.79 881.749 1108.32 874.544 1110.2 860.134C1110.83 853.868 1111.61 851.989 1113.34 852.615C1114.59 853.242 1118.19 853.555 1121.17 853.555ZM1095.48 870.001C1097.36 868.748 1099.71 867.652 1100.65 867.652C1102.53 867.652 1108.48 879.713 1107.38 880.966C1106.91 881.279 1103.94 879.869 1100.8 877.52L1095.01 873.447L1090.31 876.737C1087.8 878.616 1085.29 880.182 1084.83 880.182C1083.1 880.182 1084.2 875.953 1087.49 870.785C1090.78 865.772 1091.09 865.616 1091.56 868.905C1092.03 872.194 1092.34 872.194 1095.48 870.001ZM885.092 935.003V969.462H888.695C895.274 969.462 897.937 964.607 897.781 953.172C897.781 943.148 897.937 942.835 901.541 942.835C905.457 942.835 905.457 942.991 905.457 957.558V972.281L900.131 973.221C897.154 973.848 888.538 974.318 880.862 974.318C869.897 974.474 865.667 973.848 861.437 971.655L856.111 968.679L866.45 968.209C875.693 967.739 877.103 967.426 877.886 964.293C878.356 962.414 878.826 948.63 878.826 933.75V906.81H869.583C861.751 906.81 860.341 906.34 859.557 903.677C858.774 900.701 859.557 900.544 871.933 900.544H885.092V935.003ZM1032.97 909.472C1024.36 929.051 1007.91 956.618 996.786 969.932C993.809 973.535 993.183 973.848 993.183 971.498C993.339 966.956 998.666 956.305 1013.08 931.871C1025.92 910.256 1032.97 900.544 1035.79 900.544C1036.42 900.544 1035.17 904.617 1032.97 909.472ZM1172.39 901.954C1173.96 902.111 1172.55 967.896 1170.98 973.535C1170.04 976.51 1169.42 976.824 1164.72 975.257C1160.02 973.848 1159.55 973.221 1160.18 968.836C1162.68 949.1 1163.78 935.786 1162.68 934.69C1162.06 934.064 1153.44 933.28 1143.57 933.124L1125.55 932.654L1125.08 918.714C1124.77 911.039 1124.93 903.99 1125.24 903.051C1125.71 901.954 1133.54 901.484 1148.43 901.484C1160.8 901.641 1171.61 901.798 1172.39 901.954ZM670.32 918.87C670.633 923.099 673.14 920.593 676.743 913.075C683.166 899.291 684.732 901.171 679.406 916.364C676.743 924.509 673.766 931.088 672.826 931.088C670.79 931.088 664.681 915.738 663.584 907.593L662.644 901.328L666.404 909.159C668.597 913.388 670.32 917.931 670.32 918.87ZM697.891 907.75C696.325 908.846 694.288 910.099 693.348 910.412C692.252 910.726 692.252 912.292 693.818 915.581L695.855 920.123L698.831 916.364C702.277 912.135 702.277 912.135 704.47 918.557C705.41 921.063 706.664 924.509 707.29 926.075C708.387 928.581 707.76 928.581 701.181 925.449L693.975 921.846L689.275 926.389C683.636 931.871 683.479 930.931 688.335 916.521C693.348 901.798 693.505 901.798 697.421 903.834C700.711 905.557 700.711 905.713 697.891 907.75ZM714.183 917.304L714.34 927.172L722.172 927.328C726.559 927.485 730.945 927.642 732.041 927.798C734.078 927.955 734.078 927.798 732.355 912.448C731.415 902.737 731.572 902.111 734.548 902.111C737.681 902.111 737.838 902.894 737.838 917.147V932.341L730.632 931.244C726.559 930.774 720.292 930.304 716.533 930.304H709.64V921.063C709.64 916.051 710.11 909.629 710.737 906.653C711.52 902.267 711.833 901.954 712.93 904.46C713.556 906.183 714.183 911.979 714.183 917.304ZM763.529 905.713C770.892 910.569 770.108 922.786 762.276 927.955C760.082 929.365 755.54 930.931 751.936 931.401L745.67 932.341V916.991V901.641L752.72 902.424C756.636 902.894 761.492 904.46 763.529 905.713ZM971.251 915.738C971.251 923.413 970.781 932.184 970.311 935.317L969.215 941.269H950.73H932.088V955.365V969.462L947.44 969.149C955.743 968.992 964.359 969.462 966.552 970.245C970.311 971.498 970.155 971.655 964.202 972.751C960.756 973.378 950.73 974.004 941.957 974.004L925.822 974.161V954.739V935.317L933.028 934.22C936.944 933.75 945.403 933.75 951.67 934.22C962.635 935.317 962.949 935.16 963.889 931.714C964.515 929.678 964.985 923.099 964.985 917.147V906.34L952.14 907.436C939.137 908.376 928.485 906.966 925.352 903.834C924.099 902.581 930.365 902.111 947.44 902.111H971.251V915.738ZM1107.23 920.123C1107.7 936.726 1105.35 975.257 1103.78 976.824C1103.47 977.294 1101.12 976.667 1098.61 975.414C1093.6 973.065 1093.6 972.125 1095.63 947.847L1096.89 933.437H1077.93H1058.98V917.774V901.954L1082.95 902.424L1106.76 902.894L1107.23 920.123ZM796.896 931.401C804.885 934.533 810.995 937.509 810.682 938.136C809.898 939.389 787.653 949.1 780.604 951.293C777.001 952.389 777.001 952.233 777.001 938.136C777.001 924.979 777.314 923.726 779.821 924.822C781.231 925.292 789.063 928.425 796.896 931.401ZM694.601 942.835C697.421 949.883 697.891 955.365 695.698 955.365C694.758 955.365 693.975 957.715 693.661 960.378C693.348 963.823 692.252 965.703 690.528 966.016C688.022 966.486 687.709 965.233 687.709 955.052C687.709 936.1 690.215 931.871 694.601 942.835ZM711.05 954.269C711.207 964.763 710.893 966.486 708.7 966.016C707.29 965.703 705.254 962.884 704.157 959.438C702.904 956.148 701.337 952.703 700.554 951.919C699.458 950.823 700.711 948.004 703.844 943.775C709.953 935.63 710.893 937.039 711.05 954.269ZM677.526 942.835C676.273 945.341 674.706 951.919 674.08 957.245C672.983 967.113 672.983 967.113 671.887 960.847C671.103 957.402 670.633 951.606 670.633 947.847C670.477 942.052 670.007 941.269 667.03 941.269C664.054 941.269 663.897 940.955 665.777 939.702C667.03 938.919 670.79 938.136 674.08 938.136H680.033L677.526 942.835ZM734.861 941.425C736.114 944.088 736.114 946.281 734.705 950.666C733.138 955.522 733.138 957.245 735.331 961.317C739.091 968.679 738.464 968.836 730.788 962.57L723.896 956.775L721.232 961.787C717.629 968.836 715.906 965.233 715.906 950.196V938.136H724.522C731.572 938.136 733.295 938.762 734.861 941.425ZM746.924 949.1C747.394 960.221 748.96 963.197 754.443 963.197C758.359 963.197 759.299 960.221 760.082 946.124C760.396 941.895 761.336 938.919 762.746 938.449C764.469 937.823 764.782 939.859 764.155 949.57C763.216 964.45 761.492 966.956 752.25 965.86C748.647 965.546 745.2 964.763 744.73 964.45C744.417 963.98 743.634 957.871 743.007 950.666C742.224 939.859 742.381 937.823 744.26 938.449C745.827 938.919 746.61 942.208 746.924 949.1ZM241.716 1065.79C246.259 1067.67 247.826 1069.39 249.236 1074.4C250.332 1077.85 250.802 1081.14 250.176 1081.61C249.706 1082.08 246.259 1080.67 242.5 1078.63C231.534 1072.21 225.268 1071.74 216.965 1076.75C213.049 1078.95 209.132 1082.71 208.192 1084.9C205.529 1091.79 205.999 1112.15 208.819 1117.79C214.615 1128.91 225.894 1132.2 237.8 1126.25C248.609 1120.77 250.645 1120.61 250.645 1125.15C250.645 1128.44 251.429 1129.23 254.249 1129.23C257.538 1129.23 258.165 1127.97 260.045 1120.14C261.141 1115.29 264.118 1105.57 266.624 1098.68C269.287 1091.79 272.89 1081.61 274.927 1075.97L278.373 1065.79H284.953H291.689L303.124 1097.9C309.391 1115.6 315.03 1132.36 315.657 1135.02C316.597 1139.72 316.283 1140.19 312.994 1140.19C307.511 1140.19 305.004 1138 300.775 1128.91L296.858 1120.61H284.483H272.264L268.347 1130.32C264.744 1139.25 263.961 1140.19 259.888 1140.19C257.068 1140.19 254.562 1138.94 252.682 1136.43L249.862 1132.83L243.753 1136.9C238.583 1140.19 235.763 1140.97 227.147 1140.97C218.218 1140.97 215.555 1140.19 209.132 1136.27C195.817 1127.97 189.707 1109.18 194.25 1089.91C197.54 1076.13 199.733 1073 210.386 1067.98C221.508 1062.81 232.63 1062.03 241.716 1065.79ZM584.317 1068.77C593.56 1074.87 598.416 1085.68 598.416 1100.56C598.416 1119.2 596.066 1126.72 588.39 1132.98C580.401 1139.72 575.075 1141.76 566.615 1141.76C557.843 1141.6 548.914 1137.37 541.394 1129.54C535.285 1123.12 535.285 1123.12 534.502 1107.77C533.718 1090.07 535.598 1081.45 541.551 1074.25C551.42 1062.66 571.158 1059.99 584.317 1068.77ZM623.167 1067.83C624.421 1069.55 625.047 1078.32 625.047 1099V1127.5L641.183 1127.97L657.161 1128.44V1133.92V1139.41L645.412 1139.88C638.989 1140.19 628.494 1139.88 622.384 1139.41L610.948 1138.31V1123.27C610.948 1114.82 611.418 1098.06 612.045 1085.84L612.985 1063.44L617.058 1064.38C619.251 1065.01 622.071 1066.42 623.167 1067.83ZM359.05 1066.57C362.183 1067.51 366.726 1070.49 368.919 1073.15C372.679 1077.54 373.148 1079.26 372.522 1086.15C372.052 1091.79 370.172 1096.96 366.726 1102.6L361.713 1110.9L367.822 1117.32C375.185 1125 385.367 1137.84 385.367 1139.25C385.367 1139.72 382.234 1140.19 378.318 1140.19C371.269 1140.19 371.269 1140.19 358.423 1124.53C346.361 1109.96 345.264 1109.02 342.288 1111.06C339.625 1112.78 339.155 1115.13 338.685 1126.72C338.215 1139.09 338.058 1140.19 335.082 1140.19C333.359 1140.19 330.539 1139.41 328.816 1138.62C325.839 1136.9 325.839 1135.49 326.466 1101.35C326.936 1081.77 327.249 1065.63 327.406 1065.32C327.562 1064.22 354.193 1065.32 359.05 1066.57ZM433.147 1069.24C445.522 1075.81 451.162 1085.68 451.162 1100.56C451.005 1115.29 448.969 1122.65 443.329 1128.44C436.28 1135.65 426.724 1138.78 408.552 1139.72L393.2 1140.66V1102.6V1064.69L410.119 1065.32C423.278 1065.79 428.29 1066.73 433.147 1069.24ZM476.226 1079.1V1093.2H491.892H507.557V1079.1V1065.01H513.823H520.089V1101.03V1137.06H514.607H509.28L508.81 1120.3L508.34 1103.54L492.675 1103.38H477.01L476.54 1120.92C476.07 1139.41 473.563 1145.05 472.78 1129.54L472.153 1120.61L470.9 1129.23C469.49 1137.53 469.334 1137.68 467.924 1133.14C467.141 1130.48 466.201 1114.19 465.731 1096.65L464.791 1065.01H470.587H476.226V1079.1ZM701.024 1066.73C704.784 1067.67 710.737 1070.8 714.026 1073.78C729.848 1087.25 729.848 1116.38 713.87 1130.32C706.507 1136.74 699.614 1138.62 681.912 1138.62H667.344V1101.82V1065.01H680.816C688.179 1065.01 697.264 1065.79 701.024 1066.73ZM786.4 1069.71V1074.4H769.168H751.936V1083.8V1093.04L768.072 1093.51L784.05 1093.98V1098.68V1103.38L768.228 1103.22H752.25L751.31 1114.66C750.683 1121.08 750.683 1126.88 751.153 1127.66C751.623 1128.6 759.769 1129.23 769.325 1129.23H786.4V1133.92V1138.62H762.902H739.404V1101.82V1065.01H762.902H786.4V1069.71ZM836.059 1067.67C850.315 1074.4 850.941 1090.85 837.626 1105.26C835.433 1107.77 834.963 1109.33 836.059 1110.74C836.999 1111.84 842.482 1118.73 848.435 1126.09C857.834 1138 858.617 1139.41 855.641 1139.88C849.532 1140.82 841.542 1135.33 831.986 1123.74C826.817 1117.32 820.394 1111.06 818.044 1109.8L813.501 1107.45L812.405 1117.01C811.935 1122.18 811.465 1129.23 811.465 1132.51C811.465 1138.47 811.308 1138.62 805.982 1138.62H800.499V1101.82V1065.01H815.538C826.347 1065.01 832.143 1065.79 836.059 1067.67Z" fill="#22ACAC" fill-opacity="0.2"/>
<path d="M983.789 165.32V178.79L994.911 178.164C1003.53 177.694 1006.5 176.91 1008.23 174.561C1011.36 170.332 1011.05 160.621 1007.76 157.801C1005.09 155.452 1002.9 154.826 989.742 152.633L983.789 151.693V165.32Z" fill="#22ACAC" fill-opacity="0.2"/>
<path d="M983.789 214.344V230.164H992.092C1002.43 230.164 1011.36 227.657 1015.28 223.742C1018.25 220.766 1019.19 212.621 1017.31 207.452C1015.59 203.223 1008.07 200.404 995.538 199.307L983.789 198.367V214.344Z" fill="#22ACAC" fill-opacity="0.2"/>
<path d="M1105.98 209.488C1103.78 209.802 1098.3 211.055 1093.76 212.308C1084.67 214.814 1082.16 218.26 1083.73 226.404C1085.3 235.019 1093.6 237.212 1105.04 232.043L1111.3 229.224L1110.83 219.199C1110.67 213.561 1110.36 209.018 1110.2 209.018C1110.05 208.862 1108.17 209.175 1105.98 209.488Z" fill="#22ACAC" fill-opacity="0.2"/>
<path d="M1560.58 210.585C1548.99 212.777 1544.13 216.693 1544.13 224.055C1544.13 233.923 1554.63 237.369 1568.57 231.886C1572.65 230.32 1572.8 229.694 1572.8 220.139C1572.8 214.5 1572.33 209.645 1571.71 209.332C1570.92 209.018 1566.07 209.488 1560.58 210.585Z" fill="#22ACAC" fill-opacity="0.2"/>
<path d="M1803.08 178.007C1800.1 179.573 1796.19 183.645 1794.15 187.091L1790.7 193.356L1794.15 194.453C1796.03 194.923 1804.49 195.393 1812.95 195.549C1828.3 195.706 1828.3 195.706 1827.2 192.103C1822.82 177.537 1814.04 172.368 1803.08 178.007Z" fill="#22ACAC" fill-opacity="0.2"/>
<path d="M1043.94 699.118C1043.47 700.214 1043.31 705.383 1043.62 710.395L1044.09 719.636H1063.2C1073.7 719.636 1082.79 719.01 1083.41 718.383C1084.2 717.757 1084.98 712.588 1085.29 707.106L1085.92 696.925H1065.4C1049.42 696.925 1044.56 697.395 1043.94 699.118Z" fill="#22ACAC" fill-opacity="0.2"/>
<path d="M1143.88 698.021C1140.28 698.648 1140.28 698.961 1141.37 713.841C1141.84 722.142 1142.94 729.661 1143.57 730.444C1144.35 731.227 1147.48 731.227 1150.46 730.757L1156.1 729.661V713.371V696.925L1151.87 697.081C1149.36 697.238 1145.92 697.708 1143.88 698.021Z" fill="#22ACAC" fill-opacity="0.2"/>
<path d="M1128.84 751.276C1128.37 757.228 1128.53 764.433 1129.16 767.409L1130.41 772.891H1148.27H1166.28L1166.75 757.854L1167.22 742.817L1152.81 741.878C1127.9 739.998 1130.1 739.215 1128.84 751.276Z" fill="#22ACAC" fill-opacity="0.2"/>
<path d="M1299.13 749.553C1296.78 750.649 1296.31 771.481 1298.66 772.891C1299.44 773.361 1308.53 773.361 1319.02 772.734L1337.98 771.638L1337.51 760.517L1337.04 749.396L1319.02 749.083C1309.15 748.926 1300.07 749.239 1299.13 749.553Z" fill="#22ACAC" fill-opacity="0.2"/>
<path d="M708.07 756.757C708.07 759.577 708.54 764.589 709.01 767.721C710.107 773.673 710.107 773.673 717.47 773.673C721.543 773.673 730.158 773.203 736.738 772.734L748.8 771.637V761.769V751.745H728.435H708.07V756.757Z" fill="#22ACAC" fill-opacity="0.2"/>
<path d="M888.223 706.948C888.223 712.43 888.693 720.262 889.319 724.334L890.259 731.696L896.369 730.913C899.815 730.443 902.791 729.816 902.948 729.503C903.261 729.346 903.888 722.298 904.358 713.997L905.298 698.803L900.442 697.864C888.693 695.514 888.223 695.827 888.223 706.948Z" fill="#22ACAC" fill-opacity="0.2"/>
<path d="M876.633 747.986C876.163 752.058 875.693 759.42 875.693 764.432V773.673H896.998H918.303L917.363 770.071C916.893 768.191 916.423 760.83 916.423 753.625V740.781H896.998H877.73L876.633 747.986Z" fill="#22ACAC" fill-opacity="0.2"/>
<path d="M322.709 842.904C313.623 853.241 313.623 853.555 322.709 853.555H330.542V844.94C330.542 840.241 330.072 836.325 329.445 836.482C328.662 836.482 325.685 839.458 322.709 842.904Z" fill="#22ACAC" fill-opacity="0.2"/>
<path d="M924.258 865.93C924.258 870.942 925.198 874.701 927.078 877.05L930.054 880.653L933.344 877.364C936.79 873.918 939.297 864.52 937.73 860.604C937.26 859.038 934.754 858.255 930.524 858.255H924.258V865.93Z" fill="#22ACAC" fill-opacity="0.2"/>
<path d="M1115.37 861.857C1115.37 865.146 1117.25 866.242 1119.6 864.363C1122.58 861.857 1122.11 859.82 1118.5 859.82C1116.78 859.82 1115.37 860.76 1115.37 861.857Z" fill="#22ACAC" fill-opacity="0.2"/>
<path d="M1131.66 909.002C1131.19 910.099 1131.04 914.171 1131.35 917.93L1131.82 924.822L1147.96 925.292L1163.93 925.762V916.207V906.809H1148.27C1136.21 906.809 1132.29 907.279 1131.66 909.002Z" fill="#22ACAC" fill-opacity="0.2"/>
<path d="M750.365 916.207C750.365 927.171 750.679 928.737 753.185 928.737C759.764 928.581 765.561 919.183 762.898 912.448C761.488 908.375 755.691 903.676 752.402 903.676C750.835 903.676 750.365 907.122 750.365 916.207Z" fill="#22ACAC" fill-opacity="0.2"/>
<path d="M1064.61 908.219C1064.14 908.846 1064.14 913.075 1064.77 917.617L1065.71 925.605H1080.91H1096.1L1097.04 917.617C1097.67 913.075 1097.67 908.846 1097.2 908.219C1096.73 907.436 1089.37 906.81 1080.91 906.81C1072.45 906.81 1065.08 907.436 1064.61 908.219Z" fill="#22ACAC" fill-opacity="0.2"/>
<path d="M721.698 945.81C720.758 949.569 721.698 950.666 725.615 950.666C727.651 950.666 728.434 949.569 728.434 946.75C728.434 941.894 722.952 941.268 721.698 945.81Z" fill="#22ACAC" fill-opacity="0.2"/>
<path d="M284.015 1083.02C281.979 1086.93 277.279 1103.07 277.279 1106.36C277.279 1108.39 279.002 1108.86 285.269 1108.86H293.258L292.318 1103.69C291.848 1101.03 290.125 1094.45 288.558 1089.28C286.052 1081.14 285.425 1080.36 284.015 1083.02Z" fill="#22ACAC" fill-opacity="0.2"/>
<path d="M557.688 1075.5C550.012 1079.57 546.723 1086.31 545.626 1100.25C544.686 1111.21 544.999 1112.31 549.072 1118.42C554.869 1126.56 558.785 1129.23 565.208 1129.23C571.63 1129.23 577.427 1126.25 583.379 1120.14C587.766 1115.44 587.766 1114.97 587.139 1102.29C586.356 1088.19 583.536 1080.67 577.427 1076.75C571.474 1072.84 563.798 1072.37 557.688 1075.5Z" fill="#22ACAC" fill-opacity="0.2"/>
<path d="M338.366 1086.93V1099.62L348.078 1099.15C357.634 1098.68 357.634 1098.68 359.671 1092.89C360.767 1089.75 361.864 1085.21 362.177 1082.86C362.647 1078.63 362.177 1078.32 353.248 1076.44C337.583 1073.15 338.366 1072.68 338.366 1086.93Z" fill="#22ACAC" fill-opacity="0.2"/>
<path d="M404.481 1100.87C404.95 1115.75 406.047 1128.44 406.674 1129.23C409.493 1131.89 427.195 1124.68 434.715 1117.79L442.077 1111.21L440.981 1103.07C438.474 1084.74 430.955 1077.07 412.94 1075.03L403.697 1073.93L404.481 1100.87Z" fill="#22ACAC" fill-opacity="0.2"/>
<path d="M678.305 1100.88C678.305 1124.21 678.618 1127.82 680.811 1128.76C685.354 1130.48 701.959 1126.41 706.189 1122.65C718.408 1111.37 716.371 1086.78 702.586 1078.95C699.923 1077.54 693.5 1075.81 688.174 1075.19L678.305 1074.09V1100.88Z" fill="#22ACAC" fill-opacity="0.2"/>
<path d="M813.037 1087.72V1101.19L818.99 1100.09C827.763 1098.53 832.305 1096.02 834.655 1091.32C838.728 1082.86 830.426 1074.4 817.737 1074.4H813.037V1087.72Z" fill="#22ACAC" fill-opacity="0.2"/>
</svg>
